G04 #@! TF.GenerationSoftware,KiCad,Pcbnew,(5.1.0)-1*
G04 #@! TF.CreationDate,2020-04-10T00:03:39+02:00*
G04 #@! TF.ProjectId,Heissluftballon,48656973-736c-4756-9674-62616c6c6f6e,rev?*
G04 #@! TF.SameCoordinates,Original*
G04 #@! TF.FileFunction,Copper,L2,Bot*
G04 #@! TF.FilePolarity,Positive*
%FSLAX46Y46*%
G04 Gerber Fmt 4.6, Leading zero omitted, Abs format (unit mm)*
G04 Created by KiCad (PCBNEW (5.1.0)-1) date 2020-04-10 00:03:39*
%MOMM*%
%LPD*%
G04 APERTURE LIST*
%ADD10C,2.200000*%
%ADD11R,2.200000X2.200000*%
%ADD12O,1.700000X1.700000*%
%ADD13R,1.700000X1.700000*%
%ADD14C,2.250000*%
%ADD15C,2.050000*%
%ADD16C,0.800000*%
%ADD17C,0.500000*%
%ADD18C,0.250000*%
%ADD19C,0.254000*%
G04 APERTURE END LIST*
D10*
X82490000Y-111000000D03*
D11*
X79950000Y-111000000D03*
D10*
X74000000Y-105040000D03*
D11*
X74000000Y-102500000D03*
D12*
X74000000Y-110000000D03*
D13*
X74000000Y-112540000D03*
D14*
X111460000Y-92540000D03*
X111460000Y-87460000D03*
X116540000Y-87460000D03*
X116540000Y-92540000D03*
D15*
X114000000Y-90000000D03*
D12*
X86380000Y-81000000D03*
X88920000Y-81000000D03*
X91460000Y-81000000D03*
D13*
X94000000Y-81000000D03*
D12*
X82540000Y-105040000D03*
X80000000Y-105040000D03*
X82540000Y-102500000D03*
D13*
X80000000Y-102500000D03*
D16*
X87200000Y-101200000D03*
X85800000Y-107200000D03*
X100600000Y-112200000D03*
X115800000Y-114000000D03*
X99000000Y-103000000D03*
X91975000Y-107225000D03*
X94475000Y-106675000D03*
X95400000Y-96800000D03*
X100000000Y-95800000D03*
X100400000Y-92800000D03*
X106000000Y-84100000D03*
X113600000Y-79200000D03*
X71400000Y-99600000D03*
X71400000Y-86400000D03*
X98299992Y-83600000D03*
X96475000Y-87000000D03*
X105800000Y-80100000D03*
X84987500Y-86212500D03*
X87950000Y-86350000D03*
X79000000Y-99600000D03*
X79200000Y-87200000D03*
X85000000Y-87800000D03*
X112200000Y-82100000D03*
X100000000Y-97400000D03*
X79601041Y-93198959D03*
X79400000Y-91000000D03*
X84200000Y-91000000D03*
X106275000Y-81325000D03*
X86000000Y-84524980D03*
X84800000Y-89400000D03*
X106275000Y-82625000D03*
X91500000Y-85500000D03*
X90200000Y-90000000D03*
X91800000Y-104000000D03*
X91400000Y-90000000D03*
X92600000Y-103000000D03*
X98475000Y-105200000D03*
X107800000Y-110400000D03*
X92600000Y-90000000D03*
X93400000Y-104000000D03*
X90100000Y-86300000D03*
X94800000Y-104500000D03*
X89000000Y-86200000D03*
X88987347Y-100212653D03*
X98100000Y-85600000D03*
X92054701Y-86332052D03*
D17*
X113600000Y-79200000D02*
X113600000Y-82900000D01*
X113600000Y-82900000D02*
X113000000Y-83500000D01*
X113000000Y-83500000D02*
X107750000Y-83500000D01*
X107150000Y-84100000D02*
X106000000Y-84100000D01*
X107750000Y-83500000D02*
X107150000Y-84100000D01*
X79200000Y-87200000D02*
X84400000Y-87200000D01*
X84400000Y-87200000D02*
X85000000Y-87800000D01*
X80451042Y-89851042D02*
X80451042Y-98148958D01*
X94000000Y-79650000D02*
X94000000Y-81000000D01*
X94400001Y-79249999D02*
X94000000Y-79650000D01*
X111349999Y-79249999D02*
X94400001Y-79249999D01*
X112200000Y-80100000D02*
X111349999Y-79249999D01*
X112200000Y-82100000D02*
X112200000Y-80100000D01*
X94000000Y-82974980D02*
X93300000Y-83674980D01*
X93300000Y-83674980D02*
X80125020Y-83674980D01*
X80125020Y-83674980D02*
X79200000Y-84600000D01*
X94000000Y-81000000D02*
X94000000Y-82974980D01*
X79200000Y-87200000D02*
X79200000Y-84600000D01*
X79200000Y-87200000D02*
X79200000Y-88600000D01*
X79200000Y-88600000D02*
X80451042Y-89851042D01*
X83742081Y-105040000D02*
X84400000Y-104382081D01*
X82540000Y-105040000D02*
X83742081Y-105040000D01*
X84400000Y-104382081D02*
X84400000Y-100800000D01*
X84400000Y-100800000D02*
X83200000Y-99600000D01*
X80451042Y-99051042D02*
X81000000Y-99600000D01*
X80451042Y-98148958D02*
X80451042Y-99051042D01*
X83200000Y-99600000D02*
X81000000Y-99600000D01*
X81000000Y-99600000D02*
X79000000Y-99600000D01*
X82540000Y-105040000D02*
X88940000Y-105040000D01*
X88940000Y-105040000D02*
X89600000Y-105700000D01*
X89600000Y-105700000D02*
X96200000Y-105700000D01*
X96200000Y-105700000D02*
X97100000Y-104800000D01*
X97100000Y-104800000D02*
X97100000Y-102200000D01*
X97100000Y-102200000D02*
X100000000Y-99300000D01*
X100000000Y-99300000D02*
X100000000Y-97400000D01*
X79601041Y-91201041D02*
X79400000Y-91000000D01*
X79601041Y-93198959D02*
X79601041Y-91201041D01*
X75555634Y-105040000D02*
X77200000Y-103395634D01*
X74000000Y-105040000D02*
X75555634Y-105040000D01*
X77200000Y-103395634D02*
X77200000Y-94000000D01*
X78001041Y-93198959D02*
X79601041Y-93198959D01*
X77200000Y-94000000D02*
X78001041Y-93198959D01*
D18*
X96036390Y-83863610D02*
X96036390Y-82863610D01*
X96036390Y-82863610D02*
X97575000Y-81325000D01*
X95650010Y-84249990D02*
X96036390Y-83863610D01*
X87413600Y-84249990D02*
X95650010Y-84249990D01*
X84074999Y-91000000D02*
X84074999Y-89051999D01*
X84074999Y-89051999D02*
X84526998Y-88600000D01*
X99175000Y-81325000D02*
X106275000Y-81325000D01*
X97575000Y-81325000D02*
X99175000Y-81325000D01*
X84526998Y-88600000D02*
X85800000Y-88600000D01*
X85800000Y-88600000D02*
X86549990Y-87850010D01*
X86549990Y-87850010D02*
X86549991Y-85113599D01*
X87138610Y-84524980D02*
X87206795Y-84456795D01*
X86000000Y-84524980D02*
X87138610Y-84524980D01*
X86549991Y-85113599D02*
X87206795Y-84456795D01*
X87206795Y-84456795D02*
X87413600Y-84249990D01*
X105709315Y-82625000D02*
X106275000Y-82625000D01*
X96911410Y-82625000D02*
X105709315Y-82625000D01*
X95836411Y-84699999D02*
X96486400Y-84050010D01*
X87600000Y-84700000D02*
X95836411Y-84699999D01*
X96486400Y-84050010D02*
X96486400Y-83050010D01*
X87000000Y-85300000D02*
X87600000Y-84700000D01*
X87000000Y-88400000D02*
X87000000Y-85300000D01*
X86000000Y-89400000D02*
X87000000Y-88400000D01*
X96486400Y-83050010D02*
X96911410Y-82625000D01*
X84800000Y-89400000D02*
X86000000Y-89400000D01*
X91265685Y-84700000D02*
X87600000Y-84700000D01*
X91500000Y-84934315D02*
X91265685Y-84700000D01*
X91500000Y-85500000D02*
X91500000Y-84934315D01*
X91800000Y-103434315D02*
X91800000Y-104000000D01*
X90200000Y-90000000D02*
X90200000Y-90565685D01*
X90200000Y-90565685D02*
X91699980Y-92065665D01*
X91699980Y-92065665D02*
X91699980Y-101899980D01*
X91699980Y-101899980D02*
X91699982Y-101899982D01*
X91699982Y-101899982D02*
X91699982Y-103334297D01*
X91699982Y-103334297D02*
X91800000Y-103434315D01*
X91400000Y-91000000D02*
X91400000Y-90000000D01*
X92149990Y-91749990D02*
X91400000Y-91000000D01*
X92149991Y-102549991D02*
X92149990Y-91749990D01*
X92600000Y-103000000D02*
X92149991Y-102549991D01*
X107800000Y-107000000D02*
X107800000Y-110400000D01*
X98475000Y-105200000D02*
X106000000Y-105200000D01*
X106000000Y-105200000D02*
X107800000Y-107000000D01*
X93400000Y-102200000D02*
X93400000Y-104000000D01*
X92600000Y-90000000D02*
X92600000Y-101400000D01*
X92600000Y-101400000D02*
X93400000Y-102200000D01*
X90100000Y-86300000D02*
X90100000Y-86865685D01*
X90100000Y-86865685D02*
X89450010Y-87515675D01*
X89450010Y-99477008D02*
X90400000Y-100426998D01*
X89450010Y-87515675D02*
X89450010Y-99477008D01*
X94800000Y-104500000D02*
X94300000Y-105000000D01*
X90800000Y-105000000D02*
X90400000Y-104600000D01*
X94300000Y-105000000D02*
X90800000Y-105000000D01*
X90400000Y-100426998D02*
X90400000Y-104600000D01*
X89000000Y-86765685D02*
X89000000Y-86200000D01*
X89000000Y-99663408D02*
X89000000Y-86765685D01*
X89000000Y-99663408D02*
X89000000Y-100200000D01*
X89000000Y-100200000D02*
X88987347Y-100212653D01*
X98000000Y-85700000D02*
X98100000Y-85600000D01*
X92054701Y-86332052D02*
X92686753Y-85700000D01*
X92686753Y-85700000D02*
X98000000Y-85700000D01*
D19*
G36*
X111315001Y-80466579D02*
G01*
X111315000Y-81561545D01*
X111282795Y-81609744D01*
X111204774Y-81798102D01*
X111165000Y-81998061D01*
X111165000Y-82201939D01*
X111204774Y-82401898D01*
X111282795Y-82590256D01*
X111373000Y-82725258D01*
X111373000Y-85000000D01*
X111375440Y-85024776D01*
X111382667Y-85048601D01*
X111394403Y-85070557D01*
X111410197Y-85089803D01*
X111429443Y-85105597D01*
X111451399Y-85117333D01*
X111475224Y-85124560D01*
X111500000Y-85127000D01*
X118340001Y-85127000D01*
X118340000Y-114340000D01*
X83365844Y-114340000D01*
X83410450Y-114295394D01*
X83540134Y-114101308D01*
X83629461Y-113885652D01*
X83675000Y-113656712D01*
X83675000Y-113423288D01*
X83629461Y-113194348D01*
X83540134Y-112978692D01*
X83410450Y-112784606D01*
X83245394Y-112619550D01*
X83195048Y-112585910D01*
X83311831Y-112537537D01*
X83595998Y-112347663D01*
X83837663Y-112105998D01*
X84027537Y-111821831D01*
X84158325Y-111506081D01*
X84225000Y-111170883D01*
X84225000Y-110829117D01*
X84158325Y-110493919D01*
X84027537Y-110178169D01*
X83837663Y-109894002D01*
X83595998Y-109652337D01*
X83311831Y-109462463D01*
X82996081Y-109331675D01*
X82660883Y-109265000D01*
X82319117Y-109265000D01*
X81983919Y-109331675D01*
X81668169Y-109462463D01*
X81567557Y-109529690D01*
X81501185Y-109448815D01*
X81404494Y-109369463D01*
X81294180Y-109310498D01*
X81174482Y-109274188D01*
X81050000Y-109261928D01*
X78850000Y-109261928D01*
X78725518Y-109274188D01*
X78605820Y-109310498D01*
X78495506Y-109369463D01*
X78398815Y-109448815D01*
X78319463Y-109545506D01*
X78260498Y-109655820D01*
X78224188Y-109775518D01*
X78211928Y-109900000D01*
X78211928Y-112100000D01*
X78224188Y-112224482D01*
X78260498Y-112344180D01*
X78319463Y-112454494D01*
X78398815Y-112551185D01*
X78495506Y-112630537D01*
X78605820Y-112689502D01*
X78725518Y-112725812D01*
X78850000Y-112738072D01*
X79076084Y-112738072D01*
X79029550Y-112784606D01*
X78899866Y-112978692D01*
X78810539Y-113194348D01*
X78765000Y-113423288D01*
X78765000Y-113656712D01*
X78810539Y-113885652D01*
X78899866Y-114101308D01*
X79029550Y-114295394D01*
X79074156Y-114340000D01*
X70660000Y-114340000D01*
X70660000Y-111690000D01*
X72511928Y-111690000D01*
X72511928Y-113390000D01*
X72524188Y-113514482D01*
X72560498Y-113634180D01*
X72619463Y-113744494D01*
X72698815Y-113841185D01*
X72795506Y-113920537D01*
X72905820Y-113979502D01*
X73025518Y-114015812D01*
X73150000Y-114028072D01*
X74850000Y-114028072D01*
X74974482Y-114015812D01*
X75094180Y-113979502D01*
X75204494Y-113920537D01*
X75301185Y-113841185D01*
X75380537Y-113744494D01*
X75439502Y-113634180D01*
X75475812Y-113514482D01*
X75488072Y-113390000D01*
X75488072Y-111690000D01*
X75475812Y-111565518D01*
X75439502Y-111445820D01*
X75380537Y-111335506D01*
X75301185Y-111238815D01*
X75204494Y-111159463D01*
X75094180Y-111100498D01*
X75013534Y-111076034D01*
X75097588Y-111000269D01*
X75271641Y-110766920D01*
X75396825Y-110504099D01*
X75441476Y-110356890D01*
X75320155Y-110127000D01*
X74127000Y-110127000D01*
X74127000Y-110147000D01*
X73873000Y-110147000D01*
X73873000Y-110127000D01*
X72679845Y-110127000D01*
X72558524Y-110356890D01*
X72603175Y-110504099D01*
X72728359Y-110766920D01*
X72902412Y-111000269D01*
X72986466Y-111076034D01*
X72905820Y-111100498D01*
X72795506Y-111159463D01*
X72698815Y-111238815D01*
X72619463Y-111335506D01*
X72560498Y-111445820D01*
X72524188Y-111565518D01*
X72511928Y-111690000D01*
X70660000Y-111690000D01*
X70660000Y-109643110D01*
X72558524Y-109643110D01*
X72679845Y-109873000D01*
X73873000Y-109873000D01*
X73873000Y-108679186D01*
X74127000Y-108679186D01*
X74127000Y-109873000D01*
X75320155Y-109873000D01*
X75441476Y-109643110D01*
X75396825Y-109495901D01*
X75271641Y-109233080D01*
X75097588Y-108999731D01*
X74881355Y-108804822D01*
X74631252Y-108655843D01*
X74356891Y-108558519D01*
X74127000Y-108679186D01*
X73873000Y-108679186D01*
X73643109Y-108558519D01*
X73368748Y-108655843D01*
X73118645Y-108804822D01*
X72902412Y-108999731D01*
X72728359Y-109233080D01*
X72603175Y-109495901D01*
X72558524Y-109643110D01*
X70660000Y-109643110D01*
X70660000Y-105915844D01*
X70704606Y-105960450D01*
X70898692Y-106090134D01*
X71114348Y-106179461D01*
X71343288Y-106225000D01*
X71576712Y-106225000D01*
X71805652Y-106179461D01*
X72021308Y-106090134D01*
X72215394Y-105960450D01*
X72380450Y-105795394D01*
X72414090Y-105745048D01*
X72462463Y-105861831D01*
X72652337Y-106145998D01*
X72894002Y-106387663D01*
X73178169Y-106577537D01*
X73493919Y-106708325D01*
X73829117Y-106775000D01*
X74170883Y-106775000D01*
X74506081Y-106708325D01*
X74821831Y-106577537D01*
X75105998Y-106387663D01*
X75347663Y-106145998D01*
X75495329Y-105925000D01*
X75512165Y-105925000D01*
X75555634Y-105929281D01*
X75599103Y-105925000D01*
X75599111Y-105925000D01*
X75729124Y-105912195D01*
X75895947Y-105861589D01*
X76049693Y-105779411D01*
X76184451Y-105668817D01*
X76212168Y-105635044D01*
X76450322Y-105396890D01*
X78558524Y-105396890D01*
X78603175Y-105544099D01*
X78728359Y-105806920D01*
X78902412Y-106040269D01*
X79118645Y-106235178D01*
X79368748Y-106384157D01*
X79643109Y-106481481D01*
X79873000Y-106360814D01*
X79873000Y-105167000D01*
X78679845Y-105167000D01*
X78558524Y-105396890D01*
X76450322Y-105396890D01*
X77795050Y-104052163D01*
X77828817Y-104024451D01*
X77857201Y-103989866D01*
X77939411Y-103889693D01*
X77956035Y-103858591D01*
X78021589Y-103735947D01*
X78072195Y-103569124D01*
X78085000Y-103439111D01*
X78085000Y-103439103D01*
X78089281Y-103395634D01*
X78085000Y-103352165D01*
X78085000Y-100093556D01*
X78196063Y-100259774D01*
X78340226Y-100403937D01*
X78509744Y-100517205D01*
X78698102Y-100595226D01*
X78898061Y-100635000D01*
X79101939Y-100635000D01*
X79301898Y-100595226D01*
X79490256Y-100517205D01*
X79538454Y-100485000D01*
X80956531Y-100485000D01*
X81000000Y-100489281D01*
X81043469Y-100485000D01*
X82833422Y-100485000D01*
X83515001Y-101166580D01*
X83515001Y-101379102D01*
X83369014Y-101259294D01*
X83111034Y-101121401D01*
X82831111Y-101036487D01*
X82612950Y-101015000D01*
X82467050Y-101015000D01*
X82248889Y-101036487D01*
X81968966Y-101121401D01*
X81710986Y-101259294D01*
X81484866Y-101444866D01*
X81460393Y-101474687D01*
X81439502Y-101405820D01*
X81380537Y-101295506D01*
X81301185Y-101198815D01*
X81204494Y-101119463D01*
X81094180Y-101060498D01*
X80974482Y-101024188D01*
X80850000Y-101011928D01*
X79150000Y-101011928D01*
X79025518Y-101024188D01*
X78905820Y-101060498D01*
X78795506Y-101119463D01*
X78698815Y-101198815D01*
X78619463Y-101295506D01*
X78560498Y-101405820D01*
X78524188Y-101525518D01*
X78511928Y-101650000D01*
X78511928Y-103350000D01*
X78524188Y-103474482D01*
X78560498Y-103594180D01*
X78619463Y-103704494D01*
X78698815Y-103801185D01*
X78795506Y-103880537D01*
X78905820Y-103939502D01*
X78986466Y-103963966D01*
X78902412Y-104039731D01*
X78728359Y-104273080D01*
X78603175Y-104535901D01*
X78558524Y-104683110D01*
X78679845Y-104913000D01*
X79873000Y-104913000D01*
X79873000Y-104893000D01*
X80127000Y-104893000D01*
X80127000Y-104913000D01*
X80147000Y-104913000D01*
X80147000Y-105167000D01*
X80127000Y-105167000D01*
X80127000Y-106360814D01*
X80356891Y-106481481D01*
X80631252Y-106384157D01*
X80881355Y-106235178D01*
X81097588Y-106040269D01*
X81268416Y-105811244D01*
X81299294Y-105869014D01*
X81484866Y-106095134D01*
X81710986Y-106280706D01*
X81968966Y-106418599D01*
X82248889Y-106503513D01*
X82467050Y-106525000D01*
X82612950Y-106525000D01*
X82831111Y-106503513D01*
X83111034Y-106418599D01*
X83369014Y-106280706D01*
X83595134Y-106095134D01*
X83732056Y-105928294D01*
X83742081Y-105929281D01*
X83785550Y-105925000D01*
X88573422Y-105925000D01*
X88943470Y-106295049D01*
X88971183Y-106328817D01*
X89004951Y-106356530D01*
X89004953Y-106356532D01*
X89010171Y-106360814D01*
X89105941Y-106439411D01*
X89259687Y-106521589D01*
X89375903Y-106556843D01*
X89426509Y-106572195D01*
X89441306Y-106573652D01*
X89556523Y-106585000D01*
X89556531Y-106585000D01*
X89600000Y-106589281D01*
X89643469Y-106585000D01*
X96156531Y-106585000D01*
X96200000Y-106589281D01*
X96243469Y-106585000D01*
X96243477Y-106585000D01*
X96373490Y-106572195D01*
X96540313Y-106521589D01*
X96694059Y-106439411D01*
X96828817Y-106328817D01*
X96856534Y-106295044D01*
X97529539Y-105622040D01*
X97557795Y-105690256D01*
X97671063Y-105859774D01*
X97815226Y-106003937D01*
X97984744Y-106117205D01*
X98173102Y-106195226D01*
X98373061Y-106235000D01*
X98576939Y-106235000D01*
X98776898Y-106195226D01*
X98965256Y-106117205D01*
X99134774Y-106003937D01*
X99178711Y-105960000D01*
X105685199Y-105960000D01*
X107040000Y-107314803D01*
X107040001Y-109696288D01*
X106996063Y-109740226D01*
X106882795Y-109909744D01*
X106804774Y-110098102D01*
X106765000Y-110298061D01*
X106765000Y-110501939D01*
X106804774Y-110701898D01*
X106882795Y-110890256D01*
X106996063Y-111059774D01*
X107140226Y-111203937D01*
X107309744Y-111317205D01*
X107498102Y-111395226D01*
X107698061Y-111435000D01*
X107901939Y-111435000D01*
X108101898Y-111395226D01*
X108290256Y-111317205D01*
X108459774Y-111203937D01*
X108603937Y-111059774D01*
X108717205Y-110890256D01*
X108795226Y-110701898D01*
X108835000Y-110501939D01*
X108835000Y-110298061D01*
X108795226Y-110098102D01*
X108717205Y-109909744D01*
X108603937Y-109740226D01*
X108560000Y-109696289D01*
X108560000Y-107037322D01*
X108563676Y-106999999D01*
X108560000Y-106962676D01*
X108560000Y-106962667D01*
X108549003Y-106851014D01*
X108505546Y-106707753D01*
X108434974Y-106575724D01*
X108390546Y-106521588D01*
X108363799Y-106488996D01*
X108363795Y-106488992D01*
X108340001Y-106459999D01*
X108311009Y-106436206D01*
X106563803Y-104689002D01*
X106540001Y-104659999D01*
X106424276Y-104565026D01*
X106292247Y-104494454D01*
X106148986Y-104450997D01*
X106037333Y-104440000D01*
X106037322Y-104440000D01*
X106000000Y-104436324D01*
X105962678Y-104440000D01*
X99178711Y-104440000D01*
X99134774Y-104396063D01*
X98965256Y-104282795D01*
X98776898Y-104204774D01*
X98576939Y-104165000D01*
X98373061Y-104165000D01*
X98173102Y-104204774D01*
X97985000Y-104282689D01*
X97985000Y-102566578D01*
X100595050Y-99956529D01*
X100628817Y-99928817D01*
X100739411Y-99794059D01*
X100821589Y-99640313D01*
X100872195Y-99473490D01*
X100885000Y-99343477D01*
X100885000Y-99343467D01*
X100889281Y-99300001D01*
X100885000Y-99256535D01*
X100885000Y-97938454D01*
X100917205Y-97890256D01*
X100995226Y-97701898D01*
X101035000Y-97501939D01*
X101035000Y-97298061D01*
X100995226Y-97098102D01*
X100917205Y-96909744D01*
X100803937Y-96740226D01*
X100659774Y-96596063D01*
X100490256Y-96482795D01*
X100301898Y-96404774D01*
X100101939Y-96365000D01*
X99898061Y-96365000D01*
X99698102Y-96404774D01*
X99509744Y-96482795D01*
X99340226Y-96596063D01*
X99196063Y-96740226D01*
X99082795Y-96909744D01*
X99004774Y-97098102D01*
X98965000Y-97298061D01*
X98965000Y-97501939D01*
X99004774Y-97701898D01*
X99082795Y-97890256D01*
X99115001Y-97938455D01*
X99115000Y-98933421D01*
X96504951Y-101543471D01*
X96471184Y-101571183D01*
X96443471Y-101604951D01*
X96443468Y-101604954D01*
X96360590Y-101705941D01*
X96278412Y-101859687D01*
X96227805Y-102026510D01*
X96210719Y-102200000D01*
X96215001Y-102243479D01*
X96215000Y-104433421D01*
X95833422Y-104815000D01*
X95789799Y-104815000D01*
X95795226Y-104801898D01*
X95835000Y-104601939D01*
X95835000Y-104398061D01*
X95795226Y-104198102D01*
X95717205Y-104009744D01*
X95603937Y-103840226D01*
X95459774Y-103696063D01*
X95290256Y-103582795D01*
X95101898Y-103504774D01*
X94901939Y-103465000D01*
X94698061Y-103465000D01*
X94498102Y-103504774D01*
X94341940Y-103569459D01*
X94317205Y-103509744D01*
X94203937Y-103340226D01*
X94160000Y-103296289D01*
X94160000Y-102237323D01*
X94163676Y-102200000D01*
X94160000Y-102162677D01*
X94160000Y-102162667D01*
X94149003Y-102051014D01*
X94105546Y-101907753D01*
X94034974Y-101775724D01*
X93940001Y-101659999D01*
X93911004Y-101636202D01*
X93360000Y-101085199D01*
X93360000Y-93764531D01*
X110415074Y-93764531D01*
X110525921Y-94041714D01*
X110836840Y-94195089D01*
X111171705Y-94284860D01*
X111517650Y-94307576D01*
X111861380Y-94262366D01*
X112189685Y-94150966D01*
X112394079Y-94041714D01*
X112504926Y-93764531D01*
X115495074Y-93764531D01*
X115605921Y-94041714D01*
X115916840Y-94195089D01*
X116251705Y-94284860D01*
X116597650Y-94307576D01*
X116941380Y-94262366D01*
X117269685Y-94150966D01*
X117474079Y-94041714D01*
X117584926Y-93764531D01*
X116540000Y-92719605D01*
X115495074Y-93764531D01*
X112504926Y-93764531D01*
X111460000Y-92719605D01*
X110415074Y-93764531D01*
X93360000Y-93764531D01*
X93360000Y-92597650D01*
X109692424Y-92597650D01*
X109737634Y-92941380D01*
X109849034Y-93269685D01*
X109958286Y-93474079D01*
X110235469Y-93584926D01*
X111280395Y-92540000D01*
X111639605Y-92540000D01*
X112684531Y-93584926D01*
X112961714Y-93474079D01*
X113115089Y-93163160D01*
X113204860Y-92828295D01*
X113220004Y-92597650D01*
X114772424Y-92597650D01*
X114817634Y-92941380D01*
X114929034Y-93269685D01*
X115038286Y-93474079D01*
X115315469Y-93584926D01*
X116360395Y-92540000D01*
X116719605Y-92540000D01*
X117764531Y-93584926D01*
X118041714Y-93474079D01*
X118195089Y-93163160D01*
X118284860Y-92828295D01*
X118307576Y-92482350D01*
X118262366Y-92138620D01*
X118150966Y-91810315D01*
X118041714Y-91605921D01*
X117764531Y-91495074D01*
X116719605Y-92540000D01*
X116360395Y-92540000D01*
X115315469Y-91495074D01*
X115038286Y-91605921D01*
X114884911Y-91916840D01*
X114795140Y-92251705D01*
X114772424Y-92597650D01*
X113220004Y-92597650D01*
X113227576Y-92482350D01*
X113182366Y-92138620D01*
X113070966Y-91810315D01*
X112961714Y-91605921D01*
X112684531Y-91495074D01*
X111639605Y-92540000D01*
X111280395Y-92540000D01*
X110235469Y-91495074D01*
X109958286Y-91605921D01*
X109804911Y-91916840D01*
X109715140Y-92251705D01*
X109692424Y-92597650D01*
X93360000Y-92597650D01*
X93360000Y-91315469D01*
X110415074Y-91315469D01*
X111460000Y-92360395D01*
X112504926Y-91315469D01*
X112394079Y-91038286D01*
X112083160Y-90884911D01*
X111748295Y-90795140D01*
X111402350Y-90772424D01*
X111058620Y-90817634D01*
X110730315Y-90929034D01*
X110525921Y-91038286D01*
X110415074Y-91315469D01*
X93360000Y-91315469D01*
X93360000Y-90703711D01*
X93403937Y-90659774D01*
X93517205Y-90490256D01*
X93595226Y-90301898D01*
X93635000Y-90101939D01*
X93635000Y-89898061D01*
X93622756Y-89836504D01*
X112340000Y-89836504D01*
X112340000Y-90163496D01*
X112403793Y-90484204D01*
X112528927Y-90786305D01*
X112710594Y-91058188D01*
X112941812Y-91289406D01*
X113213695Y-91471073D01*
X113515796Y-91596207D01*
X113836504Y-91660000D01*
X114163496Y-91660000D01*
X114484204Y-91596207D01*
X114786305Y-91471073D01*
X115019182Y-91315469D01*
X115495074Y-91315469D01*
X116540000Y-92360395D01*
X117584926Y-91315469D01*
X117474079Y-91038286D01*
X117163160Y-90884911D01*
X116828295Y-90795140D01*
X116482350Y-90772424D01*
X116138620Y-90817634D01*
X115810315Y-90929034D01*
X115605921Y-91038286D01*
X115495074Y-91315469D01*
X115019182Y-91315469D01*
X115058188Y-91289406D01*
X115289406Y-91058188D01*
X115471073Y-90786305D01*
X115596207Y-90484204D01*
X115660000Y-90163496D01*
X115660000Y-89836504D01*
X115596207Y-89515796D01*
X115471073Y-89213695D01*
X115289406Y-88941812D01*
X115058188Y-88710594D01*
X115019183Y-88684531D01*
X115495074Y-88684531D01*
X115605921Y-88961714D01*
X115916840Y-89115089D01*
X116251705Y-89204860D01*
X116597650Y-89227576D01*
X116941380Y-89182366D01*
X117269685Y-89070966D01*
X117474079Y-88961714D01*
X117584926Y-88684531D01*
X116540000Y-87639605D01*
X115495074Y-88684531D01*
X115019183Y-88684531D01*
X114786305Y-88528927D01*
X114484204Y-88403793D01*
X114163496Y-88340000D01*
X113836504Y-88340000D01*
X113515796Y-88403793D01*
X113213695Y-88528927D01*
X112941812Y-88710594D01*
X112710594Y-88941812D01*
X112528927Y-89213695D01*
X112403793Y-89515796D01*
X112340000Y-89836504D01*
X93622756Y-89836504D01*
X93595226Y-89698102D01*
X93517205Y-89509744D01*
X93403937Y-89340226D01*
X93259774Y-89196063D01*
X93090256Y-89082795D01*
X92901898Y-89004774D01*
X92701939Y-88965000D01*
X92498061Y-88965000D01*
X92298102Y-89004774D01*
X92109744Y-89082795D01*
X92000000Y-89156123D01*
X91890256Y-89082795D01*
X91701898Y-89004774D01*
X91501939Y-88965000D01*
X91298061Y-88965000D01*
X91098102Y-89004774D01*
X90909744Y-89082795D01*
X90800000Y-89156123D01*
X90690256Y-89082795D01*
X90501898Y-89004774D01*
X90301939Y-88965000D01*
X90210010Y-88965000D01*
X90210010Y-88684531D01*
X110415074Y-88684531D01*
X110525921Y-88961714D01*
X110836840Y-89115089D01*
X111171705Y-89204860D01*
X111517650Y-89227576D01*
X111861380Y-89182366D01*
X112189685Y-89070966D01*
X112394079Y-88961714D01*
X112504926Y-88684531D01*
X111460000Y-87639605D01*
X110415074Y-88684531D01*
X90210010Y-88684531D01*
X90210010Y-87830476D01*
X90522836Y-87517650D01*
X109692424Y-87517650D01*
X109737634Y-87861380D01*
X109849034Y-88189685D01*
X109958286Y-88394079D01*
X110235469Y-88504926D01*
X111280395Y-87460000D01*
X111639605Y-87460000D01*
X112684531Y-88504926D01*
X112961714Y-88394079D01*
X113115089Y-88083160D01*
X113204860Y-87748295D01*
X113220004Y-87517650D01*
X114772424Y-87517650D01*
X114817634Y-87861380D01*
X114929034Y-88189685D01*
X115038286Y-88394079D01*
X115315469Y-88504926D01*
X116360395Y-87460000D01*
X116719605Y-87460000D01*
X117764531Y-88504926D01*
X118041714Y-88394079D01*
X118195089Y-88083160D01*
X118284860Y-87748295D01*
X118307576Y-87402350D01*
X118262366Y-87058620D01*
X118150966Y-86730315D01*
X118041714Y-86525921D01*
X117764531Y-86415074D01*
X116719605Y-87460000D01*
X116360395Y-87460000D01*
X115315469Y-86415074D01*
X115038286Y-86525921D01*
X114884911Y-86836840D01*
X114795140Y-87171705D01*
X114772424Y-87517650D01*
X113220004Y-87517650D01*
X113227576Y-87402350D01*
X113182366Y-87058620D01*
X113070966Y-86730315D01*
X112961714Y-86525921D01*
X112684531Y-86415074D01*
X111639605Y-87460000D01*
X111280395Y-87460000D01*
X110235469Y-86415074D01*
X109958286Y-86525921D01*
X109804911Y-86836840D01*
X109715140Y-87171705D01*
X109692424Y-87517650D01*
X90522836Y-87517650D01*
X90611002Y-87429485D01*
X90640001Y-87405686D01*
X90734974Y-87289961D01*
X90805546Y-87157932D01*
X90848987Y-87014724D01*
X90903937Y-86959774D01*
X91017205Y-86790256D01*
X91070712Y-86661079D01*
X91137496Y-86822308D01*
X91250764Y-86991826D01*
X91394927Y-87135989D01*
X91564445Y-87249257D01*
X91752803Y-87327278D01*
X91952762Y-87367052D01*
X92156640Y-87367052D01*
X92356599Y-87327278D01*
X92544957Y-87249257D01*
X92714475Y-87135989D01*
X92858638Y-86991826D01*
X92971906Y-86822308D01*
X93049927Y-86633950D01*
X93084528Y-86460000D01*
X97524130Y-86460000D01*
X97609744Y-86517205D01*
X97798102Y-86595226D01*
X97998061Y-86635000D01*
X98201939Y-86635000D01*
X98401898Y-86595226D01*
X98590256Y-86517205D01*
X98759774Y-86403937D01*
X98903937Y-86259774D01*
X98920177Y-86235469D01*
X110415074Y-86235469D01*
X111460000Y-87280395D01*
X112504926Y-86235469D01*
X115495074Y-86235469D01*
X116540000Y-87280395D01*
X117584926Y-86235469D01*
X117474079Y-85958286D01*
X117163160Y-85804911D01*
X116828295Y-85715140D01*
X116482350Y-85692424D01*
X116138620Y-85737634D01*
X115810315Y-85849034D01*
X115605921Y-85958286D01*
X115495074Y-86235469D01*
X112504926Y-86235469D01*
X112394079Y-85958286D01*
X112083160Y-85804911D01*
X111748295Y-85715140D01*
X111402350Y-85692424D01*
X111058620Y-85737634D01*
X110730315Y-85849034D01*
X110525921Y-85958286D01*
X110415074Y-86235469D01*
X98920177Y-86235469D01*
X99017205Y-86090256D01*
X99095226Y-85901898D01*
X99135000Y-85701939D01*
X99135000Y-85498061D01*
X99095226Y-85298102D01*
X99017205Y-85109744D01*
X98903937Y-84940226D01*
X98759774Y-84796063D01*
X98590256Y-84682795D01*
X98401898Y-84604774D01*
X98201939Y-84565000D01*
X97998061Y-84565000D01*
X97798102Y-84604774D01*
X97609744Y-84682795D01*
X97440226Y-84796063D01*
X97296289Y-84940000D01*
X96671211Y-84940000D01*
X96997404Y-84613808D01*
X97026401Y-84590011D01*
X97121374Y-84474286D01*
X97191946Y-84342257D01*
X97235403Y-84198996D01*
X97246400Y-84087343D01*
X97246400Y-84087334D01*
X97250076Y-84050011D01*
X97246400Y-84012688D01*
X97246400Y-83385000D01*
X105571289Y-83385000D01*
X105615226Y-83428937D01*
X105784744Y-83542205D01*
X105973102Y-83620226D01*
X106173061Y-83660000D01*
X106376939Y-83660000D01*
X106576898Y-83620226D01*
X106765256Y-83542205D01*
X106934774Y-83428937D01*
X107078937Y-83284774D01*
X107192205Y-83115256D01*
X107270226Y-82926898D01*
X107310000Y-82726939D01*
X107310000Y-82523061D01*
X107270226Y-82323102D01*
X107192205Y-82134744D01*
X107085468Y-81975000D01*
X107192205Y-81815256D01*
X107270226Y-81626898D01*
X107310000Y-81426939D01*
X107310000Y-81223061D01*
X107270226Y-81023102D01*
X107192205Y-80834744D01*
X107078937Y-80665226D01*
X106934774Y-80521063D01*
X106765256Y-80407795D01*
X106576898Y-80329774D01*
X106376939Y-80290000D01*
X106173061Y-80290000D01*
X105973102Y-80329774D01*
X105784744Y-80407795D01*
X105615226Y-80521063D01*
X105571289Y-80565000D01*
X97612322Y-80565000D01*
X97574999Y-80561324D01*
X97537676Y-80565000D01*
X97537667Y-80565000D01*
X97426014Y-80575997D01*
X97282753Y-80619454D01*
X97150723Y-80690026D01*
X97127739Y-80708889D01*
X97034999Y-80784999D01*
X97011201Y-80813997D01*
X95525388Y-82299811D01*
X95496390Y-82323609D01*
X95472592Y-82352607D01*
X95472591Y-82352608D01*
X95401416Y-82439334D01*
X95330844Y-82571364D01*
X95287388Y-82714625D01*
X95272714Y-82863610D01*
X95276391Y-82900942D01*
X95276390Y-83489990D01*
X94722217Y-83489990D01*
X94739410Y-83469040D01*
X94755288Y-83439334D01*
X94821589Y-83315293D01*
X94872195Y-83148470D01*
X94885000Y-83018457D01*
X94885000Y-83018447D01*
X94889281Y-82974981D01*
X94885000Y-82931515D01*
X94885000Y-82484625D01*
X94974482Y-82475812D01*
X95094180Y-82439502D01*
X95204494Y-82380537D01*
X95301185Y-82301185D01*
X95380537Y-82204494D01*
X95439502Y-82094180D01*
X95475812Y-81974482D01*
X95488072Y-81850000D01*
X95488072Y-80150000D01*
X95486595Y-80134999D01*
X110983421Y-80134999D01*
X111315001Y-80466579D01*
X111315001Y-80466579D01*
G37*
X111315001Y-80466579D02*
X111315000Y-81561545D01*
X111282795Y-81609744D01*
X111204774Y-81798102D01*
X111165000Y-81998061D01*
X111165000Y-82201939D01*
X111204774Y-82401898D01*
X111282795Y-82590256D01*
X111373000Y-82725258D01*
X111373000Y-85000000D01*
X111375440Y-85024776D01*
X111382667Y-85048601D01*
X111394403Y-85070557D01*
X111410197Y-85089803D01*
X111429443Y-85105597D01*
X111451399Y-85117333D01*
X111475224Y-85124560D01*
X111500000Y-85127000D01*
X118340001Y-85127000D01*
X118340000Y-114340000D01*
X83365844Y-114340000D01*
X83410450Y-114295394D01*
X83540134Y-114101308D01*
X83629461Y-113885652D01*
X83675000Y-113656712D01*
X83675000Y-113423288D01*
X83629461Y-113194348D01*
X83540134Y-112978692D01*
X83410450Y-112784606D01*
X83245394Y-112619550D01*
X83195048Y-112585910D01*
X83311831Y-112537537D01*
X83595998Y-112347663D01*
X83837663Y-112105998D01*
X84027537Y-111821831D01*
X84158325Y-111506081D01*
X84225000Y-111170883D01*
X84225000Y-110829117D01*
X84158325Y-110493919D01*
X84027537Y-110178169D01*
X83837663Y-109894002D01*
X83595998Y-109652337D01*
X83311831Y-109462463D01*
X82996081Y-109331675D01*
X82660883Y-109265000D01*
X82319117Y-109265000D01*
X81983919Y-109331675D01*
X81668169Y-109462463D01*
X81567557Y-109529690D01*
X81501185Y-109448815D01*
X81404494Y-109369463D01*
X81294180Y-109310498D01*
X81174482Y-109274188D01*
X81050000Y-109261928D01*
X78850000Y-109261928D01*
X78725518Y-109274188D01*
X78605820Y-109310498D01*
X78495506Y-109369463D01*
X78398815Y-109448815D01*
X78319463Y-109545506D01*
X78260498Y-109655820D01*
X78224188Y-109775518D01*
X78211928Y-109900000D01*
X78211928Y-112100000D01*
X78224188Y-112224482D01*
X78260498Y-112344180D01*
X78319463Y-112454494D01*
X78398815Y-112551185D01*
X78495506Y-112630537D01*
X78605820Y-112689502D01*
X78725518Y-112725812D01*
X78850000Y-112738072D01*
X79076084Y-112738072D01*
X79029550Y-112784606D01*
X78899866Y-112978692D01*
X78810539Y-113194348D01*
X78765000Y-113423288D01*
X78765000Y-113656712D01*
X78810539Y-113885652D01*
X78899866Y-114101308D01*
X79029550Y-114295394D01*
X79074156Y-114340000D01*
X70660000Y-114340000D01*
X70660000Y-111690000D01*
X72511928Y-111690000D01*
X72511928Y-113390000D01*
X72524188Y-113514482D01*
X72560498Y-113634180D01*
X72619463Y-113744494D01*
X72698815Y-113841185D01*
X72795506Y-113920537D01*
X72905820Y-113979502D01*
X73025518Y-114015812D01*
X73150000Y-114028072D01*
X74850000Y-114028072D01*
X74974482Y-114015812D01*
X75094180Y-113979502D01*
X75204494Y-113920537D01*
X75301185Y-113841185D01*
X75380537Y-113744494D01*
X75439502Y-113634180D01*
X75475812Y-113514482D01*
X75488072Y-113390000D01*
X75488072Y-111690000D01*
X75475812Y-111565518D01*
X75439502Y-111445820D01*
X75380537Y-111335506D01*
X75301185Y-111238815D01*
X75204494Y-111159463D01*
X75094180Y-111100498D01*
X75013534Y-111076034D01*
X75097588Y-111000269D01*
X75271641Y-110766920D01*
X75396825Y-110504099D01*
X75441476Y-110356890D01*
X75320155Y-110127000D01*
X74127000Y-110127000D01*
X74127000Y-110147000D01*
X73873000Y-110147000D01*
X73873000Y-110127000D01*
X72679845Y-110127000D01*
X72558524Y-110356890D01*
X72603175Y-110504099D01*
X72728359Y-110766920D01*
X72902412Y-111000269D01*
X72986466Y-111076034D01*
X72905820Y-111100498D01*
X72795506Y-111159463D01*
X72698815Y-111238815D01*
X72619463Y-111335506D01*
X72560498Y-111445820D01*
X72524188Y-111565518D01*
X72511928Y-111690000D01*
X70660000Y-111690000D01*
X70660000Y-109643110D01*
X72558524Y-109643110D01*
X72679845Y-109873000D01*
X73873000Y-109873000D01*
X73873000Y-108679186D01*
X74127000Y-108679186D01*
X74127000Y-109873000D01*
X75320155Y-109873000D01*
X75441476Y-109643110D01*
X75396825Y-109495901D01*
X75271641Y-109233080D01*
X75097588Y-108999731D01*
X74881355Y-108804822D01*
X74631252Y-108655843D01*
X74356891Y-108558519D01*
X74127000Y-108679186D01*
X73873000Y-108679186D01*
X73643109Y-108558519D01*
X73368748Y-108655843D01*
X73118645Y-108804822D01*
X72902412Y-108999731D01*
X72728359Y-109233080D01*
X72603175Y-109495901D01*
X72558524Y-109643110D01*
X70660000Y-109643110D01*
X70660000Y-105915844D01*
X70704606Y-105960450D01*
X70898692Y-106090134D01*
X71114348Y-106179461D01*
X71343288Y-106225000D01*
X71576712Y-106225000D01*
X71805652Y-106179461D01*
X72021308Y-106090134D01*
X72215394Y-105960450D01*
X72380450Y-105795394D01*
X72414090Y-105745048D01*
X72462463Y-105861831D01*
X72652337Y-106145998D01*
X72894002Y-106387663D01*
X73178169Y-106577537D01*
X73493919Y-106708325D01*
X73829117Y-106775000D01*
X74170883Y-106775000D01*
X74506081Y-106708325D01*
X74821831Y-106577537D01*
X75105998Y-106387663D01*
X75347663Y-106145998D01*
X75495329Y-105925000D01*
X75512165Y-105925000D01*
X75555634Y-105929281D01*
X75599103Y-105925000D01*
X75599111Y-105925000D01*
X75729124Y-105912195D01*
X75895947Y-105861589D01*
X76049693Y-105779411D01*
X76184451Y-105668817D01*
X76212168Y-105635044D01*
X76450322Y-105396890D01*
X78558524Y-105396890D01*
X78603175Y-105544099D01*
X78728359Y-105806920D01*
X78902412Y-106040269D01*
X79118645Y-106235178D01*
X79368748Y-106384157D01*
X79643109Y-106481481D01*
X79873000Y-106360814D01*
X79873000Y-105167000D01*
X78679845Y-105167000D01*
X78558524Y-105396890D01*
X76450322Y-105396890D01*
X77795050Y-104052163D01*
X77828817Y-104024451D01*
X77857201Y-103989866D01*
X77939411Y-103889693D01*
X77956035Y-103858591D01*
X78021589Y-103735947D01*
X78072195Y-103569124D01*
X78085000Y-103439111D01*
X78085000Y-103439103D01*
X78089281Y-103395634D01*
X78085000Y-103352165D01*
X78085000Y-100093556D01*
X78196063Y-100259774D01*
X78340226Y-100403937D01*
X78509744Y-100517205D01*
X78698102Y-100595226D01*
X78898061Y-100635000D01*
X79101939Y-100635000D01*
X79301898Y-100595226D01*
X79490256Y-100517205D01*
X79538454Y-100485000D01*
X80956531Y-100485000D01*
X81000000Y-100489281D01*
X81043469Y-100485000D01*
X82833422Y-100485000D01*
X83515001Y-101166580D01*
X83515001Y-101379102D01*
X83369014Y-101259294D01*
X83111034Y-101121401D01*
X82831111Y-101036487D01*
X82612950Y-101015000D01*
X82467050Y-101015000D01*
X82248889Y-101036487D01*
X81968966Y-101121401D01*
X81710986Y-101259294D01*
X81484866Y-101444866D01*
X81460393Y-101474687D01*
X81439502Y-101405820D01*
X81380537Y-101295506D01*
X81301185Y-101198815D01*
X81204494Y-101119463D01*
X81094180Y-101060498D01*
X80974482Y-101024188D01*
X80850000Y-101011928D01*
X79150000Y-101011928D01*
X79025518Y-101024188D01*
X78905820Y-101060498D01*
X78795506Y-101119463D01*
X78698815Y-101198815D01*
X78619463Y-101295506D01*
X78560498Y-101405820D01*
X78524188Y-101525518D01*
X78511928Y-101650000D01*
X78511928Y-103350000D01*
X78524188Y-103474482D01*
X78560498Y-103594180D01*
X78619463Y-103704494D01*
X78698815Y-103801185D01*
X78795506Y-103880537D01*
X78905820Y-103939502D01*
X78986466Y-103963966D01*
X78902412Y-104039731D01*
X78728359Y-104273080D01*
X78603175Y-104535901D01*
X78558524Y-104683110D01*
X78679845Y-104913000D01*
X79873000Y-104913000D01*
X79873000Y-104893000D01*
X80127000Y-104893000D01*
X80127000Y-104913000D01*
X80147000Y-104913000D01*
X80147000Y-105167000D01*
X80127000Y-105167000D01*
X80127000Y-106360814D01*
X80356891Y-106481481D01*
X80631252Y-106384157D01*
X80881355Y-106235178D01*
X81097588Y-106040269D01*
X81268416Y-105811244D01*
X81299294Y-105869014D01*
X81484866Y-106095134D01*
X81710986Y-106280706D01*
X81968966Y-106418599D01*
X82248889Y-106503513D01*
X82467050Y-106525000D01*
X82612950Y-106525000D01*
X82831111Y-106503513D01*
X83111034Y-106418599D01*
X83369014Y-106280706D01*
X83595134Y-106095134D01*
X83732056Y-105928294D01*
X83742081Y-105929281D01*
X83785550Y-105925000D01*
X88573422Y-105925000D01*
X88943470Y-106295049D01*
X88971183Y-106328817D01*
X89004951Y-106356530D01*
X89004953Y-106356532D01*
X89010171Y-106360814D01*
X89105941Y-106439411D01*
X89259687Y-106521589D01*
X89375903Y-106556843D01*
X89426509Y-106572195D01*
X89441306Y-106573652D01*
X89556523Y-106585000D01*
X89556531Y-106585000D01*
X89600000Y-106589281D01*
X89643469Y-106585000D01*
X96156531Y-106585000D01*
X96200000Y-106589281D01*
X96243469Y-106585000D01*
X96243477Y-106585000D01*
X96373490Y-106572195D01*
X96540313Y-106521589D01*
X96694059Y-106439411D01*
X96828817Y-106328817D01*
X96856534Y-106295044D01*
X97529539Y-105622040D01*
X97557795Y-105690256D01*
X97671063Y-105859774D01*
X97815226Y-106003937D01*
X97984744Y-106117205D01*
X98173102Y-106195226D01*
X98373061Y-106235000D01*
X98576939Y-106235000D01*
X98776898Y-106195226D01*
X98965256Y-106117205D01*
X99134774Y-106003937D01*
X99178711Y-105960000D01*
X105685199Y-105960000D01*
X107040000Y-107314803D01*
X107040001Y-109696288D01*
X106996063Y-109740226D01*
X106882795Y-109909744D01*
X106804774Y-110098102D01*
X106765000Y-110298061D01*
X106765000Y-110501939D01*
X106804774Y-110701898D01*
X106882795Y-110890256D01*
X106996063Y-111059774D01*
X107140226Y-111203937D01*
X107309744Y-111317205D01*
X107498102Y-111395226D01*
X107698061Y-111435000D01*
X107901939Y-111435000D01*
X108101898Y-111395226D01*
X108290256Y-111317205D01*
X108459774Y-111203937D01*
X108603937Y-111059774D01*
X108717205Y-110890256D01*
X108795226Y-110701898D01*
X108835000Y-110501939D01*
X108835000Y-110298061D01*
X108795226Y-110098102D01*
X108717205Y-109909744D01*
X108603937Y-109740226D01*
X108560000Y-109696289D01*
X108560000Y-107037322D01*
X108563676Y-106999999D01*
X108560000Y-106962676D01*
X108560000Y-106962667D01*
X108549003Y-106851014D01*
X108505546Y-106707753D01*
X108434974Y-106575724D01*
X108390546Y-106521588D01*
X108363799Y-106488996D01*
X108363795Y-106488992D01*
X108340001Y-106459999D01*
X108311009Y-106436206D01*
X106563803Y-104689002D01*
X106540001Y-104659999D01*
X106424276Y-104565026D01*
X106292247Y-104494454D01*
X106148986Y-104450997D01*
X106037333Y-104440000D01*
X106037322Y-104440000D01*
X106000000Y-104436324D01*
X105962678Y-104440000D01*
X99178711Y-104440000D01*
X99134774Y-104396063D01*
X98965256Y-104282795D01*
X98776898Y-104204774D01*
X98576939Y-104165000D01*
X98373061Y-104165000D01*
X98173102Y-104204774D01*
X97985000Y-104282689D01*
X97985000Y-102566578D01*
X100595050Y-99956529D01*
X100628817Y-99928817D01*
X100739411Y-99794059D01*
X100821589Y-99640313D01*
X100872195Y-99473490D01*
X100885000Y-99343477D01*
X100885000Y-99343467D01*
X100889281Y-99300001D01*
X100885000Y-99256535D01*
X100885000Y-97938454D01*
X100917205Y-97890256D01*
X100995226Y-97701898D01*
X101035000Y-97501939D01*
X101035000Y-97298061D01*
X100995226Y-97098102D01*
X100917205Y-96909744D01*
X100803937Y-96740226D01*
X100659774Y-96596063D01*
X100490256Y-96482795D01*
X100301898Y-96404774D01*
X100101939Y-96365000D01*
X99898061Y-96365000D01*
X99698102Y-96404774D01*
X99509744Y-96482795D01*
X99340226Y-96596063D01*
X99196063Y-96740226D01*
X99082795Y-96909744D01*
X99004774Y-97098102D01*
X98965000Y-97298061D01*
X98965000Y-97501939D01*
X99004774Y-97701898D01*
X99082795Y-97890256D01*
X99115001Y-97938455D01*
X99115000Y-98933421D01*
X96504951Y-101543471D01*
X96471184Y-101571183D01*
X96443471Y-101604951D01*
X96443468Y-101604954D01*
X96360590Y-101705941D01*
X96278412Y-101859687D01*
X96227805Y-102026510D01*
X96210719Y-102200000D01*
X96215001Y-102243479D01*
X96215000Y-104433421D01*
X95833422Y-104815000D01*
X95789799Y-104815000D01*
X95795226Y-104801898D01*
X95835000Y-104601939D01*
X95835000Y-104398061D01*
X95795226Y-104198102D01*
X95717205Y-104009744D01*
X95603937Y-103840226D01*
X95459774Y-103696063D01*
X95290256Y-103582795D01*
X95101898Y-103504774D01*
X94901939Y-103465000D01*
X94698061Y-103465000D01*
X94498102Y-103504774D01*
X94341940Y-103569459D01*
X94317205Y-103509744D01*
X94203937Y-103340226D01*
X94160000Y-103296289D01*
X94160000Y-102237323D01*
X94163676Y-102200000D01*
X94160000Y-102162677D01*
X94160000Y-102162667D01*
X94149003Y-102051014D01*
X94105546Y-101907753D01*
X94034974Y-101775724D01*
X93940001Y-101659999D01*
X93911004Y-101636202D01*
X93360000Y-101085199D01*
X93360000Y-93764531D01*
X110415074Y-93764531D01*
X110525921Y-94041714D01*
X110836840Y-94195089D01*
X111171705Y-94284860D01*
X111517650Y-94307576D01*
X111861380Y-94262366D01*
X112189685Y-94150966D01*
X112394079Y-94041714D01*
X112504926Y-93764531D01*
X115495074Y-93764531D01*
X115605921Y-94041714D01*
X115916840Y-94195089D01*
X116251705Y-94284860D01*
X116597650Y-94307576D01*
X116941380Y-94262366D01*
X117269685Y-94150966D01*
X117474079Y-94041714D01*
X117584926Y-93764531D01*
X116540000Y-92719605D01*
X115495074Y-93764531D01*
X112504926Y-93764531D01*
X111460000Y-92719605D01*
X110415074Y-93764531D01*
X93360000Y-93764531D01*
X93360000Y-92597650D01*
X109692424Y-92597650D01*
X109737634Y-92941380D01*
X109849034Y-93269685D01*
X109958286Y-93474079D01*
X110235469Y-93584926D01*
X111280395Y-92540000D01*
X111639605Y-92540000D01*
X112684531Y-93584926D01*
X112961714Y-93474079D01*
X113115089Y-93163160D01*
X113204860Y-92828295D01*
X113220004Y-92597650D01*
X114772424Y-92597650D01*
X114817634Y-92941380D01*
X114929034Y-93269685D01*
X115038286Y-93474079D01*
X115315469Y-93584926D01*
X116360395Y-92540000D01*
X116719605Y-92540000D01*
X117764531Y-93584926D01*
X118041714Y-93474079D01*
X118195089Y-93163160D01*
X118284860Y-92828295D01*
X118307576Y-92482350D01*
X118262366Y-92138620D01*
X118150966Y-91810315D01*
X118041714Y-91605921D01*
X117764531Y-91495074D01*
X116719605Y-92540000D01*
X116360395Y-92540000D01*
X115315469Y-91495074D01*
X115038286Y-91605921D01*
X114884911Y-91916840D01*
X114795140Y-92251705D01*
X114772424Y-92597650D01*
X113220004Y-92597650D01*
X113227576Y-92482350D01*
X113182366Y-92138620D01*
X113070966Y-91810315D01*
X112961714Y-91605921D01*
X112684531Y-91495074D01*
X111639605Y-92540000D01*
X111280395Y-92540000D01*
X110235469Y-91495074D01*
X109958286Y-91605921D01*
X109804911Y-91916840D01*
X109715140Y-92251705D01*
X109692424Y-92597650D01*
X93360000Y-92597650D01*
X93360000Y-91315469D01*
X110415074Y-91315469D01*
X111460000Y-92360395D01*
X112504926Y-91315469D01*
X112394079Y-91038286D01*
X112083160Y-90884911D01*
X111748295Y-90795140D01*
X111402350Y-90772424D01*
X111058620Y-90817634D01*
X110730315Y-90929034D01*
X110525921Y-91038286D01*
X110415074Y-91315469D01*
X93360000Y-91315469D01*
X93360000Y-90703711D01*
X93403937Y-90659774D01*
X93517205Y-90490256D01*
X93595226Y-90301898D01*
X93635000Y-90101939D01*
X93635000Y-89898061D01*
X93622756Y-89836504D01*
X112340000Y-89836504D01*
X112340000Y-90163496D01*
X112403793Y-90484204D01*
X112528927Y-90786305D01*
X112710594Y-91058188D01*
X112941812Y-91289406D01*
X113213695Y-91471073D01*
X113515796Y-91596207D01*
X113836504Y-91660000D01*
X114163496Y-91660000D01*
X114484204Y-91596207D01*
X114786305Y-91471073D01*
X115019182Y-91315469D01*
X115495074Y-91315469D01*
X116540000Y-92360395D01*
X117584926Y-91315469D01*
X117474079Y-91038286D01*
X117163160Y-90884911D01*
X116828295Y-90795140D01*
X116482350Y-90772424D01*
X116138620Y-90817634D01*
X115810315Y-90929034D01*
X115605921Y-91038286D01*
X115495074Y-91315469D01*
X115019182Y-91315469D01*
X115058188Y-91289406D01*
X115289406Y-91058188D01*
X115471073Y-90786305D01*
X115596207Y-90484204D01*
X115660000Y-90163496D01*
X115660000Y-89836504D01*
X115596207Y-89515796D01*
X115471073Y-89213695D01*
X115289406Y-88941812D01*
X115058188Y-88710594D01*
X115019183Y-88684531D01*
X115495074Y-88684531D01*
X115605921Y-88961714D01*
X115916840Y-89115089D01*
X116251705Y-89204860D01*
X116597650Y-89227576D01*
X116941380Y-89182366D01*
X117269685Y-89070966D01*
X117474079Y-88961714D01*
X117584926Y-88684531D01*
X116540000Y-87639605D01*
X115495074Y-88684531D01*
X115019183Y-88684531D01*
X114786305Y-88528927D01*
X114484204Y-88403793D01*
X114163496Y-88340000D01*
X113836504Y-88340000D01*
X113515796Y-88403793D01*
X113213695Y-88528927D01*
X112941812Y-88710594D01*
X112710594Y-88941812D01*
X112528927Y-89213695D01*
X112403793Y-89515796D01*
X112340000Y-89836504D01*
X93622756Y-89836504D01*
X93595226Y-89698102D01*
X93517205Y-89509744D01*
X93403937Y-89340226D01*
X93259774Y-89196063D01*
X93090256Y-89082795D01*
X92901898Y-89004774D01*
X92701939Y-88965000D01*
X92498061Y-88965000D01*
X92298102Y-89004774D01*
X92109744Y-89082795D01*
X92000000Y-89156123D01*
X91890256Y-89082795D01*
X91701898Y-89004774D01*
X91501939Y-88965000D01*
X91298061Y-88965000D01*
X91098102Y-89004774D01*
X90909744Y-89082795D01*
X90800000Y-89156123D01*
X90690256Y-89082795D01*
X90501898Y-89004774D01*
X90301939Y-88965000D01*
X90210010Y-88965000D01*
X90210010Y-88684531D01*
X110415074Y-88684531D01*
X110525921Y-88961714D01*
X110836840Y-89115089D01*
X111171705Y-89204860D01*
X111517650Y-89227576D01*
X111861380Y-89182366D01*
X112189685Y-89070966D01*
X112394079Y-88961714D01*
X112504926Y-88684531D01*
X111460000Y-87639605D01*
X110415074Y-88684531D01*
X90210010Y-88684531D01*
X90210010Y-87830476D01*
X90522836Y-87517650D01*
X109692424Y-87517650D01*
X109737634Y-87861380D01*
X109849034Y-88189685D01*
X109958286Y-88394079D01*
X110235469Y-88504926D01*
X111280395Y-87460000D01*
X111639605Y-87460000D01*
X112684531Y-88504926D01*
X112961714Y-88394079D01*
X113115089Y-88083160D01*
X113204860Y-87748295D01*
X113220004Y-87517650D01*
X114772424Y-87517650D01*
X114817634Y-87861380D01*
X114929034Y-88189685D01*
X115038286Y-88394079D01*
X115315469Y-88504926D01*
X116360395Y-87460000D01*
X116719605Y-87460000D01*
X117764531Y-88504926D01*
X118041714Y-88394079D01*
X118195089Y-88083160D01*
X118284860Y-87748295D01*
X118307576Y-87402350D01*
X118262366Y-87058620D01*
X118150966Y-86730315D01*
X118041714Y-86525921D01*
X117764531Y-86415074D01*
X116719605Y-87460000D01*
X116360395Y-87460000D01*
X115315469Y-86415074D01*
X115038286Y-86525921D01*
X114884911Y-86836840D01*
X114795140Y-87171705D01*
X114772424Y-87517650D01*
X113220004Y-87517650D01*
X113227576Y-87402350D01*
X113182366Y-87058620D01*
X113070966Y-86730315D01*
X112961714Y-86525921D01*
X112684531Y-86415074D01*
X111639605Y-87460000D01*
X111280395Y-87460000D01*
X110235469Y-86415074D01*
X109958286Y-86525921D01*
X109804911Y-86836840D01*
X109715140Y-87171705D01*
X109692424Y-87517650D01*
X90522836Y-87517650D01*
X90611002Y-87429485D01*
X90640001Y-87405686D01*
X90734974Y-87289961D01*
X90805546Y-87157932D01*
X90848987Y-87014724D01*
X90903937Y-86959774D01*
X91017205Y-86790256D01*
X91070712Y-86661079D01*
X91137496Y-86822308D01*
X91250764Y-86991826D01*
X91394927Y-87135989D01*
X91564445Y-87249257D01*
X91752803Y-87327278D01*
X91952762Y-87367052D01*
X92156640Y-87367052D01*
X92356599Y-87327278D01*
X92544957Y-87249257D01*
X92714475Y-87135989D01*
X92858638Y-86991826D01*
X92971906Y-86822308D01*
X93049927Y-86633950D01*
X93084528Y-86460000D01*
X97524130Y-86460000D01*
X97609744Y-86517205D01*
X97798102Y-86595226D01*
X97998061Y-86635000D01*
X98201939Y-86635000D01*
X98401898Y-86595226D01*
X98590256Y-86517205D01*
X98759774Y-86403937D01*
X98903937Y-86259774D01*
X98920177Y-86235469D01*
X110415074Y-86235469D01*
X111460000Y-87280395D01*
X112504926Y-86235469D01*
X115495074Y-86235469D01*
X116540000Y-87280395D01*
X117584926Y-86235469D01*
X117474079Y-85958286D01*
X117163160Y-85804911D01*
X116828295Y-85715140D01*
X116482350Y-85692424D01*
X116138620Y-85737634D01*
X115810315Y-85849034D01*
X115605921Y-85958286D01*
X115495074Y-86235469D01*
X112504926Y-86235469D01*
X112394079Y-85958286D01*
X112083160Y-85804911D01*
X111748295Y-85715140D01*
X111402350Y-85692424D01*
X111058620Y-85737634D01*
X110730315Y-85849034D01*
X110525921Y-85958286D01*
X110415074Y-86235469D01*
X98920177Y-86235469D01*
X99017205Y-86090256D01*
X99095226Y-85901898D01*
X99135000Y-85701939D01*
X99135000Y-85498061D01*
X99095226Y-85298102D01*
X99017205Y-85109744D01*
X98903937Y-84940226D01*
X98759774Y-84796063D01*
X98590256Y-84682795D01*
X98401898Y-84604774D01*
X98201939Y-84565000D01*
X97998061Y-84565000D01*
X97798102Y-84604774D01*
X97609744Y-84682795D01*
X97440226Y-84796063D01*
X97296289Y-84940000D01*
X96671211Y-84940000D01*
X96997404Y-84613808D01*
X97026401Y-84590011D01*
X97121374Y-84474286D01*
X97191946Y-84342257D01*
X97235403Y-84198996D01*
X97246400Y-84087343D01*
X97246400Y-84087334D01*
X97250076Y-84050011D01*
X97246400Y-84012688D01*
X97246400Y-83385000D01*
X105571289Y-83385000D01*
X105615226Y-83428937D01*
X105784744Y-83542205D01*
X105973102Y-83620226D01*
X106173061Y-83660000D01*
X106376939Y-83660000D01*
X106576898Y-83620226D01*
X106765256Y-83542205D01*
X106934774Y-83428937D01*
X107078937Y-83284774D01*
X107192205Y-83115256D01*
X107270226Y-82926898D01*
X107310000Y-82726939D01*
X107310000Y-82523061D01*
X107270226Y-82323102D01*
X107192205Y-82134744D01*
X107085468Y-81975000D01*
X107192205Y-81815256D01*
X107270226Y-81626898D01*
X107310000Y-81426939D01*
X107310000Y-81223061D01*
X107270226Y-81023102D01*
X107192205Y-80834744D01*
X107078937Y-80665226D01*
X106934774Y-80521063D01*
X106765256Y-80407795D01*
X106576898Y-80329774D01*
X106376939Y-80290000D01*
X106173061Y-80290000D01*
X105973102Y-80329774D01*
X105784744Y-80407795D01*
X105615226Y-80521063D01*
X105571289Y-80565000D01*
X97612322Y-80565000D01*
X97574999Y-80561324D01*
X97537676Y-80565000D01*
X97537667Y-80565000D01*
X97426014Y-80575997D01*
X97282753Y-80619454D01*
X97150723Y-80690026D01*
X97127739Y-80708889D01*
X97034999Y-80784999D01*
X97011201Y-80813997D01*
X95525388Y-82299811D01*
X95496390Y-82323609D01*
X95472592Y-82352607D01*
X95472591Y-82352608D01*
X95401416Y-82439334D01*
X95330844Y-82571364D01*
X95287388Y-82714625D01*
X95272714Y-82863610D01*
X95276391Y-82900942D01*
X95276390Y-83489990D01*
X94722217Y-83489990D01*
X94739410Y-83469040D01*
X94755288Y-83439334D01*
X94821589Y-83315293D01*
X94872195Y-83148470D01*
X94885000Y-83018457D01*
X94885000Y-83018447D01*
X94889281Y-82974981D01*
X94885000Y-82931515D01*
X94885000Y-82484625D01*
X94974482Y-82475812D01*
X95094180Y-82439502D01*
X95204494Y-82380537D01*
X95301185Y-82301185D01*
X95380537Y-82204494D01*
X95439502Y-82094180D01*
X95475812Y-81974482D01*
X95488072Y-81850000D01*
X95488072Y-80150000D01*
X95486595Y-80134999D01*
X110983421Y-80134999D01*
X111315001Y-80466579D01*
G36*
X88196063Y-85540226D02*
G01*
X88082795Y-85709744D01*
X88004774Y-85898102D01*
X87965000Y-86098061D01*
X87965000Y-86301939D01*
X88004774Y-86501898D01*
X88082795Y-86690256D01*
X88196063Y-86859774D01*
X88240001Y-86903712D01*
X88240000Y-99496289D01*
X88183410Y-99552879D01*
X88070142Y-99722397D01*
X87992121Y-99910755D01*
X87952347Y-100110714D01*
X87952347Y-100314592D01*
X87992121Y-100514551D01*
X88070142Y-100702909D01*
X88183410Y-100872427D01*
X88327573Y-101016590D01*
X88497091Y-101129858D01*
X88685449Y-101207879D01*
X88885408Y-101247653D01*
X89089286Y-101247653D01*
X89289245Y-101207879D01*
X89477603Y-101129858D01*
X89640000Y-101021348D01*
X89640001Y-104488423D01*
X89596532Y-104444954D01*
X89568817Y-104411183D01*
X89434059Y-104300589D01*
X89280313Y-104218411D01*
X89113490Y-104167805D01*
X88983477Y-104155000D01*
X88983469Y-104155000D01*
X88940000Y-104150719D01*
X88896531Y-104155000D01*
X85285000Y-104155000D01*
X85285000Y-100843465D01*
X85289281Y-100799999D01*
X85285000Y-100756533D01*
X85285000Y-100756523D01*
X85272195Y-100626510D01*
X85221589Y-100459687D01*
X85139411Y-100305941D01*
X85098862Y-100256532D01*
X85056532Y-100204953D01*
X85056530Y-100204951D01*
X85028817Y-100171183D01*
X84995049Y-100143470D01*
X83856532Y-99004954D01*
X83828817Y-98971183D01*
X83694059Y-98860589D01*
X83540313Y-98778411D01*
X83373490Y-98727805D01*
X83243477Y-98715000D01*
X83243469Y-98715000D01*
X83200000Y-98710719D01*
X83156531Y-98715000D01*
X81366578Y-98715000D01*
X81336042Y-98684464D01*
X81336042Y-89894511D01*
X81340323Y-89851042D01*
X81336042Y-89807573D01*
X81336042Y-89807565D01*
X81323237Y-89677552D01*
X81292348Y-89575725D01*
X81272631Y-89510728D01*
X81190453Y-89356983D01*
X81107574Y-89255995D01*
X81107572Y-89255993D01*
X81079859Y-89222225D01*
X81046092Y-89194513D01*
X80085000Y-88233422D01*
X80085000Y-88085000D01*
X83966479Y-88085000D01*
X83963194Y-88089003D01*
X83563997Y-88488200D01*
X83534999Y-88511998D01*
X83511201Y-88540996D01*
X83511200Y-88540997D01*
X83440025Y-88627723D01*
X83369453Y-88759753D01*
X83358693Y-88795226D01*
X83330249Y-88888998D01*
X83325997Y-88903014D01*
X83311323Y-89051999D01*
X83315000Y-89089331D01*
X83314999Y-90461547D01*
X83282795Y-90509744D01*
X83204774Y-90698102D01*
X83165000Y-90898061D01*
X83165000Y-91101939D01*
X83204774Y-91301898D01*
X83282795Y-91490256D01*
X83396063Y-91659774D01*
X83540226Y-91803937D01*
X83709744Y-91917205D01*
X83898102Y-91995226D01*
X84098061Y-92035000D01*
X84301939Y-92035000D01*
X84501898Y-91995226D01*
X84690256Y-91917205D01*
X84859774Y-91803937D01*
X85003937Y-91659774D01*
X85117205Y-91490256D01*
X85195226Y-91301898D01*
X85235000Y-91101939D01*
X85235000Y-90898061D01*
X85195226Y-90698102D01*
X85117205Y-90509744D01*
X85047868Y-90405973D01*
X85101898Y-90395226D01*
X85290256Y-90317205D01*
X85459774Y-90203937D01*
X85503711Y-90160000D01*
X85962678Y-90160000D01*
X86000000Y-90163676D01*
X86037322Y-90160000D01*
X86037333Y-90160000D01*
X86148986Y-90149003D01*
X86292247Y-90105546D01*
X86424276Y-90034974D01*
X86540001Y-89940001D01*
X86563804Y-89910998D01*
X87511004Y-88963798D01*
X87540001Y-88940001D01*
X87634974Y-88824276D01*
X87705546Y-88692247D01*
X87749003Y-88548986D01*
X87760000Y-88437333D01*
X87760000Y-88437332D01*
X87763677Y-88400000D01*
X87760000Y-88362667D01*
X87760000Y-85614801D01*
X87914802Y-85460000D01*
X88276289Y-85460000D01*
X88196063Y-85540226D01*
X88196063Y-85540226D01*
G37*
X88196063Y-85540226D02*
X88082795Y-85709744D01*
X88004774Y-85898102D01*
X87965000Y-86098061D01*
X87965000Y-86301939D01*
X88004774Y-86501898D01*
X88082795Y-86690256D01*
X88196063Y-86859774D01*
X88240001Y-86903712D01*
X88240000Y-99496289D01*
X88183410Y-99552879D01*
X88070142Y-99722397D01*
X87992121Y-99910755D01*
X87952347Y-100110714D01*
X87952347Y-100314592D01*
X87992121Y-100514551D01*
X88070142Y-100702909D01*
X88183410Y-100872427D01*
X88327573Y-101016590D01*
X88497091Y-101129858D01*
X88685449Y-101207879D01*
X88885408Y-101247653D01*
X89089286Y-101247653D01*
X89289245Y-101207879D01*
X89477603Y-101129858D01*
X89640000Y-101021348D01*
X89640001Y-104488423D01*
X89596532Y-104444954D01*
X89568817Y-104411183D01*
X89434059Y-104300589D01*
X89280313Y-104218411D01*
X89113490Y-104167805D01*
X88983477Y-104155000D01*
X88983469Y-104155000D01*
X88940000Y-104150719D01*
X88896531Y-104155000D01*
X85285000Y-104155000D01*
X85285000Y-100843465D01*
X85289281Y-100799999D01*
X85285000Y-100756533D01*
X85285000Y-100756523D01*
X85272195Y-100626510D01*
X85221589Y-100459687D01*
X85139411Y-100305941D01*
X85098862Y-100256532D01*
X85056532Y-100204953D01*
X85056530Y-100204951D01*
X85028817Y-100171183D01*
X84995049Y-100143470D01*
X83856532Y-99004954D01*
X83828817Y-98971183D01*
X83694059Y-98860589D01*
X83540313Y-98778411D01*
X83373490Y-98727805D01*
X83243477Y-98715000D01*
X83243469Y-98715000D01*
X83200000Y-98710719D01*
X83156531Y-98715000D01*
X81366578Y-98715000D01*
X81336042Y-98684464D01*
X81336042Y-89894511D01*
X81340323Y-89851042D01*
X81336042Y-89807573D01*
X81336042Y-89807565D01*
X81323237Y-89677552D01*
X81292348Y-89575725D01*
X81272631Y-89510728D01*
X81190453Y-89356983D01*
X81107574Y-89255995D01*
X81107572Y-89255993D01*
X81079859Y-89222225D01*
X81046092Y-89194513D01*
X80085000Y-88233422D01*
X80085000Y-88085000D01*
X83966479Y-88085000D01*
X83963194Y-88089003D01*
X83563997Y-88488200D01*
X83534999Y-88511998D01*
X83511201Y-88540996D01*
X83511200Y-88540997D01*
X83440025Y-88627723D01*
X83369453Y-88759753D01*
X83358693Y-88795226D01*
X83330249Y-88888998D01*
X83325997Y-88903014D01*
X83311323Y-89051999D01*
X83315000Y-89089331D01*
X83314999Y-90461547D01*
X83282795Y-90509744D01*
X83204774Y-90698102D01*
X83165000Y-90898061D01*
X83165000Y-91101939D01*
X83204774Y-91301898D01*
X83282795Y-91490256D01*
X83396063Y-91659774D01*
X83540226Y-91803937D01*
X83709744Y-91917205D01*
X83898102Y-91995226D01*
X84098061Y-92035000D01*
X84301939Y-92035000D01*
X84501898Y-91995226D01*
X84690256Y-91917205D01*
X84859774Y-91803937D01*
X85003937Y-91659774D01*
X85117205Y-91490256D01*
X85195226Y-91301898D01*
X85235000Y-91101939D01*
X85235000Y-90898061D01*
X85195226Y-90698102D01*
X85117205Y-90509744D01*
X85047868Y-90405973D01*
X85101898Y-90395226D01*
X85290256Y-90317205D01*
X85459774Y-90203937D01*
X85503711Y-90160000D01*
X85962678Y-90160000D01*
X86000000Y-90163676D01*
X86037322Y-90160000D01*
X86037333Y-90160000D01*
X86148986Y-90149003D01*
X86292247Y-90105546D01*
X86424276Y-90034974D01*
X86540001Y-89940001D01*
X86563804Y-89910998D01*
X87511004Y-88963798D01*
X87540001Y-88940001D01*
X87634974Y-88824276D01*
X87705546Y-88692247D01*
X87749003Y-88548986D01*
X87760000Y-88437333D01*
X87760000Y-88437332D01*
X87763677Y-88400000D01*
X87760000Y-88362667D01*
X87760000Y-85614801D01*
X87914802Y-85460000D01*
X88276289Y-85460000D01*
X88196063Y-85540226D01*
G36*
X93404956Y-78993466D02*
G01*
X93371183Y-79021183D01*
X93260589Y-79155942D01*
X93178411Y-79309688D01*
X93127805Y-79476511D01*
X93124065Y-79514482D01*
X93025518Y-79524188D01*
X92905820Y-79560498D01*
X92795506Y-79619463D01*
X92698815Y-79698815D01*
X92619463Y-79795506D01*
X92560498Y-79905820D01*
X92539607Y-79974687D01*
X92515134Y-79944866D01*
X92289014Y-79759294D01*
X92031034Y-79621401D01*
X91751111Y-79536487D01*
X91532950Y-79515000D01*
X91387050Y-79515000D01*
X91168889Y-79536487D01*
X90888966Y-79621401D01*
X90630986Y-79759294D01*
X90404866Y-79944866D01*
X90219294Y-80170986D01*
X90190000Y-80225791D01*
X90160706Y-80170986D01*
X89975134Y-79944866D01*
X89749014Y-79759294D01*
X89491034Y-79621401D01*
X89211111Y-79536487D01*
X88992950Y-79515000D01*
X88847050Y-79515000D01*
X88628889Y-79536487D01*
X88348966Y-79621401D01*
X88090986Y-79759294D01*
X87864866Y-79944866D01*
X87679294Y-80170986D01*
X87644799Y-80235523D01*
X87575178Y-80118645D01*
X87380269Y-79902412D01*
X87146920Y-79728359D01*
X86884099Y-79603175D01*
X86736890Y-79558524D01*
X86507000Y-79679845D01*
X86507000Y-80873000D01*
X86527000Y-80873000D01*
X86527000Y-81127000D01*
X86507000Y-81127000D01*
X86507000Y-82320155D01*
X86736890Y-82441476D01*
X86884099Y-82396825D01*
X87146920Y-82271641D01*
X87380269Y-82097588D01*
X87575178Y-81881355D01*
X87644799Y-81764477D01*
X87679294Y-81829014D01*
X87864866Y-82055134D01*
X88090986Y-82240706D01*
X88348966Y-82378599D01*
X88628889Y-82463513D01*
X88847050Y-82485000D01*
X88992950Y-82485000D01*
X89211111Y-82463513D01*
X89491034Y-82378599D01*
X89749014Y-82240706D01*
X89975134Y-82055134D01*
X90160706Y-81829014D01*
X90190000Y-81774209D01*
X90219294Y-81829014D01*
X90404866Y-82055134D01*
X90630986Y-82240706D01*
X90888966Y-82378599D01*
X91168889Y-82463513D01*
X91387050Y-82485000D01*
X91532950Y-82485000D01*
X91751111Y-82463513D01*
X92031034Y-82378599D01*
X92289014Y-82240706D01*
X92515134Y-82055134D01*
X92539607Y-82025313D01*
X92560498Y-82094180D01*
X92619463Y-82204494D01*
X92698815Y-82301185D01*
X92795506Y-82380537D01*
X92905820Y-82439502D01*
X93025518Y-82475812D01*
X93115001Y-82484625D01*
X93115001Y-82608401D01*
X92933422Y-82789980D01*
X80168489Y-82789980D01*
X80125020Y-82785699D01*
X80081551Y-82789980D01*
X80081543Y-82789980D01*
X79951530Y-82802785D01*
X79784707Y-82853391D01*
X79630961Y-82935569D01*
X79529973Y-83018448D01*
X79529971Y-83018450D01*
X79496203Y-83046163D01*
X79468490Y-83079931D01*
X78604951Y-83943471D01*
X78571184Y-83971183D01*
X78543471Y-84004951D01*
X78543468Y-84004954D01*
X78460590Y-84105941D01*
X78378412Y-84259687D01*
X78327805Y-84426510D01*
X78310719Y-84600000D01*
X78315001Y-84643479D01*
X78315000Y-86661545D01*
X78282795Y-86709744D01*
X78204774Y-86898102D01*
X78165000Y-87098061D01*
X78165000Y-87301939D01*
X78204774Y-87501898D01*
X78282795Y-87690256D01*
X78315000Y-87738455D01*
X78315001Y-88556521D01*
X78310719Y-88600000D01*
X78327805Y-88773490D01*
X78378412Y-88940313D01*
X78460590Y-89094059D01*
X78543468Y-89195046D01*
X78543471Y-89195049D01*
X78571184Y-89228817D01*
X78604951Y-89256529D01*
X79313421Y-89965000D01*
X79298061Y-89965000D01*
X79098102Y-90004774D01*
X78909744Y-90082795D01*
X78740226Y-90196063D01*
X78596063Y-90340226D01*
X78482795Y-90509744D01*
X78404774Y-90698102D01*
X78365000Y-90898061D01*
X78365000Y-91101939D01*
X78404774Y-91301898D01*
X78482795Y-91490256D01*
X78596063Y-91659774D01*
X78716042Y-91779753D01*
X78716041Y-92313959D01*
X78044507Y-92313959D01*
X78001040Y-92309678D01*
X77957574Y-92313959D01*
X77957564Y-92313959D01*
X77827551Y-92326764D01*
X77660728Y-92377370D01*
X77506982Y-92459548D01*
X77506980Y-92459549D01*
X77506981Y-92459549D01*
X77405994Y-92542427D01*
X77405992Y-92542429D01*
X77372224Y-92570142D01*
X77344511Y-92603910D01*
X76604951Y-93343471D01*
X76571184Y-93371183D01*
X76543471Y-93404951D01*
X76543468Y-93404954D01*
X76460590Y-93505941D01*
X76378412Y-93659687D01*
X76327805Y-93826510D01*
X76310719Y-94000000D01*
X76315001Y-94043479D01*
X76315000Y-103029055D01*
X75737418Y-103606637D01*
X75738072Y-103600000D01*
X75735000Y-102785750D01*
X75576250Y-102627000D01*
X74127000Y-102627000D01*
X74127000Y-102647000D01*
X73873000Y-102647000D01*
X73873000Y-102627000D01*
X73853000Y-102627000D01*
X73853000Y-102373000D01*
X73873000Y-102373000D01*
X73873000Y-100923750D01*
X74127000Y-100923750D01*
X74127000Y-102373000D01*
X75576250Y-102373000D01*
X75735000Y-102214250D01*
X75738072Y-101400000D01*
X75725812Y-101275518D01*
X75689502Y-101155820D01*
X75630537Y-101045506D01*
X75551185Y-100948815D01*
X75454494Y-100869463D01*
X75344180Y-100810498D01*
X75224482Y-100774188D01*
X75100000Y-100761928D01*
X74285750Y-100765000D01*
X74127000Y-100923750D01*
X73873000Y-100923750D01*
X73714250Y-100765000D01*
X72900000Y-100761928D01*
X72775518Y-100774188D01*
X72655820Y-100810498D01*
X72545506Y-100869463D01*
X72448815Y-100948815D01*
X72369463Y-101045506D01*
X72310498Y-101155820D01*
X72274188Y-101275518D01*
X72261928Y-101400000D01*
X72262784Y-101626940D01*
X72215394Y-101579550D01*
X72021308Y-101449866D01*
X71805652Y-101360539D01*
X71576712Y-101315000D01*
X71343288Y-101315000D01*
X71114348Y-101360539D01*
X70898692Y-101449866D01*
X70704606Y-101579550D01*
X70660000Y-101624156D01*
X70660000Y-95088212D01*
X73115000Y-95088212D01*
X73115000Y-95311788D01*
X73158617Y-95531067D01*
X73244176Y-95737624D01*
X73368388Y-95923520D01*
X73526480Y-96081612D01*
X73712376Y-96205824D01*
X73918933Y-96291383D01*
X74138212Y-96335000D01*
X74361788Y-96335000D01*
X74581067Y-96291383D01*
X74787624Y-96205824D01*
X74973520Y-96081612D01*
X75131612Y-95923520D01*
X75255824Y-95737624D01*
X75341383Y-95531067D01*
X75385000Y-95311788D01*
X75385000Y-95088212D01*
X75341383Y-94868933D01*
X75255824Y-94662376D01*
X75131612Y-94476480D01*
X74973520Y-94318388D01*
X74787624Y-94194176D01*
X74581067Y-94108617D01*
X74361788Y-94065000D01*
X74138212Y-94065000D01*
X73918933Y-94108617D01*
X73712376Y-94194176D01*
X73526480Y-94318388D01*
X73368388Y-94476480D01*
X73244176Y-94662376D01*
X73158617Y-94868933D01*
X73115000Y-95088212D01*
X70660000Y-95088212D01*
X70660000Y-90688212D01*
X73115000Y-90688212D01*
X73115000Y-90911788D01*
X73158617Y-91131067D01*
X73244176Y-91337624D01*
X73368388Y-91523520D01*
X73526480Y-91681612D01*
X73712376Y-91805824D01*
X73918933Y-91891383D01*
X74138212Y-91935000D01*
X74361788Y-91935000D01*
X74581067Y-91891383D01*
X74787624Y-91805824D01*
X74973520Y-91681612D01*
X75131612Y-91523520D01*
X75255824Y-91337624D01*
X75341383Y-91131067D01*
X75385000Y-90911788D01*
X75385000Y-90688212D01*
X75341383Y-90468933D01*
X75255824Y-90262376D01*
X75131612Y-90076480D01*
X74973520Y-89918388D01*
X74787624Y-89794176D01*
X74581067Y-89708617D01*
X74361788Y-89665000D01*
X74138212Y-89665000D01*
X73918933Y-89708617D01*
X73712376Y-89794176D01*
X73526480Y-89918388D01*
X73368388Y-90076480D01*
X73244176Y-90262376D01*
X73158617Y-90468933D01*
X73115000Y-90688212D01*
X70660000Y-90688212D01*
X70660000Y-81356891D01*
X84938519Y-81356891D01*
X85035843Y-81631252D01*
X85184822Y-81881355D01*
X85379731Y-82097588D01*
X85613080Y-82271641D01*
X85875901Y-82396825D01*
X86023110Y-82441476D01*
X86253000Y-82320155D01*
X86253000Y-81127000D01*
X85059186Y-81127000D01*
X84938519Y-81356891D01*
X70660000Y-81356891D01*
X70660000Y-80643109D01*
X84938519Y-80643109D01*
X85059186Y-80873000D01*
X86253000Y-80873000D01*
X86253000Y-79679845D01*
X86023110Y-79558524D01*
X85875901Y-79603175D01*
X85613080Y-79728359D01*
X85379731Y-79902412D01*
X85184822Y-80118645D01*
X85035843Y-80368748D01*
X84938519Y-80643109D01*
X70660000Y-80643109D01*
X70660000Y-78660000D01*
X93738422Y-78660000D01*
X93404956Y-78993466D01*
X93404956Y-78993466D01*
G37*
X93404956Y-78993466D02*
X93371183Y-79021183D01*
X93260589Y-79155942D01*
X93178411Y-79309688D01*
X93127805Y-79476511D01*
X93124065Y-79514482D01*
X93025518Y-79524188D01*
X92905820Y-79560498D01*
X92795506Y-79619463D01*
X92698815Y-79698815D01*
X92619463Y-79795506D01*
X92560498Y-79905820D01*
X92539607Y-79974687D01*
X92515134Y-79944866D01*
X92289014Y-79759294D01*
X92031034Y-79621401D01*
X91751111Y-79536487D01*
X91532950Y-79515000D01*
X91387050Y-79515000D01*
X91168889Y-79536487D01*
X90888966Y-79621401D01*
X90630986Y-79759294D01*
X90404866Y-79944866D01*
X90219294Y-80170986D01*
X90190000Y-80225791D01*
X90160706Y-80170986D01*
X89975134Y-79944866D01*
X89749014Y-79759294D01*
X89491034Y-79621401D01*
X89211111Y-79536487D01*
X88992950Y-79515000D01*
X88847050Y-79515000D01*
X88628889Y-79536487D01*
X88348966Y-79621401D01*
X88090986Y-79759294D01*
X87864866Y-79944866D01*
X87679294Y-80170986D01*
X87644799Y-80235523D01*
X87575178Y-80118645D01*
X87380269Y-79902412D01*
X87146920Y-79728359D01*
X86884099Y-79603175D01*
X86736890Y-79558524D01*
X86507000Y-79679845D01*
X86507000Y-80873000D01*
X86527000Y-80873000D01*
X86527000Y-81127000D01*
X86507000Y-81127000D01*
X86507000Y-82320155D01*
X86736890Y-82441476D01*
X86884099Y-82396825D01*
X87146920Y-82271641D01*
X87380269Y-82097588D01*
X87575178Y-81881355D01*
X87644799Y-81764477D01*
X87679294Y-81829014D01*
X87864866Y-82055134D01*
X88090986Y-82240706D01*
X88348966Y-82378599D01*
X88628889Y-82463513D01*
X88847050Y-82485000D01*
X88992950Y-82485000D01*
X89211111Y-82463513D01*
X89491034Y-82378599D01*
X89749014Y-82240706D01*
X89975134Y-82055134D01*
X90160706Y-81829014D01*
X90190000Y-81774209D01*
X90219294Y-81829014D01*
X90404866Y-82055134D01*
X90630986Y-82240706D01*
X90888966Y-82378599D01*
X91168889Y-82463513D01*
X91387050Y-82485000D01*
X91532950Y-82485000D01*
X91751111Y-82463513D01*
X92031034Y-82378599D01*
X92289014Y-82240706D01*
X92515134Y-82055134D01*
X92539607Y-82025313D01*
X92560498Y-82094180D01*
X92619463Y-82204494D01*
X92698815Y-82301185D01*
X92795506Y-82380537D01*
X92905820Y-82439502D01*
X93025518Y-82475812D01*
X93115001Y-82484625D01*
X93115001Y-82608401D01*
X92933422Y-82789980D01*
X80168489Y-82789980D01*
X80125020Y-82785699D01*
X80081551Y-82789980D01*
X80081543Y-82789980D01*
X79951530Y-82802785D01*
X79784707Y-82853391D01*
X79630961Y-82935569D01*
X79529973Y-83018448D01*
X79529971Y-83018450D01*
X79496203Y-83046163D01*
X79468490Y-83079931D01*
X78604951Y-83943471D01*
X78571184Y-83971183D01*
X78543471Y-84004951D01*
X78543468Y-84004954D01*
X78460590Y-84105941D01*
X78378412Y-84259687D01*
X78327805Y-84426510D01*
X78310719Y-84600000D01*
X78315001Y-84643479D01*
X78315000Y-86661545D01*
X78282795Y-86709744D01*
X78204774Y-86898102D01*
X78165000Y-87098061D01*
X78165000Y-87301939D01*
X78204774Y-87501898D01*
X78282795Y-87690256D01*
X78315000Y-87738455D01*
X78315001Y-88556521D01*
X78310719Y-88600000D01*
X78327805Y-88773490D01*
X78378412Y-88940313D01*
X78460590Y-89094059D01*
X78543468Y-89195046D01*
X78543471Y-89195049D01*
X78571184Y-89228817D01*
X78604951Y-89256529D01*
X79313421Y-89965000D01*
X79298061Y-89965000D01*
X79098102Y-90004774D01*
X78909744Y-90082795D01*
X78740226Y-90196063D01*
X78596063Y-90340226D01*
X78482795Y-90509744D01*
X78404774Y-90698102D01*
X78365000Y-90898061D01*
X78365000Y-91101939D01*
X78404774Y-91301898D01*
X78482795Y-91490256D01*
X78596063Y-91659774D01*
X78716042Y-91779753D01*
X78716041Y-92313959D01*
X78044507Y-92313959D01*
X78001040Y-92309678D01*
X77957574Y-92313959D01*
X77957564Y-92313959D01*
X77827551Y-92326764D01*
X77660728Y-92377370D01*
X77506982Y-92459548D01*
X77506980Y-92459549D01*
X77506981Y-92459549D01*
X77405994Y-92542427D01*
X77405992Y-92542429D01*
X77372224Y-92570142D01*
X77344511Y-92603910D01*
X76604951Y-93343471D01*
X76571184Y-93371183D01*
X76543471Y-93404951D01*
X76543468Y-93404954D01*
X76460590Y-93505941D01*
X76378412Y-93659687D01*
X76327805Y-93826510D01*
X76310719Y-94000000D01*
X76315001Y-94043479D01*
X76315000Y-103029055D01*
X75737418Y-103606637D01*
X75738072Y-103600000D01*
X75735000Y-102785750D01*
X75576250Y-102627000D01*
X74127000Y-102627000D01*
X74127000Y-102647000D01*
X73873000Y-102647000D01*
X73873000Y-102627000D01*
X73853000Y-102627000D01*
X73853000Y-102373000D01*
X73873000Y-102373000D01*
X73873000Y-100923750D01*
X74127000Y-100923750D01*
X74127000Y-102373000D01*
X75576250Y-102373000D01*
X75735000Y-102214250D01*
X75738072Y-101400000D01*
X75725812Y-101275518D01*
X75689502Y-101155820D01*
X75630537Y-101045506D01*
X75551185Y-100948815D01*
X75454494Y-100869463D01*
X75344180Y-100810498D01*
X75224482Y-100774188D01*
X75100000Y-100761928D01*
X74285750Y-100765000D01*
X74127000Y-100923750D01*
X73873000Y-100923750D01*
X73714250Y-100765000D01*
X72900000Y-100761928D01*
X72775518Y-100774188D01*
X72655820Y-100810498D01*
X72545506Y-100869463D01*
X72448815Y-100948815D01*
X72369463Y-101045506D01*
X72310498Y-101155820D01*
X72274188Y-101275518D01*
X72261928Y-101400000D01*
X72262784Y-101626940D01*
X72215394Y-101579550D01*
X72021308Y-101449866D01*
X71805652Y-101360539D01*
X71576712Y-101315000D01*
X71343288Y-101315000D01*
X71114348Y-101360539D01*
X70898692Y-101449866D01*
X70704606Y-101579550D01*
X70660000Y-101624156D01*
X70660000Y-95088212D01*
X73115000Y-95088212D01*
X73115000Y-95311788D01*
X73158617Y-95531067D01*
X73244176Y-95737624D01*
X73368388Y-95923520D01*
X73526480Y-96081612D01*
X73712376Y-96205824D01*
X73918933Y-96291383D01*
X74138212Y-96335000D01*
X74361788Y-96335000D01*
X74581067Y-96291383D01*
X74787624Y-96205824D01*
X74973520Y-96081612D01*
X75131612Y-95923520D01*
X75255824Y-95737624D01*
X75341383Y-95531067D01*
X75385000Y-95311788D01*
X75385000Y-95088212D01*
X75341383Y-94868933D01*
X75255824Y-94662376D01*
X75131612Y-94476480D01*
X74973520Y-94318388D01*
X74787624Y-94194176D01*
X74581067Y-94108617D01*
X74361788Y-94065000D01*
X74138212Y-94065000D01*
X73918933Y-94108617D01*
X73712376Y-94194176D01*
X73526480Y-94318388D01*
X73368388Y-94476480D01*
X73244176Y-94662376D01*
X73158617Y-94868933D01*
X73115000Y-95088212D01*
X70660000Y-95088212D01*
X70660000Y-90688212D01*
X73115000Y-90688212D01*
X73115000Y-90911788D01*
X73158617Y-91131067D01*
X73244176Y-91337624D01*
X73368388Y-91523520D01*
X73526480Y-91681612D01*
X73712376Y-91805824D01*
X73918933Y-91891383D01*
X74138212Y-91935000D01*
X74361788Y-91935000D01*
X74581067Y-91891383D01*
X74787624Y-91805824D01*
X74973520Y-91681612D01*
X75131612Y-91523520D01*
X75255824Y-91337624D01*
X75341383Y-91131067D01*
X75385000Y-90911788D01*
X75385000Y-90688212D01*
X75341383Y-90468933D01*
X75255824Y-90262376D01*
X75131612Y-90076480D01*
X74973520Y-89918388D01*
X74787624Y-89794176D01*
X74581067Y-89708617D01*
X74361788Y-89665000D01*
X74138212Y-89665000D01*
X73918933Y-89708617D01*
X73712376Y-89794176D01*
X73526480Y-89918388D01*
X73368388Y-90076480D01*
X73244176Y-90262376D01*
X73158617Y-90468933D01*
X73115000Y-90688212D01*
X70660000Y-90688212D01*
X70660000Y-81356891D01*
X84938519Y-81356891D01*
X85035843Y-81631252D01*
X85184822Y-81881355D01*
X85379731Y-82097588D01*
X85613080Y-82271641D01*
X85875901Y-82396825D01*
X86023110Y-82441476D01*
X86253000Y-82320155D01*
X86253000Y-81127000D01*
X85059186Y-81127000D01*
X84938519Y-81356891D01*
X70660000Y-81356891D01*
X70660000Y-80643109D01*
X84938519Y-80643109D01*
X85059186Y-80873000D01*
X86253000Y-80873000D01*
X86253000Y-79679845D01*
X86023110Y-79558524D01*
X85875901Y-79603175D01*
X85613080Y-79728359D01*
X85379731Y-79902412D01*
X85184822Y-80118645D01*
X85035843Y-80368748D01*
X84938519Y-80643109D01*
X70660000Y-80643109D01*
X70660000Y-78660000D01*
X93738422Y-78660000D01*
X93404956Y-78993466D01*
G36*
X84965000Y-84626919D02*
G01*
X85004774Y-84826878D01*
X85082795Y-85015236D01*
X85196063Y-85184754D01*
X85340226Y-85328917D01*
X85509744Y-85442185D01*
X85698102Y-85520206D01*
X85789992Y-85538484D01*
X85789991Y-87126280D01*
X85659774Y-86996063D01*
X85490256Y-86882795D01*
X85301898Y-86804774D01*
X85245043Y-86793465D01*
X85056534Y-86604956D01*
X85028817Y-86571183D01*
X84894059Y-86460589D01*
X84740313Y-86378411D01*
X84573490Y-86327805D01*
X84443477Y-86315000D01*
X84443469Y-86315000D01*
X84400000Y-86310719D01*
X84356531Y-86315000D01*
X80085000Y-86315000D01*
X80085000Y-84966578D01*
X80491599Y-84559980D01*
X84965000Y-84559980D01*
X84965000Y-84626919D01*
X84965000Y-84626919D01*
G37*
X84965000Y-84626919D02*
X85004774Y-84826878D01*
X85082795Y-85015236D01*
X85196063Y-85184754D01*
X85340226Y-85328917D01*
X85509744Y-85442185D01*
X85698102Y-85520206D01*
X85789992Y-85538484D01*
X85789991Y-87126280D01*
X85659774Y-86996063D01*
X85490256Y-86882795D01*
X85301898Y-86804774D01*
X85245043Y-86793465D01*
X85056534Y-86604956D01*
X85028817Y-86571183D01*
X84894059Y-86460589D01*
X84740313Y-86378411D01*
X84573490Y-86327805D01*
X84443477Y-86315000D01*
X84443469Y-86315000D01*
X84400000Y-86310719D01*
X84356531Y-86315000D01*
X80085000Y-86315000D01*
X80085000Y-84966578D01*
X80491599Y-84559980D01*
X84965000Y-84559980D01*
X84965000Y-84626919D01*
M02*
