G04 #@! TF.GenerationSoftware,KiCad,Pcbnew,(5.1.0)-1*
G04 #@! TF.CreationDate,2020-04-10T00:03:40+02:00*
G04 #@! TF.ProjectId,Heissluftballon,48656973-736c-4756-9674-62616c6c6f6e,rev?*
G04 #@! TF.SameCoordinates,Original*
G04 #@! TF.FileFunction,Soldermask,Top*
G04 #@! TF.FilePolarity,Negative*
%FSLAX46Y46*%
G04 Gerber Fmt 4.6, Leading zero omitted, Abs format (unit mm)*
G04 Created by KiCad (PCBNEW (5.1.0)-1) date 2020-04-10 00:03:40*
%MOMM*%
%LPD*%
G04 APERTURE LIST*
%ADD10C,0.100000*%
G04 APERTURE END LIST*
D10*
G36*
X82626601Y-112954397D02*
G01*
X82665305Y-112962096D01*
X82697340Y-112975365D01*
X82774680Y-113007400D01*
X82873115Y-113073173D01*
X82956827Y-113156885D01*
X83022600Y-113255320D01*
X83067904Y-113364696D01*
X83091000Y-113480805D01*
X83091000Y-113599195D01*
X83067904Y-113715304D01*
X83022600Y-113824680D01*
X82956827Y-113923115D01*
X82873115Y-114006827D01*
X82774680Y-114072600D01*
X82697340Y-114104635D01*
X82665305Y-114117904D01*
X82626601Y-114125603D01*
X82549195Y-114141000D01*
X82430805Y-114141000D01*
X82353399Y-114125603D01*
X82314695Y-114117904D01*
X82282660Y-114104635D01*
X82205320Y-114072600D01*
X82106885Y-114006827D01*
X82023173Y-113923115D01*
X81957400Y-113824680D01*
X81912096Y-113715304D01*
X81889000Y-113599195D01*
X81889000Y-113480805D01*
X81912096Y-113364696D01*
X81957400Y-113255320D01*
X82023173Y-113156885D01*
X82106885Y-113073173D01*
X82205320Y-113007400D01*
X82282660Y-112975365D01*
X82314695Y-112962096D01*
X82353399Y-112954397D01*
X82430805Y-112939000D01*
X82549195Y-112939000D01*
X82626601Y-112954397D01*
X82626601Y-112954397D01*
G37*
G36*
X80086601Y-112954397D02*
G01*
X80125305Y-112962096D01*
X80157340Y-112975365D01*
X80234680Y-113007400D01*
X80333115Y-113073173D01*
X80416827Y-113156885D01*
X80482600Y-113255320D01*
X80527904Y-113364696D01*
X80551000Y-113480805D01*
X80551000Y-113599195D01*
X80527904Y-113715304D01*
X80482600Y-113824680D01*
X80416827Y-113923115D01*
X80333115Y-114006827D01*
X80234680Y-114072600D01*
X80157340Y-114104635D01*
X80125305Y-114117904D01*
X80086601Y-114125603D01*
X80009195Y-114141000D01*
X79890805Y-114141000D01*
X79813399Y-114125603D01*
X79774695Y-114117904D01*
X79742660Y-114104635D01*
X79665320Y-114072600D01*
X79566885Y-114006827D01*
X79483173Y-113923115D01*
X79417400Y-113824680D01*
X79372096Y-113715304D01*
X79349000Y-113599195D01*
X79349000Y-113480805D01*
X79372096Y-113364696D01*
X79417400Y-113255320D01*
X79483173Y-113156885D01*
X79566885Y-113073173D01*
X79665320Y-113007400D01*
X79742660Y-112975365D01*
X79774695Y-112962096D01*
X79813399Y-112954397D01*
X79890805Y-112939000D01*
X80009195Y-112939000D01*
X80086601Y-112954397D01*
X80086601Y-112954397D01*
G37*
G36*
X74901000Y-113441000D02*
G01*
X73099000Y-113441000D01*
X73099000Y-111639000D01*
X74901000Y-111639000D01*
X74901000Y-113441000D01*
X74901000Y-113441000D01*
G37*
G36*
X104351000Y-113251000D02*
G01*
X103249000Y-113251000D01*
X103249000Y-111149000D01*
X104351000Y-111149000D01*
X104351000Y-113251000D01*
X104351000Y-113251000D01*
G37*
G36*
X116351000Y-113251000D02*
G01*
X115249000Y-113251000D01*
X115249000Y-111149000D01*
X116351000Y-111149000D01*
X116351000Y-113251000D01*
X116351000Y-113251000D01*
G37*
G36*
X114351000Y-113251000D02*
G01*
X113249000Y-113251000D01*
X113249000Y-111149000D01*
X114351000Y-111149000D01*
X114351000Y-113251000D01*
X114351000Y-113251000D01*
G37*
G36*
X112351000Y-113251000D02*
G01*
X111249000Y-113251000D01*
X111249000Y-111149000D01*
X112351000Y-111149000D01*
X112351000Y-113251000D01*
X112351000Y-113251000D01*
G37*
G36*
X110351000Y-113251000D02*
G01*
X109249000Y-113251000D01*
X109249000Y-111149000D01*
X110351000Y-111149000D01*
X110351000Y-113251000D01*
X110351000Y-113251000D01*
G37*
G36*
X108351000Y-113251000D02*
G01*
X107249000Y-113251000D01*
X107249000Y-111149000D01*
X108351000Y-111149000D01*
X108351000Y-113251000D01*
X108351000Y-113251000D01*
G37*
G36*
X106351000Y-113251000D02*
G01*
X105249000Y-113251000D01*
X105249000Y-111149000D01*
X106351000Y-111149000D01*
X106351000Y-113251000D01*
X106351000Y-113251000D01*
G37*
G36*
X102351000Y-113251000D02*
G01*
X101249000Y-113251000D01*
X101249000Y-111149000D01*
X102351000Y-111149000D01*
X102351000Y-113251000D01*
X102351000Y-113251000D01*
G37*
G36*
X81101000Y-110814007D02*
G01*
X81103402Y-110838393D01*
X81110515Y-110861842D01*
X81122066Y-110883453D01*
X81137611Y-110902395D01*
X81156553Y-110917940D01*
X81178164Y-110929491D01*
X81201613Y-110936604D01*
X81225999Y-110939006D01*
X81250385Y-110936604D01*
X81273834Y-110929491D01*
X81295445Y-110917940D01*
X81314387Y-110902395D01*
X81329932Y-110883453D01*
X81341483Y-110861842D01*
X81348596Y-110838393D01*
X81383232Y-110664267D01*
X81393207Y-110640186D01*
X81469997Y-110454797D01*
X81595960Y-110266280D01*
X81756280Y-110105960D01*
X81944797Y-109979997D01*
X82154266Y-109893232D01*
X82265451Y-109871116D01*
X82376635Y-109849000D01*
X82603365Y-109849000D01*
X82714549Y-109871116D01*
X82825734Y-109893232D01*
X83035203Y-109979997D01*
X83223720Y-110105960D01*
X83384040Y-110266280D01*
X83510003Y-110454797D01*
X83596768Y-110664266D01*
X83641000Y-110886636D01*
X83641000Y-111113364D01*
X83596768Y-111335734D01*
X83510003Y-111545203D01*
X83384040Y-111733720D01*
X83223720Y-111894040D01*
X83035203Y-112020003D01*
X82825734Y-112106768D01*
X82714549Y-112128884D01*
X82603365Y-112151000D01*
X82376635Y-112151000D01*
X82265451Y-112128884D01*
X82154266Y-112106768D01*
X81944797Y-112020003D01*
X81756280Y-111894040D01*
X81595960Y-111733720D01*
X81469997Y-111545203D01*
X81383232Y-111335734D01*
X81348596Y-111161607D01*
X81341483Y-111138158D01*
X81329932Y-111116547D01*
X81314387Y-111097605D01*
X81295445Y-111082060D01*
X81273834Y-111070509D01*
X81250385Y-111063396D01*
X81225999Y-111060994D01*
X81201613Y-111063396D01*
X81178164Y-111070509D01*
X81156553Y-111082060D01*
X81137611Y-111097605D01*
X81122066Y-111116547D01*
X81110515Y-111138158D01*
X81103402Y-111161607D01*
X81101000Y-111185993D01*
X81101000Y-112151000D01*
X78799000Y-112151000D01*
X78799000Y-109849000D01*
X81101000Y-109849000D01*
X81101000Y-110814007D01*
X81101000Y-110814007D01*
G37*
G36*
X74110443Y-109105519D02*
G01*
X74176627Y-109112037D01*
X74346466Y-109163557D01*
X74502991Y-109247222D01*
X74538729Y-109276552D01*
X74640186Y-109359814D01*
X74704673Y-109438393D01*
X74752778Y-109497009D01*
X74836443Y-109653534D01*
X74887963Y-109823373D01*
X74905359Y-110000000D01*
X74887963Y-110176627D01*
X74836443Y-110346466D01*
X74752778Y-110502991D01*
X74723448Y-110538729D01*
X74640186Y-110640186D01*
X74538729Y-110723448D01*
X74502991Y-110752778D01*
X74502989Y-110752779D01*
X74388441Y-110814007D01*
X74346466Y-110836443D01*
X74176627Y-110887963D01*
X74110443Y-110894481D01*
X74044260Y-110901000D01*
X73955740Y-110901000D01*
X73889557Y-110894481D01*
X73823373Y-110887963D01*
X73653534Y-110836443D01*
X73611560Y-110814007D01*
X73497011Y-110752779D01*
X73497009Y-110752778D01*
X73461271Y-110723448D01*
X73359814Y-110640186D01*
X73276552Y-110538729D01*
X73247222Y-110502991D01*
X73163557Y-110346466D01*
X73112037Y-110176627D01*
X73094641Y-110000000D01*
X73112037Y-109823373D01*
X73163557Y-109653534D01*
X73247222Y-109497009D01*
X73295327Y-109438393D01*
X73359814Y-109359814D01*
X73461271Y-109276552D01*
X73497009Y-109247222D01*
X73653534Y-109163557D01*
X73823373Y-109112037D01*
X73889557Y-109105519D01*
X73955740Y-109099000D01*
X74044260Y-109099000D01*
X74110443Y-109105519D01*
X74110443Y-109105519D01*
G37*
G36*
X94679591Y-109428085D02*
G01*
X94713569Y-109438393D01*
X94744890Y-109455134D01*
X94772339Y-109477661D01*
X94794866Y-109505110D01*
X94811607Y-109536431D01*
X94821915Y-109570409D01*
X94826000Y-109611890D01*
X94826000Y-110288110D01*
X94821915Y-110329591D01*
X94811607Y-110363569D01*
X94794866Y-110394890D01*
X94772339Y-110422339D01*
X94744890Y-110444866D01*
X94713569Y-110461607D01*
X94679591Y-110471915D01*
X94638110Y-110476000D01*
X94036890Y-110476000D01*
X93995409Y-110471915D01*
X93961431Y-110461607D01*
X93930110Y-110444866D01*
X93902661Y-110422339D01*
X93880134Y-110394890D01*
X93863393Y-110363569D01*
X93853085Y-110329591D01*
X93849000Y-110288110D01*
X93849000Y-109611890D01*
X93853085Y-109570409D01*
X93863393Y-109536431D01*
X93880134Y-109505110D01*
X93902661Y-109477661D01*
X93930110Y-109455134D01*
X93961431Y-109438393D01*
X93995409Y-109428085D01*
X94036890Y-109424000D01*
X94638110Y-109424000D01*
X94679591Y-109428085D01*
X94679591Y-109428085D01*
G37*
G36*
X93104591Y-109428085D02*
G01*
X93138569Y-109438393D01*
X93169890Y-109455134D01*
X93197339Y-109477661D01*
X93219866Y-109505110D01*
X93236607Y-109536431D01*
X93246915Y-109570409D01*
X93251000Y-109611890D01*
X93251000Y-110288110D01*
X93246915Y-110329591D01*
X93236607Y-110363569D01*
X93219866Y-110394890D01*
X93197339Y-110422339D01*
X93169890Y-110444866D01*
X93138569Y-110461607D01*
X93104591Y-110471915D01*
X93063110Y-110476000D01*
X92461890Y-110476000D01*
X92420409Y-110471915D01*
X92386431Y-110461607D01*
X92355110Y-110444866D01*
X92327661Y-110422339D01*
X92305134Y-110394890D01*
X92288393Y-110363569D01*
X92278085Y-110329591D01*
X92274000Y-110288110D01*
X92274000Y-109611890D01*
X92278085Y-109570409D01*
X92288393Y-109536431D01*
X92305134Y-109505110D01*
X92327661Y-109477661D01*
X92355110Y-109455134D01*
X92386431Y-109438393D01*
X92420409Y-109428085D01*
X92461890Y-109424000D01*
X93063110Y-109424000D01*
X93104591Y-109428085D01*
X93104591Y-109428085D01*
G37*
G36*
X90626000Y-108151000D02*
G01*
X88774000Y-108151000D01*
X88774000Y-101749000D01*
X90626000Y-101749000D01*
X90626000Y-108151000D01*
X90626000Y-108151000D01*
G37*
G36*
X97826000Y-108151000D02*
G01*
X95974000Y-108151000D01*
X95974000Y-101749000D01*
X97826000Y-101749000D01*
X97826000Y-108151000D01*
X97826000Y-108151000D01*
G37*
G36*
X86179591Y-105503085D02*
G01*
X86213569Y-105513393D01*
X86244890Y-105530134D01*
X86272339Y-105552661D01*
X86294866Y-105580110D01*
X86311607Y-105611431D01*
X86321915Y-105645409D01*
X86326000Y-105686890D01*
X86326000Y-106288110D01*
X86321915Y-106329591D01*
X86311607Y-106363569D01*
X86294866Y-106394890D01*
X86272339Y-106422339D01*
X86244890Y-106444866D01*
X86213569Y-106461607D01*
X86179591Y-106471915D01*
X86138110Y-106476000D01*
X85461890Y-106476000D01*
X85420409Y-106471915D01*
X85386431Y-106461607D01*
X85355110Y-106444866D01*
X85327661Y-106422339D01*
X85305134Y-106394890D01*
X85288393Y-106363569D01*
X85278085Y-106329591D01*
X85274000Y-106288110D01*
X85274000Y-105686890D01*
X85278085Y-105645409D01*
X85288393Y-105611431D01*
X85305134Y-105580110D01*
X85327661Y-105552661D01*
X85355110Y-105530134D01*
X85386431Y-105513393D01*
X85420409Y-105503085D01*
X85461890Y-105499000D01*
X86138110Y-105499000D01*
X86179591Y-105503085D01*
X86179591Y-105503085D01*
G37*
G36*
X87929591Y-105503085D02*
G01*
X87963569Y-105513393D01*
X87994890Y-105530134D01*
X88022339Y-105552661D01*
X88044866Y-105580110D01*
X88061607Y-105611431D01*
X88071915Y-105645409D01*
X88076000Y-105686890D01*
X88076000Y-106288110D01*
X88071915Y-106329591D01*
X88061607Y-106363569D01*
X88044866Y-106394890D01*
X88022339Y-106422339D01*
X87994890Y-106444866D01*
X87963569Y-106461607D01*
X87929591Y-106471915D01*
X87888110Y-106476000D01*
X87211890Y-106476000D01*
X87170409Y-106471915D01*
X87136431Y-106461607D01*
X87105110Y-106444866D01*
X87077661Y-106422339D01*
X87055134Y-106394890D01*
X87038393Y-106363569D01*
X87028085Y-106329591D01*
X87024000Y-106288110D01*
X87024000Y-105686890D01*
X87028085Y-105645409D01*
X87038393Y-105611431D01*
X87055134Y-105580110D01*
X87077661Y-105552661D01*
X87105110Y-105530134D01*
X87136431Y-105513393D01*
X87170409Y-105503085D01*
X87211890Y-105499000D01*
X87888110Y-105499000D01*
X87929591Y-105503085D01*
X87929591Y-105503085D01*
G37*
G36*
X75151000Y-103651000D02*
G01*
X74185993Y-103651000D01*
X74161607Y-103653402D01*
X74138158Y-103660515D01*
X74116547Y-103672066D01*
X74097605Y-103687611D01*
X74082060Y-103706553D01*
X74070509Y-103728164D01*
X74063396Y-103751613D01*
X74060994Y-103775999D01*
X74063396Y-103800385D01*
X74070509Y-103823834D01*
X74082060Y-103845445D01*
X74097605Y-103864387D01*
X74116547Y-103879932D01*
X74138158Y-103891483D01*
X74161608Y-103898596D01*
X74335734Y-103933232D01*
X74545203Y-104019997D01*
X74733720Y-104145960D01*
X74894040Y-104306280D01*
X75020003Y-104494797D01*
X75106768Y-104704266D01*
X75151000Y-104926636D01*
X75151000Y-105153364D01*
X75106768Y-105375734D01*
X75020003Y-105585203D01*
X74894040Y-105773720D01*
X74733720Y-105934040D01*
X74545203Y-106060003D01*
X74335734Y-106146768D01*
X74224549Y-106168884D01*
X74113365Y-106191000D01*
X73886635Y-106191000D01*
X73775451Y-106168884D01*
X73664266Y-106146768D01*
X73454797Y-106060003D01*
X73266280Y-105934040D01*
X73105960Y-105773720D01*
X72979997Y-105585203D01*
X72893232Y-105375734D01*
X72849000Y-105153364D01*
X72849000Y-104926636D01*
X72893232Y-104704266D01*
X72979997Y-104494797D01*
X73105960Y-104306280D01*
X73266280Y-104145960D01*
X73454797Y-104019997D01*
X73664266Y-103933232D01*
X73838392Y-103898596D01*
X73861842Y-103891483D01*
X73883453Y-103879932D01*
X73902395Y-103864387D01*
X73917940Y-103845445D01*
X73929491Y-103823834D01*
X73936604Y-103800385D01*
X73939006Y-103775999D01*
X73936604Y-103751613D01*
X73929491Y-103728164D01*
X73917940Y-103706553D01*
X73902395Y-103687611D01*
X73883453Y-103672066D01*
X73861842Y-103660515D01*
X73838393Y-103653402D01*
X73814007Y-103651000D01*
X72849000Y-103651000D01*
X72849000Y-101349000D01*
X75151000Y-101349000D01*
X75151000Y-103651000D01*
X75151000Y-103651000D01*
G37*
G36*
X82650442Y-104145518D02*
G01*
X82716627Y-104152037D01*
X82886466Y-104203557D01*
X83042991Y-104287222D01*
X83066213Y-104306280D01*
X83180186Y-104399814D01*
X83258135Y-104494797D01*
X83292778Y-104537009D01*
X83376443Y-104693534D01*
X83427963Y-104863373D01*
X83445359Y-105040000D01*
X83427963Y-105216627D01*
X83376443Y-105386466D01*
X83292778Y-105542991D01*
X83286205Y-105551000D01*
X83180186Y-105680186D01*
X83103341Y-105743250D01*
X83042991Y-105792778D01*
X82886466Y-105876443D01*
X82716627Y-105927963D01*
X82654925Y-105934040D01*
X82584260Y-105941000D01*
X82495740Y-105941000D01*
X82425075Y-105934040D01*
X82363373Y-105927963D01*
X82193534Y-105876443D01*
X82037009Y-105792778D01*
X81976659Y-105743250D01*
X81899814Y-105680186D01*
X81793795Y-105551000D01*
X81787222Y-105542991D01*
X81703557Y-105386466D01*
X81652037Y-105216627D01*
X81634641Y-105040000D01*
X81652037Y-104863373D01*
X81703557Y-104693534D01*
X81787222Y-104537009D01*
X81821865Y-104494797D01*
X81899814Y-104399814D01*
X82013787Y-104306280D01*
X82037009Y-104287222D01*
X82193534Y-104203557D01*
X82363373Y-104152037D01*
X82429558Y-104145518D01*
X82495740Y-104139000D01*
X82584260Y-104139000D01*
X82650442Y-104145518D01*
X82650442Y-104145518D01*
G37*
G36*
X80110442Y-104145518D02*
G01*
X80176627Y-104152037D01*
X80346466Y-104203557D01*
X80502991Y-104287222D01*
X80526213Y-104306280D01*
X80640186Y-104399814D01*
X80718135Y-104494797D01*
X80752778Y-104537009D01*
X80836443Y-104693534D01*
X80887963Y-104863373D01*
X80905359Y-105040000D01*
X80887963Y-105216627D01*
X80836443Y-105386466D01*
X80752778Y-105542991D01*
X80746205Y-105551000D01*
X80640186Y-105680186D01*
X80563341Y-105743250D01*
X80502991Y-105792778D01*
X80346466Y-105876443D01*
X80176627Y-105927963D01*
X80114925Y-105934040D01*
X80044260Y-105941000D01*
X79955740Y-105941000D01*
X79885075Y-105934040D01*
X79823373Y-105927963D01*
X79653534Y-105876443D01*
X79497009Y-105792778D01*
X79436659Y-105743250D01*
X79359814Y-105680186D01*
X79253795Y-105551000D01*
X79247222Y-105542991D01*
X79163557Y-105386466D01*
X79112037Y-105216627D01*
X79094641Y-105040000D01*
X79112037Y-104863373D01*
X79163557Y-104693534D01*
X79247222Y-104537009D01*
X79281865Y-104494797D01*
X79359814Y-104399814D01*
X79473787Y-104306280D01*
X79497009Y-104287222D01*
X79653534Y-104203557D01*
X79823373Y-104152037D01*
X79889558Y-104145518D01*
X79955740Y-104139000D01*
X80044260Y-104139000D01*
X80110442Y-104145518D01*
X80110442Y-104145518D01*
G37*
G36*
X71596601Y-104454397D02*
G01*
X71635305Y-104462096D01*
X71667340Y-104475365D01*
X71744680Y-104507400D01*
X71843115Y-104573173D01*
X71926827Y-104656885D01*
X71992600Y-104755320D01*
X72024635Y-104832660D01*
X72037904Y-104864695D01*
X72044192Y-104896307D01*
X72061000Y-104980805D01*
X72061000Y-105099195D01*
X72037904Y-105215304D01*
X71992600Y-105324680D01*
X71926827Y-105423115D01*
X71843115Y-105506827D01*
X71744680Y-105572600D01*
X71667340Y-105604635D01*
X71635305Y-105617904D01*
X71596601Y-105625603D01*
X71519195Y-105641000D01*
X71400805Y-105641000D01*
X71323399Y-105625603D01*
X71284695Y-105617904D01*
X71252660Y-105604635D01*
X71175320Y-105572600D01*
X71076885Y-105506827D01*
X70993173Y-105423115D01*
X70927400Y-105324680D01*
X70882096Y-105215304D01*
X70859000Y-105099195D01*
X70859000Y-104980805D01*
X70875808Y-104896307D01*
X70882096Y-104864695D01*
X70895365Y-104832660D01*
X70927400Y-104755320D01*
X70993173Y-104656885D01*
X71076885Y-104573173D01*
X71175320Y-104507400D01*
X71252660Y-104475365D01*
X71284695Y-104462096D01*
X71323399Y-104454397D01*
X71400805Y-104439000D01*
X71519195Y-104439000D01*
X71596601Y-104454397D01*
X71596601Y-104454397D01*
G37*
G36*
X86179591Y-103928085D02*
G01*
X86213569Y-103938393D01*
X86244890Y-103955134D01*
X86272339Y-103977661D01*
X86294866Y-104005110D01*
X86311607Y-104036431D01*
X86321915Y-104070409D01*
X86326000Y-104111890D01*
X86326000Y-104713110D01*
X86321915Y-104754591D01*
X86311607Y-104788569D01*
X86294866Y-104819890D01*
X86272339Y-104847339D01*
X86244890Y-104869866D01*
X86213569Y-104886607D01*
X86179591Y-104896915D01*
X86138110Y-104901000D01*
X85461890Y-104901000D01*
X85420409Y-104896915D01*
X85386431Y-104886607D01*
X85355110Y-104869866D01*
X85327661Y-104847339D01*
X85305134Y-104819890D01*
X85288393Y-104788569D01*
X85278085Y-104754591D01*
X85274000Y-104713110D01*
X85274000Y-104111890D01*
X85278085Y-104070409D01*
X85288393Y-104036431D01*
X85305134Y-104005110D01*
X85327661Y-103977661D01*
X85355110Y-103955134D01*
X85386431Y-103938393D01*
X85420409Y-103928085D01*
X85461890Y-103924000D01*
X86138110Y-103924000D01*
X86179591Y-103928085D01*
X86179591Y-103928085D01*
G37*
G36*
X87929591Y-103928085D02*
G01*
X87963569Y-103938393D01*
X87994890Y-103955134D01*
X88022339Y-103977661D01*
X88044866Y-104005110D01*
X88061607Y-104036431D01*
X88071915Y-104070409D01*
X88076000Y-104111890D01*
X88076000Y-104713110D01*
X88071915Y-104754591D01*
X88061607Y-104788569D01*
X88044866Y-104819890D01*
X88022339Y-104847339D01*
X87994890Y-104869866D01*
X87963569Y-104886607D01*
X87929591Y-104896915D01*
X87888110Y-104901000D01*
X87211890Y-104901000D01*
X87170409Y-104896915D01*
X87136431Y-104886607D01*
X87105110Y-104869866D01*
X87077661Y-104847339D01*
X87055134Y-104819890D01*
X87038393Y-104788569D01*
X87028085Y-104754591D01*
X87024000Y-104713110D01*
X87024000Y-104111890D01*
X87028085Y-104070409D01*
X87038393Y-104036431D01*
X87055134Y-104005110D01*
X87077661Y-103977661D01*
X87105110Y-103955134D01*
X87136431Y-103938393D01*
X87170409Y-103928085D01*
X87211890Y-103924000D01*
X87888110Y-103924000D01*
X87929591Y-103928085D01*
X87929591Y-103928085D01*
G37*
G36*
X80901000Y-103401000D02*
G01*
X79099000Y-103401000D01*
X79099000Y-101599000D01*
X80901000Y-101599000D01*
X80901000Y-103401000D01*
X80901000Y-103401000D01*
G37*
G36*
X82650443Y-101605519D02*
G01*
X82716627Y-101612037D01*
X82886466Y-101663557D01*
X83042991Y-101747222D01*
X83045157Y-101749000D01*
X83180186Y-101859814D01*
X83263448Y-101961271D01*
X83292778Y-101997009D01*
X83376443Y-102153534D01*
X83427963Y-102323373D01*
X83445359Y-102500000D01*
X83427963Y-102676627D01*
X83376443Y-102846466D01*
X83292778Y-103002991D01*
X83271104Y-103029401D01*
X83180186Y-103140186D01*
X83093158Y-103211607D01*
X83042991Y-103252778D01*
X82886466Y-103336443D01*
X82716627Y-103387963D01*
X82650442Y-103394482D01*
X82584260Y-103401000D01*
X82495740Y-103401000D01*
X82429558Y-103394482D01*
X82363373Y-103387963D01*
X82193534Y-103336443D01*
X82037009Y-103252778D01*
X81986842Y-103211607D01*
X81899814Y-103140186D01*
X81808896Y-103029401D01*
X81787222Y-103002991D01*
X81703557Y-102846466D01*
X81652037Y-102676627D01*
X81634641Y-102500000D01*
X81652037Y-102323373D01*
X81703557Y-102153534D01*
X81787222Y-101997009D01*
X81816552Y-101961271D01*
X81899814Y-101859814D01*
X82034843Y-101749000D01*
X82037009Y-101747222D01*
X82193534Y-101663557D01*
X82363373Y-101612037D01*
X82429557Y-101605519D01*
X82495740Y-101599000D01*
X82584260Y-101599000D01*
X82650443Y-101605519D01*
X82650443Y-101605519D01*
G37*
G36*
X86179591Y-102253085D02*
G01*
X86213569Y-102263393D01*
X86244890Y-102280134D01*
X86272339Y-102302661D01*
X86294866Y-102330110D01*
X86311607Y-102361431D01*
X86321915Y-102395409D01*
X86326000Y-102436890D01*
X86326000Y-103038110D01*
X86321915Y-103079591D01*
X86311607Y-103113569D01*
X86294866Y-103144890D01*
X86272339Y-103172339D01*
X86244890Y-103194866D01*
X86213569Y-103211607D01*
X86179591Y-103221915D01*
X86138110Y-103226000D01*
X85461890Y-103226000D01*
X85420409Y-103221915D01*
X85386431Y-103211607D01*
X85355110Y-103194866D01*
X85327661Y-103172339D01*
X85305134Y-103144890D01*
X85288393Y-103113569D01*
X85278085Y-103079591D01*
X85274000Y-103038110D01*
X85274000Y-102436890D01*
X85278085Y-102395409D01*
X85288393Y-102361431D01*
X85305134Y-102330110D01*
X85327661Y-102302661D01*
X85355110Y-102280134D01*
X85386431Y-102263393D01*
X85420409Y-102253085D01*
X85461890Y-102249000D01*
X86138110Y-102249000D01*
X86179591Y-102253085D01*
X86179591Y-102253085D01*
G37*
G36*
X71596601Y-101914397D02*
G01*
X71635305Y-101922096D01*
X71667340Y-101935365D01*
X71744680Y-101967400D01*
X71843115Y-102033173D01*
X71926827Y-102116885D01*
X71992600Y-102215320D01*
X72006550Y-102249000D01*
X72036183Y-102320539D01*
X72037904Y-102324696D01*
X72061000Y-102440805D01*
X72061000Y-102559195D01*
X72037904Y-102675304D01*
X71992600Y-102784680D01*
X71926827Y-102883115D01*
X71843115Y-102966827D01*
X71744680Y-103032600D01*
X71667340Y-103064635D01*
X71635305Y-103077904D01*
X71596601Y-103085603D01*
X71519195Y-103101000D01*
X71400805Y-103101000D01*
X71323399Y-103085603D01*
X71284695Y-103077904D01*
X71252660Y-103064635D01*
X71175320Y-103032600D01*
X71076885Y-102966827D01*
X70993173Y-102883115D01*
X70927400Y-102784680D01*
X70882096Y-102675304D01*
X70859000Y-102559195D01*
X70859000Y-102440805D01*
X70882096Y-102324696D01*
X70883818Y-102320539D01*
X70913450Y-102249000D01*
X70927400Y-102215320D01*
X70993173Y-102116885D01*
X71076885Y-102033173D01*
X71175320Y-101967400D01*
X71252660Y-101935365D01*
X71284695Y-101922096D01*
X71323399Y-101914397D01*
X71400805Y-101899000D01*
X71519195Y-101899000D01*
X71596601Y-101914397D01*
X71596601Y-101914397D01*
G37*
G36*
X86179591Y-100678085D02*
G01*
X86213569Y-100688393D01*
X86244890Y-100705134D01*
X86272339Y-100727661D01*
X86294866Y-100755110D01*
X86311607Y-100786431D01*
X86321915Y-100820409D01*
X86326000Y-100861890D01*
X86326000Y-101463110D01*
X86321915Y-101504591D01*
X86311607Y-101538569D01*
X86294866Y-101569890D01*
X86272339Y-101597339D01*
X86244890Y-101619866D01*
X86213569Y-101636607D01*
X86179591Y-101646915D01*
X86138110Y-101651000D01*
X85461890Y-101651000D01*
X85420409Y-101646915D01*
X85386431Y-101636607D01*
X85355110Y-101619866D01*
X85327661Y-101597339D01*
X85305134Y-101569890D01*
X85288393Y-101538569D01*
X85278085Y-101504591D01*
X85274000Y-101463110D01*
X85274000Y-100861890D01*
X85278085Y-100820409D01*
X85288393Y-100786431D01*
X85305134Y-100755110D01*
X85327661Y-100727661D01*
X85355110Y-100705134D01*
X85386431Y-100688393D01*
X85420409Y-100678085D01*
X85461890Y-100674000D01*
X86138110Y-100674000D01*
X86179591Y-100678085D01*
X86179591Y-100678085D01*
G37*
G36*
X72301000Y-98501000D02*
G01*
X70499000Y-98501000D01*
X70499000Y-96399000D01*
X72301000Y-96399000D01*
X72301000Y-98501000D01*
X72301000Y-98501000D01*
G37*
G36*
X77751000Y-98501000D02*
G01*
X75949000Y-98501000D01*
X75949000Y-96399000D01*
X77751000Y-96399000D01*
X77751000Y-98501000D01*
X77751000Y-98501000D01*
G37*
G36*
X99179591Y-96903085D02*
G01*
X99213569Y-96913393D01*
X99244890Y-96930134D01*
X99272339Y-96952661D01*
X99294866Y-96980110D01*
X99311607Y-97011431D01*
X99321915Y-97045409D01*
X99326000Y-97086890D01*
X99326000Y-97688110D01*
X99321915Y-97729591D01*
X99311607Y-97763569D01*
X99294866Y-97794890D01*
X99272339Y-97822339D01*
X99244890Y-97844866D01*
X99213569Y-97861607D01*
X99179591Y-97871915D01*
X99138110Y-97876000D01*
X98461890Y-97876000D01*
X98420409Y-97871915D01*
X98386431Y-97861607D01*
X98355110Y-97844866D01*
X98327661Y-97822339D01*
X98305134Y-97794890D01*
X98288393Y-97763569D01*
X98278085Y-97729591D01*
X98274000Y-97688110D01*
X98274000Y-97086890D01*
X98278085Y-97045409D01*
X98288393Y-97011431D01*
X98305134Y-96980110D01*
X98327661Y-96952661D01*
X98355110Y-96930134D01*
X98386431Y-96913393D01*
X98420409Y-96903085D01*
X98461890Y-96899000D01*
X99138110Y-96899000D01*
X99179591Y-96903085D01*
X99179591Y-96903085D01*
G37*
G36*
X97579591Y-96903085D02*
G01*
X97613569Y-96913393D01*
X97644890Y-96930134D01*
X97672339Y-96952661D01*
X97694866Y-96980110D01*
X97711607Y-97011431D01*
X97721915Y-97045409D01*
X97726000Y-97086890D01*
X97726000Y-97688110D01*
X97721915Y-97729591D01*
X97711607Y-97763569D01*
X97694866Y-97794890D01*
X97672339Y-97822339D01*
X97644890Y-97844866D01*
X97613569Y-97861607D01*
X97579591Y-97871915D01*
X97538110Y-97876000D01*
X96861890Y-97876000D01*
X96820409Y-97871915D01*
X96786431Y-97861607D01*
X96755110Y-97844866D01*
X96727661Y-97822339D01*
X96705134Y-97794890D01*
X96688393Y-97763569D01*
X96678085Y-97729591D01*
X96674000Y-97688110D01*
X96674000Y-97086890D01*
X96678085Y-97045409D01*
X96688393Y-97011431D01*
X96705134Y-96980110D01*
X96727661Y-96952661D01*
X96755110Y-96930134D01*
X96786431Y-96913393D01*
X96820409Y-96903085D01*
X96861890Y-96899000D01*
X97538110Y-96899000D01*
X97579591Y-96903085D01*
X97579591Y-96903085D01*
G37*
G36*
X114351000Y-97251000D02*
G01*
X113249000Y-97251000D01*
X113249000Y-95149000D01*
X114351000Y-95149000D01*
X114351000Y-97251000D01*
X114351000Y-97251000D01*
G37*
G36*
X102351000Y-97251000D02*
G01*
X101249000Y-97251000D01*
X101249000Y-95149000D01*
X102351000Y-95149000D01*
X102351000Y-97251000D01*
X102351000Y-97251000D01*
G37*
G36*
X112351000Y-97251000D02*
G01*
X111249000Y-97251000D01*
X111249000Y-95149000D01*
X112351000Y-95149000D01*
X112351000Y-97251000D01*
X112351000Y-97251000D01*
G37*
G36*
X116351000Y-97251000D02*
G01*
X115249000Y-97251000D01*
X115249000Y-95149000D01*
X116351000Y-95149000D01*
X116351000Y-97251000D01*
X116351000Y-97251000D01*
G37*
G36*
X108351000Y-97251000D02*
G01*
X107249000Y-97251000D01*
X107249000Y-95149000D01*
X108351000Y-95149000D01*
X108351000Y-97251000D01*
X108351000Y-97251000D01*
G37*
G36*
X104351000Y-97251000D02*
G01*
X103249000Y-97251000D01*
X103249000Y-95149000D01*
X104351000Y-95149000D01*
X104351000Y-97251000D01*
X104351000Y-97251000D01*
G37*
G36*
X106351000Y-97251000D02*
G01*
X105249000Y-97251000D01*
X105249000Y-95149000D01*
X106351000Y-95149000D01*
X106351000Y-97251000D01*
X106351000Y-97251000D01*
G37*
G36*
X110351000Y-97251000D02*
G01*
X109249000Y-97251000D01*
X109249000Y-95149000D01*
X110351000Y-95149000D01*
X110351000Y-97251000D01*
X110351000Y-97251000D01*
G37*
G36*
X88430051Y-95626284D02*
G01*
X88446443Y-95631257D01*
X88461555Y-95639334D01*
X88474798Y-95650202D01*
X88485667Y-95663447D01*
X88489761Y-95671106D01*
X88503374Y-95691480D01*
X88520701Y-95708807D01*
X88541076Y-95722421D01*
X88563714Y-95731798D01*
X88587748Y-95736579D01*
X88612252Y-95736579D01*
X88636285Y-95731799D01*
X88658924Y-95722421D01*
X88679298Y-95708808D01*
X88696625Y-95691481D01*
X88710239Y-95671106D01*
X88714333Y-95663447D01*
X88725202Y-95650202D01*
X88738445Y-95639334D01*
X88753557Y-95631257D01*
X88769949Y-95626284D01*
X88793141Y-95624000D01*
X89206859Y-95624000D01*
X89230051Y-95626284D01*
X89246443Y-95631257D01*
X89261555Y-95639334D01*
X89274798Y-95650202D01*
X89285667Y-95663447D01*
X89289761Y-95671106D01*
X89303374Y-95691480D01*
X89320701Y-95708807D01*
X89341076Y-95722421D01*
X89363714Y-95731798D01*
X89387748Y-95736579D01*
X89412252Y-95736579D01*
X89436285Y-95731799D01*
X89458924Y-95722421D01*
X89479298Y-95708808D01*
X89496625Y-95691481D01*
X89510239Y-95671106D01*
X89514333Y-95663447D01*
X89525202Y-95650202D01*
X89538445Y-95639334D01*
X89553557Y-95631257D01*
X89569949Y-95626284D01*
X89593141Y-95624000D01*
X90006859Y-95624000D01*
X90030051Y-95626284D01*
X90046443Y-95631257D01*
X90061555Y-95639334D01*
X90074798Y-95650202D01*
X90085667Y-95663447D01*
X90089761Y-95671106D01*
X90103374Y-95691480D01*
X90120701Y-95708807D01*
X90141076Y-95722421D01*
X90163714Y-95731798D01*
X90187748Y-95736579D01*
X90212252Y-95736579D01*
X90236285Y-95731799D01*
X90258924Y-95722421D01*
X90279298Y-95708808D01*
X90296625Y-95691481D01*
X90310239Y-95671106D01*
X90314333Y-95663447D01*
X90325202Y-95650202D01*
X90338445Y-95639334D01*
X90353557Y-95631257D01*
X90369949Y-95626284D01*
X90393141Y-95624000D01*
X90806859Y-95624000D01*
X90830051Y-95626284D01*
X90846443Y-95631257D01*
X90861555Y-95639334D01*
X90874798Y-95650202D01*
X90885667Y-95663447D01*
X90889761Y-95671106D01*
X90903374Y-95691480D01*
X90920701Y-95708807D01*
X90941076Y-95722421D01*
X90963714Y-95731798D01*
X90987748Y-95736579D01*
X91012252Y-95736579D01*
X91036285Y-95731799D01*
X91058924Y-95722421D01*
X91079298Y-95708808D01*
X91096625Y-95691481D01*
X91110239Y-95671106D01*
X91114333Y-95663447D01*
X91125202Y-95650202D01*
X91138445Y-95639334D01*
X91153557Y-95631257D01*
X91169949Y-95626284D01*
X91193141Y-95624000D01*
X91606859Y-95624000D01*
X91630051Y-95626284D01*
X91646443Y-95631257D01*
X91661555Y-95639334D01*
X91674798Y-95650202D01*
X91685667Y-95663447D01*
X91689761Y-95671106D01*
X91703374Y-95691480D01*
X91720701Y-95708807D01*
X91741076Y-95722421D01*
X91763714Y-95731798D01*
X91787748Y-95736579D01*
X91812252Y-95736579D01*
X91836285Y-95731799D01*
X91858924Y-95722421D01*
X91879298Y-95708808D01*
X91896625Y-95691481D01*
X91910239Y-95671106D01*
X91914333Y-95663447D01*
X91925202Y-95650202D01*
X91938445Y-95639334D01*
X91953557Y-95631257D01*
X91969949Y-95626284D01*
X91993141Y-95624000D01*
X92406859Y-95624000D01*
X92430051Y-95626284D01*
X92446443Y-95631257D01*
X92461555Y-95639334D01*
X92474798Y-95650202D01*
X92485667Y-95663447D01*
X92489761Y-95671106D01*
X92503374Y-95691480D01*
X92520701Y-95708807D01*
X92541076Y-95722421D01*
X92563714Y-95731798D01*
X92587748Y-95736579D01*
X92612252Y-95736579D01*
X92636285Y-95731799D01*
X92658924Y-95722421D01*
X92679298Y-95708808D01*
X92696625Y-95691481D01*
X92710239Y-95671106D01*
X92714333Y-95663447D01*
X92725202Y-95650202D01*
X92738445Y-95639334D01*
X92753557Y-95631257D01*
X92769949Y-95626284D01*
X92793141Y-95624000D01*
X93206859Y-95624000D01*
X93230051Y-95626284D01*
X93246443Y-95631257D01*
X93261555Y-95639334D01*
X93274798Y-95650202D01*
X93285667Y-95663447D01*
X93289761Y-95671106D01*
X93303374Y-95691480D01*
X93320701Y-95708807D01*
X93341076Y-95722421D01*
X93363714Y-95731798D01*
X93387748Y-95736579D01*
X93412252Y-95736579D01*
X93436285Y-95731799D01*
X93458924Y-95722421D01*
X93479298Y-95708808D01*
X93496625Y-95691481D01*
X93510239Y-95671106D01*
X93514333Y-95663447D01*
X93525202Y-95650202D01*
X93538445Y-95639334D01*
X93553557Y-95631257D01*
X93569949Y-95626284D01*
X93593141Y-95624000D01*
X94006859Y-95624000D01*
X94030051Y-95626284D01*
X94046443Y-95631257D01*
X94061555Y-95639334D01*
X94074798Y-95650202D01*
X94085666Y-95663445D01*
X94093743Y-95678557D01*
X94098716Y-95694949D01*
X94101000Y-95718141D01*
X94101000Y-97131859D01*
X94098716Y-97155051D01*
X94093743Y-97171443D01*
X94085666Y-97186555D01*
X94074798Y-97199798D01*
X94061555Y-97210666D01*
X94046443Y-97218743D01*
X94030051Y-97223716D01*
X94006859Y-97226000D01*
X93593141Y-97226000D01*
X93569949Y-97223716D01*
X93553557Y-97218743D01*
X93538445Y-97210666D01*
X93525202Y-97199798D01*
X93514333Y-97186553D01*
X93510239Y-97178894D01*
X93496626Y-97158520D01*
X93479299Y-97141193D01*
X93458924Y-97127579D01*
X93436286Y-97118202D01*
X93412252Y-97113421D01*
X93387748Y-97113421D01*
X93363715Y-97118201D01*
X93341076Y-97127579D01*
X93320702Y-97141192D01*
X93303375Y-97158519D01*
X93289761Y-97178894D01*
X93285667Y-97186553D01*
X93274798Y-97199798D01*
X93261555Y-97210666D01*
X93246443Y-97218743D01*
X93230051Y-97223716D01*
X93206859Y-97226000D01*
X92793141Y-97226000D01*
X92769949Y-97223716D01*
X92753557Y-97218743D01*
X92738445Y-97210666D01*
X92725202Y-97199798D01*
X92714333Y-97186553D01*
X92710239Y-97178894D01*
X92696626Y-97158520D01*
X92679299Y-97141193D01*
X92658924Y-97127579D01*
X92636286Y-97118202D01*
X92612252Y-97113421D01*
X92587748Y-97113421D01*
X92563715Y-97118201D01*
X92541076Y-97127579D01*
X92520702Y-97141192D01*
X92503375Y-97158519D01*
X92489761Y-97178894D01*
X92485667Y-97186553D01*
X92474798Y-97199798D01*
X92461555Y-97210666D01*
X92446443Y-97218743D01*
X92430051Y-97223716D01*
X92406859Y-97226000D01*
X91993141Y-97226000D01*
X91969949Y-97223716D01*
X91953557Y-97218743D01*
X91938445Y-97210666D01*
X91925202Y-97199798D01*
X91914333Y-97186553D01*
X91910239Y-97178894D01*
X91896626Y-97158520D01*
X91879299Y-97141193D01*
X91858924Y-97127579D01*
X91836286Y-97118202D01*
X91812252Y-97113421D01*
X91787748Y-97113421D01*
X91763715Y-97118201D01*
X91741076Y-97127579D01*
X91720702Y-97141192D01*
X91703375Y-97158519D01*
X91689761Y-97178894D01*
X91685667Y-97186553D01*
X91674798Y-97199798D01*
X91661555Y-97210666D01*
X91646443Y-97218743D01*
X91630051Y-97223716D01*
X91606859Y-97226000D01*
X91193141Y-97226000D01*
X91169949Y-97223716D01*
X91153557Y-97218743D01*
X91138445Y-97210666D01*
X91125202Y-97199798D01*
X91114333Y-97186553D01*
X91110239Y-97178894D01*
X91096626Y-97158520D01*
X91079299Y-97141193D01*
X91058924Y-97127579D01*
X91036286Y-97118202D01*
X91012252Y-97113421D01*
X90987748Y-97113421D01*
X90963715Y-97118201D01*
X90941076Y-97127579D01*
X90920702Y-97141192D01*
X90903375Y-97158519D01*
X90889761Y-97178894D01*
X90885667Y-97186553D01*
X90874798Y-97199798D01*
X90861555Y-97210666D01*
X90846443Y-97218743D01*
X90830051Y-97223716D01*
X90806859Y-97226000D01*
X90393141Y-97226000D01*
X90369949Y-97223716D01*
X90353557Y-97218743D01*
X90338445Y-97210666D01*
X90325202Y-97199798D01*
X90314333Y-97186553D01*
X90310239Y-97178894D01*
X90296626Y-97158520D01*
X90279299Y-97141193D01*
X90258924Y-97127579D01*
X90236286Y-97118202D01*
X90212252Y-97113421D01*
X90187748Y-97113421D01*
X90163715Y-97118201D01*
X90141076Y-97127579D01*
X90120702Y-97141192D01*
X90103375Y-97158519D01*
X90089761Y-97178894D01*
X90085667Y-97186553D01*
X90074798Y-97199798D01*
X90061555Y-97210666D01*
X90046443Y-97218743D01*
X90030051Y-97223716D01*
X90006859Y-97226000D01*
X89593141Y-97226000D01*
X89569949Y-97223716D01*
X89553557Y-97218743D01*
X89538445Y-97210666D01*
X89525202Y-97199798D01*
X89514333Y-97186553D01*
X89510239Y-97178894D01*
X89496626Y-97158520D01*
X89479299Y-97141193D01*
X89458924Y-97127579D01*
X89436286Y-97118202D01*
X89412252Y-97113421D01*
X89387748Y-97113421D01*
X89363715Y-97118201D01*
X89341076Y-97127579D01*
X89320702Y-97141192D01*
X89303375Y-97158519D01*
X89289761Y-97178894D01*
X89285667Y-97186553D01*
X89274798Y-97199798D01*
X89261555Y-97210666D01*
X89246443Y-97218743D01*
X89230051Y-97223716D01*
X89206859Y-97226000D01*
X88793141Y-97226000D01*
X88769949Y-97223716D01*
X88753557Y-97218743D01*
X88738445Y-97210666D01*
X88725202Y-97199798D01*
X88714333Y-97186553D01*
X88710239Y-97178894D01*
X88696626Y-97158520D01*
X88679299Y-97141193D01*
X88658924Y-97127579D01*
X88636286Y-97118202D01*
X88612252Y-97113421D01*
X88587748Y-97113421D01*
X88563715Y-97118201D01*
X88541076Y-97127579D01*
X88520702Y-97141192D01*
X88503375Y-97158519D01*
X88489761Y-97178894D01*
X88485667Y-97186553D01*
X88474798Y-97199798D01*
X88461555Y-97210666D01*
X88446443Y-97218743D01*
X88430051Y-97223716D01*
X88406859Y-97226000D01*
X87993141Y-97226000D01*
X87969949Y-97223716D01*
X87953557Y-97218743D01*
X87938445Y-97210666D01*
X87925202Y-97199798D01*
X87914334Y-97186555D01*
X87906257Y-97171443D01*
X87901284Y-97155051D01*
X87899000Y-97131859D01*
X87899000Y-95718141D01*
X87901284Y-95694949D01*
X87906257Y-95678557D01*
X87914334Y-95663445D01*
X87925202Y-95650202D01*
X87938445Y-95639334D01*
X87953557Y-95631257D01*
X87969949Y-95626284D01*
X87993141Y-95624000D01*
X88406859Y-95624000D01*
X88430051Y-95626284D01*
X88430051Y-95626284D01*
G37*
G36*
X83129591Y-95728085D02*
G01*
X83163569Y-95738393D01*
X83194890Y-95755134D01*
X83222339Y-95777661D01*
X83244866Y-95805110D01*
X83261607Y-95836431D01*
X83271915Y-95870409D01*
X83276000Y-95911890D01*
X83276000Y-96588110D01*
X83271915Y-96629591D01*
X83261607Y-96663569D01*
X83244866Y-96694890D01*
X83222339Y-96722339D01*
X83194890Y-96744866D01*
X83163569Y-96761607D01*
X83129591Y-96771915D01*
X83088110Y-96776000D01*
X82486890Y-96776000D01*
X82445409Y-96771915D01*
X82411431Y-96761607D01*
X82380110Y-96744866D01*
X82352661Y-96722339D01*
X82330134Y-96694890D01*
X82313393Y-96663569D01*
X82303085Y-96629591D01*
X82299000Y-96588110D01*
X82299000Y-95911890D01*
X82303085Y-95870409D01*
X82313393Y-95836431D01*
X82330134Y-95805110D01*
X82352661Y-95777661D01*
X82380110Y-95755134D01*
X82411431Y-95738393D01*
X82445409Y-95728085D01*
X82486890Y-95724000D01*
X83088110Y-95724000D01*
X83129591Y-95728085D01*
X83129591Y-95728085D01*
G37*
G36*
X81554591Y-95728085D02*
G01*
X81588569Y-95738393D01*
X81619890Y-95755134D01*
X81647339Y-95777661D01*
X81669866Y-95805110D01*
X81686607Y-95836431D01*
X81696915Y-95870409D01*
X81701000Y-95911890D01*
X81701000Y-96588110D01*
X81696915Y-96629591D01*
X81686607Y-96663569D01*
X81669866Y-96694890D01*
X81647339Y-96722339D01*
X81619890Y-96744866D01*
X81588569Y-96761607D01*
X81554591Y-96771915D01*
X81513110Y-96776000D01*
X80911890Y-96776000D01*
X80870409Y-96771915D01*
X80836431Y-96761607D01*
X80805110Y-96744866D01*
X80777661Y-96722339D01*
X80755134Y-96694890D01*
X80738393Y-96663569D01*
X80728085Y-96629591D01*
X80724000Y-96588110D01*
X80724000Y-95911890D01*
X80728085Y-95870409D01*
X80738393Y-95836431D01*
X80755134Y-95805110D01*
X80777661Y-95777661D01*
X80805110Y-95755134D01*
X80836431Y-95738393D01*
X80870409Y-95728085D01*
X80911890Y-95724000D01*
X81513110Y-95724000D01*
X81554591Y-95728085D01*
X81554591Y-95728085D01*
G37*
G36*
X97579591Y-95328085D02*
G01*
X97613569Y-95338393D01*
X97644890Y-95355134D01*
X97672339Y-95377661D01*
X97694866Y-95405110D01*
X97711607Y-95436431D01*
X97721915Y-95470409D01*
X97726000Y-95511890D01*
X97726000Y-96113110D01*
X97721915Y-96154591D01*
X97711607Y-96188569D01*
X97694866Y-96219890D01*
X97672339Y-96247339D01*
X97644890Y-96269866D01*
X97613569Y-96286607D01*
X97579591Y-96296915D01*
X97538110Y-96301000D01*
X96861890Y-96301000D01*
X96820409Y-96296915D01*
X96786431Y-96286607D01*
X96755110Y-96269866D01*
X96727661Y-96247339D01*
X96705134Y-96219890D01*
X96688393Y-96188569D01*
X96678085Y-96154591D01*
X96674000Y-96113110D01*
X96674000Y-95511890D01*
X96678085Y-95470409D01*
X96688393Y-95436431D01*
X96705134Y-95405110D01*
X96727661Y-95377661D01*
X96755110Y-95355134D01*
X96786431Y-95338393D01*
X96820409Y-95328085D01*
X96861890Y-95324000D01*
X97538110Y-95324000D01*
X97579591Y-95328085D01*
X97579591Y-95328085D01*
G37*
G36*
X99179591Y-95328085D02*
G01*
X99213569Y-95338393D01*
X99244890Y-95355134D01*
X99272339Y-95377661D01*
X99294866Y-95405110D01*
X99311607Y-95436431D01*
X99321915Y-95470409D01*
X99326000Y-95511890D01*
X99326000Y-96113110D01*
X99321915Y-96154591D01*
X99311607Y-96188569D01*
X99294866Y-96219890D01*
X99272339Y-96247339D01*
X99244890Y-96269866D01*
X99213569Y-96286607D01*
X99179591Y-96296915D01*
X99138110Y-96301000D01*
X98461890Y-96301000D01*
X98420409Y-96296915D01*
X98386431Y-96286607D01*
X98355110Y-96269866D01*
X98327661Y-96247339D01*
X98305134Y-96219890D01*
X98288393Y-96188569D01*
X98278085Y-96154591D01*
X98274000Y-96113110D01*
X98274000Y-95511890D01*
X98278085Y-95470409D01*
X98288393Y-95436431D01*
X98305134Y-95405110D01*
X98327661Y-95377661D01*
X98355110Y-95355134D01*
X98386431Y-95338393D01*
X98420409Y-95328085D01*
X98461890Y-95324000D01*
X99138110Y-95324000D01*
X99179591Y-95328085D01*
X99179591Y-95328085D01*
G37*
G36*
X74410721Y-94670174D02*
G01*
X74510995Y-94711709D01*
X74537320Y-94729299D01*
X74601242Y-94772010D01*
X74677990Y-94848758D01*
X74677991Y-94848760D01*
X74738291Y-94939005D01*
X74779826Y-95039279D01*
X74801000Y-95145730D01*
X74801000Y-95254270D01*
X74779826Y-95360721D01*
X74738291Y-95460995D01*
X74729080Y-95474780D01*
X74677990Y-95551242D01*
X74601242Y-95627990D01*
X74590068Y-95635456D01*
X74510995Y-95688291D01*
X74410721Y-95729826D01*
X74304270Y-95751000D01*
X74195730Y-95751000D01*
X74089279Y-95729826D01*
X73989005Y-95688291D01*
X73909932Y-95635456D01*
X73898758Y-95627990D01*
X73822010Y-95551242D01*
X73770920Y-95474780D01*
X73761709Y-95460995D01*
X73720174Y-95360721D01*
X73699000Y-95254270D01*
X73699000Y-95145730D01*
X73720174Y-95039279D01*
X73761709Y-94939005D01*
X73822009Y-94848760D01*
X73822010Y-94848758D01*
X73898758Y-94772010D01*
X73962680Y-94729299D01*
X73989005Y-94711709D01*
X74089279Y-94670174D01*
X74195730Y-94649000D01*
X74304270Y-94649000D01*
X74410721Y-94670174D01*
X74410721Y-94670174D01*
G37*
G36*
X87555051Y-89151284D02*
G01*
X87571443Y-89156257D01*
X87586555Y-89164334D01*
X87599798Y-89175202D01*
X87610666Y-89188445D01*
X87618743Y-89203557D01*
X87623716Y-89219949D01*
X87626000Y-89243141D01*
X87626000Y-89656859D01*
X87623716Y-89680051D01*
X87618743Y-89696443D01*
X87610666Y-89711555D01*
X87599798Y-89724798D01*
X87586553Y-89735667D01*
X87578894Y-89739761D01*
X87558520Y-89753374D01*
X87541193Y-89770701D01*
X87527579Y-89791076D01*
X87518202Y-89813714D01*
X87513421Y-89837748D01*
X87513421Y-89862252D01*
X87518201Y-89886285D01*
X87527579Y-89908924D01*
X87541192Y-89929298D01*
X87558519Y-89946625D01*
X87578894Y-89960239D01*
X87586553Y-89964333D01*
X87599798Y-89975202D01*
X87610666Y-89988445D01*
X87618743Y-90003557D01*
X87623716Y-90019949D01*
X87626000Y-90043141D01*
X87626000Y-90456859D01*
X87623716Y-90480051D01*
X87618743Y-90496443D01*
X87610666Y-90511555D01*
X87599798Y-90524798D01*
X87586553Y-90535667D01*
X87578894Y-90539761D01*
X87558520Y-90553374D01*
X87541193Y-90570701D01*
X87527579Y-90591076D01*
X87518202Y-90613714D01*
X87513421Y-90637748D01*
X87513421Y-90662252D01*
X87518201Y-90686285D01*
X87527579Y-90708924D01*
X87541192Y-90729298D01*
X87558519Y-90746625D01*
X87578894Y-90760239D01*
X87586553Y-90764333D01*
X87599798Y-90775202D01*
X87610666Y-90788445D01*
X87618743Y-90803557D01*
X87623716Y-90819949D01*
X87626000Y-90843141D01*
X87626000Y-91256859D01*
X87623716Y-91280051D01*
X87618743Y-91296443D01*
X87610666Y-91311555D01*
X87599798Y-91324798D01*
X87586553Y-91335667D01*
X87578894Y-91339761D01*
X87558520Y-91353374D01*
X87541193Y-91370701D01*
X87527579Y-91391076D01*
X87518202Y-91413714D01*
X87513421Y-91437748D01*
X87513421Y-91462252D01*
X87518201Y-91486285D01*
X87527579Y-91508924D01*
X87541192Y-91529298D01*
X87558519Y-91546625D01*
X87578894Y-91560239D01*
X87586553Y-91564333D01*
X87599798Y-91575202D01*
X87610666Y-91588445D01*
X87618743Y-91603557D01*
X87623716Y-91619949D01*
X87626000Y-91643141D01*
X87626000Y-92056859D01*
X87623716Y-92080051D01*
X87618743Y-92096443D01*
X87610666Y-92111555D01*
X87599798Y-92124798D01*
X87586553Y-92135667D01*
X87578894Y-92139761D01*
X87558520Y-92153374D01*
X87541193Y-92170701D01*
X87527579Y-92191076D01*
X87518202Y-92213714D01*
X87513421Y-92237748D01*
X87513421Y-92262252D01*
X87518201Y-92286285D01*
X87527579Y-92308924D01*
X87541192Y-92329298D01*
X87558519Y-92346625D01*
X87578894Y-92360239D01*
X87586553Y-92364333D01*
X87599798Y-92375202D01*
X87610666Y-92388445D01*
X87618743Y-92403557D01*
X87623716Y-92419949D01*
X87626000Y-92443141D01*
X87626000Y-92856859D01*
X87623716Y-92880051D01*
X87618743Y-92896443D01*
X87610666Y-92911555D01*
X87599798Y-92924798D01*
X87586553Y-92935667D01*
X87578894Y-92939761D01*
X87558520Y-92953374D01*
X87541193Y-92970701D01*
X87527579Y-92991076D01*
X87518202Y-93013714D01*
X87513421Y-93037748D01*
X87513421Y-93062252D01*
X87518201Y-93086285D01*
X87527579Y-93108924D01*
X87541192Y-93129298D01*
X87558519Y-93146625D01*
X87578894Y-93160239D01*
X87586553Y-93164333D01*
X87599798Y-93175202D01*
X87610666Y-93188445D01*
X87618743Y-93203557D01*
X87623716Y-93219949D01*
X87626000Y-93243141D01*
X87626000Y-93656859D01*
X87623716Y-93680051D01*
X87618743Y-93696443D01*
X87610666Y-93711555D01*
X87599798Y-93724798D01*
X87586553Y-93735667D01*
X87578894Y-93739761D01*
X87558520Y-93753374D01*
X87541193Y-93770701D01*
X87527579Y-93791076D01*
X87518202Y-93813714D01*
X87513421Y-93837748D01*
X87513421Y-93862252D01*
X87518201Y-93886285D01*
X87527579Y-93908924D01*
X87541192Y-93929298D01*
X87558519Y-93946625D01*
X87578894Y-93960239D01*
X87586553Y-93964333D01*
X87599798Y-93975202D01*
X87610666Y-93988445D01*
X87618743Y-94003557D01*
X87623716Y-94019949D01*
X87626000Y-94043141D01*
X87626000Y-94456859D01*
X87623716Y-94480051D01*
X87618743Y-94496443D01*
X87610666Y-94511555D01*
X87599798Y-94524798D01*
X87586553Y-94535667D01*
X87578894Y-94539761D01*
X87558520Y-94553374D01*
X87541193Y-94570701D01*
X87527579Y-94591076D01*
X87518202Y-94613714D01*
X87513421Y-94637748D01*
X87513421Y-94662252D01*
X87518201Y-94686285D01*
X87527579Y-94708924D01*
X87541192Y-94729298D01*
X87558519Y-94746625D01*
X87578894Y-94760239D01*
X87586553Y-94764333D01*
X87599798Y-94775202D01*
X87610666Y-94788445D01*
X87618743Y-94803557D01*
X87623716Y-94819949D01*
X87626000Y-94843141D01*
X87626000Y-95256859D01*
X87623716Y-95280051D01*
X87618743Y-95296443D01*
X87610666Y-95311555D01*
X87599798Y-95324798D01*
X87586555Y-95335666D01*
X87571443Y-95343743D01*
X87555051Y-95348716D01*
X87531859Y-95351000D01*
X86118141Y-95351000D01*
X86094949Y-95348716D01*
X86078557Y-95343743D01*
X86063445Y-95335666D01*
X86050202Y-95324798D01*
X86039334Y-95311555D01*
X86031257Y-95296443D01*
X86026284Y-95280051D01*
X86024000Y-95256859D01*
X86024000Y-94843141D01*
X86026284Y-94819949D01*
X86031257Y-94803557D01*
X86039334Y-94788445D01*
X86050202Y-94775202D01*
X86063447Y-94764333D01*
X86071106Y-94760239D01*
X86091480Y-94746626D01*
X86108807Y-94729299D01*
X86122421Y-94708924D01*
X86131798Y-94686286D01*
X86136579Y-94662252D01*
X86136579Y-94637748D01*
X86131799Y-94613715D01*
X86122421Y-94591076D01*
X86108808Y-94570702D01*
X86091481Y-94553375D01*
X86071106Y-94539761D01*
X86063447Y-94535667D01*
X86050202Y-94524798D01*
X86039334Y-94511555D01*
X86031257Y-94496443D01*
X86026284Y-94480051D01*
X86024000Y-94456859D01*
X86024000Y-94043141D01*
X86026284Y-94019949D01*
X86031257Y-94003557D01*
X86039334Y-93988445D01*
X86050202Y-93975202D01*
X86063447Y-93964333D01*
X86071106Y-93960239D01*
X86091480Y-93946626D01*
X86108807Y-93929299D01*
X86122421Y-93908924D01*
X86131798Y-93886286D01*
X86136579Y-93862252D01*
X86136579Y-93837748D01*
X86131799Y-93813715D01*
X86122421Y-93791076D01*
X86108808Y-93770702D01*
X86091481Y-93753375D01*
X86071106Y-93739761D01*
X86063447Y-93735667D01*
X86050202Y-93724798D01*
X86039334Y-93711555D01*
X86031257Y-93696443D01*
X86026284Y-93680051D01*
X86024000Y-93656859D01*
X86024000Y-93243141D01*
X86026284Y-93219949D01*
X86031257Y-93203557D01*
X86039334Y-93188445D01*
X86050202Y-93175202D01*
X86063447Y-93164333D01*
X86071106Y-93160239D01*
X86091480Y-93146626D01*
X86108807Y-93129299D01*
X86122421Y-93108924D01*
X86131798Y-93086286D01*
X86136579Y-93062252D01*
X86136579Y-93037748D01*
X86131799Y-93013715D01*
X86122421Y-92991076D01*
X86108808Y-92970702D01*
X86091481Y-92953375D01*
X86071106Y-92939761D01*
X86063447Y-92935667D01*
X86050202Y-92924798D01*
X86039334Y-92911555D01*
X86031257Y-92896443D01*
X86026284Y-92880051D01*
X86024000Y-92856859D01*
X86024000Y-92443141D01*
X86026284Y-92419949D01*
X86031257Y-92403557D01*
X86039334Y-92388445D01*
X86050202Y-92375202D01*
X86063447Y-92364333D01*
X86071106Y-92360239D01*
X86091480Y-92346626D01*
X86108807Y-92329299D01*
X86122421Y-92308924D01*
X86131798Y-92286286D01*
X86136579Y-92262252D01*
X86136579Y-92237748D01*
X86131799Y-92213715D01*
X86122421Y-92191076D01*
X86108808Y-92170702D01*
X86091481Y-92153375D01*
X86071106Y-92139761D01*
X86063447Y-92135667D01*
X86050202Y-92124798D01*
X86039334Y-92111555D01*
X86031257Y-92096443D01*
X86026284Y-92080051D01*
X86024000Y-92056859D01*
X86024000Y-91643141D01*
X86026284Y-91619949D01*
X86031257Y-91603557D01*
X86039334Y-91588445D01*
X86050202Y-91575202D01*
X86063447Y-91564333D01*
X86071106Y-91560239D01*
X86091480Y-91546626D01*
X86108807Y-91529299D01*
X86122421Y-91508924D01*
X86131798Y-91486286D01*
X86136579Y-91462252D01*
X86136579Y-91437748D01*
X86131799Y-91413715D01*
X86122421Y-91391076D01*
X86108808Y-91370702D01*
X86091481Y-91353375D01*
X86071106Y-91339761D01*
X86063447Y-91335667D01*
X86050202Y-91324798D01*
X86039334Y-91311555D01*
X86031257Y-91296443D01*
X86026284Y-91280051D01*
X86024000Y-91256859D01*
X86024000Y-90843141D01*
X86026284Y-90819949D01*
X86031257Y-90803557D01*
X86039334Y-90788445D01*
X86050202Y-90775202D01*
X86063447Y-90764333D01*
X86071106Y-90760239D01*
X86091480Y-90746626D01*
X86108807Y-90729299D01*
X86122421Y-90708924D01*
X86131798Y-90686286D01*
X86136579Y-90662252D01*
X86136579Y-90637748D01*
X86131799Y-90613715D01*
X86122421Y-90591076D01*
X86108808Y-90570702D01*
X86091481Y-90553375D01*
X86071106Y-90539761D01*
X86063447Y-90535667D01*
X86050202Y-90524798D01*
X86039334Y-90511555D01*
X86031257Y-90496443D01*
X86026284Y-90480051D01*
X86024000Y-90456859D01*
X86024000Y-90043141D01*
X86026284Y-90019949D01*
X86031257Y-90003557D01*
X86039334Y-89988445D01*
X86050202Y-89975202D01*
X86063447Y-89964333D01*
X86071106Y-89960239D01*
X86091480Y-89946626D01*
X86108807Y-89929299D01*
X86122421Y-89908924D01*
X86131798Y-89886286D01*
X86136579Y-89862252D01*
X86136579Y-89837748D01*
X86131799Y-89813715D01*
X86122421Y-89791076D01*
X86108808Y-89770702D01*
X86091481Y-89753375D01*
X86071106Y-89739761D01*
X86063447Y-89735667D01*
X86050202Y-89724798D01*
X86039334Y-89711555D01*
X86031257Y-89696443D01*
X86026284Y-89680051D01*
X86024000Y-89656859D01*
X86024000Y-89243141D01*
X86026284Y-89219949D01*
X86031257Y-89203557D01*
X86039334Y-89188445D01*
X86050202Y-89175202D01*
X86063445Y-89164334D01*
X86078557Y-89156257D01*
X86094949Y-89151284D01*
X86118141Y-89149000D01*
X87531859Y-89149000D01*
X87555051Y-89151284D01*
X87555051Y-89151284D01*
G37*
G36*
X95905051Y-89151284D02*
G01*
X95921443Y-89156257D01*
X95936555Y-89164334D01*
X95949798Y-89175202D01*
X95960666Y-89188445D01*
X95968743Y-89203557D01*
X95973716Y-89219949D01*
X95976000Y-89243141D01*
X95976000Y-89656859D01*
X95973716Y-89680051D01*
X95968743Y-89696443D01*
X95960666Y-89711555D01*
X95949798Y-89724798D01*
X95936553Y-89735667D01*
X95928894Y-89739761D01*
X95908520Y-89753374D01*
X95891193Y-89770701D01*
X95877579Y-89791076D01*
X95868202Y-89813714D01*
X95863421Y-89837748D01*
X95863421Y-89862252D01*
X95868201Y-89886285D01*
X95877579Y-89908924D01*
X95891192Y-89929298D01*
X95908519Y-89946625D01*
X95928894Y-89960239D01*
X95936553Y-89964333D01*
X95949798Y-89975202D01*
X95960666Y-89988445D01*
X95968743Y-90003557D01*
X95973716Y-90019949D01*
X95976000Y-90043141D01*
X95976000Y-90456859D01*
X95973716Y-90480051D01*
X95968743Y-90496443D01*
X95960666Y-90511555D01*
X95949798Y-90524798D01*
X95936553Y-90535667D01*
X95928894Y-90539761D01*
X95908520Y-90553374D01*
X95891193Y-90570701D01*
X95877579Y-90591076D01*
X95868202Y-90613714D01*
X95863421Y-90637748D01*
X95863421Y-90662252D01*
X95868201Y-90686285D01*
X95877579Y-90708924D01*
X95891192Y-90729298D01*
X95908519Y-90746625D01*
X95928894Y-90760239D01*
X95936553Y-90764333D01*
X95949798Y-90775202D01*
X95960666Y-90788445D01*
X95968743Y-90803557D01*
X95973716Y-90819949D01*
X95976000Y-90843141D01*
X95976000Y-91256859D01*
X95973716Y-91280051D01*
X95968743Y-91296443D01*
X95960666Y-91311555D01*
X95949798Y-91324798D01*
X95936553Y-91335667D01*
X95928894Y-91339761D01*
X95908520Y-91353374D01*
X95891193Y-91370701D01*
X95877579Y-91391076D01*
X95868202Y-91413714D01*
X95863421Y-91437748D01*
X95863421Y-91462252D01*
X95868201Y-91486285D01*
X95877579Y-91508924D01*
X95891192Y-91529298D01*
X95908519Y-91546625D01*
X95928894Y-91560239D01*
X95936553Y-91564333D01*
X95949798Y-91575202D01*
X95960666Y-91588445D01*
X95968743Y-91603557D01*
X95973716Y-91619949D01*
X95976000Y-91643141D01*
X95976000Y-92056859D01*
X95973716Y-92080051D01*
X95968743Y-92096443D01*
X95960666Y-92111555D01*
X95949798Y-92124798D01*
X95936553Y-92135667D01*
X95928894Y-92139761D01*
X95908520Y-92153374D01*
X95891193Y-92170701D01*
X95877579Y-92191076D01*
X95868202Y-92213714D01*
X95863421Y-92237748D01*
X95863421Y-92262252D01*
X95868201Y-92286285D01*
X95877579Y-92308924D01*
X95891192Y-92329298D01*
X95908519Y-92346625D01*
X95928894Y-92360239D01*
X95936553Y-92364333D01*
X95949798Y-92375202D01*
X95960666Y-92388445D01*
X95968743Y-92403557D01*
X95973716Y-92419949D01*
X95976000Y-92443141D01*
X95976000Y-92856859D01*
X95973716Y-92880051D01*
X95968743Y-92896443D01*
X95960666Y-92911555D01*
X95949798Y-92924798D01*
X95936553Y-92935667D01*
X95928894Y-92939761D01*
X95908520Y-92953374D01*
X95891193Y-92970701D01*
X95877579Y-92991076D01*
X95868202Y-93013714D01*
X95863421Y-93037748D01*
X95863421Y-93062252D01*
X95868201Y-93086285D01*
X95877579Y-93108924D01*
X95891192Y-93129298D01*
X95908519Y-93146625D01*
X95928894Y-93160239D01*
X95936553Y-93164333D01*
X95949798Y-93175202D01*
X95960666Y-93188445D01*
X95968743Y-93203557D01*
X95973716Y-93219949D01*
X95976000Y-93243141D01*
X95976000Y-93656859D01*
X95973716Y-93680051D01*
X95968743Y-93696443D01*
X95960666Y-93711555D01*
X95949798Y-93724798D01*
X95936553Y-93735667D01*
X95928894Y-93739761D01*
X95908520Y-93753374D01*
X95891193Y-93770701D01*
X95877579Y-93791076D01*
X95868202Y-93813714D01*
X95863421Y-93837748D01*
X95863421Y-93862252D01*
X95868201Y-93886285D01*
X95877579Y-93908924D01*
X95891192Y-93929298D01*
X95908519Y-93946625D01*
X95928894Y-93960239D01*
X95936553Y-93964333D01*
X95949798Y-93975202D01*
X95960666Y-93988445D01*
X95968743Y-94003557D01*
X95973716Y-94019949D01*
X95976000Y-94043141D01*
X95976000Y-94456859D01*
X95973716Y-94480051D01*
X95968743Y-94496443D01*
X95960666Y-94511555D01*
X95949798Y-94524798D01*
X95936553Y-94535667D01*
X95928894Y-94539761D01*
X95908520Y-94553374D01*
X95891193Y-94570701D01*
X95877579Y-94591076D01*
X95868202Y-94613714D01*
X95863421Y-94637748D01*
X95863421Y-94662252D01*
X95868201Y-94686285D01*
X95877579Y-94708924D01*
X95891192Y-94729298D01*
X95908519Y-94746625D01*
X95928894Y-94760239D01*
X95936553Y-94764333D01*
X95949798Y-94775202D01*
X95960666Y-94788445D01*
X95968743Y-94803557D01*
X95973716Y-94819949D01*
X95976000Y-94843141D01*
X95976000Y-95256859D01*
X95973716Y-95280051D01*
X95968743Y-95296443D01*
X95960666Y-95311555D01*
X95949798Y-95324798D01*
X95936555Y-95335666D01*
X95921443Y-95343743D01*
X95905051Y-95348716D01*
X95881859Y-95351000D01*
X94468141Y-95351000D01*
X94444949Y-95348716D01*
X94428557Y-95343743D01*
X94413445Y-95335666D01*
X94400202Y-95324798D01*
X94389334Y-95311555D01*
X94381257Y-95296443D01*
X94376284Y-95280051D01*
X94374000Y-95256859D01*
X94374000Y-94843141D01*
X94376284Y-94819949D01*
X94381257Y-94803557D01*
X94389334Y-94788445D01*
X94400202Y-94775202D01*
X94413447Y-94764333D01*
X94421106Y-94760239D01*
X94441480Y-94746626D01*
X94458807Y-94729299D01*
X94472421Y-94708924D01*
X94481798Y-94686286D01*
X94486579Y-94662252D01*
X94486579Y-94637748D01*
X94481799Y-94613715D01*
X94472421Y-94591076D01*
X94458808Y-94570702D01*
X94441481Y-94553375D01*
X94421106Y-94539761D01*
X94413447Y-94535667D01*
X94400202Y-94524798D01*
X94389334Y-94511555D01*
X94381257Y-94496443D01*
X94376284Y-94480051D01*
X94374000Y-94456859D01*
X94374000Y-94043141D01*
X94376284Y-94019949D01*
X94381257Y-94003557D01*
X94389334Y-93988445D01*
X94400202Y-93975202D01*
X94413447Y-93964333D01*
X94421106Y-93960239D01*
X94441480Y-93946626D01*
X94458807Y-93929299D01*
X94472421Y-93908924D01*
X94481798Y-93886286D01*
X94486579Y-93862252D01*
X94486579Y-93837748D01*
X94481799Y-93813715D01*
X94472421Y-93791076D01*
X94458808Y-93770702D01*
X94441481Y-93753375D01*
X94421106Y-93739761D01*
X94413447Y-93735667D01*
X94400202Y-93724798D01*
X94389334Y-93711555D01*
X94381257Y-93696443D01*
X94376284Y-93680051D01*
X94374000Y-93656859D01*
X94374000Y-93243141D01*
X94376284Y-93219949D01*
X94381257Y-93203557D01*
X94389334Y-93188445D01*
X94400202Y-93175202D01*
X94413447Y-93164333D01*
X94421106Y-93160239D01*
X94441480Y-93146626D01*
X94458807Y-93129299D01*
X94472421Y-93108924D01*
X94481798Y-93086286D01*
X94486579Y-93062252D01*
X94486579Y-93037748D01*
X94481799Y-93013715D01*
X94472421Y-92991076D01*
X94458808Y-92970702D01*
X94441481Y-92953375D01*
X94421106Y-92939761D01*
X94413447Y-92935667D01*
X94400202Y-92924798D01*
X94389334Y-92911555D01*
X94381257Y-92896443D01*
X94376284Y-92880051D01*
X94374000Y-92856859D01*
X94374000Y-92443141D01*
X94376284Y-92419949D01*
X94381257Y-92403557D01*
X94389334Y-92388445D01*
X94400202Y-92375202D01*
X94413447Y-92364333D01*
X94421106Y-92360239D01*
X94441480Y-92346626D01*
X94458807Y-92329299D01*
X94472421Y-92308924D01*
X94481798Y-92286286D01*
X94486579Y-92262252D01*
X94486579Y-92237748D01*
X94481799Y-92213715D01*
X94472421Y-92191076D01*
X94458808Y-92170702D01*
X94441481Y-92153375D01*
X94421106Y-92139761D01*
X94413447Y-92135667D01*
X94400202Y-92124798D01*
X94389334Y-92111555D01*
X94381257Y-92096443D01*
X94376284Y-92080051D01*
X94374000Y-92056859D01*
X94374000Y-91643141D01*
X94376284Y-91619949D01*
X94381257Y-91603557D01*
X94389334Y-91588445D01*
X94400202Y-91575202D01*
X94413447Y-91564333D01*
X94421106Y-91560239D01*
X94441480Y-91546626D01*
X94458807Y-91529299D01*
X94472421Y-91508924D01*
X94481798Y-91486286D01*
X94486579Y-91462252D01*
X94486579Y-91437748D01*
X94481799Y-91413715D01*
X94472421Y-91391076D01*
X94458808Y-91370702D01*
X94441481Y-91353375D01*
X94421106Y-91339761D01*
X94413447Y-91335667D01*
X94400202Y-91324798D01*
X94389334Y-91311555D01*
X94381257Y-91296443D01*
X94376284Y-91280051D01*
X94374000Y-91256859D01*
X94374000Y-90843141D01*
X94376284Y-90819949D01*
X94381257Y-90803557D01*
X94389334Y-90788445D01*
X94400202Y-90775202D01*
X94413447Y-90764333D01*
X94421106Y-90760239D01*
X94441480Y-90746626D01*
X94458807Y-90729299D01*
X94472421Y-90708924D01*
X94481798Y-90686286D01*
X94486579Y-90662252D01*
X94486579Y-90637748D01*
X94481799Y-90613715D01*
X94472421Y-90591076D01*
X94458808Y-90570702D01*
X94441481Y-90553375D01*
X94421106Y-90539761D01*
X94413447Y-90535667D01*
X94400202Y-90524798D01*
X94389334Y-90511555D01*
X94381257Y-90496443D01*
X94376284Y-90480051D01*
X94374000Y-90456859D01*
X94374000Y-90043141D01*
X94376284Y-90019949D01*
X94381257Y-90003557D01*
X94389334Y-89988445D01*
X94400202Y-89975202D01*
X94413447Y-89964333D01*
X94421106Y-89960239D01*
X94441480Y-89946626D01*
X94458807Y-89929299D01*
X94472421Y-89908924D01*
X94481798Y-89886286D01*
X94486579Y-89862252D01*
X94486579Y-89837748D01*
X94481799Y-89813715D01*
X94472421Y-89791076D01*
X94458808Y-89770702D01*
X94441481Y-89753375D01*
X94421106Y-89739761D01*
X94413447Y-89735667D01*
X94400202Y-89724798D01*
X94389334Y-89711555D01*
X94381257Y-89696443D01*
X94376284Y-89680051D01*
X94374000Y-89656859D01*
X94374000Y-89243141D01*
X94376284Y-89219949D01*
X94381257Y-89203557D01*
X94389334Y-89188445D01*
X94400202Y-89175202D01*
X94413445Y-89164334D01*
X94428557Y-89156257D01*
X94444949Y-89151284D01*
X94468141Y-89149000D01*
X95881859Y-89149000D01*
X95905051Y-89151284D01*
X95905051Y-89151284D01*
G37*
G36*
X78001000Y-94901000D02*
G01*
X75899000Y-94901000D01*
X75899000Y-91099000D01*
X78001000Y-91099000D01*
X78001000Y-94901000D01*
X78001000Y-94901000D01*
G37*
G36*
X83681000Y-94576000D02*
G01*
X82519000Y-94576000D01*
X82519000Y-91924000D01*
X83681000Y-91924000D01*
X83681000Y-94576000D01*
X83681000Y-94576000D01*
G37*
G36*
X81481000Y-94576000D02*
G01*
X80319000Y-94576000D01*
X80319000Y-91924000D01*
X81481000Y-91924000D01*
X81481000Y-94576000D01*
X81481000Y-94576000D01*
G37*
G36*
X106705997Y-90603051D02*
G01*
X106739652Y-90613261D01*
X106770665Y-90629838D01*
X106797851Y-90652149D01*
X106820162Y-90679335D01*
X106836739Y-90710348D01*
X106846949Y-90744003D01*
X106851000Y-90785138D01*
X106851000Y-94014862D01*
X106846949Y-94055997D01*
X106836739Y-94089652D01*
X106820162Y-94120665D01*
X106797851Y-94147851D01*
X106770665Y-94170162D01*
X106739652Y-94186739D01*
X106705997Y-94196949D01*
X106664862Y-94201000D01*
X105335138Y-94201000D01*
X105294003Y-94196949D01*
X105260348Y-94186739D01*
X105229335Y-94170162D01*
X105202149Y-94147851D01*
X105179838Y-94120665D01*
X105163261Y-94089652D01*
X105153051Y-94055997D01*
X105149000Y-94014862D01*
X105149000Y-90785138D01*
X105153051Y-90744003D01*
X105163261Y-90710348D01*
X105179838Y-90679335D01*
X105202149Y-90652149D01*
X105229335Y-90629838D01*
X105260348Y-90613261D01*
X105294003Y-90603051D01*
X105335138Y-90599000D01*
X106664862Y-90599000D01*
X106705997Y-90603051D01*
X106705997Y-90603051D01*
G37*
G36*
X111651560Y-91379064D02*
G01*
X111803027Y-91409193D01*
X112017045Y-91497842D01*
X112064276Y-91529401D01*
X112209654Y-91626539D01*
X112373461Y-91790346D01*
X112446061Y-91899000D01*
X112502158Y-91982955D01*
X112590807Y-92196973D01*
X112613075Y-92308924D01*
X112628493Y-92386431D01*
X112636000Y-92424174D01*
X112636000Y-92655826D01*
X112590807Y-92883027D01*
X112502158Y-93097045D01*
X112480607Y-93129298D01*
X112373461Y-93289654D01*
X112209654Y-93453461D01*
X112081249Y-93539258D01*
X112017045Y-93582158D01*
X111803027Y-93670807D01*
X111674146Y-93696443D01*
X111575827Y-93716000D01*
X111344173Y-93716000D01*
X111245854Y-93696443D01*
X111116973Y-93670807D01*
X110902955Y-93582158D01*
X110838751Y-93539258D01*
X110710346Y-93453461D01*
X110546539Y-93289654D01*
X110439393Y-93129298D01*
X110417842Y-93097045D01*
X110329193Y-92883027D01*
X110284000Y-92655826D01*
X110284000Y-92424174D01*
X110291508Y-92386431D01*
X110306925Y-92308924D01*
X110329193Y-92196973D01*
X110417842Y-91982955D01*
X110473939Y-91899000D01*
X110546539Y-91790346D01*
X110710346Y-91626539D01*
X110855724Y-91529401D01*
X110902955Y-91497842D01*
X111116973Y-91409193D01*
X111268440Y-91379064D01*
X111344173Y-91364000D01*
X111575827Y-91364000D01*
X111651560Y-91379064D01*
X111651560Y-91379064D01*
G37*
G36*
X116731560Y-91379064D02*
G01*
X116883027Y-91409193D01*
X117097045Y-91497842D01*
X117144276Y-91529401D01*
X117289654Y-91626539D01*
X117453461Y-91790346D01*
X117526061Y-91899000D01*
X117582158Y-91982955D01*
X117670807Y-92196973D01*
X117693075Y-92308924D01*
X117708493Y-92386431D01*
X117716000Y-92424174D01*
X117716000Y-92655826D01*
X117670807Y-92883027D01*
X117582158Y-93097045D01*
X117560607Y-93129298D01*
X117453461Y-93289654D01*
X117289654Y-93453461D01*
X117161249Y-93539258D01*
X117097045Y-93582158D01*
X116883027Y-93670807D01*
X116754146Y-93696443D01*
X116655827Y-93716000D01*
X116424173Y-93716000D01*
X116325854Y-93696443D01*
X116196973Y-93670807D01*
X115982955Y-93582158D01*
X115918751Y-93539258D01*
X115790346Y-93453461D01*
X115626539Y-93289654D01*
X115519393Y-93129298D01*
X115497842Y-93097045D01*
X115409193Y-92883027D01*
X115364000Y-92655826D01*
X115364000Y-92424174D01*
X115371508Y-92386431D01*
X115386925Y-92308924D01*
X115409193Y-92196973D01*
X115497842Y-91982955D01*
X115553939Y-91899000D01*
X115626539Y-91790346D01*
X115790346Y-91626539D01*
X115935724Y-91529401D01*
X115982955Y-91497842D01*
X116196973Y-91409193D01*
X116348440Y-91379064D01*
X116424173Y-91364000D01*
X116655827Y-91364000D01*
X116731560Y-91379064D01*
X116731560Y-91379064D01*
G37*
G36*
X99329591Y-92278085D02*
G01*
X99363569Y-92288393D01*
X99394890Y-92305134D01*
X99422339Y-92327661D01*
X99444866Y-92355110D01*
X99461607Y-92386431D01*
X99471915Y-92420409D01*
X99476000Y-92461890D01*
X99476000Y-93138110D01*
X99471915Y-93179591D01*
X99461607Y-93213569D01*
X99444866Y-93244890D01*
X99422339Y-93272339D01*
X99394890Y-93294866D01*
X99363569Y-93311607D01*
X99329591Y-93321915D01*
X99288110Y-93326000D01*
X98686890Y-93326000D01*
X98645409Y-93321915D01*
X98611431Y-93311607D01*
X98580110Y-93294866D01*
X98552661Y-93272339D01*
X98530134Y-93244890D01*
X98513393Y-93213569D01*
X98503085Y-93179591D01*
X98499000Y-93138110D01*
X98499000Y-92461890D01*
X98503085Y-92420409D01*
X98513393Y-92386431D01*
X98530134Y-92355110D01*
X98552661Y-92327661D01*
X98580110Y-92305134D01*
X98611431Y-92288393D01*
X98645409Y-92278085D01*
X98686890Y-92274000D01*
X99288110Y-92274000D01*
X99329591Y-92278085D01*
X99329591Y-92278085D01*
G37*
G36*
X97754591Y-92278085D02*
G01*
X97788569Y-92288393D01*
X97819890Y-92305134D01*
X97847339Y-92327661D01*
X97869866Y-92355110D01*
X97886607Y-92386431D01*
X97896915Y-92420409D01*
X97901000Y-92461890D01*
X97901000Y-93138110D01*
X97896915Y-93179591D01*
X97886607Y-93213569D01*
X97869866Y-93244890D01*
X97847339Y-93272339D01*
X97819890Y-93294866D01*
X97788569Y-93311607D01*
X97754591Y-93321915D01*
X97713110Y-93326000D01*
X97111890Y-93326000D01*
X97070409Y-93321915D01*
X97036431Y-93311607D01*
X97005110Y-93294866D01*
X96977661Y-93272339D01*
X96955134Y-93244890D01*
X96938393Y-93213569D01*
X96928085Y-93179591D01*
X96924000Y-93138110D01*
X96924000Y-92461890D01*
X96928085Y-92420409D01*
X96938393Y-92386431D01*
X96955134Y-92355110D01*
X96977661Y-92327661D01*
X97005110Y-92305134D01*
X97036431Y-92288393D01*
X97070409Y-92278085D01*
X97111890Y-92274000D01*
X97713110Y-92274000D01*
X97754591Y-92278085D01*
X97754591Y-92278085D01*
G37*
G36*
X97754591Y-90678085D02*
G01*
X97788569Y-90688393D01*
X97819890Y-90705134D01*
X97847339Y-90727661D01*
X97869866Y-90755110D01*
X97886607Y-90786431D01*
X97896915Y-90820409D01*
X97901000Y-90861890D01*
X97901000Y-91538110D01*
X97896915Y-91579591D01*
X97886607Y-91613569D01*
X97869866Y-91644890D01*
X97847339Y-91672339D01*
X97819890Y-91694866D01*
X97788569Y-91711607D01*
X97754591Y-91721915D01*
X97713110Y-91726000D01*
X97111890Y-91726000D01*
X97070409Y-91721915D01*
X97036431Y-91711607D01*
X97005110Y-91694866D01*
X96977661Y-91672339D01*
X96955134Y-91644890D01*
X96938393Y-91613569D01*
X96928085Y-91579591D01*
X96924000Y-91538110D01*
X96924000Y-90861890D01*
X96928085Y-90820409D01*
X96938393Y-90786431D01*
X96955134Y-90755110D01*
X96977661Y-90727661D01*
X97005110Y-90705134D01*
X97036431Y-90688393D01*
X97070409Y-90678085D01*
X97111890Y-90674000D01*
X97713110Y-90674000D01*
X97754591Y-90678085D01*
X97754591Y-90678085D01*
G37*
G36*
X99329591Y-90678085D02*
G01*
X99363569Y-90688393D01*
X99394890Y-90705134D01*
X99422339Y-90727661D01*
X99444866Y-90755110D01*
X99461607Y-90786431D01*
X99471915Y-90820409D01*
X99476000Y-90861890D01*
X99476000Y-91538110D01*
X99471915Y-91579591D01*
X99461607Y-91613569D01*
X99444866Y-91644890D01*
X99422339Y-91672339D01*
X99394890Y-91694866D01*
X99363569Y-91711607D01*
X99329591Y-91721915D01*
X99288110Y-91726000D01*
X98686890Y-91726000D01*
X98645409Y-91721915D01*
X98611431Y-91711607D01*
X98580110Y-91694866D01*
X98552661Y-91672339D01*
X98530134Y-91644890D01*
X98513393Y-91613569D01*
X98503085Y-91579591D01*
X98499000Y-91538110D01*
X98499000Y-90861890D01*
X98503085Y-90820409D01*
X98513393Y-90786431D01*
X98530134Y-90755110D01*
X98552661Y-90727661D01*
X98580110Y-90705134D01*
X98611431Y-90688393D01*
X98645409Y-90678085D01*
X98686890Y-90674000D01*
X99288110Y-90674000D01*
X99329591Y-90678085D01*
X99329591Y-90678085D01*
G37*
G36*
X74410721Y-90270174D02*
G01*
X74510995Y-90311709D01*
X74510996Y-90311710D01*
X74601242Y-90372010D01*
X74677990Y-90448758D01*
X74677991Y-90448760D01*
X74738291Y-90539005D01*
X74779826Y-90639279D01*
X74801000Y-90745730D01*
X74801000Y-90854270D01*
X74779826Y-90960721D01*
X74738291Y-91060995D01*
X74738290Y-91060996D01*
X74677990Y-91151242D01*
X74601242Y-91227990D01*
X74558036Y-91256859D01*
X74510995Y-91288291D01*
X74410721Y-91329826D01*
X74304270Y-91351000D01*
X74195730Y-91351000D01*
X74089279Y-91329826D01*
X73989005Y-91288291D01*
X73941964Y-91256859D01*
X73898758Y-91227990D01*
X73822010Y-91151242D01*
X73761710Y-91060996D01*
X73761709Y-91060995D01*
X73720174Y-90960721D01*
X73699000Y-90854270D01*
X73699000Y-90745730D01*
X73720174Y-90639279D01*
X73761709Y-90539005D01*
X73822009Y-90448760D01*
X73822010Y-90448758D01*
X73898758Y-90372010D01*
X73989004Y-90311710D01*
X73989005Y-90311709D01*
X74089279Y-90270174D01*
X74195730Y-90249000D01*
X74304270Y-90249000D01*
X74410721Y-90270174D01*
X74410721Y-90270174D01*
G37*
G36*
X114175271Y-88937783D02*
G01*
X114313858Y-88965350D01*
X114509677Y-89046461D01*
X114685910Y-89164216D01*
X114835784Y-89314090D01*
X114953539Y-89490323D01*
X115034650Y-89686142D01*
X115034650Y-89686144D01*
X115076000Y-89894022D01*
X115076000Y-90105978D01*
X115074880Y-90111607D01*
X115034650Y-90313858D01*
X114953539Y-90509677D01*
X114835784Y-90685910D01*
X114685910Y-90835784D01*
X114509677Y-90953539D01*
X114313858Y-91034650D01*
X114181412Y-91060995D01*
X114105978Y-91076000D01*
X113894022Y-91076000D01*
X113818588Y-91060995D01*
X113686142Y-91034650D01*
X113490323Y-90953539D01*
X113314090Y-90835784D01*
X113164216Y-90685910D01*
X113046461Y-90509677D01*
X112965350Y-90313858D01*
X112925120Y-90111607D01*
X112924000Y-90105978D01*
X112924000Y-89894022D01*
X112965350Y-89686144D01*
X112965350Y-89686142D01*
X113046461Y-89490323D01*
X113164216Y-89314090D01*
X113314090Y-89164216D01*
X113490323Y-89046461D01*
X113686142Y-88965350D01*
X113824729Y-88937783D01*
X113894022Y-88924000D01*
X114105978Y-88924000D01*
X114175271Y-88937783D01*
X114175271Y-88937783D01*
G37*
G36*
X82879591Y-89978085D02*
G01*
X82913569Y-89988393D01*
X82944890Y-90005134D01*
X82972339Y-90027661D01*
X82994866Y-90055110D01*
X83011607Y-90086431D01*
X83021915Y-90120409D01*
X83026000Y-90161890D01*
X83026000Y-90838110D01*
X83021915Y-90879591D01*
X83011607Y-90913569D01*
X82994866Y-90944890D01*
X82972339Y-90972339D01*
X82944890Y-90994866D01*
X82913569Y-91011607D01*
X82879591Y-91021915D01*
X82838110Y-91026000D01*
X82236890Y-91026000D01*
X82195409Y-91021915D01*
X82161431Y-91011607D01*
X82130110Y-90994866D01*
X82102661Y-90972339D01*
X82080134Y-90944890D01*
X82063393Y-90913569D01*
X82053085Y-90879591D01*
X82049000Y-90838110D01*
X82049000Y-90161890D01*
X82053085Y-90120409D01*
X82063393Y-90086431D01*
X82080134Y-90055110D01*
X82102661Y-90027661D01*
X82130110Y-90005134D01*
X82161431Y-89988393D01*
X82195409Y-89978085D01*
X82236890Y-89974000D01*
X82838110Y-89974000D01*
X82879591Y-89978085D01*
X82879591Y-89978085D01*
G37*
G36*
X81304591Y-89978085D02*
G01*
X81338569Y-89988393D01*
X81369890Y-90005134D01*
X81397339Y-90027661D01*
X81419866Y-90055110D01*
X81436607Y-90086431D01*
X81446915Y-90120409D01*
X81451000Y-90161890D01*
X81451000Y-90838110D01*
X81446915Y-90879591D01*
X81436607Y-90913569D01*
X81419866Y-90944890D01*
X81397339Y-90972339D01*
X81369890Y-90994866D01*
X81338569Y-91011607D01*
X81304591Y-91021915D01*
X81263110Y-91026000D01*
X80661890Y-91026000D01*
X80620409Y-91021915D01*
X80586431Y-91011607D01*
X80555110Y-90994866D01*
X80527661Y-90972339D01*
X80505134Y-90944890D01*
X80488393Y-90913569D01*
X80478085Y-90879591D01*
X80474000Y-90838110D01*
X80474000Y-90161890D01*
X80478085Y-90120409D01*
X80488393Y-90086431D01*
X80505134Y-90055110D01*
X80527661Y-90027661D01*
X80555110Y-90005134D01*
X80586431Y-89988393D01*
X80620409Y-89978085D01*
X80661890Y-89974000D01*
X81263110Y-89974000D01*
X81304591Y-89978085D01*
X81304591Y-89978085D01*
G37*
G36*
X99329591Y-89078085D02*
G01*
X99363569Y-89088393D01*
X99394890Y-89105134D01*
X99422339Y-89127661D01*
X99444866Y-89155110D01*
X99461607Y-89186431D01*
X99471915Y-89220409D01*
X99476000Y-89261890D01*
X99476000Y-89938110D01*
X99471915Y-89979591D01*
X99461607Y-90013569D01*
X99444866Y-90044890D01*
X99422339Y-90072339D01*
X99394890Y-90094866D01*
X99363569Y-90111607D01*
X99329591Y-90121915D01*
X99288110Y-90126000D01*
X98686890Y-90126000D01*
X98645409Y-90121915D01*
X98611431Y-90111607D01*
X98580110Y-90094866D01*
X98552661Y-90072339D01*
X98530134Y-90044890D01*
X98513393Y-90013569D01*
X98503085Y-89979591D01*
X98499000Y-89938110D01*
X98499000Y-89261890D01*
X98503085Y-89220409D01*
X98513393Y-89186431D01*
X98530134Y-89155110D01*
X98552661Y-89127661D01*
X98580110Y-89105134D01*
X98611431Y-89088393D01*
X98645409Y-89078085D01*
X98686890Y-89074000D01*
X99288110Y-89074000D01*
X99329591Y-89078085D01*
X99329591Y-89078085D01*
G37*
G36*
X97754591Y-89078085D02*
G01*
X97788569Y-89088393D01*
X97819890Y-89105134D01*
X97847339Y-89127661D01*
X97869866Y-89155110D01*
X97886607Y-89186431D01*
X97896915Y-89220409D01*
X97901000Y-89261890D01*
X97901000Y-89938110D01*
X97896915Y-89979591D01*
X97886607Y-90013569D01*
X97869866Y-90044890D01*
X97847339Y-90072339D01*
X97819890Y-90094866D01*
X97788569Y-90111607D01*
X97754591Y-90121915D01*
X97713110Y-90126000D01*
X97111890Y-90126000D01*
X97070409Y-90121915D01*
X97036431Y-90111607D01*
X97005110Y-90094866D01*
X96977661Y-90072339D01*
X96955134Y-90044890D01*
X96938393Y-90013569D01*
X96928085Y-89979591D01*
X96924000Y-89938110D01*
X96924000Y-89261890D01*
X96928085Y-89220409D01*
X96938393Y-89186431D01*
X96955134Y-89155110D01*
X96977661Y-89127661D01*
X97005110Y-89105134D01*
X97036431Y-89088393D01*
X97070409Y-89078085D01*
X97111890Y-89074000D01*
X97713110Y-89074000D01*
X97754591Y-89078085D01*
X97754591Y-89078085D01*
G37*
G36*
X77751000Y-89601000D02*
G01*
X75949000Y-89601000D01*
X75949000Y-87499000D01*
X77751000Y-87499000D01*
X77751000Y-89601000D01*
X77751000Y-89601000D01*
G37*
G36*
X72301000Y-89601000D02*
G01*
X70499000Y-89601000D01*
X70499000Y-87499000D01*
X72301000Y-87499000D01*
X72301000Y-89601000D01*
X72301000Y-89601000D01*
G37*
G36*
X101979591Y-88303085D02*
G01*
X102013569Y-88313393D01*
X102044890Y-88330134D01*
X102072339Y-88352661D01*
X102094866Y-88380110D01*
X102111607Y-88411431D01*
X102121915Y-88445409D01*
X102126000Y-88486890D01*
X102126000Y-89088110D01*
X102121915Y-89129591D01*
X102111607Y-89163569D01*
X102094866Y-89194890D01*
X102072339Y-89222339D01*
X102044890Y-89244866D01*
X102013569Y-89261607D01*
X101979591Y-89271915D01*
X101938110Y-89276000D01*
X101261890Y-89276000D01*
X101220409Y-89271915D01*
X101186431Y-89261607D01*
X101155110Y-89244866D01*
X101127661Y-89222339D01*
X101105134Y-89194890D01*
X101088393Y-89163569D01*
X101078085Y-89129591D01*
X101074000Y-89088110D01*
X101074000Y-88486890D01*
X101078085Y-88445409D01*
X101088393Y-88411431D01*
X101105134Y-88380110D01*
X101127661Y-88352661D01*
X101155110Y-88330134D01*
X101186431Y-88313393D01*
X101220409Y-88303085D01*
X101261890Y-88299000D01*
X101938110Y-88299000D01*
X101979591Y-88303085D01*
X101979591Y-88303085D01*
G37*
G36*
X81251000Y-89151000D02*
G01*
X80249000Y-89151000D01*
X80249000Y-88249000D01*
X81251000Y-88249000D01*
X81251000Y-89151000D01*
X81251000Y-89151000D01*
G37*
G36*
X88430051Y-87276284D02*
G01*
X88446443Y-87281257D01*
X88461555Y-87289334D01*
X88474798Y-87300202D01*
X88485667Y-87313447D01*
X88489761Y-87321106D01*
X88503374Y-87341480D01*
X88520701Y-87358807D01*
X88541076Y-87372421D01*
X88563714Y-87381798D01*
X88587748Y-87386579D01*
X88612252Y-87386579D01*
X88636285Y-87381799D01*
X88658924Y-87372421D01*
X88679298Y-87358808D01*
X88696625Y-87341481D01*
X88710239Y-87321106D01*
X88714333Y-87313447D01*
X88725202Y-87300202D01*
X88738445Y-87289334D01*
X88753557Y-87281257D01*
X88769949Y-87276284D01*
X88793141Y-87274000D01*
X89206859Y-87274000D01*
X89230051Y-87276284D01*
X89246443Y-87281257D01*
X89261555Y-87289334D01*
X89274798Y-87300202D01*
X89285667Y-87313447D01*
X89289761Y-87321106D01*
X89303374Y-87341480D01*
X89320701Y-87358807D01*
X89341076Y-87372421D01*
X89363714Y-87381798D01*
X89387748Y-87386579D01*
X89412252Y-87386579D01*
X89436285Y-87381799D01*
X89458924Y-87372421D01*
X89479298Y-87358808D01*
X89496625Y-87341481D01*
X89510239Y-87321106D01*
X89514333Y-87313447D01*
X89525202Y-87300202D01*
X89538445Y-87289334D01*
X89553557Y-87281257D01*
X89569949Y-87276284D01*
X89593141Y-87274000D01*
X90006859Y-87274000D01*
X90030051Y-87276284D01*
X90046443Y-87281257D01*
X90061555Y-87289334D01*
X90074798Y-87300202D01*
X90085667Y-87313447D01*
X90089761Y-87321106D01*
X90103374Y-87341480D01*
X90120701Y-87358807D01*
X90141076Y-87372421D01*
X90163714Y-87381798D01*
X90187748Y-87386579D01*
X90212252Y-87386579D01*
X90236285Y-87381799D01*
X90258924Y-87372421D01*
X90279298Y-87358808D01*
X90296625Y-87341481D01*
X90310239Y-87321106D01*
X90314333Y-87313447D01*
X90325202Y-87300202D01*
X90338445Y-87289334D01*
X90353557Y-87281257D01*
X90369949Y-87276284D01*
X90393141Y-87274000D01*
X90806859Y-87274000D01*
X90830051Y-87276284D01*
X90846443Y-87281257D01*
X90861555Y-87289334D01*
X90874798Y-87300202D01*
X90885667Y-87313447D01*
X90889761Y-87321106D01*
X90903374Y-87341480D01*
X90920701Y-87358807D01*
X90941076Y-87372421D01*
X90963714Y-87381798D01*
X90987748Y-87386579D01*
X91012252Y-87386579D01*
X91036285Y-87381799D01*
X91058924Y-87372421D01*
X91079298Y-87358808D01*
X91096625Y-87341481D01*
X91110239Y-87321106D01*
X91114333Y-87313447D01*
X91125202Y-87300202D01*
X91138445Y-87289334D01*
X91153557Y-87281257D01*
X91169949Y-87276284D01*
X91193141Y-87274000D01*
X91606859Y-87274000D01*
X91630051Y-87276284D01*
X91646443Y-87281257D01*
X91661555Y-87289334D01*
X91674798Y-87300202D01*
X91685667Y-87313447D01*
X91689761Y-87321106D01*
X91703374Y-87341480D01*
X91720701Y-87358807D01*
X91741076Y-87372421D01*
X91763714Y-87381798D01*
X91787748Y-87386579D01*
X91812252Y-87386579D01*
X91836285Y-87381799D01*
X91858924Y-87372421D01*
X91879298Y-87358808D01*
X91896625Y-87341481D01*
X91910239Y-87321106D01*
X91914333Y-87313447D01*
X91925202Y-87300202D01*
X91938445Y-87289334D01*
X91953557Y-87281257D01*
X91969949Y-87276284D01*
X91993141Y-87274000D01*
X92406859Y-87274000D01*
X92430051Y-87276284D01*
X92446443Y-87281257D01*
X92461555Y-87289334D01*
X92474798Y-87300202D01*
X92485667Y-87313447D01*
X92489761Y-87321106D01*
X92503374Y-87341480D01*
X92520701Y-87358807D01*
X92541076Y-87372421D01*
X92563714Y-87381798D01*
X92587748Y-87386579D01*
X92612252Y-87386579D01*
X92636285Y-87381799D01*
X92658924Y-87372421D01*
X92679298Y-87358808D01*
X92696625Y-87341481D01*
X92710239Y-87321106D01*
X92714333Y-87313447D01*
X92725202Y-87300202D01*
X92738445Y-87289334D01*
X92753557Y-87281257D01*
X92769949Y-87276284D01*
X92793141Y-87274000D01*
X93206859Y-87274000D01*
X93230051Y-87276284D01*
X93246443Y-87281257D01*
X93261555Y-87289334D01*
X93274798Y-87300202D01*
X93285667Y-87313447D01*
X93289761Y-87321106D01*
X93303374Y-87341480D01*
X93320701Y-87358807D01*
X93341076Y-87372421D01*
X93363714Y-87381798D01*
X93387748Y-87386579D01*
X93412252Y-87386579D01*
X93436285Y-87381799D01*
X93458924Y-87372421D01*
X93479298Y-87358808D01*
X93496625Y-87341481D01*
X93510239Y-87321106D01*
X93514333Y-87313447D01*
X93525202Y-87300202D01*
X93538445Y-87289334D01*
X93553557Y-87281257D01*
X93569949Y-87276284D01*
X93593141Y-87274000D01*
X94006859Y-87274000D01*
X94030051Y-87276284D01*
X94046443Y-87281257D01*
X94061555Y-87289334D01*
X94074798Y-87300202D01*
X94085666Y-87313445D01*
X94093743Y-87328557D01*
X94098716Y-87344949D01*
X94101000Y-87368141D01*
X94101000Y-88781859D01*
X94098716Y-88805051D01*
X94093743Y-88821443D01*
X94085666Y-88836555D01*
X94074798Y-88849798D01*
X94061555Y-88860666D01*
X94046443Y-88868743D01*
X94030051Y-88873716D01*
X94006859Y-88876000D01*
X93593141Y-88876000D01*
X93569949Y-88873716D01*
X93553557Y-88868743D01*
X93538445Y-88860666D01*
X93525202Y-88849798D01*
X93514333Y-88836553D01*
X93510239Y-88828894D01*
X93496626Y-88808520D01*
X93479299Y-88791193D01*
X93458924Y-88777579D01*
X93436286Y-88768202D01*
X93412252Y-88763421D01*
X93387748Y-88763421D01*
X93363715Y-88768201D01*
X93341076Y-88777579D01*
X93320702Y-88791192D01*
X93303375Y-88808519D01*
X93289761Y-88828894D01*
X93285667Y-88836553D01*
X93274798Y-88849798D01*
X93261555Y-88860666D01*
X93246443Y-88868743D01*
X93230051Y-88873716D01*
X93206859Y-88876000D01*
X92793141Y-88876000D01*
X92769949Y-88873716D01*
X92753557Y-88868743D01*
X92738445Y-88860666D01*
X92725202Y-88849798D01*
X92714333Y-88836553D01*
X92710239Y-88828894D01*
X92696626Y-88808520D01*
X92679299Y-88791193D01*
X92658924Y-88777579D01*
X92636286Y-88768202D01*
X92612252Y-88763421D01*
X92587748Y-88763421D01*
X92563715Y-88768201D01*
X92541076Y-88777579D01*
X92520702Y-88791192D01*
X92503375Y-88808519D01*
X92489761Y-88828894D01*
X92485667Y-88836553D01*
X92474798Y-88849798D01*
X92461555Y-88860666D01*
X92446443Y-88868743D01*
X92430051Y-88873716D01*
X92406859Y-88876000D01*
X91993141Y-88876000D01*
X91969949Y-88873716D01*
X91953557Y-88868743D01*
X91938445Y-88860666D01*
X91925202Y-88849798D01*
X91914333Y-88836553D01*
X91910239Y-88828894D01*
X91896626Y-88808520D01*
X91879299Y-88791193D01*
X91858924Y-88777579D01*
X91836286Y-88768202D01*
X91812252Y-88763421D01*
X91787748Y-88763421D01*
X91763715Y-88768201D01*
X91741076Y-88777579D01*
X91720702Y-88791192D01*
X91703375Y-88808519D01*
X91689761Y-88828894D01*
X91685667Y-88836553D01*
X91674798Y-88849798D01*
X91661555Y-88860666D01*
X91646443Y-88868743D01*
X91630051Y-88873716D01*
X91606859Y-88876000D01*
X91193141Y-88876000D01*
X91169949Y-88873716D01*
X91153557Y-88868743D01*
X91138445Y-88860666D01*
X91125202Y-88849798D01*
X91114333Y-88836553D01*
X91110239Y-88828894D01*
X91096626Y-88808520D01*
X91079299Y-88791193D01*
X91058924Y-88777579D01*
X91036286Y-88768202D01*
X91012252Y-88763421D01*
X90987748Y-88763421D01*
X90963715Y-88768201D01*
X90941076Y-88777579D01*
X90920702Y-88791192D01*
X90903375Y-88808519D01*
X90889761Y-88828894D01*
X90885667Y-88836553D01*
X90874798Y-88849798D01*
X90861555Y-88860666D01*
X90846443Y-88868743D01*
X90830051Y-88873716D01*
X90806859Y-88876000D01*
X90393141Y-88876000D01*
X90369949Y-88873716D01*
X90353557Y-88868743D01*
X90338445Y-88860666D01*
X90325202Y-88849798D01*
X90314333Y-88836553D01*
X90310239Y-88828894D01*
X90296626Y-88808520D01*
X90279299Y-88791193D01*
X90258924Y-88777579D01*
X90236286Y-88768202D01*
X90212252Y-88763421D01*
X90187748Y-88763421D01*
X90163715Y-88768201D01*
X90141076Y-88777579D01*
X90120702Y-88791192D01*
X90103375Y-88808519D01*
X90089761Y-88828894D01*
X90085667Y-88836553D01*
X90074798Y-88849798D01*
X90061555Y-88860666D01*
X90046443Y-88868743D01*
X90030051Y-88873716D01*
X90006859Y-88876000D01*
X89593141Y-88876000D01*
X89569949Y-88873716D01*
X89553557Y-88868743D01*
X89538445Y-88860666D01*
X89525202Y-88849798D01*
X89514333Y-88836553D01*
X89510239Y-88828894D01*
X89496626Y-88808520D01*
X89479299Y-88791193D01*
X89458924Y-88777579D01*
X89436286Y-88768202D01*
X89412252Y-88763421D01*
X89387748Y-88763421D01*
X89363715Y-88768201D01*
X89341076Y-88777579D01*
X89320702Y-88791192D01*
X89303375Y-88808519D01*
X89289761Y-88828894D01*
X89285667Y-88836553D01*
X89274798Y-88849798D01*
X89261555Y-88860666D01*
X89246443Y-88868743D01*
X89230051Y-88873716D01*
X89206859Y-88876000D01*
X88793141Y-88876000D01*
X88769949Y-88873716D01*
X88753557Y-88868743D01*
X88738445Y-88860666D01*
X88725202Y-88849798D01*
X88714333Y-88836553D01*
X88710239Y-88828894D01*
X88696626Y-88808520D01*
X88679299Y-88791193D01*
X88658924Y-88777579D01*
X88636286Y-88768202D01*
X88612252Y-88763421D01*
X88587748Y-88763421D01*
X88563715Y-88768201D01*
X88541076Y-88777579D01*
X88520702Y-88791192D01*
X88503375Y-88808519D01*
X88489761Y-88828894D01*
X88485667Y-88836553D01*
X88474798Y-88849798D01*
X88461555Y-88860666D01*
X88446443Y-88868743D01*
X88430051Y-88873716D01*
X88406859Y-88876000D01*
X87993141Y-88876000D01*
X87969949Y-88873716D01*
X87953557Y-88868743D01*
X87938445Y-88860666D01*
X87925202Y-88849798D01*
X87914334Y-88836555D01*
X87906257Y-88821443D01*
X87901284Y-88805051D01*
X87899000Y-88781859D01*
X87899000Y-87368141D01*
X87901284Y-87344949D01*
X87906257Y-87328557D01*
X87914334Y-87313445D01*
X87925202Y-87300202D01*
X87938445Y-87289334D01*
X87953557Y-87281257D01*
X87969949Y-87276284D01*
X87993141Y-87274000D01*
X88406859Y-87274000D01*
X88430051Y-87276284D01*
X88430051Y-87276284D01*
G37*
G36*
X111651560Y-86299064D02*
G01*
X111803027Y-86329193D01*
X112017045Y-86417842D01*
X112032234Y-86427991D01*
X112209654Y-86546539D01*
X112373461Y-86710346D01*
X112403387Y-86755134D01*
X112502158Y-86902955D01*
X112590807Y-87116973D01*
X112590807Y-87116975D01*
X112636000Y-87344173D01*
X112636000Y-87575827D01*
X112625331Y-87629461D01*
X112590807Y-87803027D01*
X112502158Y-88017045D01*
X112502157Y-88017046D01*
X112373461Y-88209654D01*
X112209654Y-88373461D01*
X112102752Y-88444890D01*
X112017045Y-88502158D01*
X111803027Y-88590807D01*
X111651560Y-88620936D01*
X111575827Y-88636000D01*
X111344173Y-88636000D01*
X111268440Y-88620936D01*
X111116973Y-88590807D01*
X110902955Y-88502158D01*
X110817248Y-88444890D01*
X110710346Y-88373461D01*
X110546539Y-88209654D01*
X110417843Y-88017046D01*
X110417842Y-88017045D01*
X110329193Y-87803027D01*
X110294669Y-87629461D01*
X110284000Y-87575827D01*
X110284000Y-87344173D01*
X110329193Y-87116975D01*
X110329193Y-87116973D01*
X110417842Y-86902955D01*
X110516613Y-86755134D01*
X110546539Y-86710346D01*
X110710346Y-86546539D01*
X110887766Y-86427991D01*
X110902955Y-86417842D01*
X111116973Y-86329193D01*
X111268440Y-86299064D01*
X111344173Y-86284000D01*
X111575827Y-86284000D01*
X111651560Y-86299064D01*
X111651560Y-86299064D01*
G37*
G36*
X116731560Y-86299064D02*
G01*
X116883027Y-86329193D01*
X117097045Y-86417842D01*
X117112234Y-86427991D01*
X117289654Y-86546539D01*
X117453461Y-86710346D01*
X117483387Y-86755134D01*
X117582158Y-86902955D01*
X117670807Y-87116973D01*
X117670807Y-87116975D01*
X117716000Y-87344173D01*
X117716000Y-87575827D01*
X117705331Y-87629461D01*
X117670807Y-87803027D01*
X117582158Y-88017045D01*
X117582157Y-88017046D01*
X117453461Y-88209654D01*
X117289654Y-88373461D01*
X117182752Y-88444890D01*
X117097045Y-88502158D01*
X116883027Y-88590807D01*
X116731560Y-88620936D01*
X116655827Y-88636000D01*
X116424173Y-88636000D01*
X116348440Y-88620936D01*
X116196973Y-88590807D01*
X115982955Y-88502158D01*
X115897248Y-88444890D01*
X115790346Y-88373461D01*
X115626539Y-88209654D01*
X115497843Y-88017046D01*
X115497842Y-88017045D01*
X115409193Y-87803027D01*
X115374669Y-87629461D01*
X115364000Y-87575827D01*
X115364000Y-87344173D01*
X115409193Y-87116975D01*
X115409193Y-87116973D01*
X115497842Y-86902955D01*
X115596613Y-86755134D01*
X115626539Y-86710346D01*
X115790346Y-86546539D01*
X115967766Y-86427991D01*
X115982955Y-86417842D01*
X116196973Y-86329193D01*
X116348440Y-86299064D01*
X116424173Y-86284000D01*
X116655827Y-86284000D01*
X116731560Y-86299064D01*
X116731560Y-86299064D01*
G37*
G36*
X106705997Y-85003051D02*
G01*
X106739652Y-85013261D01*
X106770665Y-85029838D01*
X106797851Y-85052149D01*
X106820162Y-85079335D01*
X106836739Y-85110348D01*
X106846949Y-85144003D01*
X106851000Y-85185138D01*
X106851000Y-88414862D01*
X106846949Y-88455997D01*
X106836739Y-88489652D01*
X106820162Y-88520665D01*
X106797851Y-88547851D01*
X106770665Y-88570162D01*
X106739652Y-88586739D01*
X106705997Y-88596949D01*
X106664862Y-88601000D01*
X105335138Y-88601000D01*
X105294003Y-88596949D01*
X105260348Y-88586739D01*
X105229335Y-88570162D01*
X105202149Y-88547851D01*
X105179838Y-88520665D01*
X105163261Y-88489652D01*
X105153051Y-88455997D01*
X105149000Y-88414862D01*
X105149000Y-85185138D01*
X105153051Y-85144003D01*
X105163261Y-85110348D01*
X105179838Y-85079335D01*
X105202149Y-85052149D01*
X105229335Y-85029838D01*
X105260348Y-85013261D01*
X105294003Y-85003051D01*
X105335138Y-84999000D01*
X106664862Y-84999000D01*
X106705997Y-85003051D01*
X106705997Y-85003051D01*
G37*
G36*
X97754591Y-87478085D02*
G01*
X97788569Y-87488393D01*
X97819890Y-87505134D01*
X97847339Y-87527661D01*
X97869866Y-87555110D01*
X97886607Y-87586431D01*
X97896915Y-87620409D01*
X97901000Y-87661890D01*
X97901000Y-88338110D01*
X97896915Y-88379591D01*
X97886607Y-88413569D01*
X97869866Y-88444890D01*
X97847339Y-88472339D01*
X97819890Y-88494866D01*
X97788569Y-88511607D01*
X97754591Y-88521915D01*
X97713110Y-88526000D01*
X97111890Y-88526000D01*
X97070409Y-88521915D01*
X97036431Y-88511607D01*
X97005110Y-88494866D01*
X96977661Y-88472339D01*
X96955134Y-88444890D01*
X96938393Y-88413569D01*
X96928085Y-88379591D01*
X96924000Y-88338110D01*
X96924000Y-87661890D01*
X96928085Y-87620409D01*
X96938393Y-87586431D01*
X96955134Y-87555110D01*
X96977661Y-87527661D01*
X97005110Y-87505134D01*
X97036431Y-87488393D01*
X97070409Y-87478085D01*
X97111890Y-87474000D01*
X97713110Y-87474000D01*
X97754591Y-87478085D01*
X97754591Y-87478085D01*
G37*
G36*
X99329591Y-87478085D02*
G01*
X99363569Y-87488393D01*
X99394890Y-87505134D01*
X99422339Y-87527661D01*
X99444866Y-87555110D01*
X99461607Y-87586431D01*
X99471915Y-87620409D01*
X99476000Y-87661890D01*
X99476000Y-88338110D01*
X99471915Y-88379591D01*
X99461607Y-88413569D01*
X99444866Y-88444890D01*
X99422339Y-88472339D01*
X99394890Y-88494866D01*
X99363569Y-88511607D01*
X99329591Y-88521915D01*
X99288110Y-88526000D01*
X98686890Y-88526000D01*
X98645409Y-88521915D01*
X98611431Y-88511607D01*
X98580110Y-88494866D01*
X98552661Y-88472339D01*
X98530134Y-88444890D01*
X98513393Y-88413569D01*
X98503085Y-88379591D01*
X98499000Y-88338110D01*
X98499000Y-87661890D01*
X98503085Y-87620409D01*
X98513393Y-87586431D01*
X98530134Y-87555110D01*
X98552661Y-87527661D01*
X98580110Y-87505134D01*
X98611431Y-87488393D01*
X98645409Y-87478085D01*
X98686890Y-87474000D01*
X99288110Y-87474000D01*
X99329591Y-87478085D01*
X99329591Y-87478085D01*
G37*
G36*
X86879591Y-87303085D02*
G01*
X86913569Y-87313393D01*
X86944890Y-87330134D01*
X86972339Y-87352661D01*
X86994866Y-87380110D01*
X87011607Y-87411431D01*
X87021915Y-87445409D01*
X87026000Y-87486890D01*
X87026000Y-88088110D01*
X87021915Y-88129591D01*
X87011607Y-88163569D01*
X86994866Y-88194890D01*
X86972339Y-88222339D01*
X86944890Y-88244866D01*
X86913569Y-88261607D01*
X86879591Y-88271915D01*
X86838110Y-88276000D01*
X86161890Y-88276000D01*
X86120409Y-88271915D01*
X86086431Y-88261607D01*
X86055110Y-88244866D01*
X86027661Y-88222339D01*
X86005134Y-88194890D01*
X85988393Y-88163569D01*
X85978085Y-88129591D01*
X85974000Y-88088110D01*
X85974000Y-87486890D01*
X85978085Y-87445409D01*
X85988393Y-87411431D01*
X86005134Y-87380110D01*
X86027661Y-87352661D01*
X86055110Y-87330134D01*
X86086431Y-87313393D01*
X86120409Y-87303085D01*
X86161890Y-87299000D01*
X86838110Y-87299000D01*
X86879591Y-87303085D01*
X86879591Y-87303085D01*
G37*
G36*
X83251000Y-88201000D02*
G01*
X82249000Y-88201000D01*
X82249000Y-87299000D01*
X83251000Y-87299000D01*
X83251000Y-88201000D01*
X83251000Y-88201000D01*
G37*
G36*
X101979591Y-86728085D02*
G01*
X102013569Y-86738393D01*
X102044890Y-86755134D01*
X102072339Y-86777661D01*
X102094866Y-86805110D01*
X102111607Y-86836431D01*
X102121915Y-86870409D01*
X102126000Y-86911890D01*
X102126000Y-87513110D01*
X102121915Y-87554591D01*
X102111607Y-87588569D01*
X102094866Y-87619890D01*
X102072339Y-87647339D01*
X102044890Y-87669866D01*
X102013569Y-87686607D01*
X101979591Y-87696915D01*
X101938110Y-87701000D01*
X101261890Y-87701000D01*
X101220409Y-87696915D01*
X101186431Y-87686607D01*
X101155110Y-87669866D01*
X101127661Y-87647339D01*
X101105134Y-87619890D01*
X101088393Y-87588569D01*
X101078085Y-87554591D01*
X101074000Y-87513110D01*
X101074000Y-86911890D01*
X101078085Y-86870409D01*
X101088393Y-86836431D01*
X101105134Y-86805110D01*
X101127661Y-86777661D01*
X101155110Y-86755134D01*
X101186431Y-86738393D01*
X101220409Y-86728085D01*
X101261890Y-86724000D01*
X101938110Y-86724000D01*
X101979591Y-86728085D01*
X101979591Y-86728085D01*
G37*
G36*
X81251000Y-87251000D02*
G01*
X80249000Y-87251000D01*
X80249000Y-86349000D01*
X81251000Y-86349000D01*
X81251000Y-87251000D01*
X81251000Y-87251000D01*
G37*
G36*
X86879591Y-85728085D02*
G01*
X86913569Y-85738393D01*
X86944890Y-85755134D01*
X86972339Y-85777661D01*
X86994866Y-85805110D01*
X87011607Y-85836431D01*
X87021915Y-85870409D01*
X87026000Y-85911890D01*
X87026000Y-86513110D01*
X87021915Y-86554591D01*
X87011607Y-86588569D01*
X86994866Y-86619890D01*
X86972339Y-86647339D01*
X86944890Y-86669866D01*
X86913569Y-86686607D01*
X86879591Y-86696915D01*
X86838110Y-86701000D01*
X86161890Y-86701000D01*
X86120409Y-86696915D01*
X86086431Y-86686607D01*
X86055110Y-86669866D01*
X86027661Y-86647339D01*
X86005134Y-86619890D01*
X85988393Y-86588569D01*
X85978085Y-86554591D01*
X85974000Y-86513110D01*
X85974000Y-85911890D01*
X85978085Y-85870409D01*
X85988393Y-85836431D01*
X86005134Y-85805110D01*
X86027661Y-85777661D01*
X86055110Y-85755134D01*
X86086431Y-85738393D01*
X86120409Y-85728085D01*
X86161890Y-85724000D01*
X86838110Y-85724000D01*
X86879591Y-85728085D01*
X86879591Y-85728085D01*
G37*
G36*
X93660721Y-85470174D02*
G01*
X93760995Y-85511709D01*
X93760996Y-85511710D01*
X93851242Y-85572010D01*
X93927990Y-85648758D01*
X93943746Y-85672339D01*
X93988291Y-85739005D01*
X94029826Y-85839279D01*
X94051000Y-85945730D01*
X94051000Y-86054270D01*
X94029826Y-86160721D01*
X93988291Y-86260995D01*
X93988290Y-86260996D01*
X93927990Y-86351242D01*
X93851242Y-86427990D01*
X93808199Y-86456750D01*
X93760995Y-86488291D01*
X93660721Y-86529826D01*
X93554270Y-86551000D01*
X93445730Y-86551000D01*
X93339279Y-86529826D01*
X93239005Y-86488291D01*
X93191801Y-86456750D01*
X93148758Y-86427990D01*
X93072010Y-86351242D01*
X93011710Y-86260996D01*
X93011709Y-86260995D01*
X92970174Y-86160721D01*
X92949000Y-86054270D01*
X92949000Y-85945730D01*
X92970174Y-85839279D01*
X93011709Y-85739005D01*
X93056254Y-85672339D01*
X93072010Y-85648758D01*
X93148758Y-85572010D01*
X93239004Y-85511710D01*
X93239005Y-85511709D01*
X93339279Y-85470174D01*
X93445730Y-85449000D01*
X93554270Y-85449000D01*
X93660721Y-85470174D01*
X93660721Y-85470174D01*
G37*
G36*
X95910721Y-85470174D02*
G01*
X96010995Y-85511709D01*
X96010996Y-85511710D01*
X96101242Y-85572010D01*
X96177990Y-85648758D01*
X96193746Y-85672339D01*
X96238291Y-85739005D01*
X96279826Y-85839279D01*
X96301000Y-85945730D01*
X96301000Y-86054270D01*
X96279826Y-86160721D01*
X96238291Y-86260995D01*
X96238290Y-86260996D01*
X96177990Y-86351242D01*
X96101242Y-86427990D01*
X96058199Y-86456750D01*
X96010995Y-86488291D01*
X95910721Y-86529826D01*
X95804270Y-86551000D01*
X95695730Y-86551000D01*
X95589279Y-86529826D01*
X95489005Y-86488291D01*
X95441801Y-86456750D01*
X95398758Y-86427990D01*
X95322010Y-86351242D01*
X95261710Y-86260996D01*
X95261709Y-86260995D01*
X95220174Y-86160721D01*
X95199000Y-86054270D01*
X95199000Y-85945730D01*
X95220174Y-85839279D01*
X95261709Y-85739005D01*
X95306254Y-85672339D01*
X95322010Y-85648758D01*
X95398758Y-85572010D01*
X95489004Y-85511710D01*
X95489005Y-85511709D01*
X95589279Y-85470174D01*
X95695730Y-85449000D01*
X95804270Y-85449000D01*
X95910721Y-85470174D01*
X95910721Y-85470174D01*
G37*
G36*
X103429591Y-84678085D02*
G01*
X103463569Y-84688393D01*
X103494890Y-84705134D01*
X103522339Y-84727661D01*
X103544866Y-84755110D01*
X103561607Y-84786431D01*
X103571915Y-84820409D01*
X103576000Y-84861890D01*
X103576000Y-85538110D01*
X103571915Y-85579591D01*
X103561607Y-85613569D01*
X103544866Y-85644890D01*
X103522339Y-85672339D01*
X103494890Y-85694866D01*
X103463569Y-85711607D01*
X103429591Y-85721915D01*
X103388110Y-85726000D01*
X102786890Y-85726000D01*
X102745409Y-85721915D01*
X102711431Y-85711607D01*
X102680110Y-85694866D01*
X102652661Y-85672339D01*
X102630134Y-85644890D01*
X102613393Y-85613569D01*
X102603085Y-85579591D01*
X102599000Y-85538110D01*
X102599000Y-84861890D01*
X102603085Y-84820409D01*
X102613393Y-84786431D01*
X102630134Y-84755110D01*
X102652661Y-84727661D01*
X102680110Y-84705134D01*
X102711431Y-84688393D01*
X102745409Y-84678085D01*
X102786890Y-84674000D01*
X103388110Y-84674000D01*
X103429591Y-84678085D01*
X103429591Y-84678085D01*
G37*
G36*
X101854591Y-84678085D02*
G01*
X101888569Y-84688393D01*
X101919890Y-84705134D01*
X101947339Y-84727661D01*
X101969866Y-84755110D01*
X101986607Y-84786431D01*
X101996915Y-84820409D01*
X102001000Y-84861890D01*
X102001000Y-85538110D01*
X101996915Y-85579591D01*
X101986607Y-85613569D01*
X101969866Y-85644890D01*
X101947339Y-85672339D01*
X101919890Y-85694866D01*
X101888569Y-85711607D01*
X101854591Y-85721915D01*
X101813110Y-85726000D01*
X101211890Y-85726000D01*
X101170409Y-85721915D01*
X101136431Y-85711607D01*
X101105110Y-85694866D01*
X101077661Y-85672339D01*
X101055134Y-85644890D01*
X101038393Y-85613569D01*
X101028085Y-85579591D01*
X101024000Y-85538110D01*
X101024000Y-84861890D01*
X101028085Y-84820409D01*
X101038393Y-84786431D01*
X101055134Y-84755110D01*
X101077661Y-84727661D01*
X101105110Y-84705134D01*
X101136431Y-84688393D01*
X101170409Y-84678085D01*
X101211890Y-84674000D01*
X101813110Y-84674000D01*
X101854591Y-84678085D01*
X101854591Y-84678085D01*
G37*
G36*
X81304591Y-84478085D02*
G01*
X81338569Y-84488393D01*
X81369890Y-84505134D01*
X81397339Y-84527661D01*
X81419866Y-84555110D01*
X81436607Y-84586431D01*
X81446915Y-84620409D01*
X81451000Y-84661890D01*
X81451000Y-85338110D01*
X81446915Y-85379591D01*
X81436607Y-85413569D01*
X81419866Y-85444890D01*
X81397339Y-85472339D01*
X81369890Y-85494866D01*
X81338569Y-85511607D01*
X81304591Y-85521915D01*
X81263110Y-85526000D01*
X80661890Y-85526000D01*
X80620409Y-85521915D01*
X80586431Y-85511607D01*
X80555110Y-85494866D01*
X80527661Y-85472339D01*
X80505134Y-85444890D01*
X80488393Y-85413569D01*
X80478085Y-85379591D01*
X80474000Y-85338110D01*
X80474000Y-84661890D01*
X80478085Y-84620409D01*
X80488393Y-84586431D01*
X80505134Y-84555110D01*
X80527661Y-84527661D01*
X80555110Y-84505134D01*
X80586431Y-84488393D01*
X80620409Y-84478085D01*
X80661890Y-84474000D01*
X81263110Y-84474000D01*
X81304591Y-84478085D01*
X81304591Y-84478085D01*
G37*
G36*
X82879591Y-84478085D02*
G01*
X82913569Y-84488393D01*
X82944890Y-84505134D01*
X82972339Y-84527661D01*
X82994866Y-84555110D01*
X83011607Y-84586431D01*
X83021915Y-84620409D01*
X83026000Y-84661890D01*
X83026000Y-85338110D01*
X83021915Y-85379591D01*
X83011607Y-85413569D01*
X82994866Y-85444890D01*
X82972339Y-85472339D01*
X82944890Y-85494866D01*
X82913569Y-85511607D01*
X82879591Y-85521915D01*
X82838110Y-85526000D01*
X82236890Y-85526000D01*
X82195409Y-85521915D01*
X82161431Y-85511607D01*
X82130110Y-85494866D01*
X82102661Y-85472339D01*
X82080134Y-85444890D01*
X82063393Y-85413569D01*
X82053085Y-85379591D01*
X82049000Y-85338110D01*
X82049000Y-84661890D01*
X82053085Y-84620409D01*
X82063393Y-84586431D01*
X82080134Y-84555110D01*
X82102661Y-84527661D01*
X82130110Y-84505134D01*
X82161431Y-84488393D01*
X82195409Y-84478085D01*
X82236890Y-84474000D01*
X82838110Y-84474000D01*
X82879591Y-84478085D01*
X82879591Y-84478085D01*
G37*
G36*
X88160721Y-83720174D02*
G01*
X88260995Y-83761709D01*
X88260996Y-83761710D01*
X88351242Y-83822010D01*
X88427990Y-83898758D01*
X88427991Y-83898760D01*
X88488291Y-83989005D01*
X88529826Y-84089279D01*
X88551000Y-84195730D01*
X88551000Y-84304270D01*
X88529826Y-84410721D01*
X88488291Y-84510995D01*
X88488290Y-84510996D01*
X88427990Y-84601242D01*
X88351242Y-84677990D01*
X88329388Y-84692592D01*
X88260995Y-84738291D01*
X88160721Y-84779826D01*
X88054270Y-84801000D01*
X87945730Y-84801000D01*
X87839279Y-84779826D01*
X87739005Y-84738291D01*
X87670612Y-84692592D01*
X87648758Y-84677990D01*
X87572010Y-84601242D01*
X87511710Y-84510996D01*
X87511709Y-84510995D01*
X87470174Y-84410721D01*
X87449000Y-84304270D01*
X87449000Y-84195730D01*
X87470174Y-84089279D01*
X87511709Y-83989005D01*
X87572009Y-83898760D01*
X87572010Y-83898758D01*
X87648758Y-83822010D01*
X87739004Y-83761710D01*
X87739005Y-83761709D01*
X87839279Y-83720174D01*
X87945730Y-83699000D01*
X88054270Y-83699000D01*
X88160721Y-83720174D01*
X88160721Y-83720174D01*
G37*
G36*
X84660721Y-83720174D02*
G01*
X84760995Y-83761709D01*
X84760996Y-83761710D01*
X84851242Y-83822010D01*
X84927990Y-83898758D01*
X84927991Y-83898760D01*
X84988291Y-83989005D01*
X85029826Y-84089279D01*
X85051000Y-84195730D01*
X85051000Y-84304270D01*
X85029826Y-84410721D01*
X84988291Y-84510995D01*
X84988290Y-84510996D01*
X84927990Y-84601242D01*
X84851242Y-84677990D01*
X84829388Y-84692592D01*
X84760995Y-84738291D01*
X84660721Y-84779826D01*
X84554270Y-84801000D01*
X84445730Y-84801000D01*
X84339279Y-84779826D01*
X84239005Y-84738291D01*
X84170612Y-84692592D01*
X84148758Y-84677990D01*
X84072010Y-84601242D01*
X84011710Y-84510996D01*
X84011709Y-84510995D01*
X83970174Y-84410721D01*
X83949000Y-84304270D01*
X83949000Y-84195730D01*
X83970174Y-84089279D01*
X84011709Y-83989005D01*
X84072009Y-83898760D01*
X84072010Y-83898758D01*
X84148758Y-83822010D01*
X84239004Y-83761710D01*
X84239005Y-83761709D01*
X84339279Y-83720174D01*
X84445730Y-83699000D01*
X84554270Y-83699000D01*
X84660721Y-83720174D01*
X84660721Y-83720174D01*
G37*
G36*
X93660721Y-83470174D02*
G01*
X93760995Y-83511709D01*
X93760996Y-83511710D01*
X93851242Y-83572010D01*
X93927990Y-83648758D01*
X93927991Y-83648760D01*
X93988291Y-83739005D01*
X94029826Y-83839279D01*
X94051000Y-83945730D01*
X94051000Y-84054270D01*
X94029826Y-84160721D01*
X93988291Y-84260995D01*
X93988290Y-84260996D01*
X93927990Y-84351242D01*
X93851242Y-84427990D01*
X93805812Y-84458345D01*
X93760995Y-84488291D01*
X93660721Y-84529826D01*
X93554270Y-84551000D01*
X93445730Y-84551000D01*
X93339279Y-84529826D01*
X93239005Y-84488291D01*
X93194188Y-84458345D01*
X93148758Y-84427990D01*
X93072010Y-84351242D01*
X93011710Y-84260996D01*
X93011709Y-84260995D01*
X92970174Y-84160721D01*
X92949000Y-84054270D01*
X92949000Y-83945730D01*
X92970174Y-83839279D01*
X93011709Y-83739005D01*
X93072009Y-83648760D01*
X93072010Y-83648758D01*
X93148758Y-83572010D01*
X93239004Y-83511710D01*
X93239005Y-83511709D01*
X93339279Y-83470174D01*
X93445730Y-83449000D01*
X93554270Y-83449000D01*
X93660721Y-83470174D01*
X93660721Y-83470174D01*
G37*
G36*
X95910721Y-83470174D02*
G01*
X96010995Y-83511709D01*
X96010996Y-83511710D01*
X96101242Y-83572010D01*
X96177990Y-83648758D01*
X96177991Y-83648760D01*
X96238291Y-83739005D01*
X96279826Y-83839279D01*
X96301000Y-83945730D01*
X96301000Y-84054270D01*
X96279826Y-84160721D01*
X96238291Y-84260995D01*
X96238290Y-84260996D01*
X96177990Y-84351242D01*
X96101242Y-84427990D01*
X96055812Y-84458345D01*
X96010995Y-84488291D01*
X95910721Y-84529826D01*
X95804270Y-84551000D01*
X95695730Y-84551000D01*
X95589279Y-84529826D01*
X95489005Y-84488291D01*
X95444188Y-84458345D01*
X95398758Y-84427990D01*
X95322010Y-84351242D01*
X95261710Y-84260996D01*
X95261709Y-84260995D01*
X95220174Y-84160721D01*
X95199000Y-84054270D01*
X95199000Y-83945730D01*
X95220174Y-83839279D01*
X95261709Y-83739005D01*
X95322009Y-83648760D01*
X95322010Y-83648758D01*
X95398758Y-83572010D01*
X95489004Y-83511710D01*
X95489005Y-83511709D01*
X95589279Y-83470174D01*
X95695730Y-83449000D01*
X95804270Y-83449000D01*
X95910721Y-83470174D01*
X95910721Y-83470174D01*
G37*
G36*
X101201000Y-80124001D02*
G01*
X101203402Y-80148387D01*
X101210515Y-80171836D01*
X101222066Y-80193447D01*
X101237611Y-80212389D01*
X101256553Y-80227934D01*
X101278164Y-80239485D01*
X101301613Y-80246598D01*
X101325999Y-80249000D01*
X101374001Y-80249000D01*
X101398387Y-80246598D01*
X101421836Y-80239485D01*
X101443447Y-80227934D01*
X101462389Y-80212389D01*
X101477934Y-80193447D01*
X101489485Y-80171836D01*
X101496598Y-80148387D01*
X101499000Y-80124001D01*
X101499000Y-79324000D01*
X102001000Y-79324000D01*
X102001000Y-80124001D01*
X102003402Y-80148387D01*
X102010515Y-80171836D01*
X102022066Y-80193447D01*
X102037611Y-80212389D01*
X102056553Y-80227934D01*
X102078164Y-80239485D01*
X102101613Y-80246598D01*
X102125999Y-80249000D01*
X102174001Y-80249000D01*
X102198387Y-80246598D01*
X102221836Y-80239485D01*
X102243447Y-80227934D01*
X102262389Y-80212389D01*
X102277934Y-80193447D01*
X102289485Y-80171836D01*
X102296598Y-80148387D01*
X102299000Y-80124001D01*
X102299000Y-79324000D01*
X102801000Y-79324000D01*
X102801000Y-80124001D01*
X102803402Y-80148387D01*
X102810515Y-80171836D01*
X102822066Y-80193447D01*
X102837611Y-80212389D01*
X102856553Y-80227934D01*
X102878164Y-80239485D01*
X102901613Y-80246598D01*
X102925999Y-80249000D01*
X102974001Y-80249000D01*
X102998387Y-80246598D01*
X103021836Y-80239485D01*
X103043447Y-80227934D01*
X103062389Y-80212389D01*
X103077934Y-80193447D01*
X103089485Y-80171836D01*
X103096598Y-80148387D01*
X103099000Y-80124001D01*
X103099000Y-79324000D01*
X103601000Y-79324000D01*
X103601000Y-80074001D01*
X103603402Y-80098387D01*
X103610515Y-80121836D01*
X103622066Y-80143447D01*
X103637611Y-80162389D01*
X103656553Y-80177934D01*
X103678164Y-80189485D01*
X103701613Y-80196598D01*
X103725999Y-80199000D01*
X104476000Y-80199000D01*
X104476000Y-80701000D01*
X103675999Y-80701000D01*
X103651613Y-80703402D01*
X103628164Y-80710515D01*
X103606553Y-80722066D01*
X103587611Y-80737611D01*
X103572066Y-80756553D01*
X103560515Y-80778164D01*
X103553402Y-80801613D01*
X103551000Y-80825999D01*
X103551000Y-80874001D01*
X103553402Y-80898387D01*
X103560515Y-80921836D01*
X103572066Y-80943447D01*
X103587611Y-80962389D01*
X103606553Y-80977934D01*
X103628164Y-80989485D01*
X103651613Y-80996598D01*
X103675999Y-80999000D01*
X104476000Y-80999000D01*
X104476000Y-81501000D01*
X103675999Y-81501000D01*
X103651613Y-81503402D01*
X103628164Y-81510515D01*
X103606553Y-81522066D01*
X103587611Y-81537611D01*
X103572066Y-81556553D01*
X103560515Y-81578164D01*
X103553402Y-81601613D01*
X103551000Y-81625999D01*
X103551000Y-81674001D01*
X103553402Y-81698387D01*
X103560515Y-81721836D01*
X103572066Y-81743447D01*
X103587611Y-81762389D01*
X103606553Y-81777934D01*
X103628164Y-81789485D01*
X103651613Y-81796598D01*
X103675999Y-81799000D01*
X104476000Y-81799000D01*
X104476000Y-82301000D01*
X103675999Y-82301000D01*
X103651613Y-82303402D01*
X103628164Y-82310515D01*
X103606553Y-82322066D01*
X103587611Y-82337611D01*
X103572066Y-82356553D01*
X103560515Y-82378164D01*
X103553402Y-82401613D01*
X103551000Y-82425999D01*
X103551000Y-82474001D01*
X103553402Y-82498387D01*
X103560515Y-82521836D01*
X103572066Y-82543447D01*
X103587611Y-82562389D01*
X103606553Y-82577934D01*
X103628164Y-82589485D01*
X103651613Y-82596598D01*
X103675999Y-82599000D01*
X104476000Y-82599000D01*
X104476000Y-83101000D01*
X103725999Y-83101000D01*
X103701613Y-83103402D01*
X103678164Y-83110515D01*
X103656553Y-83122066D01*
X103637611Y-83137611D01*
X103622066Y-83156553D01*
X103610515Y-83178164D01*
X103603402Y-83201613D01*
X103601000Y-83225999D01*
X103601000Y-83976000D01*
X103099000Y-83976000D01*
X103099000Y-83175999D01*
X103096598Y-83151613D01*
X103089485Y-83128164D01*
X103077934Y-83106553D01*
X103062389Y-83087611D01*
X103043447Y-83072066D01*
X103021836Y-83060515D01*
X102998387Y-83053402D01*
X102974001Y-83051000D01*
X102925999Y-83051000D01*
X102901613Y-83053402D01*
X102878164Y-83060515D01*
X102856553Y-83072066D01*
X102837611Y-83087611D01*
X102822066Y-83106553D01*
X102810515Y-83128164D01*
X102803402Y-83151613D01*
X102801000Y-83175999D01*
X102801000Y-83976000D01*
X102299000Y-83976000D01*
X102299000Y-83175999D01*
X102296598Y-83151613D01*
X102289485Y-83128164D01*
X102277934Y-83106553D01*
X102262389Y-83087611D01*
X102243447Y-83072066D01*
X102221836Y-83060515D01*
X102198387Y-83053402D01*
X102174001Y-83051000D01*
X102125999Y-83051000D01*
X102101613Y-83053402D01*
X102078164Y-83060515D01*
X102056553Y-83072066D01*
X102037611Y-83087611D01*
X102022066Y-83106553D01*
X102010515Y-83128164D01*
X102003402Y-83151613D01*
X102001000Y-83175999D01*
X102001000Y-83976000D01*
X101499000Y-83976000D01*
X101499000Y-83175999D01*
X101496598Y-83151613D01*
X101489485Y-83128164D01*
X101477934Y-83106553D01*
X101462389Y-83087611D01*
X101443447Y-83072066D01*
X101421836Y-83060515D01*
X101398387Y-83053402D01*
X101374001Y-83051000D01*
X101325999Y-83051000D01*
X101301613Y-83053402D01*
X101278164Y-83060515D01*
X101256553Y-83072066D01*
X101237611Y-83087611D01*
X101222066Y-83106553D01*
X101210515Y-83128164D01*
X101203402Y-83151613D01*
X101201000Y-83175999D01*
X101201000Y-83976000D01*
X100699000Y-83976000D01*
X100699000Y-83225999D01*
X100696598Y-83201613D01*
X100689485Y-83178164D01*
X100677934Y-83156553D01*
X100662389Y-83137611D01*
X100643447Y-83122066D01*
X100621836Y-83110515D01*
X100598387Y-83103402D01*
X100574001Y-83101000D01*
X99824000Y-83101000D01*
X99824000Y-82599000D01*
X100624001Y-82599000D01*
X100648387Y-82596598D01*
X100671836Y-82589485D01*
X100693447Y-82577934D01*
X100712389Y-82562389D01*
X100727934Y-82543447D01*
X100739485Y-82521836D01*
X100746598Y-82498387D01*
X100749000Y-82474001D01*
X100749000Y-82425999D01*
X100746598Y-82401613D01*
X100739485Y-82378164D01*
X100727934Y-82356553D01*
X100712389Y-82337611D01*
X100693447Y-82322066D01*
X100671836Y-82310515D01*
X100648387Y-82303402D01*
X100624001Y-82301000D01*
X99824000Y-82301000D01*
X99824000Y-81799000D01*
X100624001Y-81799000D01*
X100648387Y-81796598D01*
X100671836Y-81789485D01*
X100693447Y-81777934D01*
X100712389Y-81762389D01*
X100727934Y-81743447D01*
X100739485Y-81721836D01*
X100746598Y-81698387D01*
X100749000Y-81674001D01*
X100749000Y-81625999D01*
X100746598Y-81601613D01*
X100739485Y-81578164D01*
X100727934Y-81556553D01*
X100712389Y-81537611D01*
X100693447Y-81522066D01*
X100671836Y-81510515D01*
X100648387Y-81503402D01*
X100624001Y-81501000D01*
X99824000Y-81501000D01*
X99824000Y-80999000D01*
X100624001Y-80999000D01*
X100648387Y-80996598D01*
X100671836Y-80989485D01*
X100693447Y-80977934D01*
X100712389Y-80962389D01*
X100727934Y-80943447D01*
X100739485Y-80921836D01*
X100746598Y-80898387D01*
X100749000Y-80874001D01*
X100749000Y-80825999D01*
X100746598Y-80801613D01*
X100739485Y-80778164D01*
X100727934Y-80756553D01*
X100712389Y-80737611D01*
X100693447Y-80722066D01*
X100671836Y-80710515D01*
X100648387Y-80703402D01*
X100624001Y-80701000D01*
X99824000Y-80701000D01*
X99824000Y-80199000D01*
X100574001Y-80199000D01*
X100598387Y-80196598D01*
X100621836Y-80189485D01*
X100643447Y-80177934D01*
X100662389Y-80162389D01*
X100677934Y-80143447D01*
X100689485Y-80121836D01*
X100696598Y-80098387D01*
X100699000Y-80074001D01*
X100699000Y-79324000D01*
X101201000Y-79324000D01*
X101201000Y-80124001D01*
X101201000Y-80124001D01*
G37*
G36*
X115800170Y-79350803D02*
G01*
X115811875Y-79354354D01*
X115822665Y-79360121D01*
X115832119Y-79367881D01*
X115839879Y-79377335D01*
X115845646Y-79388125D01*
X115849197Y-79399830D01*
X115851000Y-79418138D01*
X115851000Y-80181862D01*
X115849197Y-80200170D01*
X115845646Y-80211875D01*
X115839879Y-80222665D01*
X115827372Y-80237904D01*
X115820574Y-80244702D01*
X115806960Y-80265076D01*
X115797583Y-80287715D01*
X115792802Y-80311748D01*
X115792802Y-80336252D01*
X115797582Y-80360285D01*
X115806959Y-80382924D01*
X115820573Y-80403299D01*
X115837900Y-80420626D01*
X115858274Y-80434240D01*
X115880913Y-80443617D01*
X115904946Y-80448398D01*
X115917199Y-80449000D01*
X116282801Y-80449000D01*
X116307187Y-80446598D01*
X116330636Y-80439485D01*
X116352247Y-80427934D01*
X116371189Y-80412389D01*
X116386734Y-80393447D01*
X116398285Y-80371836D01*
X116405398Y-80348387D01*
X116407800Y-80324001D01*
X116405398Y-80299615D01*
X116398285Y-80276166D01*
X116386734Y-80254555D01*
X116371189Y-80235613D01*
X116369467Y-80234052D01*
X116360121Y-80222665D01*
X116354354Y-80211875D01*
X116350803Y-80200170D01*
X116349000Y-80181862D01*
X116349000Y-79418138D01*
X116350803Y-79399830D01*
X116354354Y-79388125D01*
X116360121Y-79377335D01*
X116367881Y-79367881D01*
X116377335Y-79360121D01*
X116388125Y-79354354D01*
X116399830Y-79350803D01*
X116418138Y-79349000D01*
X116781862Y-79349000D01*
X116800170Y-79350803D01*
X116811875Y-79354354D01*
X116822665Y-79360121D01*
X116832119Y-79367881D01*
X116839879Y-79377335D01*
X116845646Y-79388125D01*
X116849197Y-79399830D01*
X116851000Y-79418138D01*
X116851000Y-80181862D01*
X116849197Y-80200170D01*
X116845646Y-80211875D01*
X116839879Y-80222665D01*
X116827372Y-80237904D01*
X116820574Y-80244702D01*
X116806960Y-80265076D01*
X116797583Y-80287715D01*
X116792802Y-80311748D01*
X116792802Y-80336252D01*
X116797582Y-80360285D01*
X116806959Y-80382924D01*
X116820573Y-80403299D01*
X116837900Y-80420626D01*
X116858274Y-80434240D01*
X116880913Y-80443617D01*
X116904946Y-80448398D01*
X116917199Y-80449000D01*
X117282801Y-80449000D01*
X117307187Y-80446598D01*
X117330636Y-80439485D01*
X117352247Y-80427934D01*
X117371189Y-80412389D01*
X117386734Y-80393447D01*
X117398285Y-80371836D01*
X117405398Y-80348387D01*
X117407800Y-80324001D01*
X117405398Y-80299615D01*
X117398285Y-80276166D01*
X117386734Y-80254555D01*
X117371189Y-80235613D01*
X117369467Y-80234052D01*
X117360121Y-80222665D01*
X117354354Y-80211875D01*
X117350803Y-80200170D01*
X117349000Y-80181862D01*
X117349000Y-79418138D01*
X117350803Y-79399830D01*
X117354354Y-79388125D01*
X117360121Y-79377335D01*
X117367881Y-79367881D01*
X117377335Y-79360121D01*
X117388125Y-79354354D01*
X117399830Y-79350803D01*
X117418138Y-79349000D01*
X117781862Y-79349000D01*
X117800170Y-79350803D01*
X117811875Y-79354354D01*
X117822665Y-79360121D01*
X117832119Y-79367881D01*
X117839879Y-79377335D01*
X117845646Y-79388125D01*
X117849197Y-79399830D01*
X117851000Y-79418138D01*
X117851000Y-80181862D01*
X117849197Y-80200170D01*
X117845646Y-80211875D01*
X117839879Y-80222665D01*
X117832119Y-80232119D01*
X117822665Y-80239879D01*
X117811875Y-80245646D01*
X117793073Y-80251350D01*
X117770434Y-80260728D01*
X117750060Y-80274342D01*
X117732734Y-80291670D01*
X117719120Y-80312044D01*
X117709744Y-80334683D01*
X117704964Y-80358717D01*
X117704964Y-80383221D01*
X117709745Y-80407254D01*
X117719123Y-80429893D01*
X117732737Y-80450267D01*
X117750065Y-80467593D01*
X117767807Y-80479447D01*
X117796778Y-80503222D01*
X117819544Y-80530964D01*
X117836461Y-80562613D01*
X117846878Y-80596952D01*
X117851000Y-80638807D01*
X117851000Y-81861193D01*
X117846878Y-81903048D01*
X117836461Y-81937387D01*
X117819544Y-81969036D01*
X117796778Y-81996778D01*
X117767808Y-82020552D01*
X117750066Y-82032406D01*
X117732738Y-82049732D01*
X117719124Y-82070106D01*
X117709746Y-82092745D01*
X117704964Y-82116778D01*
X117704963Y-82141282D01*
X117709743Y-82165315D01*
X117719120Y-82187954D01*
X117732733Y-82208329D01*
X117750059Y-82225657D01*
X117770433Y-82239271D01*
X117793073Y-82248650D01*
X117811875Y-82254354D01*
X117822665Y-82260121D01*
X117832119Y-82267881D01*
X117839879Y-82277335D01*
X117845646Y-82288125D01*
X117849197Y-82299830D01*
X117851000Y-82318138D01*
X117851000Y-83081862D01*
X117849197Y-83100170D01*
X117845646Y-83111875D01*
X117839879Y-83122665D01*
X117832119Y-83132119D01*
X117822665Y-83139879D01*
X117811875Y-83145646D01*
X117800170Y-83149197D01*
X117781862Y-83151000D01*
X117418138Y-83151000D01*
X117399830Y-83149197D01*
X117388125Y-83145646D01*
X117377335Y-83139879D01*
X117367881Y-83132119D01*
X117360121Y-83122665D01*
X117354354Y-83111875D01*
X117350803Y-83100170D01*
X117349000Y-83081862D01*
X117349000Y-82318138D01*
X117350803Y-82299830D01*
X117354354Y-82288125D01*
X117360121Y-82277335D01*
X117372628Y-82262096D01*
X117379426Y-82255298D01*
X117393040Y-82234924D01*
X117402417Y-82212285D01*
X117407198Y-82188252D01*
X117407198Y-82163748D01*
X117402418Y-82139715D01*
X117393041Y-82117076D01*
X117379427Y-82096701D01*
X117362100Y-82079374D01*
X117341726Y-82065760D01*
X117319087Y-82056383D01*
X117295054Y-82051602D01*
X117282801Y-82051000D01*
X116917199Y-82051000D01*
X116892813Y-82053402D01*
X116869364Y-82060515D01*
X116847753Y-82072066D01*
X116828811Y-82087611D01*
X116813266Y-82106553D01*
X116801715Y-82128164D01*
X116794602Y-82151613D01*
X116792200Y-82175999D01*
X116794602Y-82200385D01*
X116801715Y-82223834D01*
X116813266Y-82245445D01*
X116828811Y-82264387D01*
X116830533Y-82265948D01*
X116839879Y-82277335D01*
X116845646Y-82288125D01*
X116849197Y-82299830D01*
X116851000Y-82318138D01*
X116851000Y-83081862D01*
X116849197Y-83100170D01*
X116845646Y-83111875D01*
X116839879Y-83122665D01*
X116832119Y-83132119D01*
X116822665Y-83139879D01*
X116811875Y-83145646D01*
X116800170Y-83149197D01*
X116781862Y-83151000D01*
X116418138Y-83151000D01*
X116399830Y-83149197D01*
X116388125Y-83145646D01*
X116377335Y-83139879D01*
X116367881Y-83132119D01*
X116360121Y-83122665D01*
X116354354Y-83111875D01*
X116350803Y-83100170D01*
X116349000Y-83081862D01*
X116349000Y-82318138D01*
X116350803Y-82299830D01*
X116354354Y-82288125D01*
X116360121Y-82277335D01*
X116372628Y-82262096D01*
X116379426Y-82255298D01*
X116393040Y-82234924D01*
X116402417Y-82212285D01*
X116407198Y-82188252D01*
X116407198Y-82163748D01*
X116402418Y-82139715D01*
X116393041Y-82117076D01*
X116379427Y-82096701D01*
X116362100Y-82079374D01*
X116341726Y-82065760D01*
X116319087Y-82056383D01*
X116295054Y-82051602D01*
X116282801Y-82051000D01*
X115917199Y-82051000D01*
X115892813Y-82053402D01*
X115869364Y-82060515D01*
X115847753Y-82072066D01*
X115828811Y-82087611D01*
X115813266Y-82106553D01*
X115801715Y-82128164D01*
X115794602Y-82151613D01*
X115792200Y-82175999D01*
X115794602Y-82200385D01*
X115801715Y-82223834D01*
X115813266Y-82245445D01*
X115828811Y-82264387D01*
X115830533Y-82265948D01*
X115839879Y-82277335D01*
X115845646Y-82288125D01*
X115849197Y-82299830D01*
X115851000Y-82318138D01*
X115851000Y-83081862D01*
X115849197Y-83100170D01*
X115845646Y-83111875D01*
X115839879Y-83122665D01*
X115832119Y-83132119D01*
X115822665Y-83139879D01*
X115811875Y-83145646D01*
X115800170Y-83149197D01*
X115781862Y-83151000D01*
X115418138Y-83151000D01*
X115399830Y-83149197D01*
X115388125Y-83145646D01*
X115377335Y-83139879D01*
X115367881Y-83132119D01*
X115360121Y-83122665D01*
X115354354Y-83111875D01*
X115350803Y-83100170D01*
X115349000Y-83081862D01*
X115349000Y-82318138D01*
X115350803Y-82299830D01*
X115354354Y-82288125D01*
X115360121Y-82277335D01*
X115367881Y-82267881D01*
X115377335Y-82260121D01*
X115388125Y-82254354D01*
X115406927Y-82248650D01*
X115429566Y-82239272D01*
X115449940Y-82225658D01*
X115467266Y-82208330D01*
X115480880Y-82187956D01*
X115490256Y-82165317D01*
X115495036Y-82141283D01*
X115495036Y-82116779D01*
X115490255Y-82092746D01*
X115480877Y-82070107D01*
X115467263Y-82049733D01*
X115449935Y-82032407D01*
X115432193Y-82020553D01*
X115403222Y-81996778D01*
X115380456Y-81969036D01*
X115363539Y-81937387D01*
X115353122Y-81903048D01*
X115349000Y-81861193D01*
X115349000Y-80638807D01*
X115353122Y-80596952D01*
X115363539Y-80562613D01*
X115380456Y-80530964D01*
X115403222Y-80503222D01*
X115432192Y-80479448D01*
X115449934Y-80467594D01*
X115467262Y-80450268D01*
X115480876Y-80429894D01*
X115490254Y-80407255D01*
X115495036Y-80383222D01*
X115495037Y-80358718D01*
X115490257Y-80334685D01*
X115480880Y-80312046D01*
X115467267Y-80291671D01*
X115449941Y-80274343D01*
X115429567Y-80260729D01*
X115406927Y-80251350D01*
X115388125Y-80245646D01*
X115377335Y-80239879D01*
X115367881Y-80232119D01*
X115360121Y-80222665D01*
X115354354Y-80211875D01*
X115350803Y-80200170D01*
X115349000Y-80181862D01*
X115349000Y-79418138D01*
X115350803Y-79399830D01*
X115354354Y-79388125D01*
X115360121Y-79377335D01*
X115367881Y-79367881D01*
X115377335Y-79360121D01*
X115388125Y-79354354D01*
X115399830Y-79350803D01*
X115418138Y-79349000D01*
X115781862Y-79349000D01*
X115800170Y-79350803D01*
X115800170Y-79350803D01*
G37*
G36*
X73855997Y-81153051D02*
G01*
X73889652Y-81163261D01*
X73920665Y-81179838D01*
X73947851Y-81202149D01*
X73970162Y-81229335D01*
X73986739Y-81260348D01*
X73996949Y-81294003D01*
X74001000Y-81335138D01*
X74001000Y-82664862D01*
X73996949Y-82705997D01*
X73986739Y-82739652D01*
X73970162Y-82770665D01*
X73947851Y-82797851D01*
X73920665Y-82820162D01*
X73889652Y-82836739D01*
X73855997Y-82846949D01*
X73814862Y-82851000D01*
X70585138Y-82851000D01*
X70544003Y-82846949D01*
X70510348Y-82836739D01*
X70479335Y-82820162D01*
X70452149Y-82797851D01*
X70429838Y-82770665D01*
X70413261Y-82739652D01*
X70403051Y-82705997D01*
X70399000Y-82664862D01*
X70399000Y-81335138D01*
X70403051Y-81294003D01*
X70413261Y-81260348D01*
X70429838Y-81229335D01*
X70452149Y-81202149D01*
X70479335Y-81179838D01*
X70510348Y-81163261D01*
X70544003Y-81153051D01*
X70585138Y-81149000D01*
X73814862Y-81149000D01*
X73855997Y-81153051D01*
X73855997Y-81153051D01*
G37*
G36*
X79455997Y-81153051D02*
G01*
X79489652Y-81163261D01*
X79520665Y-81179838D01*
X79547851Y-81202149D01*
X79570162Y-81229335D01*
X79586739Y-81260348D01*
X79596949Y-81294003D01*
X79601000Y-81335138D01*
X79601000Y-82664862D01*
X79596949Y-82705997D01*
X79586739Y-82739652D01*
X79570162Y-82770665D01*
X79547851Y-82797851D01*
X79520665Y-82820162D01*
X79489652Y-82836739D01*
X79455997Y-82846949D01*
X79414862Y-82851000D01*
X76185138Y-82851000D01*
X76144003Y-82846949D01*
X76110348Y-82836739D01*
X76079335Y-82820162D01*
X76052149Y-82797851D01*
X76029838Y-82770665D01*
X76013261Y-82739652D01*
X76003051Y-82705997D01*
X75999000Y-82664862D01*
X75999000Y-81335138D01*
X76003051Y-81294003D01*
X76013261Y-81260348D01*
X76029838Y-81229335D01*
X76052149Y-81202149D01*
X76079335Y-81179838D01*
X76110348Y-81163261D01*
X76144003Y-81153051D01*
X76185138Y-81149000D01*
X79414862Y-81149000D01*
X79455997Y-81153051D01*
X79455997Y-81153051D01*
G37*
G36*
X109654591Y-81578085D02*
G01*
X109688569Y-81588393D01*
X109719890Y-81605134D01*
X109747339Y-81627661D01*
X109769866Y-81655110D01*
X109786607Y-81686431D01*
X109796915Y-81720409D01*
X109801000Y-81761890D01*
X109801000Y-82438110D01*
X109796915Y-82479591D01*
X109786607Y-82513569D01*
X109769866Y-82544890D01*
X109747339Y-82572339D01*
X109719890Y-82594866D01*
X109688569Y-82611607D01*
X109654591Y-82621915D01*
X109613110Y-82626000D01*
X109011890Y-82626000D01*
X108970409Y-82621915D01*
X108936431Y-82611607D01*
X108905110Y-82594866D01*
X108877661Y-82572339D01*
X108855134Y-82544890D01*
X108838393Y-82513569D01*
X108828085Y-82479591D01*
X108824000Y-82438110D01*
X108824000Y-81761890D01*
X108828085Y-81720409D01*
X108838393Y-81686431D01*
X108855134Y-81655110D01*
X108877661Y-81627661D01*
X108905110Y-81605134D01*
X108936431Y-81588393D01*
X108970409Y-81578085D01*
X109011890Y-81574000D01*
X109613110Y-81574000D01*
X109654591Y-81578085D01*
X109654591Y-81578085D01*
G37*
G36*
X111229591Y-81578085D02*
G01*
X111263569Y-81588393D01*
X111294890Y-81605134D01*
X111322339Y-81627661D01*
X111344866Y-81655110D01*
X111361607Y-81686431D01*
X111371915Y-81720409D01*
X111376000Y-81761890D01*
X111376000Y-82438110D01*
X111371915Y-82479591D01*
X111361607Y-82513569D01*
X111344866Y-82544890D01*
X111322339Y-82572339D01*
X111294890Y-82594866D01*
X111263569Y-82611607D01*
X111229591Y-82621915D01*
X111188110Y-82626000D01*
X110586890Y-82626000D01*
X110545409Y-82621915D01*
X110511431Y-82611607D01*
X110480110Y-82594866D01*
X110452661Y-82572339D01*
X110430134Y-82544890D01*
X110413393Y-82513569D01*
X110403085Y-82479591D01*
X110399000Y-82438110D01*
X110399000Y-81761890D01*
X110403085Y-81720409D01*
X110413393Y-81686431D01*
X110430134Y-81655110D01*
X110452661Y-81627661D01*
X110480110Y-81605134D01*
X110511431Y-81588393D01*
X110545409Y-81578085D01*
X110586890Y-81574000D01*
X111188110Y-81574000D01*
X111229591Y-81578085D01*
X111229591Y-81578085D01*
G37*
G36*
X113979591Y-81553085D02*
G01*
X114013569Y-81563393D01*
X114044890Y-81580134D01*
X114072339Y-81602661D01*
X114094866Y-81630110D01*
X114111607Y-81661431D01*
X114121915Y-81695409D01*
X114126000Y-81736890D01*
X114126000Y-82338110D01*
X114121915Y-82379591D01*
X114111607Y-82413569D01*
X114094866Y-82444890D01*
X114072339Y-82472339D01*
X114044890Y-82494866D01*
X114013569Y-82511607D01*
X113979591Y-82521915D01*
X113938110Y-82526000D01*
X113261890Y-82526000D01*
X113220409Y-82521915D01*
X113186431Y-82511607D01*
X113155110Y-82494866D01*
X113127661Y-82472339D01*
X113105134Y-82444890D01*
X113088393Y-82413569D01*
X113078085Y-82379591D01*
X113074000Y-82338110D01*
X113074000Y-81736890D01*
X113078085Y-81695409D01*
X113088393Y-81661431D01*
X113105134Y-81630110D01*
X113127661Y-81602661D01*
X113155110Y-81580134D01*
X113186431Y-81563393D01*
X113220409Y-81553085D01*
X113261890Y-81549000D01*
X113938110Y-81549000D01*
X113979591Y-81553085D01*
X113979591Y-81553085D01*
G37*
G36*
X98679591Y-81303085D02*
G01*
X98713569Y-81313393D01*
X98744890Y-81330134D01*
X98772339Y-81352661D01*
X98794866Y-81380110D01*
X98811607Y-81411431D01*
X98821915Y-81445409D01*
X98826000Y-81486890D01*
X98826000Y-82088110D01*
X98821915Y-82129591D01*
X98811607Y-82163569D01*
X98794866Y-82194890D01*
X98772339Y-82222339D01*
X98744890Y-82244866D01*
X98713569Y-82261607D01*
X98679591Y-82271915D01*
X98638110Y-82276000D01*
X97961890Y-82276000D01*
X97920409Y-82271915D01*
X97886431Y-82261607D01*
X97855110Y-82244866D01*
X97827661Y-82222339D01*
X97805134Y-82194890D01*
X97788393Y-82163569D01*
X97778085Y-82129591D01*
X97774000Y-82088110D01*
X97774000Y-81486890D01*
X97778085Y-81445409D01*
X97788393Y-81411431D01*
X97805134Y-81380110D01*
X97827661Y-81352661D01*
X97855110Y-81330134D01*
X97886431Y-81313393D01*
X97920409Y-81303085D01*
X97961890Y-81299000D01*
X98638110Y-81299000D01*
X98679591Y-81303085D01*
X98679591Y-81303085D01*
G37*
G36*
X91570442Y-80105518D02*
G01*
X91636627Y-80112037D01*
X91806466Y-80163557D01*
X91806468Y-80163558D01*
X91833363Y-80177934D01*
X91962991Y-80247222D01*
X91971926Y-80254555D01*
X92100186Y-80359814D01*
X92177588Y-80454130D01*
X92212778Y-80497009D01*
X92296443Y-80653534D01*
X92347963Y-80823373D01*
X92365359Y-81000000D01*
X92347963Y-81176627D01*
X92296443Y-81346466D01*
X92212778Y-81502991D01*
X92206603Y-81510515D01*
X92100186Y-81640186D01*
X92000694Y-81721836D01*
X91962991Y-81752778D01*
X91915928Y-81777934D01*
X91840503Y-81818250D01*
X91806466Y-81836443D01*
X91636627Y-81887963D01*
X91570442Y-81894482D01*
X91504260Y-81901000D01*
X91415740Y-81901000D01*
X91349558Y-81894482D01*
X91283373Y-81887963D01*
X91113534Y-81836443D01*
X91079498Y-81818250D01*
X91004072Y-81777934D01*
X90957009Y-81752778D01*
X90919306Y-81721836D01*
X90819814Y-81640186D01*
X90713397Y-81510515D01*
X90707222Y-81502991D01*
X90623557Y-81346466D01*
X90572037Y-81176627D01*
X90554641Y-81000000D01*
X90572037Y-80823373D01*
X90623557Y-80653534D01*
X90707222Y-80497009D01*
X90742412Y-80454130D01*
X90819814Y-80359814D01*
X90948074Y-80254555D01*
X90957009Y-80247222D01*
X91086637Y-80177934D01*
X91113532Y-80163558D01*
X91113534Y-80163557D01*
X91283373Y-80112037D01*
X91349558Y-80105518D01*
X91415740Y-80099000D01*
X91504260Y-80099000D01*
X91570442Y-80105518D01*
X91570442Y-80105518D01*
G37*
G36*
X94901000Y-81901000D02*
G01*
X93099000Y-81901000D01*
X93099000Y-80099000D01*
X94901000Y-80099000D01*
X94901000Y-81901000D01*
X94901000Y-81901000D01*
G37*
G36*
X86490442Y-80105518D02*
G01*
X86556627Y-80112037D01*
X86726466Y-80163557D01*
X86726468Y-80163558D01*
X86753363Y-80177934D01*
X86882991Y-80247222D01*
X86891926Y-80254555D01*
X87020186Y-80359814D01*
X87097588Y-80454130D01*
X87132778Y-80497009D01*
X87216443Y-80653534D01*
X87267963Y-80823373D01*
X87285359Y-81000000D01*
X87267963Y-81176627D01*
X87216443Y-81346466D01*
X87132778Y-81502991D01*
X87126603Y-81510515D01*
X87020186Y-81640186D01*
X86920694Y-81721836D01*
X86882991Y-81752778D01*
X86835928Y-81777934D01*
X86760503Y-81818250D01*
X86726466Y-81836443D01*
X86556627Y-81887963D01*
X86490442Y-81894482D01*
X86424260Y-81901000D01*
X86335740Y-81901000D01*
X86269558Y-81894482D01*
X86203373Y-81887963D01*
X86033534Y-81836443D01*
X85999498Y-81818250D01*
X85924072Y-81777934D01*
X85877009Y-81752778D01*
X85839306Y-81721836D01*
X85739814Y-81640186D01*
X85633397Y-81510515D01*
X85627222Y-81502991D01*
X85543557Y-81346466D01*
X85492037Y-81176627D01*
X85474641Y-81000000D01*
X85492037Y-80823373D01*
X85543557Y-80653534D01*
X85627222Y-80497009D01*
X85662412Y-80454130D01*
X85739814Y-80359814D01*
X85868074Y-80254555D01*
X85877009Y-80247222D01*
X86006637Y-80177934D01*
X86033532Y-80163558D01*
X86033534Y-80163557D01*
X86203373Y-80112037D01*
X86269558Y-80105518D01*
X86335740Y-80099000D01*
X86424260Y-80099000D01*
X86490442Y-80105518D01*
X86490442Y-80105518D01*
G37*
G36*
X89030442Y-80105518D02*
G01*
X89096627Y-80112037D01*
X89266466Y-80163557D01*
X89266468Y-80163558D01*
X89293363Y-80177934D01*
X89422991Y-80247222D01*
X89431926Y-80254555D01*
X89560186Y-80359814D01*
X89637588Y-80454130D01*
X89672778Y-80497009D01*
X89756443Y-80653534D01*
X89807963Y-80823373D01*
X89825359Y-81000000D01*
X89807963Y-81176627D01*
X89756443Y-81346466D01*
X89672778Y-81502991D01*
X89666603Y-81510515D01*
X89560186Y-81640186D01*
X89460694Y-81721836D01*
X89422991Y-81752778D01*
X89375928Y-81777934D01*
X89300503Y-81818250D01*
X89266466Y-81836443D01*
X89096627Y-81887963D01*
X89030442Y-81894482D01*
X88964260Y-81901000D01*
X88875740Y-81901000D01*
X88809558Y-81894482D01*
X88743373Y-81887963D01*
X88573534Y-81836443D01*
X88539498Y-81818250D01*
X88464072Y-81777934D01*
X88417009Y-81752778D01*
X88379306Y-81721836D01*
X88279814Y-81640186D01*
X88173397Y-81510515D01*
X88167222Y-81502991D01*
X88083557Y-81346466D01*
X88032037Y-81176627D01*
X88014641Y-81000000D01*
X88032037Y-80823373D01*
X88083557Y-80653534D01*
X88167222Y-80497009D01*
X88202412Y-80454130D01*
X88279814Y-80359814D01*
X88408074Y-80254555D01*
X88417009Y-80247222D01*
X88546637Y-80177934D01*
X88573532Y-80163558D01*
X88573534Y-80163557D01*
X88743373Y-80112037D01*
X88809558Y-80105518D01*
X88875740Y-80099000D01*
X88964260Y-80099000D01*
X89030442Y-80105518D01*
X89030442Y-80105518D01*
G37*
G36*
X109654591Y-79978085D02*
G01*
X109688569Y-79988393D01*
X109719890Y-80005134D01*
X109747339Y-80027661D01*
X109769866Y-80055110D01*
X109786607Y-80086431D01*
X109796915Y-80120409D01*
X109801000Y-80161890D01*
X109801000Y-80838110D01*
X109796915Y-80879591D01*
X109786607Y-80913569D01*
X109769866Y-80944890D01*
X109747339Y-80972339D01*
X109719890Y-80994866D01*
X109688569Y-81011607D01*
X109654591Y-81021915D01*
X109613110Y-81026000D01*
X109011890Y-81026000D01*
X108970409Y-81021915D01*
X108936431Y-81011607D01*
X108905110Y-80994866D01*
X108877661Y-80972339D01*
X108855134Y-80944890D01*
X108838393Y-80913569D01*
X108828085Y-80879591D01*
X108824000Y-80838110D01*
X108824000Y-80161890D01*
X108828085Y-80120409D01*
X108838393Y-80086431D01*
X108855134Y-80055110D01*
X108877661Y-80027661D01*
X108905110Y-80005134D01*
X108936431Y-79988393D01*
X108970409Y-79978085D01*
X109011890Y-79974000D01*
X109613110Y-79974000D01*
X109654591Y-79978085D01*
X109654591Y-79978085D01*
G37*
G36*
X111229591Y-79978085D02*
G01*
X111263569Y-79988393D01*
X111294890Y-80005134D01*
X111322339Y-80027661D01*
X111344866Y-80055110D01*
X111361607Y-80086431D01*
X111371915Y-80120409D01*
X111376000Y-80161890D01*
X111376000Y-80838110D01*
X111371915Y-80879591D01*
X111361607Y-80913569D01*
X111344866Y-80944890D01*
X111322339Y-80972339D01*
X111294890Y-80994866D01*
X111263569Y-81011607D01*
X111229591Y-81021915D01*
X111188110Y-81026000D01*
X110586890Y-81026000D01*
X110545409Y-81021915D01*
X110511431Y-81011607D01*
X110480110Y-80994866D01*
X110452661Y-80972339D01*
X110430134Y-80944890D01*
X110413393Y-80913569D01*
X110403085Y-80879591D01*
X110399000Y-80838110D01*
X110399000Y-80161890D01*
X110403085Y-80120409D01*
X110413393Y-80086431D01*
X110430134Y-80055110D01*
X110452661Y-80027661D01*
X110480110Y-80005134D01*
X110511431Y-79988393D01*
X110545409Y-79978085D01*
X110586890Y-79974000D01*
X111188110Y-79974000D01*
X111229591Y-79978085D01*
X111229591Y-79978085D01*
G37*
G36*
X113979591Y-79978085D02*
G01*
X114013569Y-79988393D01*
X114044890Y-80005134D01*
X114072339Y-80027661D01*
X114094866Y-80055110D01*
X114111607Y-80086431D01*
X114121915Y-80120409D01*
X114126000Y-80161890D01*
X114126000Y-80763110D01*
X114121915Y-80804591D01*
X114111607Y-80838569D01*
X114094866Y-80869890D01*
X114072339Y-80897339D01*
X114044890Y-80919866D01*
X114013569Y-80936607D01*
X113979591Y-80946915D01*
X113938110Y-80951000D01*
X113261890Y-80951000D01*
X113220409Y-80946915D01*
X113186431Y-80936607D01*
X113155110Y-80919866D01*
X113127661Y-80897339D01*
X113105134Y-80869890D01*
X113088393Y-80838569D01*
X113078085Y-80804591D01*
X113074000Y-80763110D01*
X113074000Y-80161890D01*
X113078085Y-80120409D01*
X113088393Y-80086431D01*
X113105134Y-80055110D01*
X113127661Y-80027661D01*
X113155110Y-80005134D01*
X113186431Y-79988393D01*
X113220409Y-79978085D01*
X113261890Y-79974000D01*
X113938110Y-79974000D01*
X113979591Y-79978085D01*
X113979591Y-79978085D01*
G37*
G36*
X98679591Y-79728085D02*
G01*
X98713569Y-79738393D01*
X98744890Y-79755134D01*
X98772339Y-79777661D01*
X98794866Y-79805110D01*
X98811607Y-79836431D01*
X98821915Y-79870409D01*
X98826000Y-79911890D01*
X98826000Y-80513110D01*
X98821915Y-80554591D01*
X98811607Y-80588569D01*
X98794866Y-80619890D01*
X98772339Y-80647339D01*
X98744890Y-80669866D01*
X98713569Y-80686607D01*
X98679591Y-80696915D01*
X98638110Y-80701000D01*
X97961890Y-80701000D01*
X97920409Y-80696915D01*
X97886431Y-80686607D01*
X97855110Y-80669866D01*
X97827661Y-80647339D01*
X97805134Y-80619890D01*
X97788393Y-80588569D01*
X97778085Y-80554591D01*
X97774000Y-80513110D01*
X97774000Y-79911890D01*
X97778085Y-79870409D01*
X97788393Y-79836431D01*
X97805134Y-79805110D01*
X97827661Y-79777661D01*
X97855110Y-79755134D01*
X97886431Y-79738393D01*
X97920409Y-79728085D01*
X97961890Y-79724000D01*
X98638110Y-79724000D01*
X98679591Y-79728085D01*
X98679591Y-79728085D01*
G37*
M02*
