M48
; DRILL file {KiCad (5.1.0)-1} date 10.04.2020 00:04:42
; FORMAT={-:-/ absolute / metric / decimal}
; #@! TF.CreationDate,2020-04-10T00:04:42+02:00
; #@! TF.GenerationSoftware,Kicad,Pcbnew,(5.1.0)-1
; #@! TF.FileFunction,Plated,1,2,PTH
FMAT,2
METRIC
T1C0.400
T2C1.000
T3C1.100
T4C1.500
T5C1.700
%
G90
G05
T1
X71.4Y-86.4
X71.4Y-99.6
X79.0Y-99.6
X79.2Y-87.2
X79.4Y-91.0
X79.601Y-93.199
X84.2Y-91.0
X84.8Y-89.4
X84.987Y-86.212
X85.0Y-87.8
X85.8Y-107.2
X86.0Y-84.525
X87.2Y-101.2
X87.95Y-86.35
X88.987Y-100.213
X89.0Y-86.2
X90.1Y-86.3
X90.2Y-90.0
X91.4Y-90.0
X91.5Y-85.5
X91.8Y-104.0
X91.975Y-107.225
X92.055Y-86.332
X92.6Y-90.0
X92.6Y-103.0
X93.4Y-104.0
X94.475Y-106.675
X94.8Y-104.5
X95.4Y-96.8
X96.475Y-87.0
X98.1Y-85.6
X98.3Y-83.6
X98.475Y-105.2
X99.0Y-103.0
X100.0Y-95.8
X100.0Y-97.4
X100.4Y-92.8
X100.6Y-112.2
X105.8Y-80.1
X106.0Y-84.1
X106.275Y-81.325
X106.275Y-82.625
X107.8Y-110.4
X112.2Y-82.1
X113.6Y-79.2
X115.8Y-114.0
T2
X86.38Y-81.0
X88.92Y-81.0
X91.46Y-81.0
X94.0Y-81.0
X74.0Y-110.0
X74.0Y-112.54
X80.0Y-102.5
X80.0Y-105.04
X82.54Y-102.5
X82.54Y-105.04
T3
X74.0Y-102.5
X74.0Y-105.04
X79.95Y-111.0
X82.49Y-111.0
T4
X114.0Y-90.0
T5
X111.46Y-87.46
X111.46Y-92.54
X116.54Y-87.46
X116.54Y-92.54
T0
M30
