G04 #@! TF.GenerationSoftware,KiCad,Pcbnew,(5.1.0)-1*
G04 #@! TF.CreationDate,2020-04-10T00:04:39+02:00*
G04 #@! TF.ProjectId,Heissluftballon,48656973-736c-4756-9674-62616c6c6f6e,rev?*
G04 #@! TF.SameCoordinates,Original*
G04 #@! TF.FileFunction,Paste,Top*
G04 #@! TF.FilePolarity,Positive*
%FSLAX46Y46*%
G04 Gerber Fmt 4.6, Leading zero omitted, Abs format (unit mm)*
G04 Created by KiCad (PCBNEW (5.1.0)-1) date 2020-04-10 00:04:39*
%MOMM*%
%LPD*%
G04 APERTURE LIST*
%ADD10R,1.050000X1.050000*%
%ADD11C,0.100000*%
%ADD12C,0.875000*%
%ADD13C,1.600000*%
%ADD14C,0.400000*%
%ADD15C,0.600000*%
%ADD16R,1.750000X0.450000*%
%ADD17R,1.060000X0.650000*%
%ADD18C,0.500000*%
%ADD19R,1.700000X2.000000*%
%ADD20R,2.000000X0.500000*%
%ADD21R,1.000000X2.000000*%
%ADD22R,0.900000X0.800000*%
G04 APERTURE END LIST*
D10*
X102875000Y-80925000D03*
X101425000Y-80925000D03*
X102875000Y-82375000D03*
X101425000Y-82375000D03*
D11*
G36*
X99227691Y-89126053D02*
G01*
X99248926Y-89129203D01*
X99269750Y-89134419D01*
X99289962Y-89141651D01*
X99309368Y-89150830D01*
X99327781Y-89161866D01*
X99345024Y-89174654D01*
X99360930Y-89189070D01*
X99375346Y-89204976D01*
X99388134Y-89222219D01*
X99399170Y-89240632D01*
X99408349Y-89260038D01*
X99415581Y-89280250D01*
X99420797Y-89301074D01*
X99423947Y-89322309D01*
X99425000Y-89343750D01*
X99425000Y-89856250D01*
X99423947Y-89877691D01*
X99420797Y-89898926D01*
X99415581Y-89919750D01*
X99408349Y-89939962D01*
X99399170Y-89959368D01*
X99388134Y-89977781D01*
X99375346Y-89995024D01*
X99360930Y-90010930D01*
X99345024Y-90025346D01*
X99327781Y-90038134D01*
X99309368Y-90049170D01*
X99289962Y-90058349D01*
X99269750Y-90065581D01*
X99248926Y-90070797D01*
X99227691Y-90073947D01*
X99206250Y-90075000D01*
X98768750Y-90075000D01*
X98747309Y-90073947D01*
X98726074Y-90070797D01*
X98705250Y-90065581D01*
X98685038Y-90058349D01*
X98665632Y-90049170D01*
X98647219Y-90038134D01*
X98629976Y-90025346D01*
X98614070Y-90010930D01*
X98599654Y-89995024D01*
X98586866Y-89977781D01*
X98575830Y-89959368D01*
X98566651Y-89939962D01*
X98559419Y-89919750D01*
X98554203Y-89898926D01*
X98551053Y-89877691D01*
X98550000Y-89856250D01*
X98550000Y-89343750D01*
X98551053Y-89322309D01*
X98554203Y-89301074D01*
X98559419Y-89280250D01*
X98566651Y-89260038D01*
X98575830Y-89240632D01*
X98586866Y-89222219D01*
X98599654Y-89204976D01*
X98614070Y-89189070D01*
X98629976Y-89174654D01*
X98647219Y-89161866D01*
X98665632Y-89150830D01*
X98685038Y-89141651D01*
X98705250Y-89134419D01*
X98726074Y-89129203D01*
X98747309Y-89126053D01*
X98768750Y-89125000D01*
X99206250Y-89125000D01*
X99227691Y-89126053D01*
X99227691Y-89126053D01*
G37*
D12*
X98987500Y-89600000D03*
D11*
G36*
X97652691Y-89126053D02*
G01*
X97673926Y-89129203D01*
X97694750Y-89134419D01*
X97714962Y-89141651D01*
X97734368Y-89150830D01*
X97752781Y-89161866D01*
X97770024Y-89174654D01*
X97785930Y-89189070D01*
X97800346Y-89204976D01*
X97813134Y-89222219D01*
X97824170Y-89240632D01*
X97833349Y-89260038D01*
X97840581Y-89280250D01*
X97845797Y-89301074D01*
X97848947Y-89322309D01*
X97850000Y-89343750D01*
X97850000Y-89856250D01*
X97848947Y-89877691D01*
X97845797Y-89898926D01*
X97840581Y-89919750D01*
X97833349Y-89939962D01*
X97824170Y-89959368D01*
X97813134Y-89977781D01*
X97800346Y-89995024D01*
X97785930Y-90010930D01*
X97770024Y-90025346D01*
X97752781Y-90038134D01*
X97734368Y-90049170D01*
X97714962Y-90058349D01*
X97694750Y-90065581D01*
X97673926Y-90070797D01*
X97652691Y-90073947D01*
X97631250Y-90075000D01*
X97193750Y-90075000D01*
X97172309Y-90073947D01*
X97151074Y-90070797D01*
X97130250Y-90065581D01*
X97110038Y-90058349D01*
X97090632Y-90049170D01*
X97072219Y-90038134D01*
X97054976Y-90025346D01*
X97039070Y-90010930D01*
X97024654Y-89995024D01*
X97011866Y-89977781D01*
X97000830Y-89959368D01*
X96991651Y-89939962D01*
X96984419Y-89919750D01*
X96979203Y-89898926D01*
X96976053Y-89877691D01*
X96975000Y-89856250D01*
X96975000Y-89343750D01*
X96976053Y-89322309D01*
X96979203Y-89301074D01*
X96984419Y-89280250D01*
X96991651Y-89260038D01*
X97000830Y-89240632D01*
X97011866Y-89222219D01*
X97024654Y-89204976D01*
X97039070Y-89189070D01*
X97054976Y-89174654D01*
X97072219Y-89161866D01*
X97090632Y-89150830D01*
X97110038Y-89141651D01*
X97130250Y-89134419D01*
X97151074Y-89129203D01*
X97172309Y-89126053D01*
X97193750Y-89125000D01*
X97631250Y-89125000D01*
X97652691Y-89126053D01*
X97652691Y-89126053D01*
G37*
D12*
X97412500Y-89600000D03*
D11*
G36*
X99227691Y-87526053D02*
G01*
X99248926Y-87529203D01*
X99269750Y-87534419D01*
X99289962Y-87541651D01*
X99309368Y-87550830D01*
X99327781Y-87561866D01*
X99345024Y-87574654D01*
X99360930Y-87589070D01*
X99375346Y-87604976D01*
X99388134Y-87622219D01*
X99399170Y-87640632D01*
X99408349Y-87660038D01*
X99415581Y-87680250D01*
X99420797Y-87701074D01*
X99423947Y-87722309D01*
X99425000Y-87743750D01*
X99425000Y-88256250D01*
X99423947Y-88277691D01*
X99420797Y-88298926D01*
X99415581Y-88319750D01*
X99408349Y-88339962D01*
X99399170Y-88359368D01*
X99388134Y-88377781D01*
X99375346Y-88395024D01*
X99360930Y-88410930D01*
X99345024Y-88425346D01*
X99327781Y-88438134D01*
X99309368Y-88449170D01*
X99289962Y-88458349D01*
X99269750Y-88465581D01*
X99248926Y-88470797D01*
X99227691Y-88473947D01*
X99206250Y-88475000D01*
X98768750Y-88475000D01*
X98747309Y-88473947D01*
X98726074Y-88470797D01*
X98705250Y-88465581D01*
X98685038Y-88458349D01*
X98665632Y-88449170D01*
X98647219Y-88438134D01*
X98629976Y-88425346D01*
X98614070Y-88410930D01*
X98599654Y-88395024D01*
X98586866Y-88377781D01*
X98575830Y-88359368D01*
X98566651Y-88339962D01*
X98559419Y-88319750D01*
X98554203Y-88298926D01*
X98551053Y-88277691D01*
X98550000Y-88256250D01*
X98550000Y-87743750D01*
X98551053Y-87722309D01*
X98554203Y-87701074D01*
X98559419Y-87680250D01*
X98566651Y-87660038D01*
X98575830Y-87640632D01*
X98586866Y-87622219D01*
X98599654Y-87604976D01*
X98614070Y-87589070D01*
X98629976Y-87574654D01*
X98647219Y-87561866D01*
X98665632Y-87550830D01*
X98685038Y-87541651D01*
X98705250Y-87534419D01*
X98726074Y-87529203D01*
X98747309Y-87526053D01*
X98768750Y-87525000D01*
X99206250Y-87525000D01*
X99227691Y-87526053D01*
X99227691Y-87526053D01*
G37*
D12*
X98987500Y-88000000D03*
D11*
G36*
X97652691Y-87526053D02*
G01*
X97673926Y-87529203D01*
X97694750Y-87534419D01*
X97714962Y-87541651D01*
X97734368Y-87550830D01*
X97752781Y-87561866D01*
X97770024Y-87574654D01*
X97785930Y-87589070D01*
X97800346Y-87604976D01*
X97813134Y-87622219D01*
X97824170Y-87640632D01*
X97833349Y-87660038D01*
X97840581Y-87680250D01*
X97845797Y-87701074D01*
X97848947Y-87722309D01*
X97850000Y-87743750D01*
X97850000Y-88256250D01*
X97848947Y-88277691D01*
X97845797Y-88298926D01*
X97840581Y-88319750D01*
X97833349Y-88339962D01*
X97824170Y-88359368D01*
X97813134Y-88377781D01*
X97800346Y-88395024D01*
X97785930Y-88410930D01*
X97770024Y-88425346D01*
X97752781Y-88438134D01*
X97734368Y-88449170D01*
X97714962Y-88458349D01*
X97694750Y-88465581D01*
X97673926Y-88470797D01*
X97652691Y-88473947D01*
X97631250Y-88475000D01*
X97193750Y-88475000D01*
X97172309Y-88473947D01*
X97151074Y-88470797D01*
X97130250Y-88465581D01*
X97110038Y-88458349D01*
X97090632Y-88449170D01*
X97072219Y-88438134D01*
X97054976Y-88425346D01*
X97039070Y-88410930D01*
X97024654Y-88395024D01*
X97011866Y-88377781D01*
X97000830Y-88359368D01*
X96991651Y-88339962D01*
X96984419Y-88319750D01*
X96979203Y-88298926D01*
X96976053Y-88277691D01*
X96975000Y-88256250D01*
X96975000Y-87743750D01*
X96976053Y-87722309D01*
X96979203Y-87701074D01*
X96984419Y-87680250D01*
X96991651Y-87660038D01*
X97000830Y-87640632D01*
X97011866Y-87622219D01*
X97024654Y-87604976D01*
X97039070Y-87589070D01*
X97054976Y-87574654D01*
X97072219Y-87561866D01*
X97090632Y-87550830D01*
X97110038Y-87541651D01*
X97130250Y-87534419D01*
X97151074Y-87529203D01*
X97172309Y-87526053D01*
X97193750Y-87525000D01*
X97631250Y-87525000D01*
X97652691Y-87526053D01*
X97652691Y-87526053D01*
G37*
D12*
X97412500Y-88000000D03*
D11*
G36*
X106574504Y-85051204D02*
G01*
X106598773Y-85054804D01*
X106622571Y-85060765D01*
X106645671Y-85069030D01*
X106667849Y-85079520D01*
X106688893Y-85092133D01*
X106708598Y-85106747D01*
X106726777Y-85123223D01*
X106743253Y-85141402D01*
X106757867Y-85161107D01*
X106770480Y-85182151D01*
X106780970Y-85204329D01*
X106789235Y-85227429D01*
X106795196Y-85251227D01*
X106798796Y-85275496D01*
X106800000Y-85300000D01*
X106800000Y-88300000D01*
X106798796Y-88324504D01*
X106795196Y-88348773D01*
X106789235Y-88372571D01*
X106780970Y-88395671D01*
X106770480Y-88417849D01*
X106757867Y-88438893D01*
X106743253Y-88458598D01*
X106726777Y-88476777D01*
X106708598Y-88493253D01*
X106688893Y-88507867D01*
X106667849Y-88520480D01*
X106645671Y-88530970D01*
X106622571Y-88539235D01*
X106598773Y-88545196D01*
X106574504Y-88548796D01*
X106550000Y-88550000D01*
X105450000Y-88550000D01*
X105425496Y-88548796D01*
X105401227Y-88545196D01*
X105377429Y-88539235D01*
X105354329Y-88530970D01*
X105332151Y-88520480D01*
X105311107Y-88507867D01*
X105291402Y-88493253D01*
X105273223Y-88476777D01*
X105256747Y-88458598D01*
X105242133Y-88438893D01*
X105229520Y-88417849D01*
X105219030Y-88395671D01*
X105210765Y-88372571D01*
X105204804Y-88348773D01*
X105201204Y-88324504D01*
X105200000Y-88300000D01*
X105200000Y-85300000D01*
X105201204Y-85275496D01*
X105204804Y-85251227D01*
X105210765Y-85227429D01*
X105219030Y-85204329D01*
X105229520Y-85182151D01*
X105242133Y-85161107D01*
X105256747Y-85141402D01*
X105273223Y-85123223D01*
X105291402Y-85106747D01*
X105311107Y-85092133D01*
X105332151Y-85079520D01*
X105354329Y-85069030D01*
X105377429Y-85060765D01*
X105401227Y-85054804D01*
X105425496Y-85051204D01*
X105450000Y-85050000D01*
X106550000Y-85050000D01*
X106574504Y-85051204D01*
X106574504Y-85051204D01*
G37*
D13*
X106000000Y-86800000D03*
D11*
G36*
X106574504Y-90651204D02*
G01*
X106598773Y-90654804D01*
X106622571Y-90660765D01*
X106645671Y-90669030D01*
X106667849Y-90679520D01*
X106688893Y-90692133D01*
X106708598Y-90706747D01*
X106726777Y-90723223D01*
X106743253Y-90741402D01*
X106757867Y-90761107D01*
X106770480Y-90782151D01*
X106780970Y-90804329D01*
X106789235Y-90827429D01*
X106795196Y-90851227D01*
X106798796Y-90875496D01*
X106800000Y-90900000D01*
X106800000Y-93900000D01*
X106798796Y-93924504D01*
X106795196Y-93948773D01*
X106789235Y-93972571D01*
X106780970Y-93995671D01*
X106770480Y-94017849D01*
X106757867Y-94038893D01*
X106743253Y-94058598D01*
X106726777Y-94076777D01*
X106708598Y-94093253D01*
X106688893Y-94107867D01*
X106667849Y-94120480D01*
X106645671Y-94130970D01*
X106622571Y-94139235D01*
X106598773Y-94145196D01*
X106574504Y-94148796D01*
X106550000Y-94150000D01*
X105450000Y-94150000D01*
X105425496Y-94148796D01*
X105401227Y-94145196D01*
X105377429Y-94139235D01*
X105354329Y-94130970D01*
X105332151Y-94120480D01*
X105311107Y-94107867D01*
X105291402Y-94093253D01*
X105273223Y-94076777D01*
X105256747Y-94058598D01*
X105242133Y-94038893D01*
X105229520Y-94017849D01*
X105219030Y-93995671D01*
X105210765Y-93972571D01*
X105204804Y-93948773D01*
X105201204Y-93924504D01*
X105200000Y-93900000D01*
X105200000Y-90900000D01*
X105201204Y-90875496D01*
X105204804Y-90851227D01*
X105210765Y-90827429D01*
X105219030Y-90804329D01*
X105229520Y-90782151D01*
X105242133Y-90761107D01*
X105256747Y-90741402D01*
X105273223Y-90723223D01*
X105291402Y-90706747D01*
X105311107Y-90692133D01*
X105332151Y-90679520D01*
X105354329Y-90669030D01*
X105377429Y-90660765D01*
X105401227Y-90654804D01*
X105425496Y-90651204D01*
X105450000Y-90650000D01*
X106550000Y-90650000D01*
X106574504Y-90651204D01*
X106574504Y-90651204D01*
G37*
D13*
X106000000Y-92400000D03*
D11*
G36*
X109552691Y-80026053D02*
G01*
X109573926Y-80029203D01*
X109594750Y-80034419D01*
X109614962Y-80041651D01*
X109634368Y-80050830D01*
X109652781Y-80061866D01*
X109670024Y-80074654D01*
X109685930Y-80089070D01*
X109700346Y-80104976D01*
X109713134Y-80122219D01*
X109724170Y-80140632D01*
X109733349Y-80160038D01*
X109740581Y-80180250D01*
X109745797Y-80201074D01*
X109748947Y-80222309D01*
X109750000Y-80243750D01*
X109750000Y-80756250D01*
X109748947Y-80777691D01*
X109745797Y-80798926D01*
X109740581Y-80819750D01*
X109733349Y-80839962D01*
X109724170Y-80859368D01*
X109713134Y-80877781D01*
X109700346Y-80895024D01*
X109685930Y-80910930D01*
X109670024Y-80925346D01*
X109652781Y-80938134D01*
X109634368Y-80949170D01*
X109614962Y-80958349D01*
X109594750Y-80965581D01*
X109573926Y-80970797D01*
X109552691Y-80973947D01*
X109531250Y-80975000D01*
X109093750Y-80975000D01*
X109072309Y-80973947D01*
X109051074Y-80970797D01*
X109030250Y-80965581D01*
X109010038Y-80958349D01*
X108990632Y-80949170D01*
X108972219Y-80938134D01*
X108954976Y-80925346D01*
X108939070Y-80910930D01*
X108924654Y-80895024D01*
X108911866Y-80877781D01*
X108900830Y-80859368D01*
X108891651Y-80839962D01*
X108884419Y-80819750D01*
X108879203Y-80798926D01*
X108876053Y-80777691D01*
X108875000Y-80756250D01*
X108875000Y-80243750D01*
X108876053Y-80222309D01*
X108879203Y-80201074D01*
X108884419Y-80180250D01*
X108891651Y-80160038D01*
X108900830Y-80140632D01*
X108911866Y-80122219D01*
X108924654Y-80104976D01*
X108939070Y-80089070D01*
X108954976Y-80074654D01*
X108972219Y-80061866D01*
X108990632Y-80050830D01*
X109010038Y-80041651D01*
X109030250Y-80034419D01*
X109051074Y-80029203D01*
X109072309Y-80026053D01*
X109093750Y-80025000D01*
X109531250Y-80025000D01*
X109552691Y-80026053D01*
X109552691Y-80026053D01*
G37*
D12*
X109312500Y-80500000D03*
D11*
G36*
X111127691Y-80026053D02*
G01*
X111148926Y-80029203D01*
X111169750Y-80034419D01*
X111189962Y-80041651D01*
X111209368Y-80050830D01*
X111227781Y-80061866D01*
X111245024Y-80074654D01*
X111260930Y-80089070D01*
X111275346Y-80104976D01*
X111288134Y-80122219D01*
X111299170Y-80140632D01*
X111308349Y-80160038D01*
X111315581Y-80180250D01*
X111320797Y-80201074D01*
X111323947Y-80222309D01*
X111325000Y-80243750D01*
X111325000Y-80756250D01*
X111323947Y-80777691D01*
X111320797Y-80798926D01*
X111315581Y-80819750D01*
X111308349Y-80839962D01*
X111299170Y-80859368D01*
X111288134Y-80877781D01*
X111275346Y-80895024D01*
X111260930Y-80910930D01*
X111245024Y-80925346D01*
X111227781Y-80938134D01*
X111209368Y-80949170D01*
X111189962Y-80958349D01*
X111169750Y-80965581D01*
X111148926Y-80970797D01*
X111127691Y-80973947D01*
X111106250Y-80975000D01*
X110668750Y-80975000D01*
X110647309Y-80973947D01*
X110626074Y-80970797D01*
X110605250Y-80965581D01*
X110585038Y-80958349D01*
X110565632Y-80949170D01*
X110547219Y-80938134D01*
X110529976Y-80925346D01*
X110514070Y-80910930D01*
X110499654Y-80895024D01*
X110486866Y-80877781D01*
X110475830Y-80859368D01*
X110466651Y-80839962D01*
X110459419Y-80819750D01*
X110454203Y-80798926D01*
X110451053Y-80777691D01*
X110450000Y-80756250D01*
X110450000Y-80243750D01*
X110451053Y-80222309D01*
X110454203Y-80201074D01*
X110459419Y-80180250D01*
X110466651Y-80160038D01*
X110475830Y-80140632D01*
X110486866Y-80122219D01*
X110499654Y-80104976D01*
X110514070Y-80089070D01*
X110529976Y-80074654D01*
X110547219Y-80061866D01*
X110565632Y-80050830D01*
X110585038Y-80041651D01*
X110605250Y-80034419D01*
X110626074Y-80029203D01*
X110647309Y-80026053D01*
X110668750Y-80025000D01*
X111106250Y-80025000D01*
X111127691Y-80026053D01*
X111127691Y-80026053D01*
G37*
D12*
X110887500Y-80500000D03*
D11*
G36*
X109552691Y-81626053D02*
G01*
X109573926Y-81629203D01*
X109594750Y-81634419D01*
X109614962Y-81641651D01*
X109634368Y-81650830D01*
X109652781Y-81661866D01*
X109670024Y-81674654D01*
X109685930Y-81689070D01*
X109700346Y-81704976D01*
X109713134Y-81722219D01*
X109724170Y-81740632D01*
X109733349Y-81760038D01*
X109740581Y-81780250D01*
X109745797Y-81801074D01*
X109748947Y-81822309D01*
X109750000Y-81843750D01*
X109750000Y-82356250D01*
X109748947Y-82377691D01*
X109745797Y-82398926D01*
X109740581Y-82419750D01*
X109733349Y-82439962D01*
X109724170Y-82459368D01*
X109713134Y-82477781D01*
X109700346Y-82495024D01*
X109685930Y-82510930D01*
X109670024Y-82525346D01*
X109652781Y-82538134D01*
X109634368Y-82549170D01*
X109614962Y-82558349D01*
X109594750Y-82565581D01*
X109573926Y-82570797D01*
X109552691Y-82573947D01*
X109531250Y-82575000D01*
X109093750Y-82575000D01*
X109072309Y-82573947D01*
X109051074Y-82570797D01*
X109030250Y-82565581D01*
X109010038Y-82558349D01*
X108990632Y-82549170D01*
X108972219Y-82538134D01*
X108954976Y-82525346D01*
X108939070Y-82510930D01*
X108924654Y-82495024D01*
X108911866Y-82477781D01*
X108900830Y-82459368D01*
X108891651Y-82439962D01*
X108884419Y-82419750D01*
X108879203Y-82398926D01*
X108876053Y-82377691D01*
X108875000Y-82356250D01*
X108875000Y-81843750D01*
X108876053Y-81822309D01*
X108879203Y-81801074D01*
X108884419Y-81780250D01*
X108891651Y-81760038D01*
X108900830Y-81740632D01*
X108911866Y-81722219D01*
X108924654Y-81704976D01*
X108939070Y-81689070D01*
X108954976Y-81674654D01*
X108972219Y-81661866D01*
X108990632Y-81650830D01*
X109010038Y-81641651D01*
X109030250Y-81634419D01*
X109051074Y-81629203D01*
X109072309Y-81626053D01*
X109093750Y-81625000D01*
X109531250Y-81625000D01*
X109552691Y-81626053D01*
X109552691Y-81626053D01*
G37*
D12*
X109312500Y-82100000D03*
D11*
G36*
X111127691Y-81626053D02*
G01*
X111148926Y-81629203D01*
X111169750Y-81634419D01*
X111189962Y-81641651D01*
X111209368Y-81650830D01*
X111227781Y-81661866D01*
X111245024Y-81674654D01*
X111260930Y-81689070D01*
X111275346Y-81704976D01*
X111288134Y-81722219D01*
X111299170Y-81740632D01*
X111308349Y-81760038D01*
X111315581Y-81780250D01*
X111320797Y-81801074D01*
X111323947Y-81822309D01*
X111325000Y-81843750D01*
X111325000Y-82356250D01*
X111323947Y-82377691D01*
X111320797Y-82398926D01*
X111315581Y-82419750D01*
X111308349Y-82439962D01*
X111299170Y-82459368D01*
X111288134Y-82477781D01*
X111275346Y-82495024D01*
X111260930Y-82510930D01*
X111245024Y-82525346D01*
X111227781Y-82538134D01*
X111209368Y-82549170D01*
X111189962Y-82558349D01*
X111169750Y-82565581D01*
X111148926Y-82570797D01*
X111127691Y-82573947D01*
X111106250Y-82575000D01*
X110668750Y-82575000D01*
X110647309Y-82573947D01*
X110626074Y-82570797D01*
X110605250Y-82565581D01*
X110585038Y-82558349D01*
X110565632Y-82549170D01*
X110547219Y-82538134D01*
X110529976Y-82525346D01*
X110514070Y-82510930D01*
X110499654Y-82495024D01*
X110486866Y-82477781D01*
X110475830Y-82459368D01*
X110466651Y-82439962D01*
X110459419Y-82419750D01*
X110454203Y-82398926D01*
X110451053Y-82377691D01*
X110450000Y-82356250D01*
X110450000Y-81843750D01*
X110451053Y-81822309D01*
X110454203Y-81801074D01*
X110459419Y-81780250D01*
X110466651Y-81760038D01*
X110475830Y-81740632D01*
X110486866Y-81722219D01*
X110499654Y-81704976D01*
X110514070Y-81689070D01*
X110529976Y-81674654D01*
X110547219Y-81661866D01*
X110565632Y-81650830D01*
X110585038Y-81641651D01*
X110605250Y-81634419D01*
X110626074Y-81629203D01*
X110647309Y-81626053D01*
X110668750Y-81625000D01*
X111106250Y-81625000D01*
X111127691Y-81626053D01*
X111127691Y-81626053D01*
G37*
D12*
X110887500Y-82100000D03*
D11*
G36*
X103327691Y-84726053D02*
G01*
X103348926Y-84729203D01*
X103369750Y-84734419D01*
X103389962Y-84741651D01*
X103409368Y-84750830D01*
X103427781Y-84761866D01*
X103445024Y-84774654D01*
X103460930Y-84789070D01*
X103475346Y-84804976D01*
X103488134Y-84822219D01*
X103499170Y-84840632D01*
X103508349Y-84860038D01*
X103515581Y-84880250D01*
X103520797Y-84901074D01*
X103523947Y-84922309D01*
X103525000Y-84943750D01*
X103525000Y-85456250D01*
X103523947Y-85477691D01*
X103520797Y-85498926D01*
X103515581Y-85519750D01*
X103508349Y-85539962D01*
X103499170Y-85559368D01*
X103488134Y-85577781D01*
X103475346Y-85595024D01*
X103460930Y-85610930D01*
X103445024Y-85625346D01*
X103427781Y-85638134D01*
X103409368Y-85649170D01*
X103389962Y-85658349D01*
X103369750Y-85665581D01*
X103348926Y-85670797D01*
X103327691Y-85673947D01*
X103306250Y-85675000D01*
X102868750Y-85675000D01*
X102847309Y-85673947D01*
X102826074Y-85670797D01*
X102805250Y-85665581D01*
X102785038Y-85658349D01*
X102765632Y-85649170D01*
X102747219Y-85638134D01*
X102729976Y-85625346D01*
X102714070Y-85610930D01*
X102699654Y-85595024D01*
X102686866Y-85577781D01*
X102675830Y-85559368D01*
X102666651Y-85539962D01*
X102659419Y-85519750D01*
X102654203Y-85498926D01*
X102651053Y-85477691D01*
X102650000Y-85456250D01*
X102650000Y-84943750D01*
X102651053Y-84922309D01*
X102654203Y-84901074D01*
X102659419Y-84880250D01*
X102666651Y-84860038D01*
X102675830Y-84840632D01*
X102686866Y-84822219D01*
X102699654Y-84804976D01*
X102714070Y-84789070D01*
X102729976Y-84774654D01*
X102747219Y-84761866D01*
X102765632Y-84750830D01*
X102785038Y-84741651D01*
X102805250Y-84734419D01*
X102826074Y-84729203D01*
X102847309Y-84726053D01*
X102868750Y-84725000D01*
X103306250Y-84725000D01*
X103327691Y-84726053D01*
X103327691Y-84726053D01*
G37*
D12*
X103087500Y-85200000D03*
D11*
G36*
X101752691Y-84726053D02*
G01*
X101773926Y-84729203D01*
X101794750Y-84734419D01*
X101814962Y-84741651D01*
X101834368Y-84750830D01*
X101852781Y-84761866D01*
X101870024Y-84774654D01*
X101885930Y-84789070D01*
X101900346Y-84804976D01*
X101913134Y-84822219D01*
X101924170Y-84840632D01*
X101933349Y-84860038D01*
X101940581Y-84880250D01*
X101945797Y-84901074D01*
X101948947Y-84922309D01*
X101950000Y-84943750D01*
X101950000Y-85456250D01*
X101948947Y-85477691D01*
X101945797Y-85498926D01*
X101940581Y-85519750D01*
X101933349Y-85539962D01*
X101924170Y-85559368D01*
X101913134Y-85577781D01*
X101900346Y-85595024D01*
X101885930Y-85610930D01*
X101870024Y-85625346D01*
X101852781Y-85638134D01*
X101834368Y-85649170D01*
X101814962Y-85658349D01*
X101794750Y-85665581D01*
X101773926Y-85670797D01*
X101752691Y-85673947D01*
X101731250Y-85675000D01*
X101293750Y-85675000D01*
X101272309Y-85673947D01*
X101251074Y-85670797D01*
X101230250Y-85665581D01*
X101210038Y-85658349D01*
X101190632Y-85649170D01*
X101172219Y-85638134D01*
X101154976Y-85625346D01*
X101139070Y-85610930D01*
X101124654Y-85595024D01*
X101111866Y-85577781D01*
X101100830Y-85559368D01*
X101091651Y-85539962D01*
X101084419Y-85519750D01*
X101079203Y-85498926D01*
X101076053Y-85477691D01*
X101075000Y-85456250D01*
X101075000Y-84943750D01*
X101076053Y-84922309D01*
X101079203Y-84901074D01*
X101084419Y-84880250D01*
X101091651Y-84860038D01*
X101100830Y-84840632D01*
X101111866Y-84822219D01*
X101124654Y-84804976D01*
X101139070Y-84789070D01*
X101154976Y-84774654D01*
X101172219Y-84761866D01*
X101190632Y-84750830D01*
X101210038Y-84741651D01*
X101230250Y-84734419D01*
X101251074Y-84729203D01*
X101272309Y-84726053D01*
X101293750Y-84725000D01*
X101731250Y-84725000D01*
X101752691Y-84726053D01*
X101752691Y-84726053D01*
G37*
D12*
X101512500Y-85200000D03*
D11*
G36*
X86077691Y-105551053D02*
G01*
X86098926Y-105554203D01*
X86119750Y-105559419D01*
X86139962Y-105566651D01*
X86159368Y-105575830D01*
X86177781Y-105586866D01*
X86195024Y-105599654D01*
X86210930Y-105614070D01*
X86225346Y-105629976D01*
X86238134Y-105647219D01*
X86249170Y-105665632D01*
X86258349Y-105685038D01*
X86265581Y-105705250D01*
X86270797Y-105726074D01*
X86273947Y-105747309D01*
X86275000Y-105768750D01*
X86275000Y-106206250D01*
X86273947Y-106227691D01*
X86270797Y-106248926D01*
X86265581Y-106269750D01*
X86258349Y-106289962D01*
X86249170Y-106309368D01*
X86238134Y-106327781D01*
X86225346Y-106345024D01*
X86210930Y-106360930D01*
X86195024Y-106375346D01*
X86177781Y-106388134D01*
X86159368Y-106399170D01*
X86139962Y-106408349D01*
X86119750Y-106415581D01*
X86098926Y-106420797D01*
X86077691Y-106423947D01*
X86056250Y-106425000D01*
X85543750Y-106425000D01*
X85522309Y-106423947D01*
X85501074Y-106420797D01*
X85480250Y-106415581D01*
X85460038Y-106408349D01*
X85440632Y-106399170D01*
X85422219Y-106388134D01*
X85404976Y-106375346D01*
X85389070Y-106360930D01*
X85374654Y-106345024D01*
X85361866Y-106327781D01*
X85350830Y-106309368D01*
X85341651Y-106289962D01*
X85334419Y-106269750D01*
X85329203Y-106248926D01*
X85326053Y-106227691D01*
X85325000Y-106206250D01*
X85325000Y-105768750D01*
X85326053Y-105747309D01*
X85329203Y-105726074D01*
X85334419Y-105705250D01*
X85341651Y-105685038D01*
X85350830Y-105665632D01*
X85361866Y-105647219D01*
X85374654Y-105629976D01*
X85389070Y-105614070D01*
X85404976Y-105599654D01*
X85422219Y-105586866D01*
X85440632Y-105575830D01*
X85460038Y-105566651D01*
X85480250Y-105559419D01*
X85501074Y-105554203D01*
X85522309Y-105551053D01*
X85543750Y-105550000D01*
X86056250Y-105550000D01*
X86077691Y-105551053D01*
X86077691Y-105551053D01*
G37*
D12*
X85800000Y-105987500D03*
D11*
G36*
X86077691Y-103976053D02*
G01*
X86098926Y-103979203D01*
X86119750Y-103984419D01*
X86139962Y-103991651D01*
X86159368Y-104000830D01*
X86177781Y-104011866D01*
X86195024Y-104024654D01*
X86210930Y-104039070D01*
X86225346Y-104054976D01*
X86238134Y-104072219D01*
X86249170Y-104090632D01*
X86258349Y-104110038D01*
X86265581Y-104130250D01*
X86270797Y-104151074D01*
X86273947Y-104172309D01*
X86275000Y-104193750D01*
X86275000Y-104631250D01*
X86273947Y-104652691D01*
X86270797Y-104673926D01*
X86265581Y-104694750D01*
X86258349Y-104714962D01*
X86249170Y-104734368D01*
X86238134Y-104752781D01*
X86225346Y-104770024D01*
X86210930Y-104785930D01*
X86195024Y-104800346D01*
X86177781Y-104813134D01*
X86159368Y-104824170D01*
X86139962Y-104833349D01*
X86119750Y-104840581D01*
X86098926Y-104845797D01*
X86077691Y-104848947D01*
X86056250Y-104850000D01*
X85543750Y-104850000D01*
X85522309Y-104848947D01*
X85501074Y-104845797D01*
X85480250Y-104840581D01*
X85460038Y-104833349D01*
X85440632Y-104824170D01*
X85422219Y-104813134D01*
X85404976Y-104800346D01*
X85389070Y-104785930D01*
X85374654Y-104770024D01*
X85361866Y-104752781D01*
X85350830Y-104734368D01*
X85341651Y-104714962D01*
X85334419Y-104694750D01*
X85329203Y-104673926D01*
X85326053Y-104652691D01*
X85325000Y-104631250D01*
X85325000Y-104193750D01*
X85326053Y-104172309D01*
X85329203Y-104151074D01*
X85334419Y-104130250D01*
X85341651Y-104110038D01*
X85350830Y-104090632D01*
X85361866Y-104072219D01*
X85374654Y-104054976D01*
X85389070Y-104039070D01*
X85404976Y-104024654D01*
X85422219Y-104011866D01*
X85440632Y-104000830D01*
X85460038Y-103991651D01*
X85480250Y-103984419D01*
X85501074Y-103979203D01*
X85522309Y-103976053D01*
X85543750Y-103975000D01*
X86056250Y-103975000D01*
X86077691Y-103976053D01*
X86077691Y-103976053D01*
G37*
D12*
X85800000Y-104412500D03*
D11*
G36*
X98577691Y-81351053D02*
G01*
X98598926Y-81354203D01*
X98619750Y-81359419D01*
X98639962Y-81366651D01*
X98659368Y-81375830D01*
X98677781Y-81386866D01*
X98695024Y-81399654D01*
X98710930Y-81414070D01*
X98725346Y-81429976D01*
X98738134Y-81447219D01*
X98749170Y-81465632D01*
X98758349Y-81485038D01*
X98765581Y-81505250D01*
X98770797Y-81526074D01*
X98773947Y-81547309D01*
X98775000Y-81568750D01*
X98775000Y-82006250D01*
X98773947Y-82027691D01*
X98770797Y-82048926D01*
X98765581Y-82069750D01*
X98758349Y-82089962D01*
X98749170Y-82109368D01*
X98738134Y-82127781D01*
X98725346Y-82145024D01*
X98710930Y-82160930D01*
X98695024Y-82175346D01*
X98677781Y-82188134D01*
X98659368Y-82199170D01*
X98639962Y-82208349D01*
X98619750Y-82215581D01*
X98598926Y-82220797D01*
X98577691Y-82223947D01*
X98556250Y-82225000D01*
X98043750Y-82225000D01*
X98022309Y-82223947D01*
X98001074Y-82220797D01*
X97980250Y-82215581D01*
X97960038Y-82208349D01*
X97940632Y-82199170D01*
X97922219Y-82188134D01*
X97904976Y-82175346D01*
X97889070Y-82160930D01*
X97874654Y-82145024D01*
X97861866Y-82127781D01*
X97850830Y-82109368D01*
X97841651Y-82089962D01*
X97834419Y-82069750D01*
X97829203Y-82048926D01*
X97826053Y-82027691D01*
X97825000Y-82006250D01*
X97825000Y-81568750D01*
X97826053Y-81547309D01*
X97829203Y-81526074D01*
X97834419Y-81505250D01*
X97841651Y-81485038D01*
X97850830Y-81465632D01*
X97861866Y-81447219D01*
X97874654Y-81429976D01*
X97889070Y-81414070D01*
X97904976Y-81399654D01*
X97922219Y-81386866D01*
X97940632Y-81375830D01*
X97960038Y-81366651D01*
X97980250Y-81359419D01*
X98001074Y-81354203D01*
X98022309Y-81351053D01*
X98043750Y-81350000D01*
X98556250Y-81350000D01*
X98577691Y-81351053D01*
X98577691Y-81351053D01*
G37*
D12*
X98300000Y-81787500D03*
D11*
G36*
X98577691Y-79776053D02*
G01*
X98598926Y-79779203D01*
X98619750Y-79784419D01*
X98639962Y-79791651D01*
X98659368Y-79800830D01*
X98677781Y-79811866D01*
X98695024Y-79824654D01*
X98710930Y-79839070D01*
X98725346Y-79854976D01*
X98738134Y-79872219D01*
X98749170Y-79890632D01*
X98758349Y-79910038D01*
X98765581Y-79930250D01*
X98770797Y-79951074D01*
X98773947Y-79972309D01*
X98775000Y-79993750D01*
X98775000Y-80431250D01*
X98773947Y-80452691D01*
X98770797Y-80473926D01*
X98765581Y-80494750D01*
X98758349Y-80514962D01*
X98749170Y-80534368D01*
X98738134Y-80552781D01*
X98725346Y-80570024D01*
X98710930Y-80585930D01*
X98695024Y-80600346D01*
X98677781Y-80613134D01*
X98659368Y-80624170D01*
X98639962Y-80633349D01*
X98619750Y-80640581D01*
X98598926Y-80645797D01*
X98577691Y-80648947D01*
X98556250Y-80650000D01*
X98043750Y-80650000D01*
X98022309Y-80648947D01*
X98001074Y-80645797D01*
X97980250Y-80640581D01*
X97960038Y-80633349D01*
X97940632Y-80624170D01*
X97922219Y-80613134D01*
X97904976Y-80600346D01*
X97889070Y-80585930D01*
X97874654Y-80570024D01*
X97861866Y-80552781D01*
X97850830Y-80534368D01*
X97841651Y-80514962D01*
X97834419Y-80494750D01*
X97829203Y-80473926D01*
X97826053Y-80452691D01*
X97825000Y-80431250D01*
X97825000Y-79993750D01*
X97826053Y-79972309D01*
X97829203Y-79951074D01*
X97834419Y-79930250D01*
X97841651Y-79910038D01*
X97850830Y-79890632D01*
X97861866Y-79872219D01*
X97874654Y-79854976D01*
X97889070Y-79839070D01*
X97904976Y-79824654D01*
X97922219Y-79811866D01*
X97940632Y-79800830D01*
X97960038Y-79791651D01*
X97980250Y-79784419D01*
X98001074Y-79779203D01*
X98022309Y-79776053D01*
X98043750Y-79775000D01*
X98556250Y-79775000D01*
X98577691Y-79776053D01*
X98577691Y-79776053D01*
G37*
D12*
X98300000Y-80212500D03*
D11*
G36*
X117709802Y-82300482D02*
G01*
X117719509Y-82301921D01*
X117729028Y-82304306D01*
X117738268Y-82307612D01*
X117747140Y-82311808D01*
X117755557Y-82316853D01*
X117763439Y-82322699D01*
X117770711Y-82329289D01*
X117777301Y-82336561D01*
X117783147Y-82344443D01*
X117788192Y-82352860D01*
X117792388Y-82361732D01*
X117795694Y-82370972D01*
X117798079Y-82380491D01*
X117799518Y-82390198D01*
X117800000Y-82400000D01*
X117800000Y-83000000D01*
X117799518Y-83009802D01*
X117798079Y-83019509D01*
X117795694Y-83029028D01*
X117792388Y-83038268D01*
X117788192Y-83047140D01*
X117783147Y-83055557D01*
X117777301Y-83063439D01*
X117770711Y-83070711D01*
X117763439Y-83077301D01*
X117755557Y-83083147D01*
X117747140Y-83088192D01*
X117738268Y-83092388D01*
X117729028Y-83095694D01*
X117719509Y-83098079D01*
X117709802Y-83099518D01*
X117700000Y-83100000D01*
X117500000Y-83100000D01*
X117490198Y-83099518D01*
X117480491Y-83098079D01*
X117470972Y-83095694D01*
X117461732Y-83092388D01*
X117452860Y-83088192D01*
X117444443Y-83083147D01*
X117436561Y-83077301D01*
X117429289Y-83070711D01*
X117422699Y-83063439D01*
X117416853Y-83055557D01*
X117411808Y-83047140D01*
X117407612Y-83038268D01*
X117404306Y-83029028D01*
X117401921Y-83019509D01*
X117400482Y-83009802D01*
X117400000Y-83000000D01*
X117400000Y-82400000D01*
X117400482Y-82390198D01*
X117401921Y-82380491D01*
X117404306Y-82370972D01*
X117407612Y-82361732D01*
X117411808Y-82352860D01*
X117416853Y-82344443D01*
X117422699Y-82336561D01*
X117429289Y-82329289D01*
X117436561Y-82322699D01*
X117444443Y-82316853D01*
X117452860Y-82311808D01*
X117461732Y-82307612D01*
X117470972Y-82304306D01*
X117480491Y-82301921D01*
X117490198Y-82300482D01*
X117500000Y-82300000D01*
X117700000Y-82300000D01*
X117709802Y-82300482D01*
X117709802Y-82300482D01*
G37*
D14*
X117600000Y-82700000D03*
D11*
G36*
X116709802Y-82300482D02*
G01*
X116719509Y-82301921D01*
X116729028Y-82304306D01*
X116738268Y-82307612D01*
X116747140Y-82311808D01*
X116755557Y-82316853D01*
X116763439Y-82322699D01*
X116770711Y-82329289D01*
X116777301Y-82336561D01*
X116783147Y-82344443D01*
X116788192Y-82352860D01*
X116792388Y-82361732D01*
X116795694Y-82370972D01*
X116798079Y-82380491D01*
X116799518Y-82390198D01*
X116800000Y-82400000D01*
X116800000Y-83000000D01*
X116799518Y-83009802D01*
X116798079Y-83019509D01*
X116795694Y-83029028D01*
X116792388Y-83038268D01*
X116788192Y-83047140D01*
X116783147Y-83055557D01*
X116777301Y-83063439D01*
X116770711Y-83070711D01*
X116763439Y-83077301D01*
X116755557Y-83083147D01*
X116747140Y-83088192D01*
X116738268Y-83092388D01*
X116729028Y-83095694D01*
X116719509Y-83098079D01*
X116709802Y-83099518D01*
X116700000Y-83100000D01*
X116500000Y-83100000D01*
X116490198Y-83099518D01*
X116480491Y-83098079D01*
X116470972Y-83095694D01*
X116461732Y-83092388D01*
X116452860Y-83088192D01*
X116444443Y-83083147D01*
X116436561Y-83077301D01*
X116429289Y-83070711D01*
X116422699Y-83063439D01*
X116416853Y-83055557D01*
X116411808Y-83047140D01*
X116407612Y-83038268D01*
X116404306Y-83029028D01*
X116401921Y-83019509D01*
X116400482Y-83009802D01*
X116400000Y-83000000D01*
X116400000Y-82400000D01*
X116400482Y-82390198D01*
X116401921Y-82380491D01*
X116404306Y-82370972D01*
X116407612Y-82361732D01*
X116411808Y-82352860D01*
X116416853Y-82344443D01*
X116422699Y-82336561D01*
X116429289Y-82329289D01*
X116436561Y-82322699D01*
X116444443Y-82316853D01*
X116452860Y-82311808D01*
X116461732Y-82307612D01*
X116470972Y-82304306D01*
X116480491Y-82301921D01*
X116490198Y-82300482D01*
X116500000Y-82300000D01*
X116700000Y-82300000D01*
X116709802Y-82300482D01*
X116709802Y-82300482D01*
G37*
D14*
X116600000Y-82700000D03*
D11*
G36*
X115709802Y-82300482D02*
G01*
X115719509Y-82301921D01*
X115729028Y-82304306D01*
X115738268Y-82307612D01*
X115747140Y-82311808D01*
X115755557Y-82316853D01*
X115763439Y-82322699D01*
X115770711Y-82329289D01*
X115777301Y-82336561D01*
X115783147Y-82344443D01*
X115788192Y-82352860D01*
X115792388Y-82361732D01*
X115795694Y-82370972D01*
X115798079Y-82380491D01*
X115799518Y-82390198D01*
X115800000Y-82400000D01*
X115800000Y-83000000D01*
X115799518Y-83009802D01*
X115798079Y-83019509D01*
X115795694Y-83029028D01*
X115792388Y-83038268D01*
X115788192Y-83047140D01*
X115783147Y-83055557D01*
X115777301Y-83063439D01*
X115770711Y-83070711D01*
X115763439Y-83077301D01*
X115755557Y-83083147D01*
X115747140Y-83088192D01*
X115738268Y-83092388D01*
X115729028Y-83095694D01*
X115719509Y-83098079D01*
X115709802Y-83099518D01*
X115700000Y-83100000D01*
X115500000Y-83100000D01*
X115490198Y-83099518D01*
X115480491Y-83098079D01*
X115470972Y-83095694D01*
X115461732Y-83092388D01*
X115452860Y-83088192D01*
X115444443Y-83083147D01*
X115436561Y-83077301D01*
X115429289Y-83070711D01*
X115422699Y-83063439D01*
X115416853Y-83055557D01*
X115411808Y-83047140D01*
X115407612Y-83038268D01*
X115404306Y-83029028D01*
X115401921Y-83019509D01*
X115400482Y-83009802D01*
X115400000Y-83000000D01*
X115400000Y-82400000D01*
X115400482Y-82390198D01*
X115401921Y-82380491D01*
X115404306Y-82370972D01*
X115407612Y-82361732D01*
X115411808Y-82352860D01*
X115416853Y-82344443D01*
X115422699Y-82336561D01*
X115429289Y-82329289D01*
X115436561Y-82322699D01*
X115444443Y-82316853D01*
X115452860Y-82311808D01*
X115461732Y-82307612D01*
X115470972Y-82304306D01*
X115480491Y-82301921D01*
X115490198Y-82300482D01*
X115500000Y-82300000D01*
X115700000Y-82300000D01*
X115709802Y-82300482D01*
X115709802Y-82300482D01*
G37*
D14*
X115600000Y-82700000D03*
D11*
G36*
X115709802Y-79400482D02*
G01*
X115719509Y-79401921D01*
X115729028Y-79404306D01*
X115738268Y-79407612D01*
X115747140Y-79411808D01*
X115755557Y-79416853D01*
X115763439Y-79422699D01*
X115770711Y-79429289D01*
X115777301Y-79436561D01*
X115783147Y-79444443D01*
X115788192Y-79452860D01*
X115792388Y-79461732D01*
X115795694Y-79470972D01*
X115798079Y-79480491D01*
X115799518Y-79490198D01*
X115800000Y-79500000D01*
X115800000Y-80100000D01*
X115799518Y-80109802D01*
X115798079Y-80119509D01*
X115795694Y-80129028D01*
X115792388Y-80138268D01*
X115788192Y-80147140D01*
X115783147Y-80155557D01*
X115777301Y-80163439D01*
X115770711Y-80170711D01*
X115763439Y-80177301D01*
X115755557Y-80183147D01*
X115747140Y-80188192D01*
X115738268Y-80192388D01*
X115729028Y-80195694D01*
X115719509Y-80198079D01*
X115709802Y-80199518D01*
X115700000Y-80200000D01*
X115500000Y-80200000D01*
X115490198Y-80199518D01*
X115480491Y-80198079D01*
X115470972Y-80195694D01*
X115461732Y-80192388D01*
X115452860Y-80188192D01*
X115444443Y-80183147D01*
X115436561Y-80177301D01*
X115429289Y-80170711D01*
X115422699Y-80163439D01*
X115416853Y-80155557D01*
X115411808Y-80147140D01*
X115407612Y-80138268D01*
X115404306Y-80129028D01*
X115401921Y-80119509D01*
X115400482Y-80109802D01*
X115400000Y-80100000D01*
X115400000Y-79500000D01*
X115400482Y-79490198D01*
X115401921Y-79480491D01*
X115404306Y-79470972D01*
X115407612Y-79461732D01*
X115411808Y-79452860D01*
X115416853Y-79444443D01*
X115422699Y-79436561D01*
X115429289Y-79429289D01*
X115436561Y-79422699D01*
X115444443Y-79416853D01*
X115452860Y-79411808D01*
X115461732Y-79407612D01*
X115470972Y-79404306D01*
X115480491Y-79401921D01*
X115490198Y-79400482D01*
X115500000Y-79400000D01*
X115700000Y-79400000D01*
X115709802Y-79400482D01*
X115709802Y-79400482D01*
G37*
D14*
X115600000Y-79800000D03*
D11*
G36*
X116709802Y-79400482D02*
G01*
X116719509Y-79401921D01*
X116729028Y-79404306D01*
X116738268Y-79407612D01*
X116747140Y-79411808D01*
X116755557Y-79416853D01*
X116763439Y-79422699D01*
X116770711Y-79429289D01*
X116777301Y-79436561D01*
X116783147Y-79444443D01*
X116788192Y-79452860D01*
X116792388Y-79461732D01*
X116795694Y-79470972D01*
X116798079Y-79480491D01*
X116799518Y-79490198D01*
X116800000Y-79500000D01*
X116800000Y-80100000D01*
X116799518Y-80109802D01*
X116798079Y-80119509D01*
X116795694Y-80129028D01*
X116792388Y-80138268D01*
X116788192Y-80147140D01*
X116783147Y-80155557D01*
X116777301Y-80163439D01*
X116770711Y-80170711D01*
X116763439Y-80177301D01*
X116755557Y-80183147D01*
X116747140Y-80188192D01*
X116738268Y-80192388D01*
X116729028Y-80195694D01*
X116719509Y-80198079D01*
X116709802Y-80199518D01*
X116700000Y-80200000D01*
X116500000Y-80200000D01*
X116490198Y-80199518D01*
X116480491Y-80198079D01*
X116470972Y-80195694D01*
X116461732Y-80192388D01*
X116452860Y-80188192D01*
X116444443Y-80183147D01*
X116436561Y-80177301D01*
X116429289Y-80170711D01*
X116422699Y-80163439D01*
X116416853Y-80155557D01*
X116411808Y-80147140D01*
X116407612Y-80138268D01*
X116404306Y-80129028D01*
X116401921Y-80119509D01*
X116400482Y-80109802D01*
X116400000Y-80100000D01*
X116400000Y-79500000D01*
X116400482Y-79490198D01*
X116401921Y-79480491D01*
X116404306Y-79470972D01*
X116407612Y-79461732D01*
X116411808Y-79452860D01*
X116416853Y-79444443D01*
X116422699Y-79436561D01*
X116429289Y-79429289D01*
X116436561Y-79422699D01*
X116444443Y-79416853D01*
X116452860Y-79411808D01*
X116461732Y-79407612D01*
X116470972Y-79404306D01*
X116480491Y-79401921D01*
X116490198Y-79400482D01*
X116500000Y-79400000D01*
X116700000Y-79400000D01*
X116709802Y-79400482D01*
X116709802Y-79400482D01*
G37*
D14*
X116600000Y-79800000D03*
D11*
G36*
X117709802Y-79400482D02*
G01*
X117719509Y-79401921D01*
X117729028Y-79404306D01*
X117738268Y-79407612D01*
X117747140Y-79411808D01*
X117755557Y-79416853D01*
X117763439Y-79422699D01*
X117770711Y-79429289D01*
X117777301Y-79436561D01*
X117783147Y-79444443D01*
X117788192Y-79452860D01*
X117792388Y-79461732D01*
X117795694Y-79470972D01*
X117798079Y-79480491D01*
X117799518Y-79490198D01*
X117800000Y-79500000D01*
X117800000Y-80100000D01*
X117799518Y-80109802D01*
X117798079Y-80119509D01*
X117795694Y-80129028D01*
X117792388Y-80138268D01*
X117788192Y-80147140D01*
X117783147Y-80155557D01*
X117777301Y-80163439D01*
X117770711Y-80170711D01*
X117763439Y-80177301D01*
X117755557Y-80183147D01*
X117747140Y-80188192D01*
X117738268Y-80192388D01*
X117729028Y-80195694D01*
X117719509Y-80198079D01*
X117709802Y-80199518D01*
X117700000Y-80200000D01*
X117500000Y-80200000D01*
X117490198Y-80199518D01*
X117480491Y-80198079D01*
X117470972Y-80195694D01*
X117461732Y-80192388D01*
X117452860Y-80188192D01*
X117444443Y-80183147D01*
X117436561Y-80177301D01*
X117429289Y-80170711D01*
X117422699Y-80163439D01*
X117416853Y-80155557D01*
X117411808Y-80147140D01*
X117407612Y-80138268D01*
X117404306Y-80129028D01*
X117401921Y-80119509D01*
X117400482Y-80109802D01*
X117400000Y-80100000D01*
X117400000Y-79500000D01*
X117400482Y-79490198D01*
X117401921Y-79480491D01*
X117404306Y-79470972D01*
X117407612Y-79461732D01*
X117411808Y-79452860D01*
X117416853Y-79444443D01*
X117422699Y-79436561D01*
X117429289Y-79429289D01*
X117436561Y-79422699D01*
X117444443Y-79416853D01*
X117452860Y-79411808D01*
X117461732Y-79407612D01*
X117470972Y-79404306D01*
X117480491Y-79401921D01*
X117490198Y-79400482D01*
X117500000Y-79400000D01*
X117700000Y-79400000D01*
X117709802Y-79400482D01*
X117709802Y-79400482D01*
G37*
D14*
X117600000Y-79800000D03*
D11*
G36*
X116349703Y-81325722D02*
G01*
X116364264Y-81327882D01*
X116378543Y-81331459D01*
X116392403Y-81336418D01*
X116405710Y-81342712D01*
X116418336Y-81350280D01*
X116430159Y-81359048D01*
X116441066Y-81368934D01*
X116450952Y-81379841D01*
X116459720Y-81391664D01*
X116467288Y-81404290D01*
X116473582Y-81417597D01*
X116478541Y-81431457D01*
X116482118Y-81445736D01*
X116484278Y-81460297D01*
X116485000Y-81475000D01*
X116485000Y-81775000D01*
X116484278Y-81789703D01*
X116482118Y-81804264D01*
X116478541Y-81818543D01*
X116473582Y-81832403D01*
X116467288Y-81845710D01*
X116459720Y-81858336D01*
X116450952Y-81870159D01*
X116441066Y-81881066D01*
X116430159Y-81890952D01*
X116418336Y-81899720D01*
X116405710Y-81907288D01*
X116392403Y-81913582D01*
X116378543Y-81918541D01*
X116364264Y-81922118D01*
X116349703Y-81924278D01*
X116335000Y-81925000D01*
X115665000Y-81925000D01*
X115650297Y-81924278D01*
X115635736Y-81922118D01*
X115621457Y-81918541D01*
X115607597Y-81913582D01*
X115594290Y-81907288D01*
X115581664Y-81899720D01*
X115569841Y-81890952D01*
X115558934Y-81881066D01*
X115549048Y-81870159D01*
X115540280Y-81858336D01*
X115532712Y-81845710D01*
X115526418Y-81832403D01*
X115521459Y-81818543D01*
X115517882Y-81804264D01*
X115515722Y-81789703D01*
X115515000Y-81775000D01*
X115515000Y-81475000D01*
X115515722Y-81460297D01*
X115517882Y-81445736D01*
X115521459Y-81431457D01*
X115526418Y-81417597D01*
X115532712Y-81404290D01*
X115540280Y-81391664D01*
X115549048Y-81379841D01*
X115558934Y-81368934D01*
X115569841Y-81359048D01*
X115581664Y-81350280D01*
X115594290Y-81342712D01*
X115607597Y-81336418D01*
X115621457Y-81331459D01*
X115635736Y-81327882D01*
X115650297Y-81325722D01*
X115665000Y-81325000D01*
X116335000Y-81325000D01*
X116349703Y-81325722D01*
X116349703Y-81325722D01*
G37*
D15*
X116000000Y-81625000D03*
D11*
G36*
X117549703Y-81325722D02*
G01*
X117564264Y-81327882D01*
X117578543Y-81331459D01*
X117592403Y-81336418D01*
X117605710Y-81342712D01*
X117618336Y-81350280D01*
X117630159Y-81359048D01*
X117641066Y-81368934D01*
X117650952Y-81379841D01*
X117659720Y-81391664D01*
X117667288Y-81404290D01*
X117673582Y-81417597D01*
X117678541Y-81431457D01*
X117682118Y-81445736D01*
X117684278Y-81460297D01*
X117685000Y-81475000D01*
X117685000Y-81775000D01*
X117684278Y-81789703D01*
X117682118Y-81804264D01*
X117678541Y-81818543D01*
X117673582Y-81832403D01*
X117667288Y-81845710D01*
X117659720Y-81858336D01*
X117650952Y-81870159D01*
X117641066Y-81881066D01*
X117630159Y-81890952D01*
X117618336Y-81899720D01*
X117605710Y-81907288D01*
X117592403Y-81913582D01*
X117578543Y-81918541D01*
X117564264Y-81922118D01*
X117549703Y-81924278D01*
X117535000Y-81925000D01*
X116865000Y-81925000D01*
X116850297Y-81924278D01*
X116835736Y-81922118D01*
X116821457Y-81918541D01*
X116807597Y-81913582D01*
X116794290Y-81907288D01*
X116781664Y-81899720D01*
X116769841Y-81890952D01*
X116758934Y-81881066D01*
X116749048Y-81870159D01*
X116740280Y-81858336D01*
X116732712Y-81845710D01*
X116726418Y-81832403D01*
X116721459Y-81818543D01*
X116717882Y-81804264D01*
X116715722Y-81789703D01*
X116715000Y-81775000D01*
X116715000Y-81475000D01*
X116715722Y-81460297D01*
X116717882Y-81445736D01*
X116721459Y-81431457D01*
X116726418Y-81417597D01*
X116732712Y-81404290D01*
X116740280Y-81391664D01*
X116749048Y-81379841D01*
X116758934Y-81368934D01*
X116769841Y-81359048D01*
X116781664Y-81350280D01*
X116794290Y-81342712D01*
X116807597Y-81336418D01*
X116821457Y-81331459D01*
X116835736Y-81327882D01*
X116850297Y-81325722D01*
X116865000Y-81325000D01*
X117535000Y-81325000D01*
X117549703Y-81325722D01*
X117549703Y-81325722D01*
G37*
D15*
X117200000Y-81625000D03*
D11*
G36*
X116349703Y-80575722D02*
G01*
X116364264Y-80577882D01*
X116378543Y-80581459D01*
X116392403Y-80586418D01*
X116405710Y-80592712D01*
X116418336Y-80600280D01*
X116430159Y-80609048D01*
X116441066Y-80618934D01*
X116450952Y-80629841D01*
X116459720Y-80641664D01*
X116467288Y-80654290D01*
X116473582Y-80667597D01*
X116478541Y-80681457D01*
X116482118Y-80695736D01*
X116484278Y-80710297D01*
X116485000Y-80725000D01*
X116485000Y-81025000D01*
X116484278Y-81039703D01*
X116482118Y-81054264D01*
X116478541Y-81068543D01*
X116473582Y-81082403D01*
X116467288Y-81095710D01*
X116459720Y-81108336D01*
X116450952Y-81120159D01*
X116441066Y-81131066D01*
X116430159Y-81140952D01*
X116418336Y-81149720D01*
X116405710Y-81157288D01*
X116392403Y-81163582D01*
X116378543Y-81168541D01*
X116364264Y-81172118D01*
X116349703Y-81174278D01*
X116335000Y-81175000D01*
X115665000Y-81175000D01*
X115650297Y-81174278D01*
X115635736Y-81172118D01*
X115621457Y-81168541D01*
X115607597Y-81163582D01*
X115594290Y-81157288D01*
X115581664Y-81149720D01*
X115569841Y-81140952D01*
X115558934Y-81131066D01*
X115549048Y-81120159D01*
X115540280Y-81108336D01*
X115532712Y-81095710D01*
X115526418Y-81082403D01*
X115521459Y-81068543D01*
X115517882Y-81054264D01*
X115515722Y-81039703D01*
X115515000Y-81025000D01*
X115515000Y-80725000D01*
X115515722Y-80710297D01*
X115517882Y-80695736D01*
X115521459Y-80681457D01*
X115526418Y-80667597D01*
X115532712Y-80654290D01*
X115540280Y-80641664D01*
X115549048Y-80629841D01*
X115558934Y-80618934D01*
X115569841Y-80609048D01*
X115581664Y-80600280D01*
X115594290Y-80592712D01*
X115607597Y-80586418D01*
X115621457Y-80581459D01*
X115635736Y-80577882D01*
X115650297Y-80575722D01*
X115665000Y-80575000D01*
X116335000Y-80575000D01*
X116349703Y-80575722D01*
X116349703Y-80575722D01*
G37*
D15*
X116000000Y-80875000D03*
D11*
G36*
X117549703Y-80575722D02*
G01*
X117564264Y-80577882D01*
X117578543Y-80581459D01*
X117592403Y-80586418D01*
X117605710Y-80592712D01*
X117618336Y-80600280D01*
X117630159Y-80609048D01*
X117641066Y-80618934D01*
X117650952Y-80629841D01*
X117659720Y-80641664D01*
X117667288Y-80654290D01*
X117673582Y-80667597D01*
X117678541Y-80681457D01*
X117682118Y-80695736D01*
X117684278Y-80710297D01*
X117685000Y-80725000D01*
X117685000Y-81025000D01*
X117684278Y-81039703D01*
X117682118Y-81054264D01*
X117678541Y-81068543D01*
X117673582Y-81082403D01*
X117667288Y-81095710D01*
X117659720Y-81108336D01*
X117650952Y-81120159D01*
X117641066Y-81131066D01*
X117630159Y-81140952D01*
X117618336Y-81149720D01*
X117605710Y-81157288D01*
X117592403Y-81163582D01*
X117578543Y-81168541D01*
X117564264Y-81172118D01*
X117549703Y-81174278D01*
X117535000Y-81175000D01*
X116865000Y-81175000D01*
X116850297Y-81174278D01*
X116835736Y-81172118D01*
X116821457Y-81168541D01*
X116807597Y-81163582D01*
X116794290Y-81157288D01*
X116781664Y-81149720D01*
X116769841Y-81140952D01*
X116758934Y-81131066D01*
X116749048Y-81120159D01*
X116740280Y-81108336D01*
X116732712Y-81095710D01*
X116726418Y-81082403D01*
X116721459Y-81068543D01*
X116717882Y-81054264D01*
X116715722Y-81039703D01*
X116715000Y-81025000D01*
X116715000Y-80725000D01*
X116715722Y-80710297D01*
X116717882Y-80695736D01*
X116721459Y-80681457D01*
X116726418Y-80667597D01*
X116732712Y-80654290D01*
X116740280Y-80641664D01*
X116749048Y-80629841D01*
X116758934Y-80618934D01*
X116769841Y-80609048D01*
X116781664Y-80600280D01*
X116794290Y-80592712D01*
X116807597Y-80586418D01*
X116821457Y-80581459D01*
X116835736Y-80577882D01*
X116850297Y-80575722D01*
X116865000Y-80575000D01*
X117535000Y-80575000D01*
X117549703Y-80575722D01*
X117549703Y-80575722D01*
G37*
D15*
X117200000Y-80875000D03*
D16*
X96900000Y-102025000D03*
X96900000Y-102675000D03*
X96900000Y-103325000D03*
X96900000Y-103975000D03*
X96900000Y-104625000D03*
X96900000Y-105275000D03*
X96900000Y-105925000D03*
X96900000Y-106575000D03*
X96900000Y-107225000D03*
X96900000Y-107875000D03*
X89700000Y-107875000D03*
X89700000Y-107225000D03*
X89700000Y-106575000D03*
X89700000Y-105925000D03*
X89700000Y-105275000D03*
X89700000Y-104625000D03*
X89700000Y-103975000D03*
X89700000Y-103325000D03*
X89700000Y-102675000D03*
X89700000Y-102025000D03*
D17*
X80900000Y-93250000D03*
X80900000Y-94200000D03*
X80900000Y-92300000D03*
X83100000Y-92300000D03*
X83100000Y-93250000D03*
X83100000Y-94200000D03*
D11*
G36*
X93937252Y-95675602D02*
G01*
X93949386Y-95677402D01*
X93961286Y-95680382D01*
X93972835Y-95684515D01*
X93983925Y-95689760D01*
X93994446Y-95696066D01*
X94004299Y-95703374D01*
X94013388Y-95711612D01*
X94021626Y-95720701D01*
X94028934Y-95730554D01*
X94035240Y-95741075D01*
X94040485Y-95752165D01*
X94044618Y-95763714D01*
X94047598Y-95775614D01*
X94049398Y-95787748D01*
X94050000Y-95800000D01*
X94050000Y-97050000D01*
X94049398Y-97062252D01*
X94047598Y-97074386D01*
X94044618Y-97086286D01*
X94040485Y-97097835D01*
X94035240Y-97108925D01*
X94028934Y-97119446D01*
X94021626Y-97129299D01*
X94013388Y-97138388D01*
X94004299Y-97146626D01*
X93994446Y-97153934D01*
X93983925Y-97160240D01*
X93972835Y-97165485D01*
X93961286Y-97169618D01*
X93949386Y-97172598D01*
X93937252Y-97174398D01*
X93925000Y-97175000D01*
X93675000Y-97175000D01*
X93662748Y-97174398D01*
X93650614Y-97172598D01*
X93638714Y-97169618D01*
X93627165Y-97165485D01*
X93616075Y-97160240D01*
X93605554Y-97153934D01*
X93595701Y-97146626D01*
X93586612Y-97138388D01*
X93578374Y-97129299D01*
X93571066Y-97119446D01*
X93564760Y-97108925D01*
X93559515Y-97097835D01*
X93555382Y-97086286D01*
X93552402Y-97074386D01*
X93550602Y-97062252D01*
X93550000Y-97050000D01*
X93550000Y-95800000D01*
X93550602Y-95787748D01*
X93552402Y-95775614D01*
X93555382Y-95763714D01*
X93559515Y-95752165D01*
X93564760Y-95741075D01*
X93571066Y-95730554D01*
X93578374Y-95720701D01*
X93586612Y-95711612D01*
X93595701Y-95703374D01*
X93605554Y-95696066D01*
X93616075Y-95689760D01*
X93627165Y-95684515D01*
X93638714Y-95680382D01*
X93650614Y-95677402D01*
X93662748Y-95675602D01*
X93675000Y-95675000D01*
X93925000Y-95675000D01*
X93937252Y-95675602D01*
X93937252Y-95675602D01*
G37*
D18*
X93800000Y-96425000D03*
D11*
G36*
X93137252Y-95675602D02*
G01*
X93149386Y-95677402D01*
X93161286Y-95680382D01*
X93172835Y-95684515D01*
X93183925Y-95689760D01*
X93194446Y-95696066D01*
X93204299Y-95703374D01*
X93213388Y-95711612D01*
X93221626Y-95720701D01*
X93228934Y-95730554D01*
X93235240Y-95741075D01*
X93240485Y-95752165D01*
X93244618Y-95763714D01*
X93247598Y-95775614D01*
X93249398Y-95787748D01*
X93250000Y-95800000D01*
X93250000Y-97050000D01*
X93249398Y-97062252D01*
X93247598Y-97074386D01*
X93244618Y-97086286D01*
X93240485Y-97097835D01*
X93235240Y-97108925D01*
X93228934Y-97119446D01*
X93221626Y-97129299D01*
X93213388Y-97138388D01*
X93204299Y-97146626D01*
X93194446Y-97153934D01*
X93183925Y-97160240D01*
X93172835Y-97165485D01*
X93161286Y-97169618D01*
X93149386Y-97172598D01*
X93137252Y-97174398D01*
X93125000Y-97175000D01*
X92875000Y-97175000D01*
X92862748Y-97174398D01*
X92850614Y-97172598D01*
X92838714Y-97169618D01*
X92827165Y-97165485D01*
X92816075Y-97160240D01*
X92805554Y-97153934D01*
X92795701Y-97146626D01*
X92786612Y-97138388D01*
X92778374Y-97129299D01*
X92771066Y-97119446D01*
X92764760Y-97108925D01*
X92759515Y-97097835D01*
X92755382Y-97086286D01*
X92752402Y-97074386D01*
X92750602Y-97062252D01*
X92750000Y-97050000D01*
X92750000Y-95800000D01*
X92750602Y-95787748D01*
X92752402Y-95775614D01*
X92755382Y-95763714D01*
X92759515Y-95752165D01*
X92764760Y-95741075D01*
X92771066Y-95730554D01*
X92778374Y-95720701D01*
X92786612Y-95711612D01*
X92795701Y-95703374D01*
X92805554Y-95696066D01*
X92816075Y-95689760D01*
X92827165Y-95684515D01*
X92838714Y-95680382D01*
X92850614Y-95677402D01*
X92862748Y-95675602D01*
X92875000Y-95675000D01*
X93125000Y-95675000D01*
X93137252Y-95675602D01*
X93137252Y-95675602D01*
G37*
D18*
X93000000Y-96425000D03*
D11*
G36*
X92337252Y-95675602D02*
G01*
X92349386Y-95677402D01*
X92361286Y-95680382D01*
X92372835Y-95684515D01*
X92383925Y-95689760D01*
X92394446Y-95696066D01*
X92404299Y-95703374D01*
X92413388Y-95711612D01*
X92421626Y-95720701D01*
X92428934Y-95730554D01*
X92435240Y-95741075D01*
X92440485Y-95752165D01*
X92444618Y-95763714D01*
X92447598Y-95775614D01*
X92449398Y-95787748D01*
X92450000Y-95800000D01*
X92450000Y-97050000D01*
X92449398Y-97062252D01*
X92447598Y-97074386D01*
X92444618Y-97086286D01*
X92440485Y-97097835D01*
X92435240Y-97108925D01*
X92428934Y-97119446D01*
X92421626Y-97129299D01*
X92413388Y-97138388D01*
X92404299Y-97146626D01*
X92394446Y-97153934D01*
X92383925Y-97160240D01*
X92372835Y-97165485D01*
X92361286Y-97169618D01*
X92349386Y-97172598D01*
X92337252Y-97174398D01*
X92325000Y-97175000D01*
X92075000Y-97175000D01*
X92062748Y-97174398D01*
X92050614Y-97172598D01*
X92038714Y-97169618D01*
X92027165Y-97165485D01*
X92016075Y-97160240D01*
X92005554Y-97153934D01*
X91995701Y-97146626D01*
X91986612Y-97138388D01*
X91978374Y-97129299D01*
X91971066Y-97119446D01*
X91964760Y-97108925D01*
X91959515Y-97097835D01*
X91955382Y-97086286D01*
X91952402Y-97074386D01*
X91950602Y-97062252D01*
X91950000Y-97050000D01*
X91950000Y-95800000D01*
X91950602Y-95787748D01*
X91952402Y-95775614D01*
X91955382Y-95763714D01*
X91959515Y-95752165D01*
X91964760Y-95741075D01*
X91971066Y-95730554D01*
X91978374Y-95720701D01*
X91986612Y-95711612D01*
X91995701Y-95703374D01*
X92005554Y-95696066D01*
X92016075Y-95689760D01*
X92027165Y-95684515D01*
X92038714Y-95680382D01*
X92050614Y-95677402D01*
X92062748Y-95675602D01*
X92075000Y-95675000D01*
X92325000Y-95675000D01*
X92337252Y-95675602D01*
X92337252Y-95675602D01*
G37*
D18*
X92200000Y-96425000D03*
D11*
G36*
X91537252Y-95675602D02*
G01*
X91549386Y-95677402D01*
X91561286Y-95680382D01*
X91572835Y-95684515D01*
X91583925Y-95689760D01*
X91594446Y-95696066D01*
X91604299Y-95703374D01*
X91613388Y-95711612D01*
X91621626Y-95720701D01*
X91628934Y-95730554D01*
X91635240Y-95741075D01*
X91640485Y-95752165D01*
X91644618Y-95763714D01*
X91647598Y-95775614D01*
X91649398Y-95787748D01*
X91650000Y-95800000D01*
X91650000Y-97050000D01*
X91649398Y-97062252D01*
X91647598Y-97074386D01*
X91644618Y-97086286D01*
X91640485Y-97097835D01*
X91635240Y-97108925D01*
X91628934Y-97119446D01*
X91621626Y-97129299D01*
X91613388Y-97138388D01*
X91604299Y-97146626D01*
X91594446Y-97153934D01*
X91583925Y-97160240D01*
X91572835Y-97165485D01*
X91561286Y-97169618D01*
X91549386Y-97172598D01*
X91537252Y-97174398D01*
X91525000Y-97175000D01*
X91275000Y-97175000D01*
X91262748Y-97174398D01*
X91250614Y-97172598D01*
X91238714Y-97169618D01*
X91227165Y-97165485D01*
X91216075Y-97160240D01*
X91205554Y-97153934D01*
X91195701Y-97146626D01*
X91186612Y-97138388D01*
X91178374Y-97129299D01*
X91171066Y-97119446D01*
X91164760Y-97108925D01*
X91159515Y-97097835D01*
X91155382Y-97086286D01*
X91152402Y-97074386D01*
X91150602Y-97062252D01*
X91150000Y-97050000D01*
X91150000Y-95800000D01*
X91150602Y-95787748D01*
X91152402Y-95775614D01*
X91155382Y-95763714D01*
X91159515Y-95752165D01*
X91164760Y-95741075D01*
X91171066Y-95730554D01*
X91178374Y-95720701D01*
X91186612Y-95711612D01*
X91195701Y-95703374D01*
X91205554Y-95696066D01*
X91216075Y-95689760D01*
X91227165Y-95684515D01*
X91238714Y-95680382D01*
X91250614Y-95677402D01*
X91262748Y-95675602D01*
X91275000Y-95675000D01*
X91525000Y-95675000D01*
X91537252Y-95675602D01*
X91537252Y-95675602D01*
G37*
D18*
X91400000Y-96425000D03*
D11*
G36*
X90737252Y-95675602D02*
G01*
X90749386Y-95677402D01*
X90761286Y-95680382D01*
X90772835Y-95684515D01*
X90783925Y-95689760D01*
X90794446Y-95696066D01*
X90804299Y-95703374D01*
X90813388Y-95711612D01*
X90821626Y-95720701D01*
X90828934Y-95730554D01*
X90835240Y-95741075D01*
X90840485Y-95752165D01*
X90844618Y-95763714D01*
X90847598Y-95775614D01*
X90849398Y-95787748D01*
X90850000Y-95800000D01*
X90850000Y-97050000D01*
X90849398Y-97062252D01*
X90847598Y-97074386D01*
X90844618Y-97086286D01*
X90840485Y-97097835D01*
X90835240Y-97108925D01*
X90828934Y-97119446D01*
X90821626Y-97129299D01*
X90813388Y-97138388D01*
X90804299Y-97146626D01*
X90794446Y-97153934D01*
X90783925Y-97160240D01*
X90772835Y-97165485D01*
X90761286Y-97169618D01*
X90749386Y-97172598D01*
X90737252Y-97174398D01*
X90725000Y-97175000D01*
X90475000Y-97175000D01*
X90462748Y-97174398D01*
X90450614Y-97172598D01*
X90438714Y-97169618D01*
X90427165Y-97165485D01*
X90416075Y-97160240D01*
X90405554Y-97153934D01*
X90395701Y-97146626D01*
X90386612Y-97138388D01*
X90378374Y-97129299D01*
X90371066Y-97119446D01*
X90364760Y-97108925D01*
X90359515Y-97097835D01*
X90355382Y-97086286D01*
X90352402Y-97074386D01*
X90350602Y-97062252D01*
X90350000Y-97050000D01*
X90350000Y-95800000D01*
X90350602Y-95787748D01*
X90352402Y-95775614D01*
X90355382Y-95763714D01*
X90359515Y-95752165D01*
X90364760Y-95741075D01*
X90371066Y-95730554D01*
X90378374Y-95720701D01*
X90386612Y-95711612D01*
X90395701Y-95703374D01*
X90405554Y-95696066D01*
X90416075Y-95689760D01*
X90427165Y-95684515D01*
X90438714Y-95680382D01*
X90450614Y-95677402D01*
X90462748Y-95675602D01*
X90475000Y-95675000D01*
X90725000Y-95675000D01*
X90737252Y-95675602D01*
X90737252Y-95675602D01*
G37*
D18*
X90600000Y-96425000D03*
D11*
G36*
X89937252Y-95675602D02*
G01*
X89949386Y-95677402D01*
X89961286Y-95680382D01*
X89972835Y-95684515D01*
X89983925Y-95689760D01*
X89994446Y-95696066D01*
X90004299Y-95703374D01*
X90013388Y-95711612D01*
X90021626Y-95720701D01*
X90028934Y-95730554D01*
X90035240Y-95741075D01*
X90040485Y-95752165D01*
X90044618Y-95763714D01*
X90047598Y-95775614D01*
X90049398Y-95787748D01*
X90050000Y-95800000D01*
X90050000Y-97050000D01*
X90049398Y-97062252D01*
X90047598Y-97074386D01*
X90044618Y-97086286D01*
X90040485Y-97097835D01*
X90035240Y-97108925D01*
X90028934Y-97119446D01*
X90021626Y-97129299D01*
X90013388Y-97138388D01*
X90004299Y-97146626D01*
X89994446Y-97153934D01*
X89983925Y-97160240D01*
X89972835Y-97165485D01*
X89961286Y-97169618D01*
X89949386Y-97172598D01*
X89937252Y-97174398D01*
X89925000Y-97175000D01*
X89675000Y-97175000D01*
X89662748Y-97174398D01*
X89650614Y-97172598D01*
X89638714Y-97169618D01*
X89627165Y-97165485D01*
X89616075Y-97160240D01*
X89605554Y-97153934D01*
X89595701Y-97146626D01*
X89586612Y-97138388D01*
X89578374Y-97129299D01*
X89571066Y-97119446D01*
X89564760Y-97108925D01*
X89559515Y-97097835D01*
X89555382Y-97086286D01*
X89552402Y-97074386D01*
X89550602Y-97062252D01*
X89550000Y-97050000D01*
X89550000Y-95800000D01*
X89550602Y-95787748D01*
X89552402Y-95775614D01*
X89555382Y-95763714D01*
X89559515Y-95752165D01*
X89564760Y-95741075D01*
X89571066Y-95730554D01*
X89578374Y-95720701D01*
X89586612Y-95711612D01*
X89595701Y-95703374D01*
X89605554Y-95696066D01*
X89616075Y-95689760D01*
X89627165Y-95684515D01*
X89638714Y-95680382D01*
X89650614Y-95677402D01*
X89662748Y-95675602D01*
X89675000Y-95675000D01*
X89925000Y-95675000D01*
X89937252Y-95675602D01*
X89937252Y-95675602D01*
G37*
D18*
X89800000Y-96425000D03*
D11*
G36*
X89137252Y-95675602D02*
G01*
X89149386Y-95677402D01*
X89161286Y-95680382D01*
X89172835Y-95684515D01*
X89183925Y-95689760D01*
X89194446Y-95696066D01*
X89204299Y-95703374D01*
X89213388Y-95711612D01*
X89221626Y-95720701D01*
X89228934Y-95730554D01*
X89235240Y-95741075D01*
X89240485Y-95752165D01*
X89244618Y-95763714D01*
X89247598Y-95775614D01*
X89249398Y-95787748D01*
X89250000Y-95800000D01*
X89250000Y-97050000D01*
X89249398Y-97062252D01*
X89247598Y-97074386D01*
X89244618Y-97086286D01*
X89240485Y-97097835D01*
X89235240Y-97108925D01*
X89228934Y-97119446D01*
X89221626Y-97129299D01*
X89213388Y-97138388D01*
X89204299Y-97146626D01*
X89194446Y-97153934D01*
X89183925Y-97160240D01*
X89172835Y-97165485D01*
X89161286Y-97169618D01*
X89149386Y-97172598D01*
X89137252Y-97174398D01*
X89125000Y-97175000D01*
X88875000Y-97175000D01*
X88862748Y-97174398D01*
X88850614Y-97172598D01*
X88838714Y-97169618D01*
X88827165Y-97165485D01*
X88816075Y-97160240D01*
X88805554Y-97153934D01*
X88795701Y-97146626D01*
X88786612Y-97138388D01*
X88778374Y-97129299D01*
X88771066Y-97119446D01*
X88764760Y-97108925D01*
X88759515Y-97097835D01*
X88755382Y-97086286D01*
X88752402Y-97074386D01*
X88750602Y-97062252D01*
X88750000Y-97050000D01*
X88750000Y-95800000D01*
X88750602Y-95787748D01*
X88752402Y-95775614D01*
X88755382Y-95763714D01*
X88759515Y-95752165D01*
X88764760Y-95741075D01*
X88771066Y-95730554D01*
X88778374Y-95720701D01*
X88786612Y-95711612D01*
X88795701Y-95703374D01*
X88805554Y-95696066D01*
X88816075Y-95689760D01*
X88827165Y-95684515D01*
X88838714Y-95680382D01*
X88850614Y-95677402D01*
X88862748Y-95675602D01*
X88875000Y-95675000D01*
X89125000Y-95675000D01*
X89137252Y-95675602D01*
X89137252Y-95675602D01*
G37*
D18*
X89000000Y-96425000D03*
D11*
G36*
X88337252Y-95675602D02*
G01*
X88349386Y-95677402D01*
X88361286Y-95680382D01*
X88372835Y-95684515D01*
X88383925Y-95689760D01*
X88394446Y-95696066D01*
X88404299Y-95703374D01*
X88413388Y-95711612D01*
X88421626Y-95720701D01*
X88428934Y-95730554D01*
X88435240Y-95741075D01*
X88440485Y-95752165D01*
X88444618Y-95763714D01*
X88447598Y-95775614D01*
X88449398Y-95787748D01*
X88450000Y-95800000D01*
X88450000Y-97050000D01*
X88449398Y-97062252D01*
X88447598Y-97074386D01*
X88444618Y-97086286D01*
X88440485Y-97097835D01*
X88435240Y-97108925D01*
X88428934Y-97119446D01*
X88421626Y-97129299D01*
X88413388Y-97138388D01*
X88404299Y-97146626D01*
X88394446Y-97153934D01*
X88383925Y-97160240D01*
X88372835Y-97165485D01*
X88361286Y-97169618D01*
X88349386Y-97172598D01*
X88337252Y-97174398D01*
X88325000Y-97175000D01*
X88075000Y-97175000D01*
X88062748Y-97174398D01*
X88050614Y-97172598D01*
X88038714Y-97169618D01*
X88027165Y-97165485D01*
X88016075Y-97160240D01*
X88005554Y-97153934D01*
X87995701Y-97146626D01*
X87986612Y-97138388D01*
X87978374Y-97129299D01*
X87971066Y-97119446D01*
X87964760Y-97108925D01*
X87959515Y-97097835D01*
X87955382Y-97086286D01*
X87952402Y-97074386D01*
X87950602Y-97062252D01*
X87950000Y-97050000D01*
X87950000Y-95800000D01*
X87950602Y-95787748D01*
X87952402Y-95775614D01*
X87955382Y-95763714D01*
X87959515Y-95752165D01*
X87964760Y-95741075D01*
X87971066Y-95730554D01*
X87978374Y-95720701D01*
X87986612Y-95711612D01*
X87995701Y-95703374D01*
X88005554Y-95696066D01*
X88016075Y-95689760D01*
X88027165Y-95684515D01*
X88038714Y-95680382D01*
X88050614Y-95677402D01*
X88062748Y-95675602D01*
X88075000Y-95675000D01*
X88325000Y-95675000D01*
X88337252Y-95675602D01*
X88337252Y-95675602D01*
G37*
D18*
X88200000Y-96425000D03*
D11*
G36*
X87462252Y-94800602D02*
G01*
X87474386Y-94802402D01*
X87486286Y-94805382D01*
X87497835Y-94809515D01*
X87508925Y-94814760D01*
X87519446Y-94821066D01*
X87529299Y-94828374D01*
X87538388Y-94836612D01*
X87546626Y-94845701D01*
X87553934Y-94855554D01*
X87560240Y-94866075D01*
X87565485Y-94877165D01*
X87569618Y-94888714D01*
X87572598Y-94900614D01*
X87574398Y-94912748D01*
X87575000Y-94925000D01*
X87575000Y-95175000D01*
X87574398Y-95187252D01*
X87572598Y-95199386D01*
X87569618Y-95211286D01*
X87565485Y-95222835D01*
X87560240Y-95233925D01*
X87553934Y-95244446D01*
X87546626Y-95254299D01*
X87538388Y-95263388D01*
X87529299Y-95271626D01*
X87519446Y-95278934D01*
X87508925Y-95285240D01*
X87497835Y-95290485D01*
X87486286Y-95294618D01*
X87474386Y-95297598D01*
X87462252Y-95299398D01*
X87450000Y-95300000D01*
X86200000Y-95300000D01*
X86187748Y-95299398D01*
X86175614Y-95297598D01*
X86163714Y-95294618D01*
X86152165Y-95290485D01*
X86141075Y-95285240D01*
X86130554Y-95278934D01*
X86120701Y-95271626D01*
X86111612Y-95263388D01*
X86103374Y-95254299D01*
X86096066Y-95244446D01*
X86089760Y-95233925D01*
X86084515Y-95222835D01*
X86080382Y-95211286D01*
X86077402Y-95199386D01*
X86075602Y-95187252D01*
X86075000Y-95175000D01*
X86075000Y-94925000D01*
X86075602Y-94912748D01*
X86077402Y-94900614D01*
X86080382Y-94888714D01*
X86084515Y-94877165D01*
X86089760Y-94866075D01*
X86096066Y-94855554D01*
X86103374Y-94845701D01*
X86111612Y-94836612D01*
X86120701Y-94828374D01*
X86130554Y-94821066D01*
X86141075Y-94814760D01*
X86152165Y-94809515D01*
X86163714Y-94805382D01*
X86175614Y-94802402D01*
X86187748Y-94800602D01*
X86200000Y-94800000D01*
X87450000Y-94800000D01*
X87462252Y-94800602D01*
X87462252Y-94800602D01*
G37*
D18*
X86825000Y-95050000D03*
D11*
G36*
X87462252Y-94000602D02*
G01*
X87474386Y-94002402D01*
X87486286Y-94005382D01*
X87497835Y-94009515D01*
X87508925Y-94014760D01*
X87519446Y-94021066D01*
X87529299Y-94028374D01*
X87538388Y-94036612D01*
X87546626Y-94045701D01*
X87553934Y-94055554D01*
X87560240Y-94066075D01*
X87565485Y-94077165D01*
X87569618Y-94088714D01*
X87572598Y-94100614D01*
X87574398Y-94112748D01*
X87575000Y-94125000D01*
X87575000Y-94375000D01*
X87574398Y-94387252D01*
X87572598Y-94399386D01*
X87569618Y-94411286D01*
X87565485Y-94422835D01*
X87560240Y-94433925D01*
X87553934Y-94444446D01*
X87546626Y-94454299D01*
X87538388Y-94463388D01*
X87529299Y-94471626D01*
X87519446Y-94478934D01*
X87508925Y-94485240D01*
X87497835Y-94490485D01*
X87486286Y-94494618D01*
X87474386Y-94497598D01*
X87462252Y-94499398D01*
X87450000Y-94500000D01*
X86200000Y-94500000D01*
X86187748Y-94499398D01*
X86175614Y-94497598D01*
X86163714Y-94494618D01*
X86152165Y-94490485D01*
X86141075Y-94485240D01*
X86130554Y-94478934D01*
X86120701Y-94471626D01*
X86111612Y-94463388D01*
X86103374Y-94454299D01*
X86096066Y-94444446D01*
X86089760Y-94433925D01*
X86084515Y-94422835D01*
X86080382Y-94411286D01*
X86077402Y-94399386D01*
X86075602Y-94387252D01*
X86075000Y-94375000D01*
X86075000Y-94125000D01*
X86075602Y-94112748D01*
X86077402Y-94100614D01*
X86080382Y-94088714D01*
X86084515Y-94077165D01*
X86089760Y-94066075D01*
X86096066Y-94055554D01*
X86103374Y-94045701D01*
X86111612Y-94036612D01*
X86120701Y-94028374D01*
X86130554Y-94021066D01*
X86141075Y-94014760D01*
X86152165Y-94009515D01*
X86163714Y-94005382D01*
X86175614Y-94002402D01*
X86187748Y-94000602D01*
X86200000Y-94000000D01*
X87450000Y-94000000D01*
X87462252Y-94000602D01*
X87462252Y-94000602D01*
G37*
D18*
X86825000Y-94250000D03*
D11*
G36*
X87462252Y-93200602D02*
G01*
X87474386Y-93202402D01*
X87486286Y-93205382D01*
X87497835Y-93209515D01*
X87508925Y-93214760D01*
X87519446Y-93221066D01*
X87529299Y-93228374D01*
X87538388Y-93236612D01*
X87546626Y-93245701D01*
X87553934Y-93255554D01*
X87560240Y-93266075D01*
X87565485Y-93277165D01*
X87569618Y-93288714D01*
X87572598Y-93300614D01*
X87574398Y-93312748D01*
X87575000Y-93325000D01*
X87575000Y-93575000D01*
X87574398Y-93587252D01*
X87572598Y-93599386D01*
X87569618Y-93611286D01*
X87565485Y-93622835D01*
X87560240Y-93633925D01*
X87553934Y-93644446D01*
X87546626Y-93654299D01*
X87538388Y-93663388D01*
X87529299Y-93671626D01*
X87519446Y-93678934D01*
X87508925Y-93685240D01*
X87497835Y-93690485D01*
X87486286Y-93694618D01*
X87474386Y-93697598D01*
X87462252Y-93699398D01*
X87450000Y-93700000D01*
X86200000Y-93700000D01*
X86187748Y-93699398D01*
X86175614Y-93697598D01*
X86163714Y-93694618D01*
X86152165Y-93690485D01*
X86141075Y-93685240D01*
X86130554Y-93678934D01*
X86120701Y-93671626D01*
X86111612Y-93663388D01*
X86103374Y-93654299D01*
X86096066Y-93644446D01*
X86089760Y-93633925D01*
X86084515Y-93622835D01*
X86080382Y-93611286D01*
X86077402Y-93599386D01*
X86075602Y-93587252D01*
X86075000Y-93575000D01*
X86075000Y-93325000D01*
X86075602Y-93312748D01*
X86077402Y-93300614D01*
X86080382Y-93288714D01*
X86084515Y-93277165D01*
X86089760Y-93266075D01*
X86096066Y-93255554D01*
X86103374Y-93245701D01*
X86111612Y-93236612D01*
X86120701Y-93228374D01*
X86130554Y-93221066D01*
X86141075Y-93214760D01*
X86152165Y-93209515D01*
X86163714Y-93205382D01*
X86175614Y-93202402D01*
X86187748Y-93200602D01*
X86200000Y-93200000D01*
X87450000Y-93200000D01*
X87462252Y-93200602D01*
X87462252Y-93200602D01*
G37*
D18*
X86825000Y-93450000D03*
D11*
G36*
X87462252Y-92400602D02*
G01*
X87474386Y-92402402D01*
X87486286Y-92405382D01*
X87497835Y-92409515D01*
X87508925Y-92414760D01*
X87519446Y-92421066D01*
X87529299Y-92428374D01*
X87538388Y-92436612D01*
X87546626Y-92445701D01*
X87553934Y-92455554D01*
X87560240Y-92466075D01*
X87565485Y-92477165D01*
X87569618Y-92488714D01*
X87572598Y-92500614D01*
X87574398Y-92512748D01*
X87575000Y-92525000D01*
X87575000Y-92775000D01*
X87574398Y-92787252D01*
X87572598Y-92799386D01*
X87569618Y-92811286D01*
X87565485Y-92822835D01*
X87560240Y-92833925D01*
X87553934Y-92844446D01*
X87546626Y-92854299D01*
X87538388Y-92863388D01*
X87529299Y-92871626D01*
X87519446Y-92878934D01*
X87508925Y-92885240D01*
X87497835Y-92890485D01*
X87486286Y-92894618D01*
X87474386Y-92897598D01*
X87462252Y-92899398D01*
X87450000Y-92900000D01*
X86200000Y-92900000D01*
X86187748Y-92899398D01*
X86175614Y-92897598D01*
X86163714Y-92894618D01*
X86152165Y-92890485D01*
X86141075Y-92885240D01*
X86130554Y-92878934D01*
X86120701Y-92871626D01*
X86111612Y-92863388D01*
X86103374Y-92854299D01*
X86096066Y-92844446D01*
X86089760Y-92833925D01*
X86084515Y-92822835D01*
X86080382Y-92811286D01*
X86077402Y-92799386D01*
X86075602Y-92787252D01*
X86075000Y-92775000D01*
X86075000Y-92525000D01*
X86075602Y-92512748D01*
X86077402Y-92500614D01*
X86080382Y-92488714D01*
X86084515Y-92477165D01*
X86089760Y-92466075D01*
X86096066Y-92455554D01*
X86103374Y-92445701D01*
X86111612Y-92436612D01*
X86120701Y-92428374D01*
X86130554Y-92421066D01*
X86141075Y-92414760D01*
X86152165Y-92409515D01*
X86163714Y-92405382D01*
X86175614Y-92402402D01*
X86187748Y-92400602D01*
X86200000Y-92400000D01*
X87450000Y-92400000D01*
X87462252Y-92400602D01*
X87462252Y-92400602D01*
G37*
D18*
X86825000Y-92650000D03*
D11*
G36*
X87462252Y-91600602D02*
G01*
X87474386Y-91602402D01*
X87486286Y-91605382D01*
X87497835Y-91609515D01*
X87508925Y-91614760D01*
X87519446Y-91621066D01*
X87529299Y-91628374D01*
X87538388Y-91636612D01*
X87546626Y-91645701D01*
X87553934Y-91655554D01*
X87560240Y-91666075D01*
X87565485Y-91677165D01*
X87569618Y-91688714D01*
X87572598Y-91700614D01*
X87574398Y-91712748D01*
X87575000Y-91725000D01*
X87575000Y-91975000D01*
X87574398Y-91987252D01*
X87572598Y-91999386D01*
X87569618Y-92011286D01*
X87565485Y-92022835D01*
X87560240Y-92033925D01*
X87553934Y-92044446D01*
X87546626Y-92054299D01*
X87538388Y-92063388D01*
X87529299Y-92071626D01*
X87519446Y-92078934D01*
X87508925Y-92085240D01*
X87497835Y-92090485D01*
X87486286Y-92094618D01*
X87474386Y-92097598D01*
X87462252Y-92099398D01*
X87450000Y-92100000D01*
X86200000Y-92100000D01*
X86187748Y-92099398D01*
X86175614Y-92097598D01*
X86163714Y-92094618D01*
X86152165Y-92090485D01*
X86141075Y-92085240D01*
X86130554Y-92078934D01*
X86120701Y-92071626D01*
X86111612Y-92063388D01*
X86103374Y-92054299D01*
X86096066Y-92044446D01*
X86089760Y-92033925D01*
X86084515Y-92022835D01*
X86080382Y-92011286D01*
X86077402Y-91999386D01*
X86075602Y-91987252D01*
X86075000Y-91975000D01*
X86075000Y-91725000D01*
X86075602Y-91712748D01*
X86077402Y-91700614D01*
X86080382Y-91688714D01*
X86084515Y-91677165D01*
X86089760Y-91666075D01*
X86096066Y-91655554D01*
X86103374Y-91645701D01*
X86111612Y-91636612D01*
X86120701Y-91628374D01*
X86130554Y-91621066D01*
X86141075Y-91614760D01*
X86152165Y-91609515D01*
X86163714Y-91605382D01*
X86175614Y-91602402D01*
X86187748Y-91600602D01*
X86200000Y-91600000D01*
X87450000Y-91600000D01*
X87462252Y-91600602D01*
X87462252Y-91600602D01*
G37*
D18*
X86825000Y-91850000D03*
D11*
G36*
X87462252Y-90800602D02*
G01*
X87474386Y-90802402D01*
X87486286Y-90805382D01*
X87497835Y-90809515D01*
X87508925Y-90814760D01*
X87519446Y-90821066D01*
X87529299Y-90828374D01*
X87538388Y-90836612D01*
X87546626Y-90845701D01*
X87553934Y-90855554D01*
X87560240Y-90866075D01*
X87565485Y-90877165D01*
X87569618Y-90888714D01*
X87572598Y-90900614D01*
X87574398Y-90912748D01*
X87575000Y-90925000D01*
X87575000Y-91175000D01*
X87574398Y-91187252D01*
X87572598Y-91199386D01*
X87569618Y-91211286D01*
X87565485Y-91222835D01*
X87560240Y-91233925D01*
X87553934Y-91244446D01*
X87546626Y-91254299D01*
X87538388Y-91263388D01*
X87529299Y-91271626D01*
X87519446Y-91278934D01*
X87508925Y-91285240D01*
X87497835Y-91290485D01*
X87486286Y-91294618D01*
X87474386Y-91297598D01*
X87462252Y-91299398D01*
X87450000Y-91300000D01*
X86200000Y-91300000D01*
X86187748Y-91299398D01*
X86175614Y-91297598D01*
X86163714Y-91294618D01*
X86152165Y-91290485D01*
X86141075Y-91285240D01*
X86130554Y-91278934D01*
X86120701Y-91271626D01*
X86111612Y-91263388D01*
X86103374Y-91254299D01*
X86096066Y-91244446D01*
X86089760Y-91233925D01*
X86084515Y-91222835D01*
X86080382Y-91211286D01*
X86077402Y-91199386D01*
X86075602Y-91187252D01*
X86075000Y-91175000D01*
X86075000Y-90925000D01*
X86075602Y-90912748D01*
X86077402Y-90900614D01*
X86080382Y-90888714D01*
X86084515Y-90877165D01*
X86089760Y-90866075D01*
X86096066Y-90855554D01*
X86103374Y-90845701D01*
X86111612Y-90836612D01*
X86120701Y-90828374D01*
X86130554Y-90821066D01*
X86141075Y-90814760D01*
X86152165Y-90809515D01*
X86163714Y-90805382D01*
X86175614Y-90802402D01*
X86187748Y-90800602D01*
X86200000Y-90800000D01*
X87450000Y-90800000D01*
X87462252Y-90800602D01*
X87462252Y-90800602D01*
G37*
D18*
X86825000Y-91050000D03*
D11*
G36*
X87462252Y-90000602D02*
G01*
X87474386Y-90002402D01*
X87486286Y-90005382D01*
X87497835Y-90009515D01*
X87508925Y-90014760D01*
X87519446Y-90021066D01*
X87529299Y-90028374D01*
X87538388Y-90036612D01*
X87546626Y-90045701D01*
X87553934Y-90055554D01*
X87560240Y-90066075D01*
X87565485Y-90077165D01*
X87569618Y-90088714D01*
X87572598Y-90100614D01*
X87574398Y-90112748D01*
X87575000Y-90125000D01*
X87575000Y-90375000D01*
X87574398Y-90387252D01*
X87572598Y-90399386D01*
X87569618Y-90411286D01*
X87565485Y-90422835D01*
X87560240Y-90433925D01*
X87553934Y-90444446D01*
X87546626Y-90454299D01*
X87538388Y-90463388D01*
X87529299Y-90471626D01*
X87519446Y-90478934D01*
X87508925Y-90485240D01*
X87497835Y-90490485D01*
X87486286Y-90494618D01*
X87474386Y-90497598D01*
X87462252Y-90499398D01*
X87450000Y-90500000D01*
X86200000Y-90500000D01*
X86187748Y-90499398D01*
X86175614Y-90497598D01*
X86163714Y-90494618D01*
X86152165Y-90490485D01*
X86141075Y-90485240D01*
X86130554Y-90478934D01*
X86120701Y-90471626D01*
X86111612Y-90463388D01*
X86103374Y-90454299D01*
X86096066Y-90444446D01*
X86089760Y-90433925D01*
X86084515Y-90422835D01*
X86080382Y-90411286D01*
X86077402Y-90399386D01*
X86075602Y-90387252D01*
X86075000Y-90375000D01*
X86075000Y-90125000D01*
X86075602Y-90112748D01*
X86077402Y-90100614D01*
X86080382Y-90088714D01*
X86084515Y-90077165D01*
X86089760Y-90066075D01*
X86096066Y-90055554D01*
X86103374Y-90045701D01*
X86111612Y-90036612D01*
X86120701Y-90028374D01*
X86130554Y-90021066D01*
X86141075Y-90014760D01*
X86152165Y-90009515D01*
X86163714Y-90005382D01*
X86175614Y-90002402D01*
X86187748Y-90000602D01*
X86200000Y-90000000D01*
X87450000Y-90000000D01*
X87462252Y-90000602D01*
X87462252Y-90000602D01*
G37*
D18*
X86825000Y-90250000D03*
D11*
G36*
X87462252Y-89200602D02*
G01*
X87474386Y-89202402D01*
X87486286Y-89205382D01*
X87497835Y-89209515D01*
X87508925Y-89214760D01*
X87519446Y-89221066D01*
X87529299Y-89228374D01*
X87538388Y-89236612D01*
X87546626Y-89245701D01*
X87553934Y-89255554D01*
X87560240Y-89266075D01*
X87565485Y-89277165D01*
X87569618Y-89288714D01*
X87572598Y-89300614D01*
X87574398Y-89312748D01*
X87575000Y-89325000D01*
X87575000Y-89575000D01*
X87574398Y-89587252D01*
X87572598Y-89599386D01*
X87569618Y-89611286D01*
X87565485Y-89622835D01*
X87560240Y-89633925D01*
X87553934Y-89644446D01*
X87546626Y-89654299D01*
X87538388Y-89663388D01*
X87529299Y-89671626D01*
X87519446Y-89678934D01*
X87508925Y-89685240D01*
X87497835Y-89690485D01*
X87486286Y-89694618D01*
X87474386Y-89697598D01*
X87462252Y-89699398D01*
X87450000Y-89700000D01*
X86200000Y-89700000D01*
X86187748Y-89699398D01*
X86175614Y-89697598D01*
X86163714Y-89694618D01*
X86152165Y-89690485D01*
X86141075Y-89685240D01*
X86130554Y-89678934D01*
X86120701Y-89671626D01*
X86111612Y-89663388D01*
X86103374Y-89654299D01*
X86096066Y-89644446D01*
X86089760Y-89633925D01*
X86084515Y-89622835D01*
X86080382Y-89611286D01*
X86077402Y-89599386D01*
X86075602Y-89587252D01*
X86075000Y-89575000D01*
X86075000Y-89325000D01*
X86075602Y-89312748D01*
X86077402Y-89300614D01*
X86080382Y-89288714D01*
X86084515Y-89277165D01*
X86089760Y-89266075D01*
X86096066Y-89255554D01*
X86103374Y-89245701D01*
X86111612Y-89236612D01*
X86120701Y-89228374D01*
X86130554Y-89221066D01*
X86141075Y-89214760D01*
X86152165Y-89209515D01*
X86163714Y-89205382D01*
X86175614Y-89202402D01*
X86187748Y-89200602D01*
X86200000Y-89200000D01*
X87450000Y-89200000D01*
X87462252Y-89200602D01*
X87462252Y-89200602D01*
G37*
D18*
X86825000Y-89450000D03*
D11*
G36*
X88337252Y-87325602D02*
G01*
X88349386Y-87327402D01*
X88361286Y-87330382D01*
X88372835Y-87334515D01*
X88383925Y-87339760D01*
X88394446Y-87346066D01*
X88404299Y-87353374D01*
X88413388Y-87361612D01*
X88421626Y-87370701D01*
X88428934Y-87380554D01*
X88435240Y-87391075D01*
X88440485Y-87402165D01*
X88444618Y-87413714D01*
X88447598Y-87425614D01*
X88449398Y-87437748D01*
X88450000Y-87450000D01*
X88450000Y-88700000D01*
X88449398Y-88712252D01*
X88447598Y-88724386D01*
X88444618Y-88736286D01*
X88440485Y-88747835D01*
X88435240Y-88758925D01*
X88428934Y-88769446D01*
X88421626Y-88779299D01*
X88413388Y-88788388D01*
X88404299Y-88796626D01*
X88394446Y-88803934D01*
X88383925Y-88810240D01*
X88372835Y-88815485D01*
X88361286Y-88819618D01*
X88349386Y-88822598D01*
X88337252Y-88824398D01*
X88325000Y-88825000D01*
X88075000Y-88825000D01*
X88062748Y-88824398D01*
X88050614Y-88822598D01*
X88038714Y-88819618D01*
X88027165Y-88815485D01*
X88016075Y-88810240D01*
X88005554Y-88803934D01*
X87995701Y-88796626D01*
X87986612Y-88788388D01*
X87978374Y-88779299D01*
X87971066Y-88769446D01*
X87964760Y-88758925D01*
X87959515Y-88747835D01*
X87955382Y-88736286D01*
X87952402Y-88724386D01*
X87950602Y-88712252D01*
X87950000Y-88700000D01*
X87950000Y-87450000D01*
X87950602Y-87437748D01*
X87952402Y-87425614D01*
X87955382Y-87413714D01*
X87959515Y-87402165D01*
X87964760Y-87391075D01*
X87971066Y-87380554D01*
X87978374Y-87370701D01*
X87986612Y-87361612D01*
X87995701Y-87353374D01*
X88005554Y-87346066D01*
X88016075Y-87339760D01*
X88027165Y-87334515D01*
X88038714Y-87330382D01*
X88050614Y-87327402D01*
X88062748Y-87325602D01*
X88075000Y-87325000D01*
X88325000Y-87325000D01*
X88337252Y-87325602D01*
X88337252Y-87325602D01*
G37*
D18*
X88200000Y-88075000D03*
D11*
G36*
X89137252Y-87325602D02*
G01*
X89149386Y-87327402D01*
X89161286Y-87330382D01*
X89172835Y-87334515D01*
X89183925Y-87339760D01*
X89194446Y-87346066D01*
X89204299Y-87353374D01*
X89213388Y-87361612D01*
X89221626Y-87370701D01*
X89228934Y-87380554D01*
X89235240Y-87391075D01*
X89240485Y-87402165D01*
X89244618Y-87413714D01*
X89247598Y-87425614D01*
X89249398Y-87437748D01*
X89250000Y-87450000D01*
X89250000Y-88700000D01*
X89249398Y-88712252D01*
X89247598Y-88724386D01*
X89244618Y-88736286D01*
X89240485Y-88747835D01*
X89235240Y-88758925D01*
X89228934Y-88769446D01*
X89221626Y-88779299D01*
X89213388Y-88788388D01*
X89204299Y-88796626D01*
X89194446Y-88803934D01*
X89183925Y-88810240D01*
X89172835Y-88815485D01*
X89161286Y-88819618D01*
X89149386Y-88822598D01*
X89137252Y-88824398D01*
X89125000Y-88825000D01*
X88875000Y-88825000D01*
X88862748Y-88824398D01*
X88850614Y-88822598D01*
X88838714Y-88819618D01*
X88827165Y-88815485D01*
X88816075Y-88810240D01*
X88805554Y-88803934D01*
X88795701Y-88796626D01*
X88786612Y-88788388D01*
X88778374Y-88779299D01*
X88771066Y-88769446D01*
X88764760Y-88758925D01*
X88759515Y-88747835D01*
X88755382Y-88736286D01*
X88752402Y-88724386D01*
X88750602Y-88712252D01*
X88750000Y-88700000D01*
X88750000Y-87450000D01*
X88750602Y-87437748D01*
X88752402Y-87425614D01*
X88755382Y-87413714D01*
X88759515Y-87402165D01*
X88764760Y-87391075D01*
X88771066Y-87380554D01*
X88778374Y-87370701D01*
X88786612Y-87361612D01*
X88795701Y-87353374D01*
X88805554Y-87346066D01*
X88816075Y-87339760D01*
X88827165Y-87334515D01*
X88838714Y-87330382D01*
X88850614Y-87327402D01*
X88862748Y-87325602D01*
X88875000Y-87325000D01*
X89125000Y-87325000D01*
X89137252Y-87325602D01*
X89137252Y-87325602D01*
G37*
D18*
X89000000Y-88075000D03*
D11*
G36*
X89937252Y-87325602D02*
G01*
X89949386Y-87327402D01*
X89961286Y-87330382D01*
X89972835Y-87334515D01*
X89983925Y-87339760D01*
X89994446Y-87346066D01*
X90004299Y-87353374D01*
X90013388Y-87361612D01*
X90021626Y-87370701D01*
X90028934Y-87380554D01*
X90035240Y-87391075D01*
X90040485Y-87402165D01*
X90044618Y-87413714D01*
X90047598Y-87425614D01*
X90049398Y-87437748D01*
X90050000Y-87450000D01*
X90050000Y-88700000D01*
X90049398Y-88712252D01*
X90047598Y-88724386D01*
X90044618Y-88736286D01*
X90040485Y-88747835D01*
X90035240Y-88758925D01*
X90028934Y-88769446D01*
X90021626Y-88779299D01*
X90013388Y-88788388D01*
X90004299Y-88796626D01*
X89994446Y-88803934D01*
X89983925Y-88810240D01*
X89972835Y-88815485D01*
X89961286Y-88819618D01*
X89949386Y-88822598D01*
X89937252Y-88824398D01*
X89925000Y-88825000D01*
X89675000Y-88825000D01*
X89662748Y-88824398D01*
X89650614Y-88822598D01*
X89638714Y-88819618D01*
X89627165Y-88815485D01*
X89616075Y-88810240D01*
X89605554Y-88803934D01*
X89595701Y-88796626D01*
X89586612Y-88788388D01*
X89578374Y-88779299D01*
X89571066Y-88769446D01*
X89564760Y-88758925D01*
X89559515Y-88747835D01*
X89555382Y-88736286D01*
X89552402Y-88724386D01*
X89550602Y-88712252D01*
X89550000Y-88700000D01*
X89550000Y-87450000D01*
X89550602Y-87437748D01*
X89552402Y-87425614D01*
X89555382Y-87413714D01*
X89559515Y-87402165D01*
X89564760Y-87391075D01*
X89571066Y-87380554D01*
X89578374Y-87370701D01*
X89586612Y-87361612D01*
X89595701Y-87353374D01*
X89605554Y-87346066D01*
X89616075Y-87339760D01*
X89627165Y-87334515D01*
X89638714Y-87330382D01*
X89650614Y-87327402D01*
X89662748Y-87325602D01*
X89675000Y-87325000D01*
X89925000Y-87325000D01*
X89937252Y-87325602D01*
X89937252Y-87325602D01*
G37*
D18*
X89800000Y-88075000D03*
D11*
G36*
X90737252Y-87325602D02*
G01*
X90749386Y-87327402D01*
X90761286Y-87330382D01*
X90772835Y-87334515D01*
X90783925Y-87339760D01*
X90794446Y-87346066D01*
X90804299Y-87353374D01*
X90813388Y-87361612D01*
X90821626Y-87370701D01*
X90828934Y-87380554D01*
X90835240Y-87391075D01*
X90840485Y-87402165D01*
X90844618Y-87413714D01*
X90847598Y-87425614D01*
X90849398Y-87437748D01*
X90850000Y-87450000D01*
X90850000Y-88700000D01*
X90849398Y-88712252D01*
X90847598Y-88724386D01*
X90844618Y-88736286D01*
X90840485Y-88747835D01*
X90835240Y-88758925D01*
X90828934Y-88769446D01*
X90821626Y-88779299D01*
X90813388Y-88788388D01*
X90804299Y-88796626D01*
X90794446Y-88803934D01*
X90783925Y-88810240D01*
X90772835Y-88815485D01*
X90761286Y-88819618D01*
X90749386Y-88822598D01*
X90737252Y-88824398D01*
X90725000Y-88825000D01*
X90475000Y-88825000D01*
X90462748Y-88824398D01*
X90450614Y-88822598D01*
X90438714Y-88819618D01*
X90427165Y-88815485D01*
X90416075Y-88810240D01*
X90405554Y-88803934D01*
X90395701Y-88796626D01*
X90386612Y-88788388D01*
X90378374Y-88779299D01*
X90371066Y-88769446D01*
X90364760Y-88758925D01*
X90359515Y-88747835D01*
X90355382Y-88736286D01*
X90352402Y-88724386D01*
X90350602Y-88712252D01*
X90350000Y-88700000D01*
X90350000Y-87450000D01*
X90350602Y-87437748D01*
X90352402Y-87425614D01*
X90355382Y-87413714D01*
X90359515Y-87402165D01*
X90364760Y-87391075D01*
X90371066Y-87380554D01*
X90378374Y-87370701D01*
X90386612Y-87361612D01*
X90395701Y-87353374D01*
X90405554Y-87346066D01*
X90416075Y-87339760D01*
X90427165Y-87334515D01*
X90438714Y-87330382D01*
X90450614Y-87327402D01*
X90462748Y-87325602D01*
X90475000Y-87325000D01*
X90725000Y-87325000D01*
X90737252Y-87325602D01*
X90737252Y-87325602D01*
G37*
D18*
X90600000Y-88075000D03*
D11*
G36*
X91537252Y-87325602D02*
G01*
X91549386Y-87327402D01*
X91561286Y-87330382D01*
X91572835Y-87334515D01*
X91583925Y-87339760D01*
X91594446Y-87346066D01*
X91604299Y-87353374D01*
X91613388Y-87361612D01*
X91621626Y-87370701D01*
X91628934Y-87380554D01*
X91635240Y-87391075D01*
X91640485Y-87402165D01*
X91644618Y-87413714D01*
X91647598Y-87425614D01*
X91649398Y-87437748D01*
X91650000Y-87450000D01*
X91650000Y-88700000D01*
X91649398Y-88712252D01*
X91647598Y-88724386D01*
X91644618Y-88736286D01*
X91640485Y-88747835D01*
X91635240Y-88758925D01*
X91628934Y-88769446D01*
X91621626Y-88779299D01*
X91613388Y-88788388D01*
X91604299Y-88796626D01*
X91594446Y-88803934D01*
X91583925Y-88810240D01*
X91572835Y-88815485D01*
X91561286Y-88819618D01*
X91549386Y-88822598D01*
X91537252Y-88824398D01*
X91525000Y-88825000D01*
X91275000Y-88825000D01*
X91262748Y-88824398D01*
X91250614Y-88822598D01*
X91238714Y-88819618D01*
X91227165Y-88815485D01*
X91216075Y-88810240D01*
X91205554Y-88803934D01*
X91195701Y-88796626D01*
X91186612Y-88788388D01*
X91178374Y-88779299D01*
X91171066Y-88769446D01*
X91164760Y-88758925D01*
X91159515Y-88747835D01*
X91155382Y-88736286D01*
X91152402Y-88724386D01*
X91150602Y-88712252D01*
X91150000Y-88700000D01*
X91150000Y-87450000D01*
X91150602Y-87437748D01*
X91152402Y-87425614D01*
X91155382Y-87413714D01*
X91159515Y-87402165D01*
X91164760Y-87391075D01*
X91171066Y-87380554D01*
X91178374Y-87370701D01*
X91186612Y-87361612D01*
X91195701Y-87353374D01*
X91205554Y-87346066D01*
X91216075Y-87339760D01*
X91227165Y-87334515D01*
X91238714Y-87330382D01*
X91250614Y-87327402D01*
X91262748Y-87325602D01*
X91275000Y-87325000D01*
X91525000Y-87325000D01*
X91537252Y-87325602D01*
X91537252Y-87325602D01*
G37*
D18*
X91400000Y-88075000D03*
D11*
G36*
X92337252Y-87325602D02*
G01*
X92349386Y-87327402D01*
X92361286Y-87330382D01*
X92372835Y-87334515D01*
X92383925Y-87339760D01*
X92394446Y-87346066D01*
X92404299Y-87353374D01*
X92413388Y-87361612D01*
X92421626Y-87370701D01*
X92428934Y-87380554D01*
X92435240Y-87391075D01*
X92440485Y-87402165D01*
X92444618Y-87413714D01*
X92447598Y-87425614D01*
X92449398Y-87437748D01*
X92450000Y-87450000D01*
X92450000Y-88700000D01*
X92449398Y-88712252D01*
X92447598Y-88724386D01*
X92444618Y-88736286D01*
X92440485Y-88747835D01*
X92435240Y-88758925D01*
X92428934Y-88769446D01*
X92421626Y-88779299D01*
X92413388Y-88788388D01*
X92404299Y-88796626D01*
X92394446Y-88803934D01*
X92383925Y-88810240D01*
X92372835Y-88815485D01*
X92361286Y-88819618D01*
X92349386Y-88822598D01*
X92337252Y-88824398D01*
X92325000Y-88825000D01*
X92075000Y-88825000D01*
X92062748Y-88824398D01*
X92050614Y-88822598D01*
X92038714Y-88819618D01*
X92027165Y-88815485D01*
X92016075Y-88810240D01*
X92005554Y-88803934D01*
X91995701Y-88796626D01*
X91986612Y-88788388D01*
X91978374Y-88779299D01*
X91971066Y-88769446D01*
X91964760Y-88758925D01*
X91959515Y-88747835D01*
X91955382Y-88736286D01*
X91952402Y-88724386D01*
X91950602Y-88712252D01*
X91950000Y-88700000D01*
X91950000Y-87450000D01*
X91950602Y-87437748D01*
X91952402Y-87425614D01*
X91955382Y-87413714D01*
X91959515Y-87402165D01*
X91964760Y-87391075D01*
X91971066Y-87380554D01*
X91978374Y-87370701D01*
X91986612Y-87361612D01*
X91995701Y-87353374D01*
X92005554Y-87346066D01*
X92016075Y-87339760D01*
X92027165Y-87334515D01*
X92038714Y-87330382D01*
X92050614Y-87327402D01*
X92062748Y-87325602D01*
X92075000Y-87325000D01*
X92325000Y-87325000D01*
X92337252Y-87325602D01*
X92337252Y-87325602D01*
G37*
D18*
X92200000Y-88075000D03*
D11*
G36*
X93137252Y-87325602D02*
G01*
X93149386Y-87327402D01*
X93161286Y-87330382D01*
X93172835Y-87334515D01*
X93183925Y-87339760D01*
X93194446Y-87346066D01*
X93204299Y-87353374D01*
X93213388Y-87361612D01*
X93221626Y-87370701D01*
X93228934Y-87380554D01*
X93235240Y-87391075D01*
X93240485Y-87402165D01*
X93244618Y-87413714D01*
X93247598Y-87425614D01*
X93249398Y-87437748D01*
X93250000Y-87450000D01*
X93250000Y-88700000D01*
X93249398Y-88712252D01*
X93247598Y-88724386D01*
X93244618Y-88736286D01*
X93240485Y-88747835D01*
X93235240Y-88758925D01*
X93228934Y-88769446D01*
X93221626Y-88779299D01*
X93213388Y-88788388D01*
X93204299Y-88796626D01*
X93194446Y-88803934D01*
X93183925Y-88810240D01*
X93172835Y-88815485D01*
X93161286Y-88819618D01*
X93149386Y-88822598D01*
X93137252Y-88824398D01*
X93125000Y-88825000D01*
X92875000Y-88825000D01*
X92862748Y-88824398D01*
X92850614Y-88822598D01*
X92838714Y-88819618D01*
X92827165Y-88815485D01*
X92816075Y-88810240D01*
X92805554Y-88803934D01*
X92795701Y-88796626D01*
X92786612Y-88788388D01*
X92778374Y-88779299D01*
X92771066Y-88769446D01*
X92764760Y-88758925D01*
X92759515Y-88747835D01*
X92755382Y-88736286D01*
X92752402Y-88724386D01*
X92750602Y-88712252D01*
X92750000Y-88700000D01*
X92750000Y-87450000D01*
X92750602Y-87437748D01*
X92752402Y-87425614D01*
X92755382Y-87413714D01*
X92759515Y-87402165D01*
X92764760Y-87391075D01*
X92771066Y-87380554D01*
X92778374Y-87370701D01*
X92786612Y-87361612D01*
X92795701Y-87353374D01*
X92805554Y-87346066D01*
X92816075Y-87339760D01*
X92827165Y-87334515D01*
X92838714Y-87330382D01*
X92850614Y-87327402D01*
X92862748Y-87325602D01*
X92875000Y-87325000D01*
X93125000Y-87325000D01*
X93137252Y-87325602D01*
X93137252Y-87325602D01*
G37*
D18*
X93000000Y-88075000D03*
D11*
G36*
X93937252Y-87325602D02*
G01*
X93949386Y-87327402D01*
X93961286Y-87330382D01*
X93972835Y-87334515D01*
X93983925Y-87339760D01*
X93994446Y-87346066D01*
X94004299Y-87353374D01*
X94013388Y-87361612D01*
X94021626Y-87370701D01*
X94028934Y-87380554D01*
X94035240Y-87391075D01*
X94040485Y-87402165D01*
X94044618Y-87413714D01*
X94047598Y-87425614D01*
X94049398Y-87437748D01*
X94050000Y-87450000D01*
X94050000Y-88700000D01*
X94049398Y-88712252D01*
X94047598Y-88724386D01*
X94044618Y-88736286D01*
X94040485Y-88747835D01*
X94035240Y-88758925D01*
X94028934Y-88769446D01*
X94021626Y-88779299D01*
X94013388Y-88788388D01*
X94004299Y-88796626D01*
X93994446Y-88803934D01*
X93983925Y-88810240D01*
X93972835Y-88815485D01*
X93961286Y-88819618D01*
X93949386Y-88822598D01*
X93937252Y-88824398D01*
X93925000Y-88825000D01*
X93675000Y-88825000D01*
X93662748Y-88824398D01*
X93650614Y-88822598D01*
X93638714Y-88819618D01*
X93627165Y-88815485D01*
X93616075Y-88810240D01*
X93605554Y-88803934D01*
X93595701Y-88796626D01*
X93586612Y-88788388D01*
X93578374Y-88779299D01*
X93571066Y-88769446D01*
X93564760Y-88758925D01*
X93559515Y-88747835D01*
X93555382Y-88736286D01*
X93552402Y-88724386D01*
X93550602Y-88712252D01*
X93550000Y-88700000D01*
X93550000Y-87450000D01*
X93550602Y-87437748D01*
X93552402Y-87425614D01*
X93555382Y-87413714D01*
X93559515Y-87402165D01*
X93564760Y-87391075D01*
X93571066Y-87380554D01*
X93578374Y-87370701D01*
X93586612Y-87361612D01*
X93595701Y-87353374D01*
X93605554Y-87346066D01*
X93616075Y-87339760D01*
X93627165Y-87334515D01*
X93638714Y-87330382D01*
X93650614Y-87327402D01*
X93662748Y-87325602D01*
X93675000Y-87325000D01*
X93925000Y-87325000D01*
X93937252Y-87325602D01*
X93937252Y-87325602D01*
G37*
D18*
X93800000Y-88075000D03*
D11*
G36*
X95812252Y-89200602D02*
G01*
X95824386Y-89202402D01*
X95836286Y-89205382D01*
X95847835Y-89209515D01*
X95858925Y-89214760D01*
X95869446Y-89221066D01*
X95879299Y-89228374D01*
X95888388Y-89236612D01*
X95896626Y-89245701D01*
X95903934Y-89255554D01*
X95910240Y-89266075D01*
X95915485Y-89277165D01*
X95919618Y-89288714D01*
X95922598Y-89300614D01*
X95924398Y-89312748D01*
X95925000Y-89325000D01*
X95925000Y-89575000D01*
X95924398Y-89587252D01*
X95922598Y-89599386D01*
X95919618Y-89611286D01*
X95915485Y-89622835D01*
X95910240Y-89633925D01*
X95903934Y-89644446D01*
X95896626Y-89654299D01*
X95888388Y-89663388D01*
X95879299Y-89671626D01*
X95869446Y-89678934D01*
X95858925Y-89685240D01*
X95847835Y-89690485D01*
X95836286Y-89694618D01*
X95824386Y-89697598D01*
X95812252Y-89699398D01*
X95800000Y-89700000D01*
X94550000Y-89700000D01*
X94537748Y-89699398D01*
X94525614Y-89697598D01*
X94513714Y-89694618D01*
X94502165Y-89690485D01*
X94491075Y-89685240D01*
X94480554Y-89678934D01*
X94470701Y-89671626D01*
X94461612Y-89663388D01*
X94453374Y-89654299D01*
X94446066Y-89644446D01*
X94439760Y-89633925D01*
X94434515Y-89622835D01*
X94430382Y-89611286D01*
X94427402Y-89599386D01*
X94425602Y-89587252D01*
X94425000Y-89575000D01*
X94425000Y-89325000D01*
X94425602Y-89312748D01*
X94427402Y-89300614D01*
X94430382Y-89288714D01*
X94434515Y-89277165D01*
X94439760Y-89266075D01*
X94446066Y-89255554D01*
X94453374Y-89245701D01*
X94461612Y-89236612D01*
X94470701Y-89228374D01*
X94480554Y-89221066D01*
X94491075Y-89214760D01*
X94502165Y-89209515D01*
X94513714Y-89205382D01*
X94525614Y-89202402D01*
X94537748Y-89200602D01*
X94550000Y-89200000D01*
X95800000Y-89200000D01*
X95812252Y-89200602D01*
X95812252Y-89200602D01*
G37*
D18*
X95175000Y-89450000D03*
D11*
G36*
X95812252Y-90000602D02*
G01*
X95824386Y-90002402D01*
X95836286Y-90005382D01*
X95847835Y-90009515D01*
X95858925Y-90014760D01*
X95869446Y-90021066D01*
X95879299Y-90028374D01*
X95888388Y-90036612D01*
X95896626Y-90045701D01*
X95903934Y-90055554D01*
X95910240Y-90066075D01*
X95915485Y-90077165D01*
X95919618Y-90088714D01*
X95922598Y-90100614D01*
X95924398Y-90112748D01*
X95925000Y-90125000D01*
X95925000Y-90375000D01*
X95924398Y-90387252D01*
X95922598Y-90399386D01*
X95919618Y-90411286D01*
X95915485Y-90422835D01*
X95910240Y-90433925D01*
X95903934Y-90444446D01*
X95896626Y-90454299D01*
X95888388Y-90463388D01*
X95879299Y-90471626D01*
X95869446Y-90478934D01*
X95858925Y-90485240D01*
X95847835Y-90490485D01*
X95836286Y-90494618D01*
X95824386Y-90497598D01*
X95812252Y-90499398D01*
X95800000Y-90500000D01*
X94550000Y-90500000D01*
X94537748Y-90499398D01*
X94525614Y-90497598D01*
X94513714Y-90494618D01*
X94502165Y-90490485D01*
X94491075Y-90485240D01*
X94480554Y-90478934D01*
X94470701Y-90471626D01*
X94461612Y-90463388D01*
X94453374Y-90454299D01*
X94446066Y-90444446D01*
X94439760Y-90433925D01*
X94434515Y-90422835D01*
X94430382Y-90411286D01*
X94427402Y-90399386D01*
X94425602Y-90387252D01*
X94425000Y-90375000D01*
X94425000Y-90125000D01*
X94425602Y-90112748D01*
X94427402Y-90100614D01*
X94430382Y-90088714D01*
X94434515Y-90077165D01*
X94439760Y-90066075D01*
X94446066Y-90055554D01*
X94453374Y-90045701D01*
X94461612Y-90036612D01*
X94470701Y-90028374D01*
X94480554Y-90021066D01*
X94491075Y-90014760D01*
X94502165Y-90009515D01*
X94513714Y-90005382D01*
X94525614Y-90002402D01*
X94537748Y-90000602D01*
X94550000Y-90000000D01*
X95800000Y-90000000D01*
X95812252Y-90000602D01*
X95812252Y-90000602D01*
G37*
D18*
X95175000Y-90250000D03*
D11*
G36*
X95812252Y-90800602D02*
G01*
X95824386Y-90802402D01*
X95836286Y-90805382D01*
X95847835Y-90809515D01*
X95858925Y-90814760D01*
X95869446Y-90821066D01*
X95879299Y-90828374D01*
X95888388Y-90836612D01*
X95896626Y-90845701D01*
X95903934Y-90855554D01*
X95910240Y-90866075D01*
X95915485Y-90877165D01*
X95919618Y-90888714D01*
X95922598Y-90900614D01*
X95924398Y-90912748D01*
X95925000Y-90925000D01*
X95925000Y-91175000D01*
X95924398Y-91187252D01*
X95922598Y-91199386D01*
X95919618Y-91211286D01*
X95915485Y-91222835D01*
X95910240Y-91233925D01*
X95903934Y-91244446D01*
X95896626Y-91254299D01*
X95888388Y-91263388D01*
X95879299Y-91271626D01*
X95869446Y-91278934D01*
X95858925Y-91285240D01*
X95847835Y-91290485D01*
X95836286Y-91294618D01*
X95824386Y-91297598D01*
X95812252Y-91299398D01*
X95800000Y-91300000D01*
X94550000Y-91300000D01*
X94537748Y-91299398D01*
X94525614Y-91297598D01*
X94513714Y-91294618D01*
X94502165Y-91290485D01*
X94491075Y-91285240D01*
X94480554Y-91278934D01*
X94470701Y-91271626D01*
X94461612Y-91263388D01*
X94453374Y-91254299D01*
X94446066Y-91244446D01*
X94439760Y-91233925D01*
X94434515Y-91222835D01*
X94430382Y-91211286D01*
X94427402Y-91199386D01*
X94425602Y-91187252D01*
X94425000Y-91175000D01*
X94425000Y-90925000D01*
X94425602Y-90912748D01*
X94427402Y-90900614D01*
X94430382Y-90888714D01*
X94434515Y-90877165D01*
X94439760Y-90866075D01*
X94446066Y-90855554D01*
X94453374Y-90845701D01*
X94461612Y-90836612D01*
X94470701Y-90828374D01*
X94480554Y-90821066D01*
X94491075Y-90814760D01*
X94502165Y-90809515D01*
X94513714Y-90805382D01*
X94525614Y-90802402D01*
X94537748Y-90800602D01*
X94550000Y-90800000D01*
X95800000Y-90800000D01*
X95812252Y-90800602D01*
X95812252Y-90800602D01*
G37*
D18*
X95175000Y-91050000D03*
D11*
G36*
X95812252Y-91600602D02*
G01*
X95824386Y-91602402D01*
X95836286Y-91605382D01*
X95847835Y-91609515D01*
X95858925Y-91614760D01*
X95869446Y-91621066D01*
X95879299Y-91628374D01*
X95888388Y-91636612D01*
X95896626Y-91645701D01*
X95903934Y-91655554D01*
X95910240Y-91666075D01*
X95915485Y-91677165D01*
X95919618Y-91688714D01*
X95922598Y-91700614D01*
X95924398Y-91712748D01*
X95925000Y-91725000D01*
X95925000Y-91975000D01*
X95924398Y-91987252D01*
X95922598Y-91999386D01*
X95919618Y-92011286D01*
X95915485Y-92022835D01*
X95910240Y-92033925D01*
X95903934Y-92044446D01*
X95896626Y-92054299D01*
X95888388Y-92063388D01*
X95879299Y-92071626D01*
X95869446Y-92078934D01*
X95858925Y-92085240D01*
X95847835Y-92090485D01*
X95836286Y-92094618D01*
X95824386Y-92097598D01*
X95812252Y-92099398D01*
X95800000Y-92100000D01*
X94550000Y-92100000D01*
X94537748Y-92099398D01*
X94525614Y-92097598D01*
X94513714Y-92094618D01*
X94502165Y-92090485D01*
X94491075Y-92085240D01*
X94480554Y-92078934D01*
X94470701Y-92071626D01*
X94461612Y-92063388D01*
X94453374Y-92054299D01*
X94446066Y-92044446D01*
X94439760Y-92033925D01*
X94434515Y-92022835D01*
X94430382Y-92011286D01*
X94427402Y-91999386D01*
X94425602Y-91987252D01*
X94425000Y-91975000D01*
X94425000Y-91725000D01*
X94425602Y-91712748D01*
X94427402Y-91700614D01*
X94430382Y-91688714D01*
X94434515Y-91677165D01*
X94439760Y-91666075D01*
X94446066Y-91655554D01*
X94453374Y-91645701D01*
X94461612Y-91636612D01*
X94470701Y-91628374D01*
X94480554Y-91621066D01*
X94491075Y-91614760D01*
X94502165Y-91609515D01*
X94513714Y-91605382D01*
X94525614Y-91602402D01*
X94537748Y-91600602D01*
X94550000Y-91600000D01*
X95800000Y-91600000D01*
X95812252Y-91600602D01*
X95812252Y-91600602D01*
G37*
D18*
X95175000Y-91850000D03*
D11*
G36*
X95812252Y-92400602D02*
G01*
X95824386Y-92402402D01*
X95836286Y-92405382D01*
X95847835Y-92409515D01*
X95858925Y-92414760D01*
X95869446Y-92421066D01*
X95879299Y-92428374D01*
X95888388Y-92436612D01*
X95896626Y-92445701D01*
X95903934Y-92455554D01*
X95910240Y-92466075D01*
X95915485Y-92477165D01*
X95919618Y-92488714D01*
X95922598Y-92500614D01*
X95924398Y-92512748D01*
X95925000Y-92525000D01*
X95925000Y-92775000D01*
X95924398Y-92787252D01*
X95922598Y-92799386D01*
X95919618Y-92811286D01*
X95915485Y-92822835D01*
X95910240Y-92833925D01*
X95903934Y-92844446D01*
X95896626Y-92854299D01*
X95888388Y-92863388D01*
X95879299Y-92871626D01*
X95869446Y-92878934D01*
X95858925Y-92885240D01*
X95847835Y-92890485D01*
X95836286Y-92894618D01*
X95824386Y-92897598D01*
X95812252Y-92899398D01*
X95800000Y-92900000D01*
X94550000Y-92900000D01*
X94537748Y-92899398D01*
X94525614Y-92897598D01*
X94513714Y-92894618D01*
X94502165Y-92890485D01*
X94491075Y-92885240D01*
X94480554Y-92878934D01*
X94470701Y-92871626D01*
X94461612Y-92863388D01*
X94453374Y-92854299D01*
X94446066Y-92844446D01*
X94439760Y-92833925D01*
X94434515Y-92822835D01*
X94430382Y-92811286D01*
X94427402Y-92799386D01*
X94425602Y-92787252D01*
X94425000Y-92775000D01*
X94425000Y-92525000D01*
X94425602Y-92512748D01*
X94427402Y-92500614D01*
X94430382Y-92488714D01*
X94434515Y-92477165D01*
X94439760Y-92466075D01*
X94446066Y-92455554D01*
X94453374Y-92445701D01*
X94461612Y-92436612D01*
X94470701Y-92428374D01*
X94480554Y-92421066D01*
X94491075Y-92414760D01*
X94502165Y-92409515D01*
X94513714Y-92405382D01*
X94525614Y-92402402D01*
X94537748Y-92400602D01*
X94550000Y-92400000D01*
X95800000Y-92400000D01*
X95812252Y-92400602D01*
X95812252Y-92400602D01*
G37*
D18*
X95175000Y-92650000D03*
D11*
G36*
X95812252Y-93200602D02*
G01*
X95824386Y-93202402D01*
X95836286Y-93205382D01*
X95847835Y-93209515D01*
X95858925Y-93214760D01*
X95869446Y-93221066D01*
X95879299Y-93228374D01*
X95888388Y-93236612D01*
X95896626Y-93245701D01*
X95903934Y-93255554D01*
X95910240Y-93266075D01*
X95915485Y-93277165D01*
X95919618Y-93288714D01*
X95922598Y-93300614D01*
X95924398Y-93312748D01*
X95925000Y-93325000D01*
X95925000Y-93575000D01*
X95924398Y-93587252D01*
X95922598Y-93599386D01*
X95919618Y-93611286D01*
X95915485Y-93622835D01*
X95910240Y-93633925D01*
X95903934Y-93644446D01*
X95896626Y-93654299D01*
X95888388Y-93663388D01*
X95879299Y-93671626D01*
X95869446Y-93678934D01*
X95858925Y-93685240D01*
X95847835Y-93690485D01*
X95836286Y-93694618D01*
X95824386Y-93697598D01*
X95812252Y-93699398D01*
X95800000Y-93700000D01*
X94550000Y-93700000D01*
X94537748Y-93699398D01*
X94525614Y-93697598D01*
X94513714Y-93694618D01*
X94502165Y-93690485D01*
X94491075Y-93685240D01*
X94480554Y-93678934D01*
X94470701Y-93671626D01*
X94461612Y-93663388D01*
X94453374Y-93654299D01*
X94446066Y-93644446D01*
X94439760Y-93633925D01*
X94434515Y-93622835D01*
X94430382Y-93611286D01*
X94427402Y-93599386D01*
X94425602Y-93587252D01*
X94425000Y-93575000D01*
X94425000Y-93325000D01*
X94425602Y-93312748D01*
X94427402Y-93300614D01*
X94430382Y-93288714D01*
X94434515Y-93277165D01*
X94439760Y-93266075D01*
X94446066Y-93255554D01*
X94453374Y-93245701D01*
X94461612Y-93236612D01*
X94470701Y-93228374D01*
X94480554Y-93221066D01*
X94491075Y-93214760D01*
X94502165Y-93209515D01*
X94513714Y-93205382D01*
X94525614Y-93202402D01*
X94537748Y-93200602D01*
X94550000Y-93200000D01*
X95800000Y-93200000D01*
X95812252Y-93200602D01*
X95812252Y-93200602D01*
G37*
D18*
X95175000Y-93450000D03*
D11*
G36*
X95812252Y-94000602D02*
G01*
X95824386Y-94002402D01*
X95836286Y-94005382D01*
X95847835Y-94009515D01*
X95858925Y-94014760D01*
X95869446Y-94021066D01*
X95879299Y-94028374D01*
X95888388Y-94036612D01*
X95896626Y-94045701D01*
X95903934Y-94055554D01*
X95910240Y-94066075D01*
X95915485Y-94077165D01*
X95919618Y-94088714D01*
X95922598Y-94100614D01*
X95924398Y-94112748D01*
X95925000Y-94125000D01*
X95925000Y-94375000D01*
X95924398Y-94387252D01*
X95922598Y-94399386D01*
X95919618Y-94411286D01*
X95915485Y-94422835D01*
X95910240Y-94433925D01*
X95903934Y-94444446D01*
X95896626Y-94454299D01*
X95888388Y-94463388D01*
X95879299Y-94471626D01*
X95869446Y-94478934D01*
X95858925Y-94485240D01*
X95847835Y-94490485D01*
X95836286Y-94494618D01*
X95824386Y-94497598D01*
X95812252Y-94499398D01*
X95800000Y-94500000D01*
X94550000Y-94500000D01*
X94537748Y-94499398D01*
X94525614Y-94497598D01*
X94513714Y-94494618D01*
X94502165Y-94490485D01*
X94491075Y-94485240D01*
X94480554Y-94478934D01*
X94470701Y-94471626D01*
X94461612Y-94463388D01*
X94453374Y-94454299D01*
X94446066Y-94444446D01*
X94439760Y-94433925D01*
X94434515Y-94422835D01*
X94430382Y-94411286D01*
X94427402Y-94399386D01*
X94425602Y-94387252D01*
X94425000Y-94375000D01*
X94425000Y-94125000D01*
X94425602Y-94112748D01*
X94427402Y-94100614D01*
X94430382Y-94088714D01*
X94434515Y-94077165D01*
X94439760Y-94066075D01*
X94446066Y-94055554D01*
X94453374Y-94045701D01*
X94461612Y-94036612D01*
X94470701Y-94028374D01*
X94480554Y-94021066D01*
X94491075Y-94014760D01*
X94502165Y-94009515D01*
X94513714Y-94005382D01*
X94525614Y-94002402D01*
X94537748Y-94000602D01*
X94550000Y-94000000D01*
X95800000Y-94000000D01*
X95812252Y-94000602D01*
X95812252Y-94000602D01*
G37*
D18*
X95175000Y-94250000D03*
D11*
G36*
X95812252Y-94800602D02*
G01*
X95824386Y-94802402D01*
X95836286Y-94805382D01*
X95847835Y-94809515D01*
X95858925Y-94814760D01*
X95869446Y-94821066D01*
X95879299Y-94828374D01*
X95888388Y-94836612D01*
X95896626Y-94845701D01*
X95903934Y-94855554D01*
X95910240Y-94866075D01*
X95915485Y-94877165D01*
X95919618Y-94888714D01*
X95922598Y-94900614D01*
X95924398Y-94912748D01*
X95925000Y-94925000D01*
X95925000Y-95175000D01*
X95924398Y-95187252D01*
X95922598Y-95199386D01*
X95919618Y-95211286D01*
X95915485Y-95222835D01*
X95910240Y-95233925D01*
X95903934Y-95244446D01*
X95896626Y-95254299D01*
X95888388Y-95263388D01*
X95879299Y-95271626D01*
X95869446Y-95278934D01*
X95858925Y-95285240D01*
X95847835Y-95290485D01*
X95836286Y-95294618D01*
X95824386Y-95297598D01*
X95812252Y-95299398D01*
X95800000Y-95300000D01*
X94550000Y-95300000D01*
X94537748Y-95299398D01*
X94525614Y-95297598D01*
X94513714Y-95294618D01*
X94502165Y-95290485D01*
X94491075Y-95285240D01*
X94480554Y-95278934D01*
X94470701Y-95271626D01*
X94461612Y-95263388D01*
X94453374Y-95254299D01*
X94446066Y-95244446D01*
X94439760Y-95233925D01*
X94434515Y-95222835D01*
X94430382Y-95211286D01*
X94427402Y-95199386D01*
X94425602Y-95187252D01*
X94425000Y-95175000D01*
X94425000Y-94925000D01*
X94425602Y-94912748D01*
X94427402Y-94900614D01*
X94430382Y-94888714D01*
X94434515Y-94877165D01*
X94439760Y-94866075D01*
X94446066Y-94855554D01*
X94453374Y-94845701D01*
X94461612Y-94836612D01*
X94470701Y-94828374D01*
X94480554Y-94821066D01*
X94491075Y-94814760D01*
X94502165Y-94809515D01*
X94513714Y-94805382D01*
X94525614Y-94802402D01*
X94537748Y-94800602D01*
X94550000Y-94800000D01*
X95800000Y-94800000D01*
X95812252Y-94800602D01*
X95812252Y-94800602D01*
G37*
D18*
X95175000Y-95050000D03*
D11*
G36*
X87827691Y-105551053D02*
G01*
X87848926Y-105554203D01*
X87869750Y-105559419D01*
X87889962Y-105566651D01*
X87909368Y-105575830D01*
X87927781Y-105586866D01*
X87945024Y-105599654D01*
X87960930Y-105614070D01*
X87975346Y-105629976D01*
X87988134Y-105647219D01*
X87999170Y-105665632D01*
X88008349Y-105685038D01*
X88015581Y-105705250D01*
X88020797Y-105726074D01*
X88023947Y-105747309D01*
X88025000Y-105768750D01*
X88025000Y-106206250D01*
X88023947Y-106227691D01*
X88020797Y-106248926D01*
X88015581Y-106269750D01*
X88008349Y-106289962D01*
X87999170Y-106309368D01*
X87988134Y-106327781D01*
X87975346Y-106345024D01*
X87960930Y-106360930D01*
X87945024Y-106375346D01*
X87927781Y-106388134D01*
X87909368Y-106399170D01*
X87889962Y-106408349D01*
X87869750Y-106415581D01*
X87848926Y-106420797D01*
X87827691Y-106423947D01*
X87806250Y-106425000D01*
X87293750Y-106425000D01*
X87272309Y-106423947D01*
X87251074Y-106420797D01*
X87230250Y-106415581D01*
X87210038Y-106408349D01*
X87190632Y-106399170D01*
X87172219Y-106388134D01*
X87154976Y-106375346D01*
X87139070Y-106360930D01*
X87124654Y-106345024D01*
X87111866Y-106327781D01*
X87100830Y-106309368D01*
X87091651Y-106289962D01*
X87084419Y-106269750D01*
X87079203Y-106248926D01*
X87076053Y-106227691D01*
X87075000Y-106206250D01*
X87075000Y-105768750D01*
X87076053Y-105747309D01*
X87079203Y-105726074D01*
X87084419Y-105705250D01*
X87091651Y-105685038D01*
X87100830Y-105665632D01*
X87111866Y-105647219D01*
X87124654Y-105629976D01*
X87139070Y-105614070D01*
X87154976Y-105599654D01*
X87172219Y-105586866D01*
X87190632Y-105575830D01*
X87210038Y-105566651D01*
X87230250Y-105559419D01*
X87251074Y-105554203D01*
X87272309Y-105551053D01*
X87293750Y-105550000D01*
X87806250Y-105550000D01*
X87827691Y-105551053D01*
X87827691Y-105551053D01*
G37*
D12*
X87550000Y-105987500D03*
D11*
G36*
X87827691Y-103976053D02*
G01*
X87848926Y-103979203D01*
X87869750Y-103984419D01*
X87889962Y-103991651D01*
X87909368Y-104000830D01*
X87927781Y-104011866D01*
X87945024Y-104024654D01*
X87960930Y-104039070D01*
X87975346Y-104054976D01*
X87988134Y-104072219D01*
X87999170Y-104090632D01*
X88008349Y-104110038D01*
X88015581Y-104130250D01*
X88020797Y-104151074D01*
X88023947Y-104172309D01*
X88025000Y-104193750D01*
X88025000Y-104631250D01*
X88023947Y-104652691D01*
X88020797Y-104673926D01*
X88015581Y-104694750D01*
X88008349Y-104714962D01*
X87999170Y-104734368D01*
X87988134Y-104752781D01*
X87975346Y-104770024D01*
X87960930Y-104785930D01*
X87945024Y-104800346D01*
X87927781Y-104813134D01*
X87909368Y-104824170D01*
X87889962Y-104833349D01*
X87869750Y-104840581D01*
X87848926Y-104845797D01*
X87827691Y-104848947D01*
X87806250Y-104850000D01*
X87293750Y-104850000D01*
X87272309Y-104848947D01*
X87251074Y-104845797D01*
X87230250Y-104840581D01*
X87210038Y-104833349D01*
X87190632Y-104824170D01*
X87172219Y-104813134D01*
X87154976Y-104800346D01*
X87139070Y-104785930D01*
X87124654Y-104770024D01*
X87111866Y-104752781D01*
X87100830Y-104734368D01*
X87091651Y-104714962D01*
X87084419Y-104694750D01*
X87079203Y-104673926D01*
X87076053Y-104652691D01*
X87075000Y-104631250D01*
X87075000Y-104193750D01*
X87076053Y-104172309D01*
X87079203Y-104151074D01*
X87084419Y-104130250D01*
X87091651Y-104110038D01*
X87100830Y-104090632D01*
X87111866Y-104072219D01*
X87124654Y-104054976D01*
X87139070Y-104039070D01*
X87154976Y-104024654D01*
X87172219Y-104011866D01*
X87190632Y-104000830D01*
X87210038Y-103991651D01*
X87230250Y-103984419D01*
X87251074Y-103979203D01*
X87272309Y-103976053D01*
X87293750Y-103975000D01*
X87806250Y-103975000D01*
X87827691Y-103976053D01*
X87827691Y-103976053D01*
G37*
D12*
X87550000Y-104412500D03*
D11*
G36*
X83027691Y-95776053D02*
G01*
X83048926Y-95779203D01*
X83069750Y-95784419D01*
X83089962Y-95791651D01*
X83109368Y-95800830D01*
X83127781Y-95811866D01*
X83145024Y-95824654D01*
X83160930Y-95839070D01*
X83175346Y-95854976D01*
X83188134Y-95872219D01*
X83199170Y-95890632D01*
X83208349Y-95910038D01*
X83215581Y-95930250D01*
X83220797Y-95951074D01*
X83223947Y-95972309D01*
X83225000Y-95993750D01*
X83225000Y-96506250D01*
X83223947Y-96527691D01*
X83220797Y-96548926D01*
X83215581Y-96569750D01*
X83208349Y-96589962D01*
X83199170Y-96609368D01*
X83188134Y-96627781D01*
X83175346Y-96645024D01*
X83160930Y-96660930D01*
X83145024Y-96675346D01*
X83127781Y-96688134D01*
X83109368Y-96699170D01*
X83089962Y-96708349D01*
X83069750Y-96715581D01*
X83048926Y-96720797D01*
X83027691Y-96723947D01*
X83006250Y-96725000D01*
X82568750Y-96725000D01*
X82547309Y-96723947D01*
X82526074Y-96720797D01*
X82505250Y-96715581D01*
X82485038Y-96708349D01*
X82465632Y-96699170D01*
X82447219Y-96688134D01*
X82429976Y-96675346D01*
X82414070Y-96660930D01*
X82399654Y-96645024D01*
X82386866Y-96627781D01*
X82375830Y-96609368D01*
X82366651Y-96589962D01*
X82359419Y-96569750D01*
X82354203Y-96548926D01*
X82351053Y-96527691D01*
X82350000Y-96506250D01*
X82350000Y-95993750D01*
X82351053Y-95972309D01*
X82354203Y-95951074D01*
X82359419Y-95930250D01*
X82366651Y-95910038D01*
X82375830Y-95890632D01*
X82386866Y-95872219D01*
X82399654Y-95854976D01*
X82414070Y-95839070D01*
X82429976Y-95824654D01*
X82447219Y-95811866D01*
X82465632Y-95800830D01*
X82485038Y-95791651D01*
X82505250Y-95784419D01*
X82526074Y-95779203D01*
X82547309Y-95776053D01*
X82568750Y-95775000D01*
X83006250Y-95775000D01*
X83027691Y-95776053D01*
X83027691Y-95776053D01*
G37*
D12*
X82787500Y-96250000D03*
D11*
G36*
X81452691Y-95776053D02*
G01*
X81473926Y-95779203D01*
X81494750Y-95784419D01*
X81514962Y-95791651D01*
X81534368Y-95800830D01*
X81552781Y-95811866D01*
X81570024Y-95824654D01*
X81585930Y-95839070D01*
X81600346Y-95854976D01*
X81613134Y-95872219D01*
X81624170Y-95890632D01*
X81633349Y-95910038D01*
X81640581Y-95930250D01*
X81645797Y-95951074D01*
X81648947Y-95972309D01*
X81650000Y-95993750D01*
X81650000Y-96506250D01*
X81648947Y-96527691D01*
X81645797Y-96548926D01*
X81640581Y-96569750D01*
X81633349Y-96589962D01*
X81624170Y-96609368D01*
X81613134Y-96627781D01*
X81600346Y-96645024D01*
X81585930Y-96660930D01*
X81570024Y-96675346D01*
X81552781Y-96688134D01*
X81534368Y-96699170D01*
X81514962Y-96708349D01*
X81494750Y-96715581D01*
X81473926Y-96720797D01*
X81452691Y-96723947D01*
X81431250Y-96725000D01*
X80993750Y-96725000D01*
X80972309Y-96723947D01*
X80951074Y-96720797D01*
X80930250Y-96715581D01*
X80910038Y-96708349D01*
X80890632Y-96699170D01*
X80872219Y-96688134D01*
X80854976Y-96675346D01*
X80839070Y-96660930D01*
X80824654Y-96645024D01*
X80811866Y-96627781D01*
X80800830Y-96609368D01*
X80791651Y-96589962D01*
X80784419Y-96569750D01*
X80779203Y-96548926D01*
X80776053Y-96527691D01*
X80775000Y-96506250D01*
X80775000Y-95993750D01*
X80776053Y-95972309D01*
X80779203Y-95951074D01*
X80784419Y-95930250D01*
X80791651Y-95910038D01*
X80800830Y-95890632D01*
X80811866Y-95872219D01*
X80824654Y-95854976D01*
X80839070Y-95839070D01*
X80854976Y-95824654D01*
X80872219Y-95811866D01*
X80890632Y-95800830D01*
X80910038Y-95791651D01*
X80930250Y-95784419D01*
X80951074Y-95779203D01*
X80972309Y-95776053D01*
X80993750Y-95775000D01*
X81431250Y-95775000D01*
X81452691Y-95776053D01*
X81452691Y-95776053D01*
G37*
D12*
X81212500Y-96250000D03*
D11*
G36*
X97477691Y-95376053D02*
G01*
X97498926Y-95379203D01*
X97519750Y-95384419D01*
X97539962Y-95391651D01*
X97559368Y-95400830D01*
X97577781Y-95411866D01*
X97595024Y-95424654D01*
X97610930Y-95439070D01*
X97625346Y-95454976D01*
X97638134Y-95472219D01*
X97649170Y-95490632D01*
X97658349Y-95510038D01*
X97665581Y-95530250D01*
X97670797Y-95551074D01*
X97673947Y-95572309D01*
X97675000Y-95593750D01*
X97675000Y-96031250D01*
X97673947Y-96052691D01*
X97670797Y-96073926D01*
X97665581Y-96094750D01*
X97658349Y-96114962D01*
X97649170Y-96134368D01*
X97638134Y-96152781D01*
X97625346Y-96170024D01*
X97610930Y-96185930D01*
X97595024Y-96200346D01*
X97577781Y-96213134D01*
X97559368Y-96224170D01*
X97539962Y-96233349D01*
X97519750Y-96240581D01*
X97498926Y-96245797D01*
X97477691Y-96248947D01*
X97456250Y-96250000D01*
X96943750Y-96250000D01*
X96922309Y-96248947D01*
X96901074Y-96245797D01*
X96880250Y-96240581D01*
X96860038Y-96233349D01*
X96840632Y-96224170D01*
X96822219Y-96213134D01*
X96804976Y-96200346D01*
X96789070Y-96185930D01*
X96774654Y-96170024D01*
X96761866Y-96152781D01*
X96750830Y-96134368D01*
X96741651Y-96114962D01*
X96734419Y-96094750D01*
X96729203Y-96073926D01*
X96726053Y-96052691D01*
X96725000Y-96031250D01*
X96725000Y-95593750D01*
X96726053Y-95572309D01*
X96729203Y-95551074D01*
X96734419Y-95530250D01*
X96741651Y-95510038D01*
X96750830Y-95490632D01*
X96761866Y-95472219D01*
X96774654Y-95454976D01*
X96789070Y-95439070D01*
X96804976Y-95424654D01*
X96822219Y-95411866D01*
X96840632Y-95400830D01*
X96860038Y-95391651D01*
X96880250Y-95384419D01*
X96901074Y-95379203D01*
X96922309Y-95376053D01*
X96943750Y-95375000D01*
X97456250Y-95375000D01*
X97477691Y-95376053D01*
X97477691Y-95376053D01*
G37*
D12*
X97200000Y-95812500D03*
D11*
G36*
X97477691Y-96951053D02*
G01*
X97498926Y-96954203D01*
X97519750Y-96959419D01*
X97539962Y-96966651D01*
X97559368Y-96975830D01*
X97577781Y-96986866D01*
X97595024Y-96999654D01*
X97610930Y-97014070D01*
X97625346Y-97029976D01*
X97638134Y-97047219D01*
X97649170Y-97065632D01*
X97658349Y-97085038D01*
X97665581Y-97105250D01*
X97670797Y-97126074D01*
X97673947Y-97147309D01*
X97675000Y-97168750D01*
X97675000Y-97606250D01*
X97673947Y-97627691D01*
X97670797Y-97648926D01*
X97665581Y-97669750D01*
X97658349Y-97689962D01*
X97649170Y-97709368D01*
X97638134Y-97727781D01*
X97625346Y-97745024D01*
X97610930Y-97760930D01*
X97595024Y-97775346D01*
X97577781Y-97788134D01*
X97559368Y-97799170D01*
X97539962Y-97808349D01*
X97519750Y-97815581D01*
X97498926Y-97820797D01*
X97477691Y-97823947D01*
X97456250Y-97825000D01*
X96943750Y-97825000D01*
X96922309Y-97823947D01*
X96901074Y-97820797D01*
X96880250Y-97815581D01*
X96860038Y-97808349D01*
X96840632Y-97799170D01*
X96822219Y-97788134D01*
X96804976Y-97775346D01*
X96789070Y-97760930D01*
X96774654Y-97745024D01*
X96761866Y-97727781D01*
X96750830Y-97709368D01*
X96741651Y-97689962D01*
X96734419Y-97669750D01*
X96729203Y-97648926D01*
X96726053Y-97627691D01*
X96725000Y-97606250D01*
X96725000Y-97168750D01*
X96726053Y-97147309D01*
X96729203Y-97126074D01*
X96734419Y-97105250D01*
X96741651Y-97085038D01*
X96750830Y-97065632D01*
X96761866Y-97047219D01*
X96774654Y-97029976D01*
X96789070Y-97014070D01*
X96804976Y-96999654D01*
X96822219Y-96986866D01*
X96840632Y-96975830D01*
X96860038Y-96966651D01*
X96880250Y-96959419D01*
X96901074Y-96954203D01*
X96922309Y-96951053D01*
X96943750Y-96950000D01*
X97456250Y-96950000D01*
X97477691Y-96951053D01*
X97477691Y-96951053D01*
G37*
D12*
X97200000Y-97387500D03*
D11*
G36*
X99227691Y-90726053D02*
G01*
X99248926Y-90729203D01*
X99269750Y-90734419D01*
X99289962Y-90741651D01*
X99309368Y-90750830D01*
X99327781Y-90761866D01*
X99345024Y-90774654D01*
X99360930Y-90789070D01*
X99375346Y-90804976D01*
X99388134Y-90822219D01*
X99399170Y-90840632D01*
X99408349Y-90860038D01*
X99415581Y-90880250D01*
X99420797Y-90901074D01*
X99423947Y-90922309D01*
X99425000Y-90943750D01*
X99425000Y-91456250D01*
X99423947Y-91477691D01*
X99420797Y-91498926D01*
X99415581Y-91519750D01*
X99408349Y-91539962D01*
X99399170Y-91559368D01*
X99388134Y-91577781D01*
X99375346Y-91595024D01*
X99360930Y-91610930D01*
X99345024Y-91625346D01*
X99327781Y-91638134D01*
X99309368Y-91649170D01*
X99289962Y-91658349D01*
X99269750Y-91665581D01*
X99248926Y-91670797D01*
X99227691Y-91673947D01*
X99206250Y-91675000D01*
X98768750Y-91675000D01*
X98747309Y-91673947D01*
X98726074Y-91670797D01*
X98705250Y-91665581D01*
X98685038Y-91658349D01*
X98665632Y-91649170D01*
X98647219Y-91638134D01*
X98629976Y-91625346D01*
X98614070Y-91610930D01*
X98599654Y-91595024D01*
X98586866Y-91577781D01*
X98575830Y-91559368D01*
X98566651Y-91539962D01*
X98559419Y-91519750D01*
X98554203Y-91498926D01*
X98551053Y-91477691D01*
X98550000Y-91456250D01*
X98550000Y-90943750D01*
X98551053Y-90922309D01*
X98554203Y-90901074D01*
X98559419Y-90880250D01*
X98566651Y-90860038D01*
X98575830Y-90840632D01*
X98586866Y-90822219D01*
X98599654Y-90804976D01*
X98614070Y-90789070D01*
X98629976Y-90774654D01*
X98647219Y-90761866D01*
X98665632Y-90750830D01*
X98685038Y-90741651D01*
X98705250Y-90734419D01*
X98726074Y-90729203D01*
X98747309Y-90726053D01*
X98768750Y-90725000D01*
X99206250Y-90725000D01*
X99227691Y-90726053D01*
X99227691Y-90726053D01*
G37*
D12*
X98987500Y-91200000D03*
D11*
G36*
X97652691Y-90726053D02*
G01*
X97673926Y-90729203D01*
X97694750Y-90734419D01*
X97714962Y-90741651D01*
X97734368Y-90750830D01*
X97752781Y-90761866D01*
X97770024Y-90774654D01*
X97785930Y-90789070D01*
X97800346Y-90804976D01*
X97813134Y-90822219D01*
X97824170Y-90840632D01*
X97833349Y-90860038D01*
X97840581Y-90880250D01*
X97845797Y-90901074D01*
X97848947Y-90922309D01*
X97850000Y-90943750D01*
X97850000Y-91456250D01*
X97848947Y-91477691D01*
X97845797Y-91498926D01*
X97840581Y-91519750D01*
X97833349Y-91539962D01*
X97824170Y-91559368D01*
X97813134Y-91577781D01*
X97800346Y-91595024D01*
X97785930Y-91610930D01*
X97770024Y-91625346D01*
X97752781Y-91638134D01*
X97734368Y-91649170D01*
X97714962Y-91658349D01*
X97694750Y-91665581D01*
X97673926Y-91670797D01*
X97652691Y-91673947D01*
X97631250Y-91675000D01*
X97193750Y-91675000D01*
X97172309Y-91673947D01*
X97151074Y-91670797D01*
X97130250Y-91665581D01*
X97110038Y-91658349D01*
X97090632Y-91649170D01*
X97072219Y-91638134D01*
X97054976Y-91625346D01*
X97039070Y-91610930D01*
X97024654Y-91595024D01*
X97011866Y-91577781D01*
X97000830Y-91559368D01*
X96991651Y-91539962D01*
X96984419Y-91519750D01*
X96979203Y-91498926D01*
X96976053Y-91477691D01*
X96975000Y-91456250D01*
X96975000Y-90943750D01*
X96976053Y-90922309D01*
X96979203Y-90901074D01*
X96984419Y-90880250D01*
X96991651Y-90860038D01*
X97000830Y-90840632D01*
X97011866Y-90822219D01*
X97024654Y-90804976D01*
X97039070Y-90789070D01*
X97054976Y-90774654D01*
X97072219Y-90761866D01*
X97090632Y-90750830D01*
X97110038Y-90741651D01*
X97130250Y-90734419D01*
X97151074Y-90729203D01*
X97172309Y-90726053D01*
X97193750Y-90725000D01*
X97631250Y-90725000D01*
X97652691Y-90726053D01*
X97652691Y-90726053D01*
G37*
D12*
X97412500Y-91200000D03*
D19*
X71400000Y-97450000D03*
X76850000Y-97450000D03*
X71400000Y-88550000D03*
X76850000Y-88550000D03*
D20*
X76950000Y-94600000D03*
X76950000Y-93800000D03*
X76950000Y-93000000D03*
X76950000Y-92200000D03*
X76950000Y-91400000D03*
D11*
G36*
X113877691Y-81601053D02*
G01*
X113898926Y-81604203D01*
X113919750Y-81609419D01*
X113939962Y-81616651D01*
X113959368Y-81625830D01*
X113977781Y-81636866D01*
X113995024Y-81649654D01*
X114010930Y-81664070D01*
X114025346Y-81679976D01*
X114038134Y-81697219D01*
X114049170Y-81715632D01*
X114058349Y-81735038D01*
X114065581Y-81755250D01*
X114070797Y-81776074D01*
X114073947Y-81797309D01*
X114075000Y-81818750D01*
X114075000Y-82256250D01*
X114073947Y-82277691D01*
X114070797Y-82298926D01*
X114065581Y-82319750D01*
X114058349Y-82339962D01*
X114049170Y-82359368D01*
X114038134Y-82377781D01*
X114025346Y-82395024D01*
X114010930Y-82410930D01*
X113995024Y-82425346D01*
X113977781Y-82438134D01*
X113959368Y-82449170D01*
X113939962Y-82458349D01*
X113919750Y-82465581D01*
X113898926Y-82470797D01*
X113877691Y-82473947D01*
X113856250Y-82475000D01*
X113343750Y-82475000D01*
X113322309Y-82473947D01*
X113301074Y-82470797D01*
X113280250Y-82465581D01*
X113260038Y-82458349D01*
X113240632Y-82449170D01*
X113222219Y-82438134D01*
X113204976Y-82425346D01*
X113189070Y-82410930D01*
X113174654Y-82395024D01*
X113161866Y-82377781D01*
X113150830Y-82359368D01*
X113141651Y-82339962D01*
X113134419Y-82319750D01*
X113129203Y-82298926D01*
X113126053Y-82277691D01*
X113125000Y-82256250D01*
X113125000Y-81818750D01*
X113126053Y-81797309D01*
X113129203Y-81776074D01*
X113134419Y-81755250D01*
X113141651Y-81735038D01*
X113150830Y-81715632D01*
X113161866Y-81697219D01*
X113174654Y-81679976D01*
X113189070Y-81664070D01*
X113204976Y-81649654D01*
X113222219Y-81636866D01*
X113240632Y-81625830D01*
X113260038Y-81616651D01*
X113280250Y-81609419D01*
X113301074Y-81604203D01*
X113322309Y-81601053D01*
X113343750Y-81600000D01*
X113856250Y-81600000D01*
X113877691Y-81601053D01*
X113877691Y-81601053D01*
G37*
D12*
X113600000Y-82037500D03*
D11*
G36*
X113877691Y-80026053D02*
G01*
X113898926Y-80029203D01*
X113919750Y-80034419D01*
X113939962Y-80041651D01*
X113959368Y-80050830D01*
X113977781Y-80061866D01*
X113995024Y-80074654D01*
X114010930Y-80089070D01*
X114025346Y-80104976D01*
X114038134Y-80122219D01*
X114049170Y-80140632D01*
X114058349Y-80160038D01*
X114065581Y-80180250D01*
X114070797Y-80201074D01*
X114073947Y-80222309D01*
X114075000Y-80243750D01*
X114075000Y-80681250D01*
X114073947Y-80702691D01*
X114070797Y-80723926D01*
X114065581Y-80744750D01*
X114058349Y-80764962D01*
X114049170Y-80784368D01*
X114038134Y-80802781D01*
X114025346Y-80820024D01*
X114010930Y-80835930D01*
X113995024Y-80850346D01*
X113977781Y-80863134D01*
X113959368Y-80874170D01*
X113939962Y-80883349D01*
X113919750Y-80890581D01*
X113898926Y-80895797D01*
X113877691Y-80898947D01*
X113856250Y-80900000D01*
X113343750Y-80900000D01*
X113322309Y-80898947D01*
X113301074Y-80895797D01*
X113280250Y-80890581D01*
X113260038Y-80883349D01*
X113240632Y-80874170D01*
X113222219Y-80863134D01*
X113204976Y-80850346D01*
X113189070Y-80835930D01*
X113174654Y-80820024D01*
X113161866Y-80802781D01*
X113150830Y-80784368D01*
X113141651Y-80764962D01*
X113134419Y-80744750D01*
X113129203Y-80723926D01*
X113126053Y-80702691D01*
X113125000Y-80681250D01*
X113125000Y-80243750D01*
X113126053Y-80222309D01*
X113129203Y-80201074D01*
X113134419Y-80180250D01*
X113141651Y-80160038D01*
X113150830Y-80140632D01*
X113161866Y-80122219D01*
X113174654Y-80104976D01*
X113189070Y-80089070D01*
X113204976Y-80074654D01*
X113222219Y-80061866D01*
X113240632Y-80050830D01*
X113260038Y-80041651D01*
X113280250Y-80034419D01*
X113301074Y-80029203D01*
X113322309Y-80026053D01*
X113343750Y-80025000D01*
X113856250Y-80025000D01*
X113877691Y-80026053D01*
X113877691Y-80026053D01*
G37*
D12*
X113600000Y-80462500D03*
D11*
G36*
X94577691Y-109476053D02*
G01*
X94598926Y-109479203D01*
X94619750Y-109484419D01*
X94639962Y-109491651D01*
X94659368Y-109500830D01*
X94677781Y-109511866D01*
X94695024Y-109524654D01*
X94710930Y-109539070D01*
X94725346Y-109554976D01*
X94738134Y-109572219D01*
X94749170Y-109590632D01*
X94758349Y-109610038D01*
X94765581Y-109630250D01*
X94770797Y-109651074D01*
X94773947Y-109672309D01*
X94775000Y-109693750D01*
X94775000Y-110206250D01*
X94773947Y-110227691D01*
X94770797Y-110248926D01*
X94765581Y-110269750D01*
X94758349Y-110289962D01*
X94749170Y-110309368D01*
X94738134Y-110327781D01*
X94725346Y-110345024D01*
X94710930Y-110360930D01*
X94695024Y-110375346D01*
X94677781Y-110388134D01*
X94659368Y-110399170D01*
X94639962Y-110408349D01*
X94619750Y-110415581D01*
X94598926Y-110420797D01*
X94577691Y-110423947D01*
X94556250Y-110425000D01*
X94118750Y-110425000D01*
X94097309Y-110423947D01*
X94076074Y-110420797D01*
X94055250Y-110415581D01*
X94035038Y-110408349D01*
X94015632Y-110399170D01*
X93997219Y-110388134D01*
X93979976Y-110375346D01*
X93964070Y-110360930D01*
X93949654Y-110345024D01*
X93936866Y-110327781D01*
X93925830Y-110309368D01*
X93916651Y-110289962D01*
X93909419Y-110269750D01*
X93904203Y-110248926D01*
X93901053Y-110227691D01*
X93900000Y-110206250D01*
X93900000Y-109693750D01*
X93901053Y-109672309D01*
X93904203Y-109651074D01*
X93909419Y-109630250D01*
X93916651Y-109610038D01*
X93925830Y-109590632D01*
X93936866Y-109572219D01*
X93949654Y-109554976D01*
X93964070Y-109539070D01*
X93979976Y-109524654D01*
X93997219Y-109511866D01*
X94015632Y-109500830D01*
X94035038Y-109491651D01*
X94055250Y-109484419D01*
X94076074Y-109479203D01*
X94097309Y-109476053D01*
X94118750Y-109475000D01*
X94556250Y-109475000D01*
X94577691Y-109476053D01*
X94577691Y-109476053D01*
G37*
D12*
X94337500Y-109950000D03*
D11*
G36*
X93002691Y-109476053D02*
G01*
X93023926Y-109479203D01*
X93044750Y-109484419D01*
X93064962Y-109491651D01*
X93084368Y-109500830D01*
X93102781Y-109511866D01*
X93120024Y-109524654D01*
X93135930Y-109539070D01*
X93150346Y-109554976D01*
X93163134Y-109572219D01*
X93174170Y-109590632D01*
X93183349Y-109610038D01*
X93190581Y-109630250D01*
X93195797Y-109651074D01*
X93198947Y-109672309D01*
X93200000Y-109693750D01*
X93200000Y-110206250D01*
X93198947Y-110227691D01*
X93195797Y-110248926D01*
X93190581Y-110269750D01*
X93183349Y-110289962D01*
X93174170Y-110309368D01*
X93163134Y-110327781D01*
X93150346Y-110345024D01*
X93135930Y-110360930D01*
X93120024Y-110375346D01*
X93102781Y-110388134D01*
X93084368Y-110399170D01*
X93064962Y-110408349D01*
X93044750Y-110415581D01*
X93023926Y-110420797D01*
X93002691Y-110423947D01*
X92981250Y-110425000D01*
X92543750Y-110425000D01*
X92522309Y-110423947D01*
X92501074Y-110420797D01*
X92480250Y-110415581D01*
X92460038Y-110408349D01*
X92440632Y-110399170D01*
X92422219Y-110388134D01*
X92404976Y-110375346D01*
X92389070Y-110360930D01*
X92374654Y-110345024D01*
X92361866Y-110327781D01*
X92350830Y-110309368D01*
X92341651Y-110289962D01*
X92334419Y-110269750D01*
X92329203Y-110248926D01*
X92326053Y-110227691D01*
X92325000Y-110206250D01*
X92325000Y-109693750D01*
X92326053Y-109672309D01*
X92329203Y-109651074D01*
X92334419Y-109630250D01*
X92341651Y-109610038D01*
X92350830Y-109590632D01*
X92361866Y-109572219D01*
X92374654Y-109554976D01*
X92389070Y-109539070D01*
X92404976Y-109524654D01*
X92422219Y-109511866D01*
X92440632Y-109500830D01*
X92460038Y-109491651D01*
X92480250Y-109484419D01*
X92501074Y-109479203D01*
X92522309Y-109476053D01*
X92543750Y-109475000D01*
X92981250Y-109475000D01*
X93002691Y-109476053D01*
X93002691Y-109476053D01*
G37*
D12*
X92762500Y-109950000D03*
D11*
G36*
X86777691Y-87351053D02*
G01*
X86798926Y-87354203D01*
X86819750Y-87359419D01*
X86839962Y-87366651D01*
X86859368Y-87375830D01*
X86877781Y-87386866D01*
X86895024Y-87399654D01*
X86910930Y-87414070D01*
X86925346Y-87429976D01*
X86938134Y-87447219D01*
X86949170Y-87465632D01*
X86958349Y-87485038D01*
X86965581Y-87505250D01*
X86970797Y-87526074D01*
X86973947Y-87547309D01*
X86975000Y-87568750D01*
X86975000Y-88006250D01*
X86973947Y-88027691D01*
X86970797Y-88048926D01*
X86965581Y-88069750D01*
X86958349Y-88089962D01*
X86949170Y-88109368D01*
X86938134Y-88127781D01*
X86925346Y-88145024D01*
X86910930Y-88160930D01*
X86895024Y-88175346D01*
X86877781Y-88188134D01*
X86859368Y-88199170D01*
X86839962Y-88208349D01*
X86819750Y-88215581D01*
X86798926Y-88220797D01*
X86777691Y-88223947D01*
X86756250Y-88225000D01*
X86243750Y-88225000D01*
X86222309Y-88223947D01*
X86201074Y-88220797D01*
X86180250Y-88215581D01*
X86160038Y-88208349D01*
X86140632Y-88199170D01*
X86122219Y-88188134D01*
X86104976Y-88175346D01*
X86089070Y-88160930D01*
X86074654Y-88145024D01*
X86061866Y-88127781D01*
X86050830Y-88109368D01*
X86041651Y-88089962D01*
X86034419Y-88069750D01*
X86029203Y-88048926D01*
X86026053Y-88027691D01*
X86025000Y-88006250D01*
X86025000Y-87568750D01*
X86026053Y-87547309D01*
X86029203Y-87526074D01*
X86034419Y-87505250D01*
X86041651Y-87485038D01*
X86050830Y-87465632D01*
X86061866Y-87447219D01*
X86074654Y-87429976D01*
X86089070Y-87414070D01*
X86104976Y-87399654D01*
X86122219Y-87386866D01*
X86140632Y-87375830D01*
X86160038Y-87366651D01*
X86180250Y-87359419D01*
X86201074Y-87354203D01*
X86222309Y-87351053D01*
X86243750Y-87350000D01*
X86756250Y-87350000D01*
X86777691Y-87351053D01*
X86777691Y-87351053D01*
G37*
D12*
X86500000Y-87787500D03*
D11*
G36*
X86777691Y-85776053D02*
G01*
X86798926Y-85779203D01*
X86819750Y-85784419D01*
X86839962Y-85791651D01*
X86859368Y-85800830D01*
X86877781Y-85811866D01*
X86895024Y-85824654D01*
X86910930Y-85839070D01*
X86925346Y-85854976D01*
X86938134Y-85872219D01*
X86949170Y-85890632D01*
X86958349Y-85910038D01*
X86965581Y-85930250D01*
X86970797Y-85951074D01*
X86973947Y-85972309D01*
X86975000Y-85993750D01*
X86975000Y-86431250D01*
X86973947Y-86452691D01*
X86970797Y-86473926D01*
X86965581Y-86494750D01*
X86958349Y-86514962D01*
X86949170Y-86534368D01*
X86938134Y-86552781D01*
X86925346Y-86570024D01*
X86910930Y-86585930D01*
X86895024Y-86600346D01*
X86877781Y-86613134D01*
X86859368Y-86624170D01*
X86839962Y-86633349D01*
X86819750Y-86640581D01*
X86798926Y-86645797D01*
X86777691Y-86648947D01*
X86756250Y-86650000D01*
X86243750Y-86650000D01*
X86222309Y-86648947D01*
X86201074Y-86645797D01*
X86180250Y-86640581D01*
X86160038Y-86633349D01*
X86140632Y-86624170D01*
X86122219Y-86613134D01*
X86104976Y-86600346D01*
X86089070Y-86585930D01*
X86074654Y-86570024D01*
X86061866Y-86552781D01*
X86050830Y-86534368D01*
X86041651Y-86514962D01*
X86034419Y-86494750D01*
X86029203Y-86473926D01*
X86026053Y-86452691D01*
X86025000Y-86431250D01*
X86025000Y-85993750D01*
X86026053Y-85972309D01*
X86029203Y-85951074D01*
X86034419Y-85930250D01*
X86041651Y-85910038D01*
X86050830Y-85890632D01*
X86061866Y-85872219D01*
X86074654Y-85854976D01*
X86089070Y-85839070D01*
X86104976Y-85824654D01*
X86122219Y-85811866D01*
X86140632Y-85800830D01*
X86160038Y-85791651D01*
X86180250Y-85784419D01*
X86201074Y-85779203D01*
X86222309Y-85776053D01*
X86243750Y-85775000D01*
X86756250Y-85775000D01*
X86777691Y-85776053D01*
X86777691Y-85776053D01*
G37*
D12*
X86500000Y-86212500D03*
D11*
G36*
X99077691Y-96951053D02*
G01*
X99098926Y-96954203D01*
X99119750Y-96959419D01*
X99139962Y-96966651D01*
X99159368Y-96975830D01*
X99177781Y-96986866D01*
X99195024Y-96999654D01*
X99210930Y-97014070D01*
X99225346Y-97029976D01*
X99238134Y-97047219D01*
X99249170Y-97065632D01*
X99258349Y-97085038D01*
X99265581Y-97105250D01*
X99270797Y-97126074D01*
X99273947Y-97147309D01*
X99275000Y-97168750D01*
X99275000Y-97606250D01*
X99273947Y-97627691D01*
X99270797Y-97648926D01*
X99265581Y-97669750D01*
X99258349Y-97689962D01*
X99249170Y-97709368D01*
X99238134Y-97727781D01*
X99225346Y-97745024D01*
X99210930Y-97760930D01*
X99195024Y-97775346D01*
X99177781Y-97788134D01*
X99159368Y-97799170D01*
X99139962Y-97808349D01*
X99119750Y-97815581D01*
X99098926Y-97820797D01*
X99077691Y-97823947D01*
X99056250Y-97825000D01*
X98543750Y-97825000D01*
X98522309Y-97823947D01*
X98501074Y-97820797D01*
X98480250Y-97815581D01*
X98460038Y-97808349D01*
X98440632Y-97799170D01*
X98422219Y-97788134D01*
X98404976Y-97775346D01*
X98389070Y-97760930D01*
X98374654Y-97745024D01*
X98361866Y-97727781D01*
X98350830Y-97709368D01*
X98341651Y-97689962D01*
X98334419Y-97669750D01*
X98329203Y-97648926D01*
X98326053Y-97627691D01*
X98325000Y-97606250D01*
X98325000Y-97168750D01*
X98326053Y-97147309D01*
X98329203Y-97126074D01*
X98334419Y-97105250D01*
X98341651Y-97085038D01*
X98350830Y-97065632D01*
X98361866Y-97047219D01*
X98374654Y-97029976D01*
X98389070Y-97014070D01*
X98404976Y-96999654D01*
X98422219Y-96986866D01*
X98440632Y-96975830D01*
X98460038Y-96966651D01*
X98480250Y-96959419D01*
X98501074Y-96954203D01*
X98522309Y-96951053D01*
X98543750Y-96950000D01*
X99056250Y-96950000D01*
X99077691Y-96951053D01*
X99077691Y-96951053D01*
G37*
D12*
X98800000Y-97387500D03*
D11*
G36*
X99077691Y-95376053D02*
G01*
X99098926Y-95379203D01*
X99119750Y-95384419D01*
X99139962Y-95391651D01*
X99159368Y-95400830D01*
X99177781Y-95411866D01*
X99195024Y-95424654D01*
X99210930Y-95439070D01*
X99225346Y-95454976D01*
X99238134Y-95472219D01*
X99249170Y-95490632D01*
X99258349Y-95510038D01*
X99265581Y-95530250D01*
X99270797Y-95551074D01*
X99273947Y-95572309D01*
X99275000Y-95593750D01*
X99275000Y-96031250D01*
X99273947Y-96052691D01*
X99270797Y-96073926D01*
X99265581Y-96094750D01*
X99258349Y-96114962D01*
X99249170Y-96134368D01*
X99238134Y-96152781D01*
X99225346Y-96170024D01*
X99210930Y-96185930D01*
X99195024Y-96200346D01*
X99177781Y-96213134D01*
X99159368Y-96224170D01*
X99139962Y-96233349D01*
X99119750Y-96240581D01*
X99098926Y-96245797D01*
X99077691Y-96248947D01*
X99056250Y-96250000D01*
X98543750Y-96250000D01*
X98522309Y-96248947D01*
X98501074Y-96245797D01*
X98480250Y-96240581D01*
X98460038Y-96233349D01*
X98440632Y-96224170D01*
X98422219Y-96213134D01*
X98404976Y-96200346D01*
X98389070Y-96185930D01*
X98374654Y-96170024D01*
X98361866Y-96152781D01*
X98350830Y-96134368D01*
X98341651Y-96114962D01*
X98334419Y-96094750D01*
X98329203Y-96073926D01*
X98326053Y-96052691D01*
X98325000Y-96031250D01*
X98325000Y-95593750D01*
X98326053Y-95572309D01*
X98329203Y-95551074D01*
X98334419Y-95530250D01*
X98341651Y-95510038D01*
X98350830Y-95490632D01*
X98361866Y-95472219D01*
X98374654Y-95454976D01*
X98389070Y-95439070D01*
X98404976Y-95424654D01*
X98422219Y-95411866D01*
X98440632Y-95400830D01*
X98460038Y-95391651D01*
X98480250Y-95384419D01*
X98501074Y-95379203D01*
X98522309Y-95376053D01*
X98543750Y-95375000D01*
X99056250Y-95375000D01*
X99077691Y-95376053D01*
X99077691Y-95376053D01*
G37*
D12*
X98800000Y-95812500D03*
D11*
G36*
X86077691Y-102301053D02*
G01*
X86098926Y-102304203D01*
X86119750Y-102309419D01*
X86139962Y-102316651D01*
X86159368Y-102325830D01*
X86177781Y-102336866D01*
X86195024Y-102349654D01*
X86210930Y-102364070D01*
X86225346Y-102379976D01*
X86238134Y-102397219D01*
X86249170Y-102415632D01*
X86258349Y-102435038D01*
X86265581Y-102455250D01*
X86270797Y-102476074D01*
X86273947Y-102497309D01*
X86275000Y-102518750D01*
X86275000Y-102956250D01*
X86273947Y-102977691D01*
X86270797Y-102998926D01*
X86265581Y-103019750D01*
X86258349Y-103039962D01*
X86249170Y-103059368D01*
X86238134Y-103077781D01*
X86225346Y-103095024D01*
X86210930Y-103110930D01*
X86195024Y-103125346D01*
X86177781Y-103138134D01*
X86159368Y-103149170D01*
X86139962Y-103158349D01*
X86119750Y-103165581D01*
X86098926Y-103170797D01*
X86077691Y-103173947D01*
X86056250Y-103175000D01*
X85543750Y-103175000D01*
X85522309Y-103173947D01*
X85501074Y-103170797D01*
X85480250Y-103165581D01*
X85460038Y-103158349D01*
X85440632Y-103149170D01*
X85422219Y-103138134D01*
X85404976Y-103125346D01*
X85389070Y-103110930D01*
X85374654Y-103095024D01*
X85361866Y-103077781D01*
X85350830Y-103059368D01*
X85341651Y-103039962D01*
X85334419Y-103019750D01*
X85329203Y-102998926D01*
X85326053Y-102977691D01*
X85325000Y-102956250D01*
X85325000Y-102518750D01*
X85326053Y-102497309D01*
X85329203Y-102476074D01*
X85334419Y-102455250D01*
X85341651Y-102435038D01*
X85350830Y-102415632D01*
X85361866Y-102397219D01*
X85374654Y-102379976D01*
X85389070Y-102364070D01*
X85404976Y-102349654D01*
X85422219Y-102336866D01*
X85440632Y-102325830D01*
X85460038Y-102316651D01*
X85480250Y-102309419D01*
X85501074Y-102304203D01*
X85522309Y-102301053D01*
X85543750Y-102300000D01*
X86056250Y-102300000D01*
X86077691Y-102301053D01*
X86077691Y-102301053D01*
G37*
D12*
X85800000Y-102737500D03*
D11*
G36*
X86077691Y-100726053D02*
G01*
X86098926Y-100729203D01*
X86119750Y-100734419D01*
X86139962Y-100741651D01*
X86159368Y-100750830D01*
X86177781Y-100761866D01*
X86195024Y-100774654D01*
X86210930Y-100789070D01*
X86225346Y-100804976D01*
X86238134Y-100822219D01*
X86249170Y-100840632D01*
X86258349Y-100860038D01*
X86265581Y-100880250D01*
X86270797Y-100901074D01*
X86273947Y-100922309D01*
X86275000Y-100943750D01*
X86275000Y-101381250D01*
X86273947Y-101402691D01*
X86270797Y-101423926D01*
X86265581Y-101444750D01*
X86258349Y-101464962D01*
X86249170Y-101484368D01*
X86238134Y-101502781D01*
X86225346Y-101520024D01*
X86210930Y-101535930D01*
X86195024Y-101550346D01*
X86177781Y-101563134D01*
X86159368Y-101574170D01*
X86139962Y-101583349D01*
X86119750Y-101590581D01*
X86098926Y-101595797D01*
X86077691Y-101598947D01*
X86056250Y-101600000D01*
X85543750Y-101600000D01*
X85522309Y-101598947D01*
X85501074Y-101595797D01*
X85480250Y-101590581D01*
X85460038Y-101583349D01*
X85440632Y-101574170D01*
X85422219Y-101563134D01*
X85404976Y-101550346D01*
X85389070Y-101535930D01*
X85374654Y-101520024D01*
X85361866Y-101502781D01*
X85350830Y-101484368D01*
X85341651Y-101464962D01*
X85334419Y-101444750D01*
X85329203Y-101423926D01*
X85326053Y-101402691D01*
X85325000Y-101381250D01*
X85325000Y-100943750D01*
X85326053Y-100922309D01*
X85329203Y-100901074D01*
X85334419Y-100880250D01*
X85341651Y-100860038D01*
X85350830Y-100840632D01*
X85361866Y-100822219D01*
X85374654Y-100804976D01*
X85389070Y-100789070D01*
X85404976Y-100774654D01*
X85422219Y-100761866D01*
X85440632Y-100750830D01*
X85460038Y-100741651D01*
X85480250Y-100734419D01*
X85501074Y-100729203D01*
X85522309Y-100726053D01*
X85543750Y-100725000D01*
X86056250Y-100725000D01*
X86077691Y-100726053D01*
X86077691Y-100726053D01*
G37*
D12*
X85800000Y-101162500D03*
D11*
G36*
X73724504Y-81201204D02*
G01*
X73748773Y-81204804D01*
X73772571Y-81210765D01*
X73795671Y-81219030D01*
X73817849Y-81229520D01*
X73838893Y-81242133D01*
X73858598Y-81256747D01*
X73876777Y-81273223D01*
X73893253Y-81291402D01*
X73907867Y-81311107D01*
X73920480Y-81332151D01*
X73930970Y-81354329D01*
X73939235Y-81377429D01*
X73945196Y-81401227D01*
X73948796Y-81425496D01*
X73950000Y-81450000D01*
X73950000Y-82550000D01*
X73948796Y-82574504D01*
X73945196Y-82598773D01*
X73939235Y-82622571D01*
X73930970Y-82645671D01*
X73920480Y-82667849D01*
X73907867Y-82688893D01*
X73893253Y-82708598D01*
X73876777Y-82726777D01*
X73858598Y-82743253D01*
X73838893Y-82757867D01*
X73817849Y-82770480D01*
X73795671Y-82780970D01*
X73772571Y-82789235D01*
X73748773Y-82795196D01*
X73724504Y-82798796D01*
X73700000Y-82800000D01*
X70700000Y-82800000D01*
X70675496Y-82798796D01*
X70651227Y-82795196D01*
X70627429Y-82789235D01*
X70604329Y-82780970D01*
X70582151Y-82770480D01*
X70561107Y-82757867D01*
X70541402Y-82743253D01*
X70523223Y-82726777D01*
X70506747Y-82708598D01*
X70492133Y-82688893D01*
X70479520Y-82667849D01*
X70469030Y-82645671D01*
X70460765Y-82622571D01*
X70454804Y-82598773D01*
X70451204Y-82574504D01*
X70450000Y-82550000D01*
X70450000Y-81450000D01*
X70451204Y-81425496D01*
X70454804Y-81401227D01*
X70460765Y-81377429D01*
X70469030Y-81354329D01*
X70479520Y-81332151D01*
X70492133Y-81311107D01*
X70506747Y-81291402D01*
X70523223Y-81273223D01*
X70541402Y-81256747D01*
X70561107Y-81242133D01*
X70582151Y-81229520D01*
X70604329Y-81219030D01*
X70627429Y-81210765D01*
X70651227Y-81204804D01*
X70675496Y-81201204D01*
X70700000Y-81200000D01*
X73700000Y-81200000D01*
X73724504Y-81201204D01*
X73724504Y-81201204D01*
G37*
D13*
X72200000Y-82000000D03*
D11*
G36*
X79324504Y-81201204D02*
G01*
X79348773Y-81204804D01*
X79372571Y-81210765D01*
X79395671Y-81219030D01*
X79417849Y-81229520D01*
X79438893Y-81242133D01*
X79458598Y-81256747D01*
X79476777Y-81273223D01*
X79493253Y-81291402D01*
X79507867Y-81311107D01*
X79520480Y-81332151D01*
X79530970Y-81354329D01*
X79539235Y-81377429D01*
X79545196Y-81401227D01*
X79548796Y-81425496D01*
X79550000Y-81450000D01*
X79550000Y-82550000D01*
X79548796Y-82574504D01*
X79545196Y-82598773D01*
X79539235Y-82622571D01*
X79530970Y-82645671D01*
X79520480Y-82667849D01*
X79507867Y-82688893D01*
X79493253Y-82708598D01*
X79476777Y-82726777D01*
X79458598Y-82743253D01*
X79438893Y-82757867D01*
X79417849Y-82770480D01*
X79395671Y-82780970D01*
X79372571Y-82789235D01*
X79348773Y-82795196D01*
X79324504Y-82798796D01*
X79300000Y-82800000D01*
X76300000Y-82800000D01*
X76275496Y-82798796D01*
X76251227Y-82795196D01*
X76227429Y-82789235D01*
X76204329Y-82780970D01*
X76182151Y-82770480D01*
X76161107Y-82757867D01*
X76141402Y-82743253D01*
X76123223Y-82726777D01*
X76106747Y-82708598D01*
X76092133Y-82688893D01*
X76079520Y-82667849D01*
X76069030Y-82645671D01*
X76060765Y-82622571D01*
X76054804Y-82598773D01*
X76051204Y-82574504D01*
X76050000Y-82550000D01*
X76050000Y-81450000D01*
X76051204Y-81425496D01*
X76054804Y-81401227D01*
X76060765Y-81377429D01*
X76069030Y-81354329D01*
X76079520Y-81332151D01*
X76092133Y-81311107D01*
X76106747Y-81291402D01*
X76123223Y-81273223D01*
X76141402Y-81256747D01*
X76161107Y-81242133D01*
X76182151Y-81229520D01*
X76204329Y-81219030D01*
X76227429Y-81210765D01*
X76251227Y-81204804D01*
X76275496Y-81201204D01*
X76300000Y-81200000D01*
X79300000Y-81200000D01*
X79324504Y-81201204D01*
X79324504Y-81201204D01*
G37*
D13*
X77800000Y-82000000D03*
D11*
G36*
X97652691Y-92326053D02*
G01*
X97673926Y-92329203D01*
X97694750Y-92334419D01*
X97714962Y-92341651D01*
X97734368Y-92350830D01*
X97752781Y-92361866D01*
X97770024Y-92374654D01*
X97785930Y-92389070D01*
X97800346Y-92404976D01*
X97813134Y-92422219D01*
X97824170Y-92440632D01*
X97833349Y-92460038D01*
X97840581Y-92480250D01*
X97845797Y-92501074D01*
X97848947Y-92522309D01*
X97850000Y-92543750D01*
X97850000Y-93056250D01*
X97848947Y-93077691D01*
X97845797Y-93098926D01*
X97840581Y-93119750D01*
X97833349Y-93139962D01*
X97824170Y-93159368D01*
X97813134Y-93177781D01*
X97800346Y-93195024D01*
X97785930Y-93210930D01*
X97770024Y-93225346D01*
X97752781Y-93238134D01*
X97734368Y-93249170D01*
X97714962Y-93258349D01*
X97694750Y-93265581D01*
X97673926Y-93270797D01*
X97652691Y-93273947D01*
X97631250Y-93275000D01*
X97193750Y-93275000D01*
X97172309Y-93273947D01*
X97151074Y-93270797D01*
X97130250Y-93265581D01*
X97110038Y-93258349D01*
X97090632Y-93249170D01*
X97072219Y-93238134D01*
X97054976Y-93225346D01*
X97039070Y-93210930D01*
X97024654Y-93195024D01*
X97011866Y-93177781D01*
X97000830Y-93159368D01*
X96991651Y-93139962D01*
X96984419Y-93119750D01*
X96979203Y-93098926D01*
X96976053Y-93077691D01*
X96975000Y-93056250D01*
X96975000Y-92543750D01*
X96976053Y-92522309D01*
X96979203Y-92501074D01*
X96984419Y-92480250D01*
X96991651Y-92460038D01*
X97000830Y-92440632D01*
X97011866Y-92422219D01*
X97024654Y-92404976D01*
X97039070Y-92389070D01*
X97054976Y-92374654D01*
X97072219Y-92361866D01*
X97090632Y-92350830D01*
X97110038Y-92341651D01*
X97130250Y-92334419D01*
X97151074Y-92329203D01*
X97172309Y-92326053D01*
X97193750Y-92325000D01*
X97631250Y-92325000D01*
X97652691Y-92326053D01*
X97652691Y-92326053D01*
G37*
D12*
X97412500Y-92800000D03*
D11*
G36*
X99227691Y-92326053D02*
G01*
X99248926Y-92329203D01*
X99269750Y-92334419D01*
X99289962Y-92341651D01*
X99309368Y-92350830D01*
X99327781Y-92361866D01*
X99345024Y-92374654D01*
X99360930Y-92389070D01*
X99375346Y-92404976D01*
X99388134Y-92422219D01*
X99399170Y-92440632D01*
X99408349Y-92460038D01*
X99415581Y-92480250D01*
X99420797Y-92501074D01*
X99423947Y-92522309D01*
X99425000Y-92543750D01*
X99425000Y-93056250D01*
X99423947Y-93077691D01*
X99420797Y-93098926D01*
X99415581Y-93119750D01*
X99408349Y-93139962D01*
X99399170Y-93159368D01*
X99388134Y-93177781D01*
X99375346Y-93195024D01*
X99360930Y-93210930D01*
X99345024Y-93225346D01*
X99327781Y-93238134D01*
X99309368Y-93249170D01*
X99289962Y-93258349D01*
X99269750Y-93265581D01*
X99248926Y-93270797D01*
X99227691Y-93273947D01*
X99206250Y-93275000D01*
X98768750Y-93275000D01*
X98747309Y-93273947D01*
X98726074Y-93270797D01*
X98705250Y-93265581D01*
X98685038Y-93258349D01*
X98665632Y-93249170D01*
X98647219Y-93238134D01*
X98629976Y-93225346D01*
X98614070Y-93210930D01*
X98599654Y-93195024D01*
X98586866Y-93177781D01*
X98575830Y-93159368D01*
X98566651Y-93139962D01*
X98559419Y-93119750D01*
X98554203Y-93098926D01*
X98551053Y-93077691D01*
X98550000Y-93056250D01*
X98550000Y-92543750D01*
X98551053Y-92522309D01*
X98554203Y-92501074D01*
X98559419Y-92480250D01*
X98566651Y-92460038D01*
X98575830Y-92440632D01*
X98586866Y-92422219D01*
X98599654Y-92404976D01*
X98614070Y-92389070D01*
X98629976Y-92374654D01*
X98647219Y-92361866D01*
X98665632Y-92350830D01*
X98685038Y-92341651D01*
X98705250Y-92334419D01*
X98726074Y-92329203D01*
X98747309Y-92326053D01*
X98768750Y-92325000D01*
X99206250Y-92325000D01*
X99227691Y-92326053D01*
X99227691Y-92326053D01*
G37*
D12*
X98987500Y-92800000D03*
D21*
X101800000Y-96200000D03*
X103800000Y-96200000D03*
X105800000Y-96200000D03*
X107800000Y-96200000D03*
X109800000Y-96200000D03*
X111800000Y-96200000D03*
X113800000Y-96200000D03*
X115800000Y-96200000D03*
X115800000Y-112200000D03*
X113800000Y-112200000D03*
X111800000Y-112200000D03*
X109800000Y-112200000D03*
X107800000Y-112200000D03*
X105800000Y-112200000D03*
X103800000Y-112200000D03*
X101800000Y-112200000D03*
D22*
X82750000Y-87750000D03*
X80750000Y-88700000D03*
X80750000Y-86800000D03*
D11*
G36*
X101877691Y-88351053D02*
G01*
X101898926Y-88354203D01*
X101919750Y-88359419D01*
X101939962Y-88366651D01*
X101959368Y-88375830D01*
X101977781Y-88386866D01*
X101995024Y-88399654D01*
X102010930Y-88414070D01*
X102025346Y-88429976D01*
X102038134Y-88447219D01*
X102049170Y-88465632D01*
X102058349Y-88485038D01*
X102065581Y-88505250D01*
X102070797Y-88526074D01*
X102073947Y-88547309D01*
X102075000Y-88568750D01*
X102075000Y-89006250D01*
X102073947Y-89027691D01*
X102070797Y-89048926D01*
X102065581Y-89069750D01*
X102058349Y-89089962D01*
X102049170Y-89109368D01*
X102038134Y-89127781D01*
X102025346Y-89145024D01*
X102010930Y-89160930D01*
X101995024Y-89175346D01*
X101977781Y-89188134D01*
X101959368Y-89199170D01*
X101939962Y-89208349D01*
X101919750Y-89215581D01*
X101898926Y-89220797D01*
X101877691Y-89223947D01*
X101856250Y-89225000D01*
X101343750Y-89225000D01*
X101322309Y-89223947D01*
X101301074Y-89220797D01*
X101280250Y-89215581D01*
X101260038Y-89208349D01*
X101240632Y-89199170D01*
X101222219Y-89188134D01*
X101204976Y-89175346D01*
X101189070Y-89160930D01*
X101174654Y-89145024D01*
X101161866Y-89127781D01*
X101150830Y-89109368D01*
X101141651Y-89089962D01*
X101134419Y-89069750D01*
X101129203Y-89048926D01*
X101126053Y-89027691D01*
X101125000Y-89006250D01*
X101125000Y-88568750D01*
X101126053Y-88547309D01*
X101129203Y-88526074D01*
X101134419Y-88505250D01*
X101141651Y-88485038D01*
X101150830Y-88465632D01*
X101161866Y-88447219D01*
X101174654Y-88429976D01*
X101189070Y-88414070D01*
X101204976Y-88399654D01*
X101222219Y-88386866D01*
X101240632Y-88375830D01*
X101260038Y-88366651D01*
X101280250Y-88359419D01*
X101301074Y-88354203D01*
X101322309Y-88351053D01*
X101343750Y-88350000D01*
X101856250Y-88350000D01*
X101877691Y-88351053D01*
X101877691Y-88351053D01*
G37*
D12*
X101600000Y-88787500D03*
D11*
G36*
X101877691Y-86776053D02*
G01*
X101898926Y-86779203D01*
X101919750Y-86784419D01*
X101939962Y-86791651D01*
X101959368Y-86800830D01*
X101977781Y-86811866D01*
X101995024Y-86824654D01*
X102010930Y-86839070D01*
X102025346Y-86854976D01*
X102038134Y-86872219D01*
X102049170Y-86890632D01*
X102058349Y-86910038D01*
X102065581Y-86930250D01*
X102070797Y-86951074D01*
X102073947Y-86972309D01*
X102075000Y-86993750D01*
X102075000Y-87431250D01*
X102073947Y-87452691D01*
X102070797Y-87473926D01*
X102065581Y-87494750D01*
X102058349Y-87514962D01*
X102049170Y-87534368D01*
X102038134Y-87552781D01*
X102025346Y-87570024D01*
X102010930Y-87585930D01*
X101995024Y-87600346D01*
X101977781Y-87613134D01*
X101959368Y-87624170D01*
X101939962Y-87633349D01*
X101919750Y-87640581D01*
X101898926Y-87645797D01*
X101877691Y-87648947D01*
X101856250Y-87650000D01*
X101343750Y-87650000D01*
X101322309Y-87648947D01*
X101301074Y-87645797D01*
X101280250Y-87640581D01*
X101260038Y-87633349D01*
X101240632Y-87624170D01*
X101222219Y-87613134D01*
X101204976Y-87600346D01*
X101189070Y-87585930D01*
X101174654Y-87570024D01*
X101161866Y-87552781D01*
X101150830Y-87534368D01*
X101141651Y-87514962D01*
X101134419Y-87494750D01*
X101129203Y-87473926D01*
X101126053Y-87452691D01*
X101125000Y-87431250D01*
X101125000Y-86993750D01*
X101126053Y-86972309D01*
X101129203Y-86951074D01*
X101134419Y-86930250D01*
X101141651Y-86910038D01*
X101150830Y-86890632D01*
X101161866Y-86872219D01*
X101174654Y-86854976D01*
X101189070Y-86839070D01*
X101204976Y-86824654D01*
X101222219Y-86811866D01*
X101240632Y-86800830D01*
X101260038Y-86791651D01*
X101280250Y-86784419D01*
X101301074Y-86779203D01*
X101322309Y-86776053D01*
X101343750Y-86775000D01*
X101856250Y-86775000D01*
X101877691Y-86776053D01*
X101877691Y-86776053D01*
G37*
D12*
X101600000Y-87212500D03*
D11*
G36*
X82777691Y-84526053D02*
G01*
X82798926Y-84529203D01*
X82819750Y-84534419D01*
X82839962Y-84541651D01*
X82859368Y-84550830D01*
X82877781Y-84561866D01*
X82895024Y-84574654D01*
X82910930Y-84589070D01*
X82925346Y-84604976D01*
X82938134Y-84622219D01*
X82949170Y-84640632D01*
X82958349Y-84660038D01*
X82965581Y-84680250D01*
X82970797Y-84701074D01*
X82973947Y-84722309D01*
X82975000Y-84743750D01*
X82975000Y-85256250D01*
X82973947Y-85277691D01*
X82970797Y-85298926D01*
X82965581Y-85319750D01*
X82958349Y-85339962D01*
X82949170Y-85359368D01*
X82938134Y-85377781D01*
X82925346Y-85395024D01*
X82910930Y-85410930D01*
X82895024Y-85425346D01*
X82877781Y-85438134D01*
X82859368Y-85449170D01*
X82839962Y-85458349D01*
X82819750Y-85465581D01*
X82798926Y-85470797D01*
X82777691Y-85473947D01*
X82756250Y-85475000D01*
X82318750Y-85475000D01*
X82297309Y-85473947D01*
X82276074Y-85470797D01*
X82255250Y-85465581D01*
X82235038Y-85458349D01*
X82215632Y-85449170D01*
X82197219Y-85438134D01*
X82179976Y-85425346D01*
X82164070Y-85410930D01*
X82149654Y-85395024D01*
X82136866Y-85377781D01*
X82125830Y-85359368D01*
X82116651Y-85339962D01*
X82109419Y-85319750D01*
X82104203Y-85298926D01*
X82101053Y-85277691D01*
X82100000Y-85256250D01*
X82100000Y-84743750D01*
X82101053Y-84722309D01*
X82104203Y-84701074D01*
X82109419Y-84680250D01*
X82116651Y-84660038D01*
X82125830Y-84640632D01*
X82136866Y-84622219D01*
X82149654Y-84604976D01*
X82164070Y-84589070D01*
X82179976Y-84574654D01*
X82197219Y-84561866D01*
X82215632Y-84550830D01*
X82235038Y-84541651D01*
X82255250Y-84534419D01*
X82276074Y-84529203D01*
X82297309Y-84526053D01*
X82318750Y-84525000D01*
X82756250Y-84525000D01*
X82777691Y-84526053D01*
X82777691Y-84526053D01*
G37*
D12*
X82537500Y-85000000D03*
D11*
G36*
X81202691Y-84526053D02*
G01*
X81223926Y-84529203D01*
X81244750Y-84534419D01*
X81264962Y-84541651D01*
X81284368Y-84550830D01*
X81302781Y-84561866D01*
X81320024Y-84574654D01*
X81335930Y-84589070D01*
X81350346Y-84604976D01*
X81363134Y-84622219D01*
X81374170Y-84640632D01*
X81383349Y-84660038D01*
X81390581Y-84680250D01*
X81395797Y-84701074D01*
X81398947Y-84722309D01*
X81400000Y-84743750D01*
X81400000Y-85256250D01*
X81398947Y-85277691D01*
X81395797Y-85298926D01*
X81390581Y-85319750D01*
X81383349Y-85339962D01*
X81374170Y-85359368D01*
X81363134Y-85377781D01*
X81350346Y-85395024D01*
X81335930Y-85410930D01*
X81320024Y-85425346D01*
X81302781Y-85438134D01*
X81284368Y-85449170D01*
X81264962Y-85458349D01*
X81244750Y-85465581D01*
X81223926Y-85470797D01*
X81202691Y-85473947D01*
X81181250Y-85475000D01*
X80743750Y-85475000D01*
X80722309Y-85473947D01*
X80701074Y-85470797D01*
X80680250Y-85465581D01*
X80660038Y-85458349D01*
X80640632Y-85449170D01*
X80622219Y-85438134D01*
X80604976Y-85425346D01*
X80589070Y-85410930D01*
X80574654Y-85395024D01*
X80561866Y-85377781D01*
X80550830Y-85359368D01*
X80541651Y-85339962D01*
X80534419Y-85319750D01*
X80529203Y-85298926D01*
X80526053Y-85277691D01*
X80525000Y-85256250D01*
X80525000Y-84743750D01*
X80526053Y-84722309D01*
X80529203Y-84701074D01*
X80534419Y-84680250D01*
X80541651Y-84660038D01*
X80550830Y-84640632D01*
X80561866Y-84622219D01*
X80574654Y-84604976D01*
X80589070Y-84589070D01*
X80604976Y-84574654D01*
X80622219Y-84561866D01*
X80640632Y-84550830D01*
X80660038Y-84541651D01*
X80680250Y-84534419D01*
X80701074Y-84529203D01*
X80722309Y-84526053D01*
X80743750Y-84525000D01*
X81181250Y-84525000D01*
X81202691Y-84526053D01*
X81202691Y-84526053D01*
G37*
D12*
X80962500Y-85000000D03*
D11*
G36*
X82777691Y-90026053D02*
G01*
X82798926Y-90029203D01*
X82819750Y-90034419D01*
X82839962Y-90041651D01*
X82859368Y-90050830D01*
X82877781Y-90061866D01*
X82895024Y-90074654D01*
X82910930Y-90089070D01*
X82925346Y-90104976D01*
X82938134Y-90122219D01*
X82949170Y-90140632D01*
X82958349Y-90160038D01*
X82965581Y-90180250D01*
X82970797Y-90201074D01*
X82973947Y-90222309D01*
X82975000Y-90243750D01*
X82975000Y-90756250D01*
X82973947Y-90777691D01*
X82970797Y-90798926D01*
X82965581Y-90819750D01*
X82958349Y-90839962D01*
X82949170Y-90859368D01*
X82938134Y-90877781D01*
X82925346Y-90895024D01*
X82910930Y-90910930D01*
X82895024Y-90925346D01*
X82877781Y-90938134D01*
X82859368Y-90949170D01*
X82839962Y-90958349D01*
X82819750Y-90965581D01*
X82798926Y-90970797D01*
X82777691Y-90973947D01*
X82756250Y-90975000D01*
X82318750Y-90975000D01*
X82297309Y-90973947D01*
X82276074Y-90970797D01*
X82255250Y-90965581D01*
X82235038Y-90958349D01*
X82215632Y-90949170D01*
X82197219Y-90938134D01*
X82179976Y-90925346D01*
X82164070Y-90910930D01*
X82149654Y-90895024D01*
X82136866Y-90877781D01*
X82125830Y-90859368D01*
X82116651Y-90839962D01*
X82109419Y-90819750D01*
X82104203Y-90798926D01*
X82101053Y-90777691D01*
X82100000Y-90756250D01*
X82100000Y-90243750D01*
X82101053Y-90222309D01*
X82104203Y-90201074D01*
X82109419Y-90180250D01*
X82116651Y-90160038D01*
X82125830Y-90140632D01*
X82136866Y-90122219D01*
X82149654Y-90104976D01*
X82164070Y-90089070D01*
X82179976Y-90074654D01*
X82197219Y-90061866D01*
X82215632Y-90050830D01*
X82235038Y-90041651D01*
X82255250Y-90034419D01*
X82276074Y-90029203D01*
X82297309Y-90026053D01*
X82318750Y-90025000D01*
X82756250Y-90025000D01*
X82777691Y-90026053D01*
X82777691Y-90026053D01*
G37*
D12*
X82537500Y-90500000D03*
D11*
G36*
X81202691Y-90026053D02*
G01*
X81223926Y-90029203D01*
X81244750Y-90034419D01*
X81264962Y-90041651D01*
X81284368Y-90050830D01*
X81302781Y-90061866D01*
X81320024Y-90074654D01*
X81335930Y-90089070D01*
X81350346Y-90104976D01*
X81363134Y-90122219D01*
X81374170Y-90140632D01*
X81383349Y-90160038D01*
X81390581Y-90180250D01*
X81395797Y-90201074D01*
X81398947Y-90222309D01*
X81400000Y-90243750D01*
X81400000Y-90756250D01*
X81398947Y-90777691D01*
X81395797Y-90798926D01*
X81390581Y-90819750D01*
X81383349Y-90839962D01*
X81374170Y-90859368D01*
X81363134Y-90877781D01*
X81350346Y-90895024D01*
X81335930Y-90910930D01*
X81320024Y-90925346D01*
X81302781Y-90938134D01*
X81284368Y-90949170D01*
X81264962Y-90958349D01*
X81244750Y-90965581D01*
X81223926Y-90970797D01*
X81202691Y-90973947D01*
X81181250Y-90975000D01*
X80743750Y-90975000D01*
X80722309Y-90973947D01*
X80701074Y-90970797D01*
X80680250Y-90965581D01*
X80660038Y-90958349D01*
X80640632Y-90949170D01*
X80622219Y-90938134D01*
X80604976Y-90925346D01*
X80589070Y-90910930D01*
X80574654Y-90895024D01*
X80561866Y-90877781D01*
X80550830Y-90859368D01*
X80541651Y-90839962D01*
X80534419Y-90819750D01*
X80529203Y-90798926D01*
X80526053Y-90777691D01*
X80525000Y-90756250D01*
X80525000Y-90243750D01*
X80526053Y-90222309D01*
X80529203Y-90201074D01*
X80534419Y-90180250D01*
X80541651Y-90160038D01*
X80550830Y-90140632D01*
X80561866Y-90122219D01*
X80574654Y-90104976D01*
X80589070Y-90089070D01*
X80604976Y-90074654D01*
X80622219Y-90061866D01*
X80640632Y-90050830D01*
X80660038Y-90041651D01*
X80680250Y-90034419D01*
X80701074Y-90029203D01*
X80722309Y-90026053D01*
X80743750Y-90025000D01*
X81181250Y-90025000D01*
X81202691Y-90026053D01*
X81202691Y-90026053D01*
G37*
D12*
X80962500Y-90500000D03*
M02*
